<?xml version="1.0" encoding="UTF-8" standalone="no"?><svg xmlns="http://www.w3.org/2000/svg" xmlns:xlink="http://www.w3.org/1999/xlink" contentScriptType="application/ecmascript" contentStyleType="text/css" height="809px" preserveAspectRatio="none" style="width:1020px;height:809px;background:#FFFFFF;" version="1.1" viewBox="0 0 1020 809" width="1020px" zoomAndPan="magnify"><defs><filter height="300%" id="f1slzj0fk81iyl" width="300%" x="-1" y="-1"><feGaussianBlur result="blurOut" stdDeviation="2.0"/><feColorMatrix in="blurOut" result="blurOut2" type="matrix" values="0 0 0 0 0 0 0 0 0 0 0 0 0 0 0 0 0 0 .4 0"/><feOffset dx="4.0" dy="4.0" in="blurOut2" result="blurOut3"/><feBlend in="SourceGraphic" in2="blurOut3" mode="normal"/></filter></defs><g><!--MD5=[b6dbecdf7c3fabd2b0f4f7e2913bcfc9]
cluster feature--><rect fill="#F5DEB3" filter="url(#f1slzj0fk81iyl)" height="129" style="stroke:#000000;stroke-width:1.5;" width="291" x="609.925" y="7"/><text fill="#000000" font-family="sans-serif" font-size="14" font-style="italic" lengthAdjust="spacing" textLength="67" x="721.925" y="21.9951">«Branch»</text><text fill="#000000" font-family="sans-serif" font-size="14" font-weight="bold" lengthAdjust="spacing" textLength="72" x="719.425" y="38.292">feature/x</text><!--MD5=[41c7305037531e8b8f8d341ce85fbd35]
cluster master--><rect fill="#F5DEB3" filter="url(#f1slzj0fk81iyl)" height="129" style="stroke:#000000;stroke-width:1.5;" width="309" x="389.925" y="216"/><text fill="#000000" font-family="sans-serif" font-size="14" font-style="italic" lengthAdjust="spacing" textLength="67" x="510.925" y="230.9951">«Branch»</text><text fill="#000000" font-family="sans-serif" font-size="14" font-weight="bold" lengthAdjust="spacing" textLength="55" x="516.925" y="247.292">master</text><!--MD5=[77b3d9609c746040fad605e65db5ebee]
cluster dev--><rect fill="#F5DEB3" filter="url(#f1slzj0fk81iyl)" height="146" style="stroke:#000000;stroke-width:1.5;" width="285" x="723.925" y="425"/><text fill="#000000" font-family="sans-serif" font-size="14" font-style="italic" lengthAdjust="spacing" textLength="67" x="832.925" y="439.9951">«Branch»</text><text fill="#000000" font-family="sans-serif" font-size="14" font-weight="bold" lengthAdjust="spacing" textLength="173" x="779.925" y="456.292">devops/deploy-to-dev</text><!--MD5=[349479f9f536b61417d15b6a92864c56]
cluster no--><rect fill="#F5DEB3" filter="url(#f1slzj0fk81iyl)" height="146" style="stroke:#000000;stroke-width:1.5;" width="279" x="41.925" y="651"/><text fill="#000000" font-family="sans-serif" font-size="14" font-style="italic" lengthAdjust="spacing" textLength="67" x="147.925" y="665.9951">«Branch»</text><text fill="#000000" font-family="sans-serif" font-size="14" font-weight="bold" lengthAdjust="spacing" textLength="164" x="99.425" y="682.292">devops/deploy-to-no</text><!--MD5=[b2d1794cc2046ab2b238f9469c9a415e]
cluster tcc--><rect fill="#F5DEB3" filter="url(#f1slzj0fk81iyl)" height="146" style="stroke:#000000;stroke-width:1.5;" width="281" x="428.925" y="651"/><text fill="#000000" font-family="sans-serif" font-size="14" font-style="italic" lengthAdjust="spacing" textLength="67" x="535.925" y="665.9951">«Branch»</text><text fill="#000000" font-family="sans-serif" font-size="14" font-weight="bold" lengthAdjust="spacing" textLength="168" x="485.425" y="682.292">devops/deploy-to-tcc</text><!--MD5=[6af4032e6b305ffac0dfa6c204e522c9]
cluster prod--><rect fill="#F5DEB3" filter="url(#f1slzj0fk81iyl)" height="129" style="stroke:#000000;stroke-width:1.5;" width="327" x="153.925" y="433.5"/><text fill="#000000" font-family="sans-serif" font-size="14" font-style="italic" lengthAdjust="spacing" textLength="67" x="283.925" y="448.4951">«Branch»</text><text fill="#000000" font-family="sans-serif" font-size="14" font-weight="bold" lengthAdjust="spacing" textLength="230" x="202.425" y="464.792">devops/deploy-to-production</text><!--MD5=[416e523f4633fffd84ee14f96cb2e810]
entity Development is done here--><rect fill="#FEFECE" filter="url(#f1slzj0fk81iyl)" height="46.2969" style="stroke:#A80036;stroke-width:1.5;" width="224" x="652.925" y="66"/><rect fill="#FEFECE" height="10" style="stroke:#A80036;stroke-width:1.5;" width="15" x="856.925" y="71"/><rect fill="#FEFECE" height="2" style="stroke:#A80036;stroke-width:1.5;" width="4" x="854.925" y="73"/><rect fill="#FEFECE" height="2" style="stroke:#A80036;stroke-width:1.5;" width="4" x="854.925" y="77"/><text fill="#000000" font-family="sans-serif" font-size="14" lengthAdjust="spacing" textLength="184" x="667.925" y="98.9951">Development is done here</text><!--MD5=[5061c87e2d0df21f0ce416854a2ce0e4]
entity Development is merged here--><rect fill="#FEFECE" filter="url(#f1slzj0fk81iyl)" height="46.2969" style="stroke:#A80036;stroke-width:1.5;" width="242" x="432.925" y="275"/><rect fill="#FEFECE" height="10" style="stroke:#A80036;stroke-width:1.5;" width="15" x="654.925" y="280"/><rect fill="#FEFECE" height="2" style="stroke:#A80036;stroke-width:1.5;" width="4" x="652.925" y="282"/><rect fill="#FEFECE" height="2" style="stroke:#A80036;stroke-width:1.5;" width="4" x="652.925" y="286"/><text fill="#000000" font-family="sans-serif" font-size="14" lengthAdjust="spacing" textLength="202" x="447.925" y="307.9951">Development is merged here</text><!--MD5=[45a5a3958d714d457868c4378b78df51]
entity Deploy to dev.statbus.org--><rect fill="#FEFECE" filter="url(#f1slzj0fk81iyl)" height="62.5938" style="stroke:#A80036;stroke-width:1.5;" width="218" x="766.925" y="484"/><rect fill="#FEFECE" height="10" style="stroke:#A80036;stroke-width:1.5;" width="15" x="964.925" y="489"/><rect fill="#FEFECE" height="2" style="stroke:#A80036;stroke-width:1.5;" width="4" x="962.925" y="491"/><rect fill="#FEFECE" height="2" style="stroke:#A80036;stroke-width:1.5;" width="4" x="962.925" y="495"/><text fill="#000000" font-family="sans-serif" font-size="14" font-style="italic" lengthAdjust="spacing" textLength="105" x="818.425" y="516.9951">«Environment»</text><text fill="#000000" font-family="sans-serif" font-size="14" lengthAdjust="spacing" textLength="178" x="781.925" y="533.292">Deploy to dev.statbus.org</text><!--MD5=[afb8754e08fa5c8b325619db12440928]
entity Deploy to no.statbus.org--><rect fill="#FEFECE" filter="url(#f1slzj0fk81iyl)" height="62.5938" style="stroke:#A80036;stroke-width:1.5;" width="211" x="85.425" y="710"/><rect fill="#FEFECE" height="10" style="stroke:#A80036;stroke-width:1.5;" width="15" x="276.425" y="715"/><rect fill="#FEFECE" height="2" style="stroke:#A80036;stroke-width:1.5;" width="4" x="274.425" y="717"/><rect fill="#FEFECE" height="2" style="stroke:#A80036;stroke-width:1.5;" width="4" x="274.425" y="721"/><text fill="#000000" font-family="sans-serif" font-size="14" font-style="italic" lengthAdjust="spacing" textLength="105" x="133.425" y="742.9951">«Environment»</text><text fill="#000000" font-family="sans-serif" font-size="14" lengthAdjust="spacing" textLength="171" x="100.425" y="759.292">Deploy to no.statbus.org</text><!--MD5=[7072c7228abe102bdd0b736d320c7679]
entity Deploy to tcc.statbus.org--><rect fill="#FEFECE" filter="url(#f1slzj0fk81iyl)" height="62.5938" style="stroke:#A80036;stroke-width:1.5;" width="214" x="471.925" y="710"/><rect fill="#FEFECE" height="10" style="stroke:#A80036;stroke-width:1.5;" width="15" x="665.925" y="715"/><rect fill="#FEFECE" height="2" style="stroke:#A80036;stroke-width:1.5;" width="4" x="663.925" y="717"/><rect fill="#FEFECE" height="2" style="stroke:#A80036;stroke-width:1.5;" width="4" x="663.925" y="721"/><text fill="#000000" font-family="sans-serif" font-size="14" font-style="italic" lengthAdjust="spacing" textLength="105" x="521.425" y="742.9951">«Environment»</text><text fill="#000000" font-family="sans-serif" font-size="14" lengthAdjust="spacing" textLength="174" x="486.925" y="759.292">Deploy to tcc.statbus.org</text><!--MD5=[6b34392dc9d2db3ec3c28e3f6413f05b]
entity Intermediate Production Branch--><rect fill="#FEFECE" filter="url(#f1slzj0fk81iyl)" height="46.2969" style="stroke:#A80036;stroke-width:1.5;" width="259" x="197.425" y="492.5"/><rect fill="#FEFECE" height="10" style="stroke:#A80036;stroke-width:1.5;" width="15" x="436.425" y="497.5"/><rect fill="#FEFECE" height="2" style="stroke:#A80036;stroke-width:1.5;" width="4" x="434.425" y="499.5"/><rect fill="#FEFECE" height="2" style="stroke:#A80036;stroke-width:1.5;" width="4" x="434.425" y="503.5"/><text fill="#000000" font-family="sans-serif" font-size="14" lengthAdjust="spacing" textLength="219" x="212.425" y="525.4951">Intermediate Production Branch</text><!--MD5=[f17b8a66c28d29461cc9d583ed462604]
link feature to dev--><path d="M628.9483,136.1948 C628.9901,136.2992 629.0321,136.4036 629.0742,136.508 C629.2428,136.9254 629.4137,137.342 629.587,137.7577 C630.2804,139.4204 631.0124,141.0677 631.7852,142.6883 C633.3306,145.9295 635.0388,149.0638 636.925,152 C654.265,179.02 672.775,173.51 690.925,200 C736.215,266.14 739.695,290.11 753.925,369 C756.445,383 756.455,387.01 753.925,401 C753.245,404.74 751.925,405.34 750.925,409 C750.1469,411.8263 749.3926,414.7041 748.6621,417.6164 C748.2969,419.0726 747.9376,420.5374 747.5843,422.0087 C747.4077,422.7443 747.2325,423.4816 747.0588,424.2202 C747.0154,424.4049 746.9721,424.5896 746.9289,424.7744 " fill="none" id="feature-to-dev" style="stroke:#A80036;stroke-width:1.0;"/><polygon fill="#A80036" points="746.9289,424.7744,752.8736,416.922,748.0677,419.9059,745.0838,415.0999,746.9289,424.7744" style="stroke:#A80036;stroke-width:1.0;"/><text fill="#0000FF" font-family="sans-serif" font-size="13" font-weight="bold" lengthAdjust="spacing" textLength="111" x="762.425" y="295.0669">Manual Trigger</text><text fill="#000000" font-family="sans-serif" font-size="13" lengthAdjust="spacing" textLength="130" x="752.925" y="310.1997">(push for PR testing)</text><!--MD5=[7f01f73924b5596debb348e42182f814]
link feature to master--><path d="M609.5594,91.8698 C609.2788,91.9368 608.9918,92.0056 608.6985,92.0764 C608.1118,92.2179 607.4999,92.3669 606.8636,92.5236 C605.5909,92.837 604.2205,93.181 602.7587,93.5563 C599.8352,94.3069 596.5464,95.183 592.9439,96.1906 C578.5341,100.2213 559.1056,106.3575 537.9613,114.995 C495.6725,132.27 446.52,159.55 416.925,200 C413.7325,204.3625 411.038,209.12 408.7672,214.1093 C408.4833,214.7329 408.2061,215.3602 407.9354,215.9908 " fill="none" id="feature-to-master" style="stroke:#A80036;stroke-width:1.0;"/><polygon fill="#A80036" points="407.9354,215.9908,415.1617,209.299,409.908,211.3964,407.8107,206.1427,407.9354,215.9908" style="stroke:#A80036;stroke-width:1.0;"/><text fill="#0000FF" font-family="sans-serif" font-size="13" font-weight="bold" lengthAdjust="spacing" textLength="111" x="456.925" y="173.0669">Manual Trigger</text><text fill="#000000" font-family="sans-serif" font-size="13" lengthAdjust="spacing" textLength="60" x="482.425" y="188.1997">Merge PR</text><!--MD5=[d9ea3000b4a2ce431f3870590d9b0972]
link master to dev--><path d="M404.9222,345.0339 C405.0128,345.2329 405.1044,345.4313 405.1973,345.6292 C405.3829,346.0249 405.573,346.4182 405.7676,346.8089 C406.157,347.5903 406.5647,348.3611 406.9915,349.1195 C407.8452,350.6363 408.7756,352.1032 409.7893,353.5046 C411.8167,356.3072 414.1775,358.8475 416.925,361 C429.355,370.75 544.315,362.97 558.925,369 C578.705,377.17 575.405,392.2 594.925,401 C621.855,413.15 635.725,393.57 660.925,409 C684.645,423.53 702.215,449.315 713.9425,471.755 C716.8744,477.365 719.4411,482.7659 721.6475,487.7297 C722.1991,488.9706 722.7281,490.1842 723.2347,491.367 C723.3614,491.6626 723.4867,491.9564 723.6105,492.2482 C723.6724,492.394 723.734,492.5394 723.7952,492.6843 " fill="none" id="master-to-dev" style="stroke:#A80036;stroke-width:1.0;"/><polygon fill="#A80036" points="723.7952,492.6843,723.9765,482.8371,721.849,488.0787,716.6074,485.9512,723.7952,492.6843" style="stroke:#A80036;stroke-width:1.0;"/><text fill="#008000" font-family="sans-serif" font-size="13" font-weight="bold" lengthAdjust="spacing" textLength="133" x="605.925" y="382.0669">Automatic Trigger</text><text fill="#000000" font-family="sans-serif" font-size="13" lengthAdjust="spacing" textLength="153" x="595.925" y="397.1997">(push on every commit)</text><!--MD5=[4b72992744d0e0c725d6736f49569906]
link master to prod--><path d="M389.9086,329.8404 C389.8025,330.1582 389.6953,330.4773 389.5868,330.7977 C389.3698,331.4385 389.148,332.0846 388.9213,332.7355 C388.0143,335.3389 387.0283,338.0191 385.9588,340.7475 C377.4025,362.575 363.5,387.495 341.925,401 C326.735,410.5 194.375,397.17 180.925,409 C176.5213,412.87 172.9134,417.385 169.9724,422.3277 C168.5018,424.799 167.198,427.3773 166.0447,430.0353 C165.7563,430.6998 165.4774,431.3693 165.2076,432.0433 C165.0728,432.3803 164.9402,432.7185 164.8098,433.0578 " fill="none" id="master-to-prod" style="stroke:#A80036;stroke-width:1.0;"/><polygon fill="#A80036" points="164.8098,433.0578,171.7714,426.091,166.603,428.3904,164.3036,423.2219,164.8098,433.0578" style="stroke:#A80036;stroke-width:1.0;"/><text fill="#0000FF" font-family="sans-serif" font-size="13" font-weight="bold" lengthAdjust="spacing" textLength="111" x="383.425" y="382.0669">Manual Trigger</text><text fill="#000000" font-family="sans-serif" font-size="13" lengthAdjust="spacing" textLength="134" x="371.925" y="397.1997">(push for production)</text><!--MD5=[4b72992744d0e0c725d6736f49569906]
link master to prod--><path d="M389.6581,299.5024 C389.4611,299.5152 389.2609,299.5283 389.0574,299.5416 C388.6505,299.5683 388.2307,299.5961 387.7982,299.6248 C386.9331,299.6824 386.0173,299.7441 385.0526,299.8102 C377.3349,300.3387 366.4866,301.1427 353.447,302.2734 C327.3678,304.535 292.5231,308.1038 256.4263,313.39 C184.2325,323.9625 107.03,341.405 84.925,369 C76.025,380.1 75.695,390.18 84.925,401 C99.525,418.12 118.295,393.83 134.925,409 C139.325,413.0138 143.0509,417.637 146.2021,422.6591 C147.7776,425.1701 149.2095,427.7808 150.5101,430.4649 C151.1604,431.8069 151.7778,433.1673 152.364,434.5427 C152.6571,435.2304 152.9424,435.9219 153.22,436.6167 C153.3589,436.9641 153.4958,437.3123 153.6308,437.6614 C153.6983,437.8359 153.7654,438.0106 153.832,438.1855 " fill="none" id="master-to-prod-1" style="stroke:#A80036;stroke-width:1.0;"/><polygon fill="#A80036" points="153.832,438.1855,154.3683,428.3513,152.0531,433.5126,146.8917,431.1974,153.832,438.1855" style="stroke:#A80036;stroke-width:1.0;"/><text fill="#800080" font-family="sans-serif" font-size="13" font-weight="bold" lengthAdjust="spacing" textLength="251" x="85.925" y="382.0669">Weekly Trigger (Monday Morning)</text><text fill="#000000" font-family="sans-serif" font-size="13" lengthAdjust="spacing" textLength="113" x="154.925" y="397.1997">(regular releases)</text><!--MD5=[2194991638a8c87a92fde06ab894a2f7]
link prod to no--><path d="M153.9036,555.7825 C152.5616,559.5739 150.9993,563.3868 149.1814,567.092 C145.5456,574.5025 140.8875,581.4825 134.925,587 C125.735,595.5 118.635,588.53 107.925,595 C86.665,607.83 80.285,612.92 68.925,635 C67.5831,637.6063 66.3344,640.2911 65.1725,643.0351 C64.5915,644.4071 64.0322,645.7939 63.4939,647.1929 C63.2247,647.8925 62.9607,648.5951 62.7019,649.3005 C62.5725,649.6532 62.4443,650.0066 62.3175,650.3607 C62.254,650.5377 62.1909,650.7149 62.1281,650.8922 " fill="none" id="prod-to-no" style="stroke:#A80036;stroke-width:1.0;"/><polygon fill="#A80036" points="62.1281,650.8922,68.9029,643.7437,63.7971,646.179,61.3618,641.0732,62.1281,650.8922" style="stroke:#A80036;stroke-width:1.0;"/><text fill="#008000" font-family="sans-serif" font-size="13" font-weight="bold" lengthAdjust="spacing" textLength="133" x="128.925" y="608.0669">Automatic Trigger</text><text fill="#000000" font-family="sans-serif" font-size="13" lengthAdjust="spacing" textLength="173" x="108.925" y="623.1997">(deploys to no.statbus.org)</text><!--MD5=[efafed1987a37e24699dc6dd9e7e19fe]
link prod to tcc--><path d="M165.825,562.7416 C165.862,562.8591 165.8993,562.9765 165.9368,563.0938 C166.0119,563.3285 166.0882,563.5628 166.1657,563.7968 C166.3205,564.2647 166.4801,564.7312 166.6444,565.1959 C166.973,566.1253 167.3209,567.0478 167.6889,567.9611 C170.6331,575.2675 174.87,581.9875 180.925,587 C199.115,602.06 265.375,585.31 286.925,595 C307.765,604.375 344.4275,639.7675 376.2888,673.2963 C392.2194,690.0606 406.9497,706.3591 417.9017,718.7064 C420.6397,721.7932 423.1416,724.6331 425.367,727.1716 C426.4798,728.4409 427.5234,729.6348 428.4928,730.7465 C428.614,730.8855 428.7341,731.0232 428.8529,731.1596 " fill="none" id="prod-to-tcc" style="stroke:#A80036;stroke-width:1.0;"/><polygon fill="#A80036" points="428.8529,731.1596,425.9555,721.7465,425.5679,727.3901,419.9244,727.0025,428.8529,731.1596" style="stroke:#A80036;stroke-width:1.0;"/><text fill="#008000" font-family="sans-serif" font-size="13" font-weight="bold" lengthAdjust="spacing" textLength="133" x="348.425" y="608.0669">Automatic Trigger</text><text fill="#000000" font-family="sans-serif" font-size="13" lengthAdjust="spacing" textLength="176" x="326.925" y="623.1997">(deploys to tcc.statbus.org)</text><!--MD5=[97abe2dedde85cc5359619459336013e]
link master to no--><path d="M389.9223,299.0184 C389.7556,299.0202 389.5864,299.0221 389.4147,299.0241 C388.7282,299.0322 388.0026,299.0419 387.2391,299.0535 C381.1311,299.1463 372.5916,299.3626 362.1144,299.8477 C341.16,300.8178 312.455,302.8631 279.95,307.1463 C214.94,315.7125 134.73,333.23 70.925,369 C49.535,380.99 42.015,386.23 32.925,409 C6,476.435 9.6975,557.795 20.395,623.0363 C25.7438,655.6569 32.8425,684.2478 38.7384,705.0536 C39.4754,707.6543 40.1936,710.1334 40.8873,712.4835 C41.2341,713.6585 41.5748,714.8014 41.9086,715.911 " fill="none" id="master-to-no" style="stroke:#A80036;stroke-width:1.0;"/><polygon fill="#A80036" points="41.9086,715.911,43.1463,706.1402,40.4682,711.123,35.4854,708.4449,41.9086,715.911" style="stroke:#A80036;stroke-width:1.0;"/><text fill="#0000FF" font-family="sans-serif" font-size="13" font-weight="bold" lengthAdjust="spacing" textLength="111" x="33.925" y="512.5669">Manual Trigger</text><text fill="#000000" font-family="sans-serif" font-size="13" lengthAdjust="spacing" textLength="103" x="37.925" y="527.6997">(specific deploy)</text><!--MD5=[74ed06d9b91d0c53f9572062297911d2]
link master to tcc--><path d="M405.1514,345.2132 C405.1971,345.3127 405.243,345.412 405.2892,345.5112 C405.474,345.908 405.6632,346.3025 405.8569,346.6945 C406.2443,347.4784 406.6497,348.2522 407.0741,349.0139 C407.9227,350.5372 408.8468,352.0122 409.8529,353.4233 C411.865,356.2456 414.205,358.8125 416.925,361 C433.945,374.7 500.115,352.93 514.925,369 C537.215,393.19 667.315,450.21 511.925,627 C495.325,645.88 474.015,617.55 455.925,635 C451.705,639.07 448.2358,643.7358 445.3965,648.7891 C445.0416,649.4208 444.6965,650.0585 444.361,650.7019 " fill="none" id="master-to-tcc" style="stroke:#A80036;stroke-width:1.0;"/><polygon fill="#A80036" points="444.361,650.7019,452.0689,644.5709,446.6727,646.2684,444.9753,640.8722,444.361,650.7019" style="stroke:#A80036;stroke-width:1.0;"/><text fill="#0000FF" font-family="sans-serif" font-size="13" font-weight="bold" lengthAdjust="spacing" textLength="111" x="587.925" y="512.5669">Manual Trigger</text><text fill="#000000" font-family="sans-serif" font-size="13" lengthAdjust="spacing" textLength="103" x="591.925" y="527.6997">(specific deploy)</text><!--MD5=[515de988eb377a80b2b5a4fe87113332]
@startuml
!define MANUAL_TRIGGER <color:blue>**Manual Trigger**</color>
!define AUTOMATIC_TRIGGER <color:green>**Automatic Trigger**</color>
!define WEEKLY_TRIGGER <color:purple>**Weekly Trigger (Monday Morning)**</color>

skinparam rectangle {
    BackgroundColor<<Environment>> LightGreen
    BackgroundColor<<Branch>> Wheat
}

rectangle "feature/x" as feature <<Branch>> {
    [Development is done here]
}

rectangle "master" as master <<Branch>> {
    [Development is merged here]
}

rectangle "devops/deploy-to-dev" as dev <<Branch>> {
    [Deploy to dev.statbus.org] <<Environment>>
}
rectangle "devops/deploy-to-no" as no <<Branch>> {
    [Deploy to no.statbus.org] <<Environment>>
}
rectangle "devops/deploy-to-tcc" as tcc <<Branch>> {
    [Deploy to tcc.statbus.org] <<Environment>>
}
rectangle "devops/deploy-to-production" as prod <<Branch>> {
    [Intermediate Production Branch]
}

feature - -> dev : MANUAL_TRIGGER\n(push for PR testing)
feature - -> master : MANUAL_TRIGGER\nMerge PR
master - -> dev : AUTOMATIC_TRIGGER\n(push on every commit)
master - -> prod : MANUAL_TRIGGER\n(push for production)
prod - -> no : AUTOMATIC_TRIGGER\n(deploys to no.statbus.org)
prod - -> tcc : AUTOMATIC_TRIGGER\n(deploys to tcc.statbus.org)
master - -> no : MANUAL_TRIGGER\n(specific deploy)
master - -> tcc : MANUAL_TRIGGER\n(specific deploy)
master -right-> prod : WEEKLY_TRIGGER\n(regular releases)

@enduml

@startuml

skinparam rectangle {
    BackgroundColor<<Environment>> LightGreen
    BackgroundColor<<Branch>> Wheat
}

rectangle "feature/x" as feature <<Branch>> {
    [Development is done here]
}

rectangle "master" as master <<Branch>> {
    [Development is merged here]
}

rectangle "devops/deploy-to-dev" as dev <<Branch>> {
    [Deploy to dev.statbus.org] <<Environment>>
}
rectangle "devops/deploy-to-no" as no <<Branch>> {
    [Deploy to no.statbus.org] <<Environment>>
}
rectangle "devops/deploy-to-tcc" as tcc <<Branch>> {
    [Deploy to tcc.statbus.org] <<Environment>>
}
rectangle "devops/deploy-to-production" as prod <<Branch>> {
    [Intermediate Production Branch]
}

feature - -> dev : <color:blue>**Manual Trigger**</color>\n(push for PR testing)
feature - -> master : <color:blue>**Manual Trigger**</color>\nMerge PR
master - -> dev : <color:green>**Automatic Trigger**</color>\n(push on every commit)
master - -> prod : <color:blue>**Manual Trigger**</color>\n(push for production)
prod - -> no : <color:green>**Automatic Trigger**</color>\n(deploys to no.statbus.org)
prod - -> tcc : <color:green>**Automatic Trigger**</color>\n(deploys to tcc.statbus.org)
master - -> no : <color:blue>**Manual Trigger**</color>\n(specific deploy)
master - -> tcc : <color:blue>**Manual Trigger**</color>\n(specific deploy)
master -right-> prod : <color:purple>**Weekly Trigger (Monday Morning)**</color>\n(regular releases)

@enduml

PlantUML version 1.2021.16(Wed Dec 08 17:25:22 UTC 2021)
(GPL source distribution)
Java Runtime: OpenJDK Runtime Environment
JVM: OpenJDK 64-Bit Server VM
Default Encoding: UTF-8
Language: en
Country: null
--></g></svg>