<?plantuml 1.2026.1?><svg xmlns="http://www.w3.org/2000/svg" xmlns:xlink="http://www.w3.org/1999/xlink" contentStyleType="text/css" data-diagram-type="DESCRIPTION" height="294px" preserveAspectRatio="none" style="width:578px;height:294px;background:#FFFFFF;" version="1.1" viewBox="0 0 578 294" width="578px" zoomAndPan="magnify"><title>Domain Overview for Formal Economy</title><defs/><g><g class="title" data-source-line="2"><text fill="#000000" font-family="sans-serif" font-size="14" font-weight="bold" lengthAdjust="spacing" textLength="277.0811" x="143.7181" y="23.5352">Domain Overview for Formal Economy</text></g><!--cluster Physical--><g class="cluster" data-qualified-name="Physical" data-source-line="4" id="ent0002"><path d="M305.6644,195.18 C309.0553,189.0225 313.7955,189.2016 317.7655,194.572 C320.6127,190.0712 324.5879,189.5629 328.097,193.7884 C330.1528,187.0781 335.7659,186.839 339.654,192.0054 C342.8451,185.8961 347.8116,186.9294 351.4211,191.5464 C353.8525,185.1727 358.2358,184.5061 362.3147,190.0389 C366.4674,184.6507 370.2455,186.0141 373.2912,191.1893 C375.7562,186.7324 379.7835,186.2599 382.6566,190.7627 C386.1272,184.449 392.27,185.9688 395.2464,191.2971 C398.4542,186.9145 402.4879,186.8085 404.9735,192.0286 C409.6634,187.5085 413.3888,188.6285 416.1774,194.15 C420.4867,189.4024 425.2745,188.677 428.0817,195.6727 C431.279,191.157 435.015,191.9082 437.9582,195.9655 C443.8768,198.3847 445.5003,204.4038 439.5784,208.3696 C445.5187,211.0434 446.356,214.7696 441.2741,219.1734 C447.3134,221.3027 449.4868,225.4332 444.8332,230.8279 C450.1624,234.9884 449.36,241.3228 443.0012,243.8373 C447.8468,248.2521 447.6469,253.9353 440.4402,255.7618 C444.9735,260.9555 443.7982,265.5775 437.6326,268.3931 C434.8368,273.5531 431.8526,272.9487 428.2712,269.2204 C426.3658,275.5072 420.8584,275.7992 417.3555,270.76 C414.0346,276.7013 409.7753,277.2497 405.5696,271.6648 C402.199,276.9271 398.6122,277.8617 394.1571,272.8721 C391.813,279.0969 387.5679,279.4038 383.1639,275.0033 C381.1166,280.3731 376.4448,280.1985 373.3434,276.0963 C368.781,281.4019 365.0067,280.4509 362.2385,274.3496 C358.5329,280.9695 353.1978,280.2686 349.7844,274.0657 C346.2068,277.782 341.8457,277.9535 340.1754,272.1422 C336.9547,277.2099 331.5864,277.1407 329.195,271.3069 C325.1445,275.5622 320.611,275.4873 318.343,269.4309 C314.2288,275.1897 309.4039,273.1229 306.7814,267.8655 C300.3518,266.0223 298.2154,260.316 303.9287,255.6395 C297.5351,253.7148 295.8125,247.8054 300.5687,242.9325 C293.7406,240.4594 293.5987,236.5106 297.5715,231.2633 C293.0464,226.5894 294.8201,221.1081 300.6255,219.0086 C295.8117,214.5031 296.798,208.7003 303.8024,207.4404 C297.7039,202.6716 299.446,198.0781 305.6644,195.18" fill="none" style="stroke:#181818;stroke-width:1;"/><text fill="#000000" font-family="sans-serif" font-size="14" font-weight="bold" lengthAdjust="spacing" textLength="58.6455" x="341.9077" y="213.4397">Physical</text></g><!--cluster Legal--><g class="cluster" data-qualified-name="Legal" data-source-line="8" id="ent0004"><path d="M27.8824,60.4838 C30.8987,52.3293 37.8312,50.8599 43.7198,57.385 C48.0599,49.6861 54.1275,50.1072 58.2799,57.5653 C62.5404,49.9905 67.9497,49.0942 73.2771,56.497 C78.0722,48.9289 83.0357,47.7736 89.2567,54.9518 C92.4023,46.9936 99.094,45.8111 103.8684,53.4231 C108.1159,46.7304 115.2599,46.1635 120.0691,52.7372 C123.3455,45.3387 130.7414,43.4883 135.4825,51.2478 C140.2647,45.0629 145.2201,43.9943 149.4971,51.7554 C155.4887,44.4337 161.9251,46.0607 166.2236,53.6541 C170.687,46.1083 176.9276,48.0726 180.9236,54.1581 C187.509,48.1934 192.344,49.3183 195.9061,57.3861 C200.351,50.3117 206.1127,48.5244 211.6665,56.2014 C218.108,49.6167 223.1839,52.5098 226.0229,59.9018 C234.3538,50.6763 245.4033,52.4686 248.2304,65.4146 C249.6428,65.8752 249.7771,66.9725 248.6303,67.8528 C257.7437,71.7303 257.6159,78.9076 250.2929,84.4333 C256.8358,88.4077 257.8539,94.0264 250.7462,98.4424 C258.9781,102.2181 259.0163,108.1991 253.2623,114.2071 C261.4835,119.9816 260.5096,124.914 253.0997,130.5328 C263.3035,134.4911 263.0477,142.4334 255.7352,148.9045 C263.7609,153.6569 263.6108,161.1372 255.2661,165.4247 C262.7781,170.4352 262.0393,176.4625 255.2479,181.4569 C261.5717,187.4649 261.9575,193.7289 253.1136,197.7499 C260.7857,201.181 262.9742,208.9418 254.735,213.964 C261.1199,220.0058 258.6498,226.4229 251.0724,229.0821 C257.4,233.9837 259.1646,238.435 251.5563,243.795 C259.6605,256.134 254.6648,263.8967 241.2304,266.3946 C242.6945,266.3889 243.3889,267.3621 242.5794,268.6916 C238.905,277.1093 231.3912,275.6611 227.3587,269.0545 C224.1852,278.4598 219.0749,278.9891 212.0054,272.9201 C208.7734,280.2862 202.8965,281.7877 197.7078,274.8801 C191.8085,283.4467 186.637,282.6468 181.1594,274.4635 C176.4779,284.3265 170.7418,284.4158 164.2018,276.2075 C161.0055,282.9161 155.9235,284.5931 150.8431,278.1164 C147.0476,285.6931 140.0239,287.8935 134.6229,279.7756 C130.0382,286.3792 124.6403,286.6761 119.8369,280.0195 C112.6608,286.7271 106.4463,285.03 102.7961,276.1619 C99.5697,283.1993 93.1666,283.5416 89.4908,276.5893 C83.4314,284.0221 77.3905,283.3977 73.4628,274.4974 C68.0362,281.9298 61.4125,282.3928 57.3674,273.1629 C50.2536,278.9188 44.8359,278.0553 42.3221,268.6101 C31.6737,278.0586 20.3029,272.3658 18.2304,259.3946 C19.2852,259.2207 19.9378,259.8422 19.5796,260.9189 C11.9989,255.7672 10.6109,248.6847 19.3866,243.3533 C12.7548,240.8687 11.8186,234.5063 16.9133,229.8707 C8.0376,223.6766 9.9251,216.7837 17.755,211.3488 C10.6156,206.2902 10.0817,200.3158 17.9537,195.4446 C8.1717,191.9163 7.1948,185.3861 15.0911,178.8148 C7.6761,175.4684 7.7477,169.5505 14.2719,165.3557 C7.1253,159.5068 6,151.5703 16.0671,147.4469 C8.8086,142.6193 8.5248,135.9205 16.7618,131.7801 C8.0661,125.6023 7.9433,120.0265 17.0699,114.1603 C10.8894,108.7496 10.3625,101.2443 19.2885,97.894 C12.4885,92.867 12.8321,88.5787 19.881,84.1488 C11.0445,74.5701 12.5529,63.5211 25.2304,58.4146 C27.0679,57.6245 27.9517,58.8301 27.8824,60.4838" fill="none" style="stroke:#181818;stroke-width:1;"/><text fill="#000000" font-family="sans-serif" font-size="14" font-weight="bold" lengthAdjust="spacing" textLength="38.3633" x="114.0488" y="76.9497">Legal</text></g><!--cluster Statistical--><g class="cluster" data-qualified-name="Statistical" data-source-line="13" id="ent0007"><path d="M288.2845,60.4107 C291.4293,51.4075 296.5124,51.7157 302.9046,57.114 C306.0743,51.4553 310.9428,52.3779 314.2744,56.9338 C318.5676,50.5041 322.8457,49.4361 327.9909,56.037 C331.6842,49.234 335.5378,48.3319 340.7711,54.5223 C344.9372,48.3331 350.7335,48.3553 355.0568,54.3378 C360.6513,48.6005 365.5673,50.0818 368.3028,57.2681 C372.224,50.8256 376.8616,51.7574 381.0581,56.9667 C385.5192,51.8389 390.646,53.0793 392.4328,59.5822 C397.9521,62.097 398.6724,66.9688 394.3202,71.1011 C400.2356,74.8041 398.6222,80.713 393.0561,83.218 C399.6216,86.5114 398.7223,90.8239 393.8317,94.8792 C400.4225,99.7011 398.6096,103.6512 393.0804,107.7665 C398.4243,110.9292 399.4368,114.7718 394.03,118.8552 C399.4422,123.1324 398.6946,126.8191 393.2391,130.3485 C389.0793,136.649 384.3219,138.4823 379.2562,131.2871 C376.9747,138.1381 371.5443,137.93 367.1629,133.548 C364.2701,139.8899 359.2289,140.5605 354.9078,135.0213 C350.9122,141.4467 346.4259,142.6805 341.7442,135.6947 C337.8311,141.0722 333.2792,142.083 329.1731,135.9046 C322.9041,141.2484 318.4822,140.5497 315.1228,132.7858 C311.6383,138.8884 306.0066,138.3657 302.479,132.8327 C297.2415,139.3437 293.2449,138.2038 289.1995,131.6234 C282.6284,127.9606 282.2736,123.7896 287.0697,118.3085 C281.0947,116.6393 279,111.6145 282.8731,106.4578 C278.0161,103.8751 276.1436,99.2284 281.4559,95.3484 C276.0205,91.3029 277.6292,86.7641 283.0349,84.2628 C277.3594,79.1823 278.8839,74.0907 285.7335,71.701 C280.2803,67.0176 281.665,62.3664 288.2845,60.4107" fill="none" style="stroke:#181818;stroke-width:1;"/><text fill="#000000" font-family="sans-serif" font-size="14" font-weight="bold" lengthAdjust="spacing" textLength="70.5059" x="304.9775" y="76.9497">Statistical</text></g><!--cluster Political--><g class="cluster" data-qualified-name="Political" data-source-line="17" id="ent0009"><path d="M434.0804,59.6527 C436.9117,53.4612 441.1162,52.8704 445.5974,57.9697 C448.3858,53.3205 454.0634,52.9722 457.054,57.7232 C460.2508,51.8334 464.7519,51.483 469.4456,55.9285 C471.9799,50.3473 477.9243,48.7957 481.8944,54.3188 C485.736,47.4017 490.881,47.5883 494.667,54.3706 C499.0196,48.2438 502.7001,49.128 506.7861,54.648 C511.8131,49.4186 517.7056,49.1531 520.6701,56.8614 C524.4099,50.6167 529.2349,50.2663 532.8903,56.9412 C537.432,52.09 541.3526,51.502 544.7768,58.1013 C549.6592,52.514 553.7488,53.5462 557.2749,59.5621 C563.4808,61.1845 565.1809,66.076 559.9994,70.5276 C566.9461,71.9619 568.7545,77.9961 563.6169,82.9496 C569.7182,85.8773 571.0842,90.412 566.5354,95.765 C571.5172,101.1132 568.3781,106.1981 562.1046,107.1761 C567.0623,112.0477 566.5533,116.6228 560.4307,120.0542 C564.5735,124.787 562.9359,129.441 556.8711,130.789 C553.906,136.0164 548.3257,136.8842 544.7254,131.5173 C540.521,137.6832 536.3996,136.6071 532.1275,131.5936 C528.7645,136.783 525.4777,137.8164 521.2048,132.5435 C517.1629,138.7279 511.8577,140.0804 506.8311,133.667 C503.7845,139.8401 497.9904,140.1021 494.6776,133.9289 C490.5486,138.5979 487.1174,139.34 483.4578,133.4311 C479.1587,138.6696 473.5044,139.6132 470.4686,132.1401 C466.3707,137.3016 461.7277,138.3073 458.1708,131.5804 C454.0284,137.4814 449.5181,136.5804 445.6886,131.2331 C440.9544,137.4409 436.8842,137.4157 432.2497,131.126 C427.4456,127.3096 427.2601,121.9764 432.8944,118.7017 C426.1739,115.6685 425.2677,111.407 431.3367,106.7123 C426.5421,103.1747 426.7238,99.034 431.2712,95.4421 C425.8043,92.0416 426.6555,86.8099 432.2672,84.4096 C424.7858,80.4318 425.1704,74.9027 431.8971,70.5456 C427.1616,66.6612 427.8296,61.335 434.0804,59.6527" fill="none" style="stroke:#181818;stroke-width:1;"/><text fill="#000000" font-family="sans-serif" font-size="14" font-weight="bold" lengthAdjust="spacing" textLength="57.0938" x="465.6836" y="76.9497">Political</text></g><!--entity ES--><g class="entity" data-qualified-name="Physical.ES" data-source-line="5" id="ent0003"><rect fill="#F1F1F1" height="36.4883" rx="2.5" ry="2.5" style="stroke:#181818;stroke-width:0.5;" width="115.2178" x="313.6204" y="221.9046"/><text fill="#000000" font-family="sans-serif" font-size="14" lengthAdjust="spacing" textLength="95.2178" x="323.6204" y="245.4397">Establishment</text></g><!--entity LU--><g class="entity" data-qualified-name="Legal.LU" data-source-line="9" id="ent0005"><rect fill="#F1F1F1" height="36.4883" rx="2.5" ry="2.5" style="stroke:#181818;stroke-width:0.5;" width="87.874" x="140.2904" y="221.9046"/><text fill="#000000" font-family="sans-serif" font-size="14" lengthAdjust="spacing" textLength="67.874" x="150.2904" y="245.4397">Legal Unit</text></g><!--entity LR--><g class="entity" data-qualified-name="Legal.LR" data-source-line="10" id="ent0006"><rect fill="#F1F1F1" height="36.4883" rx="2.5" ry="2.5" style="stroke:#181818;stroke-width:0.5;" width="143.8877" x="61.2904" y="85.4146"/><text fill="#000000" font-family="sans-serif" font-size="14" lengthAdjust="spacing" textLength="123.8877" x="71.2904" y="108.9497">Legal Relationship</text></g><!--entity EN--><g class="entity" data-qualified-name="Statistical.EN" data-source-line="14" id="ent0008"><rect fill="#F1F1F1" height="36.4883" rx="2.5" ry="2.5" style="stroke:#181818;stroke-width:0.5;" width="88.5645" x="295.9504" y="85.4146"/><text fill="#000000" font-family="sans-serif" font-size="14" lengthAdjust="spacing" textLength="68.5645" x="305.9504" y="108.9497">Enterprise</text></g><!--entity PG--><g class="entity" data-qualified-name="Political.PG" data-source-line="18" id="ent0010"><rect fill="#F1F1F1" height="36.4883" rx="2.5" ry="2.5" style="stroke:#181818;stroke-width:0.5;" width="107.0283" x="440.7204" y="85.4146"/><text fill="#000000" font-family="sans-serif" font-size="14" lengthAdjust="spacing" textLength="87.0283" x="450.7204" y="108.9497">Power Group</text></g><!--reverse link EN to LU--><g class="link" data-entity-1="ent0008" data-entity-2="ent0005" data-link-type="dependency" data-source-line="22" id="lnk12"><path d="M315.2955,126.1617 C285.3955,151.9317 234.5304,195.7846 204.6304,221.5646" fill="none" id="EN-backto-LU" style="stroke:#181818;stroke-width:1;"/><polygon fill="#181818" points="319.8404,122.2446,310.4117,125.0903,316.053,125.5088,315.6345,131.1502,319.8404,122.2446" style="stroke:#181818;stroke-width:1;"/><text fill="#000000" font-family="sans-serif" font-size="13" lengthAdjust="spacing" textLength="94.9482" x="281.7904" y="167.4729">always has one</text></g><!--reverse link PG to LU--><g class="link" data-entity-1="ent0010" data-entity-2="ent0005" data-link-type="dependency" data-source-line="23" id="lnk14"><path d="M467.5463,125.7291 C446.5363,141.4491 418.0404,160.0946 385.2304,170.9046 C347.9304,183.1946 334.8604,167.6646 297.2304,178.9046 C265.2804,188.4446 231.9704,207.4946 209.8704,221.6246" fill="none" id="PG-backto-LU" style="stroke:#181818;stroke-width:1;"/><polygon fill="#181818" points="472.3504,122.1346,462.7479,124.3236,468.347,125.13,467.5406,130.7291,472.3504,122.1346" style="stroke:#181818;stroke-width:1;"/><text fill="#000000" font-family="sans-serif" font-size="13" lengthAdjust="spacing" textLength="115.7241" x="424.4404" y="167.4729">optionally has one</text></g><!--link LR to LU--><g class="link" data-entity-1="ent0006" data-entity-2="ent0005" data-link-type="dependency" data-source-line="24" id="lnk15"><path d="M89.2304,122.3646 C66.8004,134.2046 46.4904,151.2046 58.2304,170.9046 C75.8004,200.4046 105.3665,215.9734 134.1265,225.8634" fill="none" id="LR-to-LU" style="stroke:#181818;stroke-width:1;"/><polygon fill="#181818" points="139.8004,227.8146,132.5904,221.1053,135.0722,226.1886,129.9888,228.6704,139.8004,227.8146" style="stroke:#181818;stroke-width:1;"/><text fill="#000000" font-family="sans-serif" font-size="13" lengthAdjust="spacing" textLength="70.332" x="59.2304" y="167.4729">influencing</text></g><!--link LR to LU--><g class="link" data-entity-1="ent0006" data-entity-2="ent0005" data-link-type="dependency" data-source-line="25" id="lnk16"><path d="M139.9004,122.2446 C149.6704,148.0146 165.6641,190.1739 175.4341,215.9539" fill="none" id="LR-to-LU-1" style="stroke:#181818;stroke-width:1;"/><polygon fill="#181818" points="177.5604,221.5646,178.1114,211.7311,175.7885,216.8891,170.6306,214.5662,177.5604,221.5646" style="stroke:#181818;stroke-width:1;"/><text fill="#000000" font-family="sans-serif" font-size="13" lengthAdjust="spacing" textLength="65.8252" x="158.2004" y="167.4729">influenced</text></g><!--reverse link LU to ES--><g class="link" data-entity-1="ent0005" data-entity-2="ent0003" data-link-type="dependency" data-source-line="26" id="lnk18"><path d="M234.5504,240.1546 C259.9304,240.1546 286.0704,240.1546 313.4204,240.1546" fill="none" id="LU-backto-ES" style="stroke:#181818;stroke-width:1;"/><polygon fill="#181818" points="228.5504,240.1546,237.5504,244.1546,233.5504,240.1546,237.5504,236.1546,228.5504,240.1546" style="stroke:#181818;stroke-width:1;"/><text fill="#000000" font-family="sans-serif" font-size="13" lengthAdjust="spacing" textLength="49.2832" x="246.3904" y="233.7229">has one</text></g><?plantuml-src TOv1ReD034NtSmgBFHV8ebAbK3QeHI0EC0K3beoDPeOWLFNkdPIaoO9k_Vxx_e428vnriYJmSK5t8LoXLmTlwYRBaBKgEct6jAnB1qavRfvQomby6G27RR0on8eayy5-ClbnGWa9lDQGrURxpojmE91-hz08xKRH7E4AsGPIyIFDUwnwAgv3X3uSRvA0RdRaSH_q_kILodHibRgYWzpfihyhywjcYWRIPKvVOWsSmF9gDm-ZzQ223rZc4UfytMkPjqUWWhJJLM8aPaz0qlE2qf8C_pBiJ5P3ojY7ExhL_G00?></g></svg>