<?plantuml 1.2026.1?><svg xmlns="http://www.w3.org/2000/svg" xmlns:xlink="http://www.w3.org/1999/xlink" contentStyleType="text/css" data-diagram-type="DESCRIPTION" height="283px" preserveAspectRatio="none" style="width:316px;height:283px;background:#FFFFFF;" version="1.1" viewBox="0 0 316 283" width="316px" zoomAndPan="magnify"><title>Domain Overview for Informal Economy</title><defs/><g><g class="title" data-source-line="2"><text fill="#000000" font-family="sans-serif" font-size="14" font-weight="bold" lengthAdjust="spacing" textLength="288.6816" x="10" y="23.5352">Domain Overview for Informal Economy</text></g><!--cluster Statistical--><g class="cluster" data-qualified-name="Statistical" data-source-line="4" id="ent0002"><path d="M108.5209,55.567 C111.6657,46.5638 116.7488,46.8721 123.141,52.2703 C126.3107,46.6116 131.1792,47.5342 134.5108,52.0901 C138.8041,45.6604 143.0821,44.5925 148.2273,51.1933 C151.9207,44.3904 155.7743,43.4883 161.0076,49.6786 C165.1737,43.4895 170.9699,43.5116 175.2932,49.4941 C180.8877,43.7568 185.8037,45.2382 188.5392,52.4244 C192.4604,45.982 197.098,46.9137 201.2945,52.1231 C205.7556,46.9952 210.8824,48.2357 212.6692,54.7385 C218.1885,57.2534 218.9089,62.1251 214.5567,66.2575 C220.4721,69.9604 218.8586,75.8693 213.2925,78.3744 C219.8581,81.6677 218.9587,85.9802 214.0681,90.0356 C220.659,94.8574 218.846,98.8075 213.3168,102.9228 C218.6607,106.0856 219.6732,109.9281 214.2664,114.0115 C219.6786,118.2887 218.931,121.9754 213.4755,125.5048 C209.3158,131.8054 204.5584,133.6387 199.4926,126.4435 C197.2112,133.2945 191.7808,133.0863 187.3993,128.7043 C184.5066,135.0462 179.4654,135.7168 175.1443,130.1776 C171.1487,136.6031 166.6623,137.8369 161.9807,130.851 C158.0676,136.2286 153.5156,137.2393 149.4095,131.0609 C143.1406,136.4048 138.7187,135.706 135.3592,127.9422 C131.8747,134.0448 126.243,133.522 122.7155,127.989 C117.4779,134.5 113.4814,133.3602 109.436,126.7797 C102.8648,123.1169 102.5101,118.9459 107.3062,113.4649 C101.3312,111.7956 99.2365,106.7708 103.1095,101.6141 C98.2525,99.0314 96.38,94.3847 101.6923,90.5047 C96.2569,86.4593 97.8656,81.9204 103.2713,79.4191 C97.5959,74.3387 99.1203,69.247 105.9699,66.8574 C100.5167,62.1739 101.9015,57.5227 108.5209,55.567" fill="none" style="stroke:#181818;stroke-width:1;"/><text fill="#000000" font-family="sans-serif" font-size="14" font-weight="bold" lengthAdjust="spacing" textLength="70.5059" x="125.2139" y="72.106">Statistical</text></g><!--cluster Physical--><g class="cluster" data-qualified-name="Physical" data-source-line="8" id="ent0004"><path d="M94.9008,190.3363 C98.2918,184.1788 103.0319,184.3579 107.002,189.7284 C109.8491,185.2275 113.8244,184.7193 117.3335,188.9447 C119.3893,182.2344 125.0024,181.9954 128.8905,187.1617 C132.0815,181.0525 137.0481,182.0857 140.6575,186.7027 C143.0889,180.329 147.4722,179.6625 151.5512,185.1953 C155.7038,179.807 159.482,181.1705 162.5276,186.3456 C164.9926,181.8888 169.0199,181.4162 171.893,185.919 C175.3636,179.6053 181.5064,181.1251 184.4829,186.4534 C187.6906,182.0708 191.7243,181.9648 194.2099,187.1849 C198.8999,182.6649 202.6252,183.7848 205.4138,189.3063 C209.7231,184.5587 214.5109,183.8333 217.3181,190.8291 C220.5154,186.3134 224.2515,187.0646 227.1947,191.1218 C233.1132,193.541 234.7368,199.5602 228.8148,203.5259 C234.7551,206.1997 235.5924,209.9259 230.5106,214.3298 C236.5499,216.459 238.7233,220.5896 234.0696,225.9843 C239.3988,230.1447 238.5964,236.4792 232.2376,238.9936 C237.0832,243.4085 236.8833,249.0917 229.6767,250.9181 C234.2099,256.1118 233.0346,260.7338 226.8691,263.5494 C224.0732,268.7094 221.089,268.1051 217.5077,264.3768 C215.6023,270.6636 210.0948,270.9555 206.5919,265.9164 C203.2711,271.8576 199.0118,272.406 194.8061,266.8212 C191.4354,272.0834 187.8487,273.0181 183.3935,268.0284 C181.0495,274.2533 176.8043,274.5601 172.4003,270.1597 C170.353,275.5295 165.6812,275.3548 162.5798,271.2526 C158.0174,276.5583 154.2431,275.6072 151.475,269.5059 C147.7693,276.1258 142.4342,275.425 139.0208,269.2221 C135.4432,272.9383 131.0822,273.1098 129.4119,267.2985 C126.1912,272.3663 120.8228,272.2971 118.4314,266.4632 C114.3809,270.7185 109.8474,270.6437 107.5794,264.5873 C103.4653,270.346 98.6404,268.2792 96.0178,263.0218 C89.5882,261.1786 87.4518,255.4723 93.1651,250.7958 C86.7716,248.8712 85.0489,242.9617 89.8052,238.0888 C82.977,235.6157 82.8351,231.667 86.8079,226.4196 C82.2828,221.7457 84.0565,216.2644 89.8619,214.165 C85.0481,209.6594 86.0344,203.8567 93.0388,202.5967 C86.9403,197.828 88.6824,193.2345 94.9008,190.3363" fill="none" style="stroke:#181818;stroke-width:1;"/><text fill="#000000" font-family="sans-serif" font-size="14" font-weight="bold" lengthAdjust="spacing" textLength="58.6455" x="131.1441" y="208.596">Physical</text></g><!--entity EN--><g class="entity" data-qualified-name="Statistical.EN" data-source-line="5" id="ent0003"><rect fill="#F1F1F1" height="36.4883" rx="2.5" ry="2.5" style="stroke:#181818;stroke-width:0.5;" width="88.5645" x="116.1869" y="80.5709"/><text fill="#000000" font-family="sans-serif" font-size="14" lengthAdjust="spacing" textLength="68.5645" x="126.1869" y="104.106">Enterprise</text></g><!--entity ES--><g class="entity" data-qualified-name="Physical.ES" data-source-line="9" id="ent0005"><rect fill="#F1F1F1" height="36.4883" rx="2.5" ry="2.5" style="stroke:#181818;stroke-width:0.5;" width="115.2178" x="102.8569" y="217.0609"/><text fill="#000000" font-family="sans-serif" font-size="14" lengthAdjust="spacing" textLength="95.2178" x="112.8569" y="240.596">Establishment</text></g><!--reverse link EN to ES--><g class="link" data-entity-1="ent0003" data-entity-2="ent0005" data-link-type="dependency" data-source-line="12" id="lnk7"><path d="M160.4669,123.4009 C160.4669,149.1709 160.4669,190.9409 160.4669,216.7209" fill="none" id="EN-backto-ES" style="stroke:#181818;stroke-width:1;"/><polygon fill="#181818" points="160.4669,117.4009,156.4669,126.4009,160.4669,122.4009,164.4669,126.4009,160.4669,117.4009" style="stroke:#181818;stroke-width:1;"/><text fill="#000000" font-family="sans-serif" font-size="13" lengthAdjust="spacing" textLength="49.2832" x="161.4669" y="162.6293">has one</text></g><?plantuml-src RSmz2W8n48RXFgVuIByNi104KzYea1ECSNG7yhCaiokBU7SZWfNDspslYaR6lYIIZDF2TH5-u5Og3hatKOGB9PUq6XDYcQ-mNacbgGIA5ay3L0vA-Tu_rcNbEbLfRB7pS4Vp-hdpkBR_g2bTehGnSTQlyn_dF8Pv6hPzWmr6QYYPtm00?></g></svg>