<?xml version="1.0" encoding="UTF-8" standalone="no"?><svg xmlns="http://www.w3.org/2000/svg" xmlns:xlink="http://www.w3.org/1999/xlink" contentScriptType="application/ecmascript" contentStyleType="text/css" height="267px" preserveAspectRatio="none" style="width:368px;height:267px;background:#FFFFFF;" version="1.1" viewBox="0 0 368 267" width="368px" zoomAndPan="magnify"><defs><filter height="300%" id="f1twu9bai3k805" width="300%" x="-1" y="-1"><feGaussianBlur result="blurOut" stdDeviation="2.0"/><feColorMatrix in="blurOut" result="blurOut2" type="matrix" values="0 0 0 0 0 0 0 0 0 0 0 0 0 0 0 0 0 0 .4 0"/><feOffset dx="4.0" dy="4.0" in="blurOut2" result="blurOut3"/><feBlend in="SourceGraphic" in2="blurOut3" mode="normal"/></filter></defs><g><text fill="#000000" font-family="sans-serif" font-size="18" lengthAdjust="spacing" textLength="359" x="2" y="16.708">Domain Overview for Informal Economy</text><!--MD5=[15b4451c372f7b957ebd52ad38315718]
cluster Statistical--><path d="M132.0541,39.1137 C136.2659,32.7781 141.1573,32.1423 145.9662,38.457 C150.2759,31.66 154.1981,31.1343 159.0735,37.9107 C161.4911,31.0024 166.1183,30.688 171.3727,34.7223 C174.5568,26.9531 180.7716,27.561 185.012,33.6854 C189.9055,28.0546 196.5573,29.2452 199.5582,35.9222 C203.9615,28.4331 209.073,28.8051 213.4329,35.9633 C217.5108,31.4765 222.7604,30.9696 225.1289,37.7395 C231.0086,31.5505 237.5197,33.2924 240.6235,40.865 C246.275,44.5408 246.332,48.2861 240.5658,51.9023 C245.3942,56.1471 246.6666,59.8437 240.1525,63.691 C246.1482,65.7918 247.1416,70.9609 242.7764,75.3862 C248.1851,79.1522 247.3258,83.8641 241.9038,86.8022 C248.0694,91.281 245.923,96.9056 240.1781,99.8036 C245.6382,103.1192 244.6289,108.2368 239.1853,110.5446 C235.848,117.2002 229.8613,117.8005 225.1906,112.0485 C220.1503,118.2927 216.4242,116.4284 212.7565,110.6312 C209.5495,118.222 203.8239,118.4766 198.7791,112.5287 C194.5104,118.6339 188.0311,118.3216 184.7744,111.4377 C180.9074,118.0411 175.1867,117.0301 171.7839,110.9619 C168.1535,118.0704 163.8334,116.7891 159.3625,111.8269 C154.8809,118.0983 148.7928,118.2144 145.7026,110.4707 C140.9812,116.6884 136.705,118.6772 131.1516,111.3655 C125.2941,108.9291 123.9107,104.1986 129.0525,99.7709 C122.7983,97.6217 122.8777,91.7266 127.3019,87.9906 C120.6465,85.5987 119.3707,79.6692 123.9024,74.4655 C119.3757,69.4835 121.344,65.6172 127.0772,63.6456 C122.1255,58.852 123.0253,54.74 129.5743,52.53 C124.5775,46.9163 124.513,42.4101 132.0541,39.1137 " fill="#FFFFFF" filter="url(#f1twu9bai3k805)" style="stroke:#000000;stroke-width:1.5;"/><text fill="#000000" font-family="sans-serif" font-size="14" font-weight="bold" lengthAdjust="spacing" textLength="76" x="146.508" y="56.6941">Statistical</text><!--MD5=[f751332d9083dbc36892b4dab0075a61]
cluster Physical--><path d="M119.3959,176.8651 C121.759,171.6795 124.9016,171.6666 128.9677,174.9373 C131.7416,168.8583 135.473,168.3377 139.9472,173.2368 C144.3319,167.9455 148.6895,166.8079 152.6295,173.6997 C153.8154,168.5401 158.4802,167.6613 162.1836,170.802 C166.5132,164.975 170.6676,165.9403 174.4637,171.3833 C177.2386,165.6995 183.2127,165.0597 186.6425,170.6775 C190.0498,166.0021 193.1922,164.9803 196.9542,170.312 C201.349,164.8285 205.2811,164.4967 208.7183,171.2339 C213.2488,166.2036 216.8557,166.7069 219.3519,173.1236 C222.9488,167.0806 227.0153,167.5748 230.9224,172.8052 C235.4006,168.6213 239.5808,169.4496 240.9166,175.7895 C244.0881,170.0921 248.5953,169.3297 252.4337,175.1209 C258.3679,177.7939 260.1709,182.4057 255.261,187.5462 C262.4089,188.7424 263.4245,193.711 259.4245,198.9702 C265.0394,201.3222 265.4873,206.3419 261.2748,210.2989 C267.4811,215.6573 265.2363,220.4114 258.6422,223.147 C264.3803,227.5668 262.3407,233.3937 256.3025,235.6011 C261.9276,240.835 259.8252,246.6045 252.5339,247.8715 C248.4422,253.8508 244.1581,252.425 240.7655,247.1411 C238.9158,252.9792 234.4808,254.6733 229.7186,250.2882 C226.3499,255.8617 221.1086,255.7146 218.0242,249.9939 C215.9434,255.8015 212.5913,256.2501 207.9432,252.7851 C204.5519,258.6206 200.0118,257.9961 196.6343,252.7711 C194.0283,259.3404 190.6806,259.6873 185.8278,254.911 C182.099,259.8881 176.8632,260.8783 173.4619,254.5526 C169.3061,257.3582 165.2094,257.2507 164.2898,251.2008 C159.6502,256.6952 154.9865,257.7875 151.1221,250.4079 C147.9763,255.5642 143.5612,255.9681 140.3928,250.4307 C136.8547,255.0173 131.8197,254.2845 130.4185,248.396 C125.3856,253.6341 120.8642,252.9365 117.8795,246.2434 C111.7899,243.105 111.3326,239.4772 116.2704,234.7896 C110.9105,232.5181 109.4028,227.2221 114.2785,223.1926 C109.1508,220.3018 108.2182,216.1229 113.3082,212.3203 C107.5189,208.7412 107.782,202.7131 113.9507,199.7449 C107.7821,194.6585 108.3614,190.0208 115.945,187.1041 C112.7557,182.2652 113.83,178.7531 119.3959,176.8651 " fill="#FFFFFF" filter="url(#f1twu9bai3k805)" style="stroke:#000000;stroke-width:1.5;"/><text fill="#000000" font-family="sans-serif" font-size="14" font-weight="bold" lengthAdjust="spacing" textLength="64" x="152.508" y="192.6941">Physical</text><!--MD5=[a5c631c9bda690bd77f64e5ac9ab44b9]
entity EN--><rect fill="#FEFECE" filter="url(#f1twu9bai3k805)" height="36.2969" style="stroke:#000000;stroke-width:1.5;" width="91" x="139.008" y="65.699"/><text fill="#000000" font-family="sans-serif" font-size="14" lengthAdjust="spacing" textLength="71" x="149.008" y="88.6941">Enterprise</text><!--MD5=[2c66eac863e8692b6a7cd143adcae0dd]
entity ES--><rect fill="#FEFECE" filter="url(#f1twu9bai3k805)" height="36.2969" style="stroke:#000000;stroke-width:1.5;" width="118" x="125.508" y="201.699"/><text fill="#000000" font-family="sans-serif" font-size="14" lengthAdjust="spacing" textLength="98" x="135.508" y="224.6941">Establishment</text><!--MD5=[0ca111532eb55f8912ee01bddda057f9]
reverse link EN to ES--><path d="M184.508,107.019 C184.508,133.609 184.508,177.439 184.508,201.519 " fill="none" id="EN-backto-ES" style="stroke:#A80036;stroke-width:1.0;"/><polygon fill="#A80036" points="184.508,101.939,180.508,110.939,184.508,106.939,188.508,110.939,184.508,101.939" style="stroke:#A80036;stroke-width:1.0;"/><text fill="#000000" font-family="sans-serif" font-size="13" lengthAdjust="spacing" textLength="51" x="185.508" y="146.7659">has one</text><!--MD5=[34533a2379fcd09acf499e892018d0bb]
@startuml

title Domain Overview for Informal Economy

cloud "Statistical" {
  rectangle "Enterprise" AS EN
}

cloud "Physical" {
  rectangle "Establishment" AS ES
}

ES -up-> EN : has one
@enduml

PlantUML version 1.2021.16(Wed Dec 08 17:25:22 UTC 2021)
(GPL source distribution)
Java Runtime: OpenJDK Runtime Environment
JVM: OpenJDK 64-Bit Server VM
Default Encoding: UTF-8
Language: en
Country: null
--></g></svg>