<?plantuml 1.2026.1?><svg xmlns="http://www.w3.org/2000/svg" xmlns:xlink="http://www.w3.org/1999/xlink" contentStyleType="text/css" data-diagram-type="DESCRIPTION" height="283px" preserveAspectRatio="none" style="width:339px;height:283px;background:#FFFFFF;" version="1.1" viewBox="0 0 339 283" width="339px" zoomAndPan="magnify"><title>Domain Overview for Formal Economy</title><defs/><g><g class="title" data-source-line="2"><text fill="#000000" font-family="sans-serif" font-size="14" font-weight="bold" lengthAdjust="spacing" textLength="277.0811" x="26.0304" y="23.5352">Domain Overview for Formal Economy</text></g><!--cluster Statistical--><g class="cluster" data-qualified-name="Statistical" data-source-line="4" id="ent0002"><path d="M18.264,55.567 C21.4088,46.5638 26.4919,46.8721 32.8841,52.2703 C36.0538,46.6116 40.9223,47.5342 44.2539,52.0901 C48.5472,45.6604 52.8252,44.5925 57.9704,51.1933 C61.6638,44.3904 65.5174,43.4883 70.7507,49.6786 C74.9167,43.4895 80.713,43.5116 85.0363,49.4941 C90.6308,43.7568 95.5468,45.2382 98.2823,52.4244 C102.2035,45.982 106.8411,46.9137 111.0376,52.1231 C115.4987,46.9952 120.6255,48.2357 122.4123,54.7385 C127.9316,57.2534 128.652,62.1251 124.2998,66.2575 C130.2152,69.9604 128.6017,75.8693 123.0356,78.3744 C129.6011,81.6677 128.7018,85.9802 123.8112,90.0356 C130.4021,94.8574 128.5891,98.8075 123.0599,102.9228 C128.4038,106.0856 129.4163,109.9281 124.0095,114.0115 C129.4217,118.2887 128.6741,121.9754 123.2186,125.5048 C119.0588,131.8054 114.3015,133.6387 109.2357,126.4435 C106.9543,133.2945 101.5239,133.0863 97.1424,128.7043 C94.2496,135.0462 89.2085,135.7168 84.8874,130.1776 C80.8918,136.6031 76.4054,137.8369 71.7238,130.851 C67.8107,136.2286 63.2587,137.2393 59.1526,131.0609 C52.8837,136.4048 48.4617,135.706 45.1023,127.9422 C41.6178,134.0448 35.9861,133.522 32.4586,127.989 C27.221,134.5 23.2245,133.3602 19.179,126.7797 C12.6079,123.1169 12.2532,118.9459 17.0493,113.4649 C11.0743,111.7956 8.9796,106.7708 12.8526,101.6141 C7.9956,99.0314 6.1231,94.3847 11.4354,90.5047 C6,86.4593 7.6087,81.9204 13.0144,79.4191 C7.339,74.3387 8.8634,69.247 15.713,66.8574 C10.2598,62.1739 11.6445,57.5227 18.264,55.567" fill="none" style="stroke:#181818;stroke-width:1;"/><text fill="#000000" font-family="sans-serif" font-size="14" font-weight="bold" lengthAdjust="spacing" textLength="70.5059" x="34.957" y="72.106">Statistical</text></g><!--cluster Legal--><g class="cluster" data-qualified-name="Legal" data-source-line="8" id="ent0004"><path d="M18.264,192.057 C21.4088,183.0538 26.4919,183.3621 32.8841,188.7603 C36.0538,183.1016 40.9223,184.0242 44.2539,188.5801 C48.5472,182.1504 52.8252,181.0825 57.9704,187.6833 C61.6638,180.8804 65.5174,179.9783 70.7507,186.1686 C74.9167,179.9795 80.713,180.0016 85.0363,185.9841 C90.6308,180.2468 95.5468,181.7282 98.2823,188.9144 C102.2035,182.472 106.8411,183.4037 111.0376,188.6131 C115.4987,183.4852 120.6255,184.7257 122.4123,191.2285 C127.9316,193.7434 128.652,198.6151 124.2998,202.7475 C130.2152,206.4504 128.6017,212.3593 123.0356,214.8644 C129.6011,218.1577 128.7018,222.4702 123.8112,226.5256 C130.4021,231.3474 128.5891,235.2975 123.0599,239.4128 C128.4038,242.5756 129.4163,246.4181 124.0095,250.5015 C129.4217,254.7787 128.6741,258.4654 123.2186,261.9948 C119.0588,268.2954 114.3015,270.1287 109.2357,262.9335 C106.9543,269.7845 101.5239,269.5763 97.1424,265.1943 C94.2496,271.5362 89.2085,272.2068 84.8874,266.6676 C80.8918,273.0931 76.4054,274.3269 71.7238,267.341 C67.8107,272.7186 63.2587,273.7293 59.1526,267.5509 C52.8837,272.8948 48.4617,272.196 45.1023,264.4322 C41.6178,270.5348 35.9861,270.012 32.4586,264.479 C27.221,270.99 23.2245,269.8502 19.179,263.2697 C12.6079,259.6069 12.2532,255.4359 17.0493,249.9549 C11.0743,248.2856 8.9796,243.2608 12.8526,238.1041 C7.9956,235.5214 6.1231,230.8747 11.4354,226.9947 C6,222.9493 7.6087,218.4104 13.0144,215.9091 C7.339,210.8287 8.8634,205.737 15.713,203.3474 C10.2598,198.6639 11.6445,194.0127 18.264,192.057" fill="none" style="stroke:#181818;stroke-width:1;"/><text fill="#000000" font-family="sans-serif" font-size="14" font-weight="bold" lengthAdjust="spacing" textLength="38.3633" x="51.0283" y="208.596">Legal</text></g><!--cluster Physical--><g class="cluster" data-qualified-name="Physical" data-source-line="12" id="ent0006"><path d="M191.2709,191.2816 C195.3809,184.9686 199.9473,184.5638 204.2241,191.1138 C206.4962,185.9441 211.3785,185.2912 214.7962,189.8717 C218.3059,185.162 221.6656,184.6896 225.7325,189.2117 C228.4186,183.5268 232.4589,182.5994 237.4098,186.4333 C241.0047,181.2552 244.8109,182.5693 247.8133,187.0702 C250.5161,182.1037 253.7838,181.0143 258.2076,185.0925 C262.0369,179.8498 266.9717,181.6795 269.0628,186.8965 C272.6907,182.0706 276.0913,181.3819 280.0564,186.5246 C283.9473,180.692 289.8149,180.9791 292.3534,187.8352 C295.2552,184.3105 299.3311,184.4295 301.4573,188.7367 C305.4219,183.3531 310.6565,185.2936 312.3232,190.9902 C316.4119,184.8654 320.9356,185.3441 324.0367,191.9023 C330.2445,194.1569 330.9126,199.1673 325.8938,203.2578 C331.3207,206.8963 332.1412,211.5391 326.2567,215.5126 C332.0202,218.494 332.6069,221.673 327.4947,225.9451 C331.8707,230.6605 331.6077,234.7267 325.6291,237.8146 C331.1511,241.297 332.2625,247.5573 325.7454,251.1447 C331.0493,254.7799 330.5403,259.5865 325.024,262.5364 C322.3854,268.9286 317.262,269.2017 313.4424,263.6849 C310.0928,269.0965 305.9213,270.3929 301.4445,264.9283 C298.8374,269.9705 295.855,269.7727 291.9877,266.3335 C288.3949,271.9746 284.7019,273.1675 280.2242,267.2327 C278.1228,272.239 274.2948,273.3289 270.2565,269.3913 C268.497,276.6537 262.1181,276.4328 257.8263,272.1078 C253.5685,276.2271 248.3752,274.9779 247.2743,268.8552 C243.3681,273.7417 239.6746,274.3772 235.4445,269.2374 C232.4249,273.5822 228.0218,272.4992 226.3395,267.8792 C221.817,272.8656 216.3979,272.0957 214.468,265.2729 C210.9332,270.4929 205.7174,270.6299 203.0382,264.4176 C200.1966,269.1548 195.3331,268.9538 193.2712,263.6586 C185.4675,260.9818 185.1754,255.7037 191.0403,250.6778 C184.1021,248.1539 182.7436,243.7652 188.3644,238.485 C181.1671,236.4511 179.8016,232.0095 184.1806,226.0734 C179.0902,220.9162 181.182,217.0092 187.1288,214.7176 C182.875,209.6241 183.1686,204.0546 190.8144,202.5722 C186.3265,199.3573 186.1072,194.1063 191.2709,191.2816" fill="none" style="stroke:#181818;stroke-width:1;"/><text fill="#000000" font-family="sans-serif" font-size="14" font-weight="bold" lengthAdjust="spacing" textLength="58.6455" x="227.8872" y="208.596">Physical</text></g><!--entity EN--><g class="entity" data-qualified-name="Statistical.EN" data-source-line="5" id="ent0003"><rect fill="#F1F1F1" height="36.4883" rx="2.5" ry="2.5" style="stroke:#181818;stroke-width:0.5;" width="88.5645" x="25.93" y="80.5709"/><text fill="#000000" font-family="sans-serif" font-size="14" lengthAdjust="spacing" textLength="68.5645" x="35.93" y="104.106">Enterprise</text></g><!--entity LU--><g class="entity" data-qualified-name="Legal.LU" data-source-line="9" id="ent0005"><rect fill="#F1F1F1" height="36.4883" rx="2.5" ry="2.5" style="stroke:#181818;stroke-width:0.5;" width="87.874" x="26.27" y="217.0609"/><text fill="#000000" font-family="sans-serif" font-size="14" lengthAdjust="spacing" textLength="67.874" x="36.27" y="240.596">Legal Unit</text></g><!--entity ES--><g class="entity" data-qualified-name="Physical.ES" data-source-line="13" id="ent0007"><rect fill="#F1F1F1" height="36.4883" rx="2.5" ry="2.5" style="stroke:#181818;stroke-width:0.5;" width="115.2178" x="199.6" y="217.0609"/><text fill="#000000" font-family="sans-serif" font-size="14" lengthAdjust="spacing" textLength="95.2178" x="209.6" y="240.596">Establishment</text></g><!--reverse link EN to LU--><g class="link" data-entity-1="ent0003" data-entity-2="ent0005" data-link-type="dependency" data-source-line="16" id="lnk9"><path d="M70.21,123.4009 C70.21,149.1709 70.21,190.9409 70.21,216.7209" fill="none" id="EN-backto-LU" style="stroke:#181818;stroke-width:1;"/><polygon fill="#181818" points="70.21,117.4009,66.21,126.4009,70.21,122.4009,74.21,126.4009,70.21,117.4009" style="stroke:#181818;stroke-width:1;"/><text fill="#000000" font-family="sans-serif" font-size="13" lengthAdjust="spacing" textLength="94.9482" x="71.21" y="162.6293">always has one</text></g><!--reverse link LU to ES--><g class="link" data-entity-1="ent0005" data-entity-2="ent0007" data-link-type="dependency" data-source-line="17" id="lnk11"><path d="M120.53,235.3109 C145.91,235.3109 172.05,235.3109 199.4,235.3109" fill="none" id="LU-backto-ES" style="stroke:#181818;stroke-width:1;"/><polygon fill="#181818" points="114.53,235.3109,123.53,239.3109,119.53,235.3109,123.53,231.3109,114.53,235.3109" style="stroke:#181818;stroke-width:1;"/><text fill="#000000" font-family="sans-serif" font-size="13" lengthAdjust="spacing" textLength="49.2832" x="132.37" y="228.8793">has one</text></g><?plantuml-src RSr13e8m40NGVK_nmvuBi30niQw8cX0ECE80JKfhsW52Z7UtOZGksFwPzxyOiOo37yWud2SEa-4PhGyu-Z2GXMwyyyEYL6FzU4DM2Oc9OXgo6HuA2Dm8kIwrPDe9XtimaJFiA-YJUlvSoTs6M5FKpiWgolfFNFebRiz4eQiriH_OVPoktgwiaO_tV9U6KO3iJ4j4Jn7UiT8LSikjf7FwAxxv2m00?></g></svg>