<?plantuml 1.2026.1?><svg xmlns="http://www.w3.org/2000/svg" xmlns:xlink="http://www.w3.org/1999/xlink" contentStyleType="text/css" data-diagram-type="DESCRIPTION" height="294px" preserveAspectRatio="none" style="width:629px;height:294px;background:#FFFFFF;" version="1.1" viewBox="0 0 629 294" width="629px" zoomAndPan="magnify"><title>Domain Overview for Formal Economy</title><defs/><g><g class="title" data-source-line="2"><text fill="#000000" font-family="sans-serif" font-size="14" font-weight="bold" lengthAdjust="spacing" textLength="277.0811" x="169.0558" y="23.5352">Domain Overview for Formal Economy</text></g><!--cluster Statistical--><g class="cluster" data-qualified-name="Statistical" data-source-line="4" id="ent0002"><path d="M338.9599,61.8872 C342.1046,52.884 347.1878,53.1923 353.5799,58.5905 C356.7497,52.9318 361.6182,53.8544 364.9498,58.4103 C369.243,51.9806 373.5211,50.9127 378.6663,57.5135 C382.3596,50.7106 386.2132,49.8085 391.4465,55.9988 C395.6126,49.8097 401.4088,49.8318 405.7321,55.8143 C411.3267,50.077 416.2426,51.5584 418.9782,58.7446 C422.8994,52.3022 427.5369,53.2339 431.7334,58.4433 C436.1946,53.3154 441.3213,54.5559 443.1081,61.0587 C448.6275,63.5736 449.3478,68.4453 444.9956,72.5777 C450.911,76.2806 449.2976,82.1895 443.7314,84.6946 C450.297,87.9879 449.3976,92.3004 444.507,96.3558 C451.0979,101.1776 449.285,105.1277 443.7558,109.243 C449.0997,112.4058 450.1121,116.2483 444.7053,120.3317 C450.1175,124.6089 449.3699,128.2956 443.9145,131.825 C439.7547,138.1256 434.9973,139.9589 429.9315,132.7637 C427.6501,139.6147 422.2197,139.4065 417.8382,135.0245 C414.9455,141.3664 409.9043,142.037 405.5832,136.4978 C401.5876,142.9233 397.1013,144.1571 392.4196,137.1712 C388.5065,142.5488 383.9545,143.5595 379.8485,137.3811 C373.5795,142.725 369.1576,142.0262 365.7981,134.2624 C362.3136,140.365 356.682,139.8422 353.1544,134.3092 C347.9168,140.8202 343.9203,139.6804 339.8749,133.0999 C333.3038,129.4371 332.949,125.2661 337.7451,119.7851 C331.7701,118.1158 329.6754,113.091 333.5485,107.9343 C328.6915,105.3516 326.819,100.7049 332.1313,96.8249 C326.6958,92.7794 328.3046,88.2406 333.7102,85.7393 C328.0348,80.6589 329.5593,75.5672 336.4088,73.1776 C330.9556,68.4941 332.3404,63.8429 338.9599,61.8872" fill="none" style="stroke:#181818;stroke-width:1;"/><text fill="#000000" font-family="sans-serif" font-size="14" font-weight="bold" lengthAdjust="spacing" textLength="70.5059" x="355.6529" y="78.4262">Statistical</text></g><!--cluster Political--><g class="cluster" data-qualified-name="Political" data-source-line="8" id="ent0004"><path d="M484.7557,61.1293 C487.587,54.9378 491.7915,54.3469 496.2728,59.4462 C499.0612,54.797 504.7388,54.4488 507.7294,59.1998 C510.9262,53.3099 515.4272,52.9595 520.121,57.405 C522.6552,51.8238 528.5997,50.2722 532.5698,55.7953 C536.4113,48.8782 541.5564,49.0648 545.3424,55.8471 C549.695,49.7203 553.3754,50.6045 557.4614,56.1245 C562.4885,50.8952 568.381,50.6297 571.3455,58.3379 C575.0852,52.0932 579.9102,51.7428 583.5656,58.4177 C588.1074,53.5666 592.0279,52.9785 595.4521,59.5778 C600.3345,53.9905 604.4242,55.0227 607.9503,61.0386 C614.1561,62.661 615.8562,67.5525 610.6747,72.0041 C617.6215,73.4384 619.4298,79.4726 614.2923,84.4261 C620.3935,87.3538 621.7595,91.8886 617.2107,97.2415 C622.1926,102.5898 619.0535,107.6746 612.78,108.6526 C617.7377,113.5242 617.2286,118.0994 611.1061,121.5308 C615.2489,126.2636 613.6113,130.9175 607.5465,132.2656 C604.5814,137.4929 599.0011,138.3607 595.4007,132.9938 C591.1963,139.1598 587.075,138.0837 582.8029,133.0701 C579.4399,138.2595 576.153,139.2929 571.8802,134.02 C567.8382,140.2045 562.5331,141.5569 557.5065,135.1435 C554.4598,141.3167 548.6657,141.5787 545.3529,135.4055 C541.224,140.0745 537.7928,140.8165 534.1332,134.9076 C529.8341,140.1462 524.1798,141.0897 521.144,133.6167 C517.046,138.7781 512.403,139.7838 508.8462,133.0569 C504.7037,138.958 500.1934,138.0569 496.3639,132.7097 C491.6298,138.9175 487.5595,138.8923 482.925,132.6025 C478.121,128.7861 477.9354,123.453 483.5697,120.1782 C476.8493,117.145 475.9431,112.8836 482.0121,108.1888 C477.2174,104.6512 477.3992,100.5105 481.9466,96.9186 C476.4797,93.5182 477.3308,88.2865 482.9426,85.8861 C475.4611,81.9084 475.8457,76.3792 482.5724,72.0221 C477.837,68.1378 478.505,62.8115 484.7557,61.1293" fill="none" style="stroke:#181818;stroke-width:1;"/><text fill="#000000" font-family="sans-serif" font-size="14" font-weight="bold" lengthAdjust="spacing" textLength="57.0938" x="516.3589" y="78.4262">Political</text></g><!--cluster Legal--><g class="cluster" data-qualified-name="Legal" data-source-line="12" id="ent0006"><path d="M28.4651,62.2849 C33.2009,53.4277 42.1878,53.5084 47.3951,61.7633 C52.0669,52.9613 61.4724,49.4601 67.8746,59.9239 C71.1595,50.3212 78.9521,47.2939 86.0079,56.2369 C90.5296,47.763 99.545,46.0996 105.0699,55.1453 C109.6656,46.5688 117.6269,46.5692 121.8336,55.5175 C128.725,43.4883 135.7572,44.6225 143.7424,54.4196 C147.1621,46.054 156.2384,45.0443 161.8374,51.8142 C168.0615,43.933 176.3163,45.4304 179.9427,54.5762 C184.9764,45.8864 193.5175,45.0764 198.4692,54.6593 C204.3936,47.5737 213.0399,49.3322 216.6915,57.3937 C224.2685,47.1844 230.8989,45.4618 238.4473,57.4218 C244.1084,49.2298 251.7709,49.0143 256.9482,57.9446 C263.7321,49.0108 269.8934,50.1766 275.269,59.368 C285.9316,50.5746 295.4717,52.9732 298.9058,66.8911 C300.5127,66.2589 301.5401,67.0146 301.3787,68.7432 C310.7216,75.098 308.9697,81.3146 301.091,87.4039 C309.0638,92.9473 310.8983,103.0744 299.87,107.461 C311.4412,113.3763 311.983,120.831 301.5789,128.5288 C310.0018,134.8939 310.0192,141.005 301.1437,146.9617 C311.2965,152.4428 309.8119,160.299 301.3986,166.0282 C309.8642,170.0332 311.6037,177.4955 303.3533,183.3833 C314.119,190.9099 312.133,200.401 300.8755,205.4552 C309.0217,209.8298 309.4912,218.1073 301.0054,222.6078 C310.0066,229.6768 310.8535,235.8647 300.9091,242.8435 C311.9963,254.0616 307.5473,266.2682 291.9058,267.8711 C294.6643,267.2497 295.4709,268.5137 295.3776,271.0283 C287.664,281.9334 280.5691,280.0529 273.6866,270.1614 C268.922,278.4062 262.3723,281.0909 255.8469,271.9702 C251.337,280.9744 243.2011,282.3215 237.866,272.7699 C232.3257,284.649 225.1747,284.0155 217.206,275.1935 C211.4571,286.1232 205.0818,285.6841 197.8467,276.6335 C193.3031,285.5002 185.5351,283.8491 181.479,276.1517 C176.7993,286.375 170.2383,285.8299 162.9418,278.9954 C156.4132,286.5429 148.7488,287.4737 143.5621,277.5102 C135.6698,287.2984 129.5369,285.4747 124.0236,275.1942 C119.1303,284.5631 110.9046,282.2532 106.1843,275.0084 C99.299,285.194 92.757,284.8632 86.8719,274.0869 C79.6266,283.1856 68.8108,280.7122 64.9923,270.2532 C60.6227,278.536 51.8393,280.7658 46.1271,271.7143 C32.9874,280.3258 23.1989,276.0709 19.9058,260.8711 C22.2834,260.8028 23.2246,262.3458 22.4474,264.492 C11.3941,259.3488 12.4242,250.8705 20.1029,243.6229 C11.5684,237.3717 10.6557,231.0562 20.5609,225.2649 C10.6869,221.1991 10.2077,211.6258 17.9032,205.2294 C8.5948,199.5924 8.4127,191.3128 17.9826,185.7528 C7.8652,181.5069 8.6209,173.4542 15.9399,167.2802 C6,159.9504 7.9843,152.99 16.8504,146.4836 C7.7106,140.428 6.0624,131.2447 17.1466,125.4742 C9.1042,119.6267 10.3329,113.8502 18.3411,109.1794 C7.0773,101.5094 9.8493,92.0694 20.3731,86.3376 C9.3836,74.4838 11.3177,65.1798 26.9058,59.8911 C28.505,59.9043 29.1559,60.78 28.4651,62.2849" fill="none" style="stroke:#181818;stroke-width:1;"/><text fill="#000000" font-family="sans-serif" font-size="14" font-weight="bold" lengthAdjust="spacing" textLength="38.3633" x="140.2242" y="78.4262">Legal</text></g><!--cluster Physical--><g class="cluster" data-qualified-name="Physical" data-source-line="17" id="ent0009"><path d="M353.3397,196.6565 C356.7307,190.499 361.4708,190.6781 365.4409,196.0486 C368.2881,191.5477 372.2633,191.0395 375.7724,195.2649 C377.8282,188.5546 383.4413,188.3156 387.3294,193.4819 C390.5204,187.3727 395.487,188.4059 399.0964,193.0229 C401.5278,186.6492 405.9112,185.9826 409.9901,191.5155 C414.1428,186.1272 417.9209,187.4907 420.9666,192.6658 C423.4316,188.2089 427.4588,187.7364 430.3319,192.2392 C433.8025,185.9255 439.9454,187.4453 442.9218,192.7736 C446.1296,188.391 450.1632,188.285 452.6489,193.5051 C457.3388,188.9851 461.0641,190.105 463.8527,195.6265 C468.1621,190.8789 472.9498,190.1535 475.757,197.1493 C478.9543,192.6336 482.6904,193.3848 485.6336,197.442 C491.5521,199.8612 493.1757,205.8804 487.2537,209.8461 C493.194,212.5199 494.0313,216.2461 488.9495,220.6499 C494.9888,222.7792 497.1622,226.9098 492.5086,232.3045 C497.8378,236.4649 497.0354,242.7994 490.6765,245.3138 C495.5222,249.7287 495.3222,255.4119 488.1156,257.2383 C492.6489,262.432 491.4735,267.054 485.308,269.8696 C482.5122,275.0296 479.5279,274.4253 475.9466,270.697 C474.0412,276.9838 468.5337,277.2757 465.0309,272.2366 C461.71,278.1778 457.4507,278.7262 453.245,273.1414 C449.8743,278.4036 446.2876,279.3383 441.8324,274.3486 C439.4884,280.5735 435.2432,280.8803 430.8393,276.4799 C428.792,281.8497 424.1202,281.675 421.0187,277.5728 C416.4564,282.8784 412.6821,281.9274 409.9139,275.8261 C406.2082,282.446 400.8731,281.7452 397.4597,275.5423 C393.8822,279.2585 389.5211,279.43 387.8508,273.6187 C384.6301,278.6865 379.2617,278.6173 376.8703,272.7834 C372.8198,277.0387 368.2863,276.9639 366.0183,270.9075 C361.9042,276.6662 357.0793,274.5994 354.4568,269.342 C348.0271,267.4988 345.8908,261.7925 351.6041,257.116 C345.2105,255.1914 343.4879,249.2819 348.2441,244.409 C341.4159,241.9359 341.274,237.9872 345.2468,232.7398 C340.7217,228.0659 342.4955,222.5846 348.3008,220.4851 C343.487,215.9796 344.4733,210.1769 351.4777,208.9169 C345.3792,204.1482 347.1213,199.5547 353.3397,196.6565" fill="none" style="stroke:#181818;stroke-width:1;"/><text fill="#000000" font-family="sans-serif" font-size="14" font-weight="bold" lengthAdjust="spacing" textLength="58.6455" x="389.583" y="214.9162">Physical</text></g><!--entity EN--><g class="entity" data-qualified-name="Statistical.EN" data-source-line="5" id="ent0003"><rect fill="#F1F1F1" height="36.4883" rx="2.5" ry="2.5" style="stroke:#181818;stroke-width:0.5;" width="88.5645" x="346.6258" y="86.8911"/><text fill="#000000" font-family="sans-serif" font-size="14" lengthAdjust="spacing" textLength="68.5645" x="356.6258" y="110.4262">Enterprise</text></g><!--entity PG--><g class="entity" data-qualified-name="Political.PG" data-source-line="9" id="ent0005"><rect fill="#F1F1F1" height="36.4883" rx="2.5" ry="2.5" style="stroke:#181818;stroke-width:0.5;" width="107.0283" x="491.3958" y="86.8911"/><text fill="#000000" font-family="sans-serif" font-size="14" lengthAdjust="spacing" textLength="87.0283" x="501.3958" y="110.4262">Power Group</text></g><!--entity LU--><g class="entity" data-qualified-name="Legal.LU" data-source-line="13" id="ent0007"><rect fill="#F1F1F1" height="36.4883" rx="2.5" ry="2.5" style="stroke:#181818;stroke-width:0.5;" width="87.874" x="187.9658" y="223.3811"/><text fill="#000000" font-family="sans-serif" font-size="14" lengthAdjust="spacing" textLength="67.874" x="197.9658" y="246.9162">Legal Unit</text></g><!--entity LR--><g class="entity" data-qualified-name="Legal.LR" data-source-line="14" id="ent0008"><rect fill="#F1F1F1" height="36.4883" rx="2.5" ry="2.5" style="stroke:#181818;stroke-width:0.5;" width="143.8877" x="76.9658" y="86.8911"/><text fill="#000000" font-family="sans-serif" font-size="14" lengthAdjust="spacing" textLength="123.8877" x="86.9658" y="110.4262">Legal Relationship</text></g><!--entity ES--><g class="entity" data-qualified-name="Physical.ES" data-source-line="18" id="ent0010"><rect fill="#F1F1F1" height="36.4883" rx="2.5" ry="2.5" style="stroke:#181818;stroke-width:0.5;" width="115.2178" x="361.2958" y="223.3811"/><text fill="#000000" font-family="sans-serif" font-size="14" lengthAdjust="spacing" textLength="95.2178" x="371.2958" y="246.9162">Establishment</text></g><!--reverse link EN to LU--><g class="link" data-entity-1="ent0003" data-entity-2="ent0007" data-link-type="dependency" data-source-line="21" id="lnk12"><path d="M365.5346,127.5957 C335.0646,153.3657 283.1758,197.2611 252.6958,223.0411" fill="none" id="EN-backto-LU" style="stroke:#181818;stroke-width:1;"/><polygon fill="#181818" points="370.1158,123.7211,360.6609,126.4788,366.2981,126.9499,365.827,132.5871,370.1158,123.7211" style="stroke:#181818;stroke-width:1;"/><text fill="#000000" font-family="sans-serif" font-size="13" lengthAdjust="spacing" textLength="94.9482" x="331.3258" y="168.9494">always has one</text></g><!--reverse link PG to LU--><g class="link" data-entity-1="ent0005" data-entity-2="ent0007" data-link-type="dependency" data-source-line="22" id="lnk14"><path d="M517.7279,127.17 C496.2979,142.89 467.2058,161.5711 433.9058,172.3811 C396.1258,184.6411 382.9658,169.0411 344.9058,180.3811 C312.9458,189.9111 279.6458,208.9511 257.5458,223.0911" fill="none" id="PG-backto-LU" style="stroke:#181818;stroke-width:1;"/><polygon fill="#181818" points="522.5658,123.6211,512.943,125.7191,518.5342,126.5785,517.6748,132.1697,522.5658,123.6211" style="stroke:#181818;stroke-width:1;"/><text fill="#000000" font-family="sans-serif" font-size="13" lengthAdjust="spacing" textLength="115.7241" x="473.7458" y="168.9494">optionally has one</text></g><!--link LR to LU--><g class="link" data-entity-1="ent0008" data-entity-2="ent0007" data-link-type="dependency" data-source-line="23" id="lnk15"><path d="M94.3158,123.8311 C68.4758,135.2911 46.0058,151.9111 59.9058,172.3811 C88.3358,214.2411 140.955,229.5122 181.805,235.7722" fill="none" id="LR-to-LU" style="stroke:#181818;stroke-width:1;"/><polygon fill="#181818" points="187.7358,236.6811,179.4456,231.364,182.7935,235.9237,178.2337,239.2717,187.7358,236.6811" style="stroke:#181818;stroke-width:1;"/><text fill="#000000" font-family="sans-serif" font-size="13" lengthAdjust="spacing" textLength="93.1011" x="60.9058" y="168.9494">source (owner)</text></g><!--link LR to LU--><g class="link" data-entity-1="ent0008" data-entity-2="ent0007" data-link-type="dependency" data-source-line="24" id="lnk16"><path d="M159.7558,123.7211 C175.6658,149.4911 201.9947,192.1552 217.9047,217.9352" fill="none" id="LR-to-LU-1" style="stroke:#181818;stroke-width:1;"/><polygon fill="#181818" points="221.0558,223.0411,219.7331,213.2815,218.4299,218.7861,212.9252,217.4829,221.0558,223.0411" style="stroke:#181818;stroke-width:1;"/><text fill="#000000" font-family="sans-serif" font-size="13" lengthAdjust="spacing" textLength="91.6348" x="188.9158" y="168.9494">target (owned)</text></g><!--reverse link LU to ES--><g class="link" data-entity-1="ent0007" data-entity-2="ent0010" data-link-type="dependency" data-source-line="25" id="lnk18"><path d="M282.2258,241.6311 C307.6058,241.6311 333.7458,241.6311 361.0958,241.6311" fill="none" id="LU-backto-ES" style="stroke:#181818;stroke-width:1;"/><polygon fill="#181818" points="276.2258,241.6311,285.2258,245.6311,281.2258,241.6311,285.2258,237.6311,276.2258,241.6311" style="stroke:#181818;stroke-width:1;"/><text fill="#000000" font-family="sans-serif" font-size="13" lengthAdjust="spacing" textLength="49.2832" x="294.0658" y="235.1994">has one</text></g><?plantuml-src ROz1ReD034NtdC9YbIouG1QLAfMoGGq2SG0N71Z9ZD6C2K9Hxzu9j4sailNxxzjMeqpm9WCQ2-ShkQkX6IxYu5tSW0nf8rQ69OeQbgc5k59KuzKqo37S8W17ZQBjGakSMYKtEkCfXjSAqe_ewyyhXCs-LSXC3Z8dqxXgHVQavTJjAEiKQcjqDV9w3vV4uLInlZTRSLu-tzClVly9h_Z9nlS3sQq-hUvUNaCoZSbBU0jEW3pZug573sBf0OiiG1dlUv5vUGHAI5gPROY4x0cyJAuXE8GHkUC_hEWwqWstnoYj866ww2_-QVq6?></g></svg>