<?xml version="1.0" encoding="UTF-8" standalone="no"?><svg xmlns="http://www.w3.org/2000/svg" xmlns:xlink="http://www.w3.org/1999/xlink" contentScriptType="application/ecmascript" contentStyleType="text/css" height="267px" preserveAspectRatio="none" style="width:357px;height:267px;background:#FFFFFF;" version="1.1" viewBox="0 0 357 267" width="357px" zoomAndPan="magnify"><defs><filter height="300%" id="f1d0qedboljp3w" width="300%" x="-1" y="-1"><feGaussianBlur result="blurOut" stdDeviation="2.0"/><feColorMatrix in="blurOut" result="blurOut2" type="matrix" values="0 0 0 0 0 0 0 0 0 0 0 0 0 0 0 0 0 0 .4 0"/><feOffset dx="4.0" dy="4.0" in="blurOut2" result="blurOut3"/><feBlend in="SourceGraphic" in2="blurOut3" mode="normal"/></filter></defs><g><text fill="#000000" font-family="sans-serif" font-size="18" lengthAdjust="spacing" textLength="346" x="2" y="16.708">Domain Overview for Formal Economy</text><!--MD5=[15b4451c372f7b957ebd52ad38315718]
cluster Statistical--><path d="M24.6282,39.1137 C28.84,32.7781 33.7314,32.1423 38.5403,38.457 C42.85,31.66 46.7722,31.1343 51.6476,37.9107 C54.0653,31.0024 58.6924,30.688 63.9468,34.7223 C67.131,26.9531 73.3458,27.561 77.5862,33.6854 C82.4796,28.0546 89.1315,29.2452 92.1323,35.9222 C96.5357,28.4331 101.6471,28.8051 106.0071,35.9633 C110.085,31.4765 115.3346,30.9696 117.703,37.7395 C123.5828,31.5505 130.0938,33.2924 133.1976,40.865 C138.8491,44.5408 138.9061,48.2861 133.1399,51.9023 C137.9684,56.1471 139.2407,59.8437 132.7266,63.691 C138.7223,65.7918 139.7158,70.9609 135.3505,75.3862 C140.7592,79.1522 139.8999,83.8641 134.4779,86.8022 C140.6435,91.281 138.4971,96.9056 132.7523,99.8036 C138.2123,103.1192 137.2031,108.2368 131.7595,110.5446 C128.4221,117.2002 122.4354,117.8005 117.7647,112.0485 C112.7244,118.2927 108.9984,116.4284 105.3306,110.6312 C102.1236,118.222 96.3981,118.4766 91.3532,112.5287 C87.0845,118.6339 80.6053,118.3216 77.3485,111.4377 C73.4815,118.0411 67.7609,117.0301 64.358,110.9619 C60.7276,118.0704 56.4076,116.7891 51.9366,111.8269 C47.455,118.0983 41.367,118.2144 38.2768,110.4707 C33.5553,116.6884 29.2791,118.6772 23.7257,111.3655 C17.8682,108.9291 16.4848,104.1986 21.6267,99.7709 C15.3725,97.6217 15.4518,91.7266 19.876,87.9906 C13.2206,85.5987 11.9448,79.6692 16.4765,74.4655 C11.9498,69.4835 13.9181,65.6172 19.6513,63.6456 C14.6996,58.852 15.5994,54.74 22.1484,52.53 C17.1516,46.9163 17.0872,42.4101 24.6282,39.1137 " fill="#FFFFFF" filter="url(#f1d0qedboljp3w)" style="stroke:#000000;stroke-width:1.5;"/><text fill="#000000" font-family="sans-serif" font-size="14" font-weight="bold" lengthAdjust="spacing" textLength="76" x="39.0821" y="56.6941">Statistical</text><!--MD5=[9c034255529234c93598d148b004c381]
cluster Legal--><path d="M25.1362,176.6951 C28.281,167.6919 33.3641,168.0001 39.7563,173.3984 C42.926,167.7397 47.7945,168.6623 51.1261,173.2182 C55.4193,166.7885 59.6974,165.7205 64.8426,172.3214 C68.5359,165.5184 72.3895,164.6164 77.6228,170.8067 C81.7889,164.6175 87.5852,164.6397 91.9085,170.6222 C97.503,164.8849 102.419,166.3662 105.1545,173.5525 C109.0757,167.11 113.7133,168.0418 117.9098,173.2511 C122.3709,168.1233 127.4977,169.3638 129.2845,175.8666 C134.7685,178.3578 135.4894,183.1951 131.1719,187.3039 C137.0453,190.9863 135.4385,196.8546 129.9078,199.3391 C136.4291,202.6065 135.538,206.8893 130.6834,210.9187 C137.2308,215.7124 135.4279,219.637 129.9321,223.7242 C135.2389,226.8605 136.2464,230.6744 130.8817,234.7313 C136.2535,238.9809 135.5094,242.6411 130.0908,246.1429 C125.931,252.4435 121.1736,254.2768 116.1079,247.0815 C113.8264,253.9326 108.396,253.7244 104.0146,249.3424 C101.1218,255.6843 96.0806,256.3549 91.7595,250.8157 C87.7639,257.2412 83.2776,258.4749 78.5959,251.4891 C74.6828,256.8666 70.1309,257.8774 66.0248,251.699 C59.7558,257.0428 55.3339,256.3441 51.9745,248.5803 C48.49,254.6829 42.8583,254.1601 39.3307,248.6271 C34.0932,255.1381 30.0966,253.9982 26.0512,247.4178 C19.5159,243.7832 19.1592,239.6375 23.9214,234.1846 C17.9794,232.5386 15.8866,227.5491 19.7248,222.4156 C14.9005,219.856 13.0373,215.2447 18.3076,211.3878 C12.9156,207.366 14.5173,202.8616 19.8866,200.3838 C14.2532,195.3274 15.775,190.2695 22.5852,187.9038 C17.1768,183.2441 18.5592,178.627 25.1362,176.6951 " fill="#FFFFFF" filter="url(#f1d0qedboljp3w)" style="stroke:#000000;stroke-width:1.5;"/><text fill="#000000" font-family="sans-serif" font-size="14" font-weight="bold" lengthAdjust="spacing" textLength="42" x="56.0821" y="192.6941">Legal</text><!--MD5=[f751332d9083dbc36892b4dab0075a61]
cluster Physical--><path d="M201.9701,176.8651 C204.3331,171.6795 207.4757,171.6666 211.5419,174.9373 C214.3157,168.8583 218.0472,168.3377 222.5213,173.2368 C226.906,167.9455 231.2636,166.8079 235.2036,173.6997 C236.3895,168.5401 241.0544,167.6613 244.7578,170.802 C249.0873,164.975 253.2418,165.9403 257.0378,171.3833 C259.8127,165.6995 265.7868,165.0597 269.2166,170.6775 C272.6239,166.0021 275.7663,164.9803 279.5283,170.312 C283.9231,164.8285 287.8552,164.4967 291.2924,171.2339 C295.8229,166.2036 299.4298,166.7069 301.926,173.1236 C305.5229,167.0806 309.5895,167.5748 313.4965,172.8052 C317.9748,168.6213 322.1549,169.4496 323.4908,175.7895 C326.6622,170.0921 331.1695,169.3297 335.0078,175.1209 C340.942,177.7939 342.745,182.4057 337.8351,187.5462 C344.983,188.7424 345.9987,193.711 341.9987,198.9702 C347.6136,201.3222 348.0615,206.3419 343.8489,210.2989 C350.0552,215.6573 347.8104,220.4114 341.2164,223.147 C346.9544,227.5668 344.9148,233.3937 338.8766,235.6011 C344.5018,240.835 342.3993,246.6045 335.1081,247.8715 C331.0164,253.8508 326.7323,252.425 323.3396,247.1411 C321.49,252.9792 317.055,254.6733 312.2928,250.2882 C308.9241,255.8617 303.6828,255.7146 300.5983,249.9939 C298.5175,255.8015 295.1655,256.2501 290.5173,252.7851 C287.126,258.6206 282.5859,257.9961 279.2084,252.7711 C276.6024,259.3404 273.2547,259.6873 268.4019,254.911 C264.6731,259.8881 259.4373,260.8783 256.0361,254.5526 C251.8803,257.3582 247.7836,257.2507 246.8639,251.2008 C242.2243,256.6952 237.5606,257.7875 233.6962,250.4079 C230.5504,255.5642 226.1354,255.9681 222.9669,250.4307 C219.4288,255.0173 214.3938,254.2845 212.9926,248.396 C207.9597,253.6341 203.4383,252.9365 200.4536,246.2434 C194.364,243.105 193.9068,239.4772 198.8445,234.7896 C193.4846,232.5181 191.977,227.2221 196.8527,223.1926 C191.725,220.3018 190.7923,216.1229 195.8823,212.3203 C190.0931,208.7412 190.3562,202.7131 196.5248,199.7449 C190.3562,194.6585 190.9355,190.0208 198.5192,187.1041 C195.3298,182.2652 196.4041,178.7531 201.9701,176.8651 " fill="#FFFFFF" filter="url(#f1d0qedboljp3w)" style="stroke:#000000;stroke-width:1.5;"/><text fill="#000000" font-family="sans-serif" font-size="14" font-weight="bold" lengthAdjust="spacing" textLength="64" x="235.0821" y="192.6941">Physical</text><!--MD5=[a5c631c9bda690bd77f64e5ac9ab44b9]
entity EN--><rect fill="#FEFECE" filter="url(#f1d0qedboljp3w)" height="36.2969" style="stroke:#000000;stroke-width:1.5;" width="91" x="31.5821" y="65.699"/><text fill="#000000" font-family="sans-serif" font-size="14" lengthAdjust="spacing" textLength="71" x="41.5821" y="88.6941">Enterprise</text><!--MD5=[538cd078ee455b9d48ef90bd9ea6f379]
entity LU--><rect fill="#FEFECE" filter="url(#f1d0qedboljp3w)" height="36.2969" style="stroke:#000000;stroke-width:1.5;" width="87" x="33.5821" y="201.699"/><text fill="#000000" font-family="sans-serif" font-size="14" lengthAdjust="spacing" textLength="67" x="43.5821" y="224.6941">Legal Unit</text><!--MD5=[2c66eac863e8692b6a7cd143adcae0dd]
entity ES--><rect fill="#FEFECE" filter="url(#f1d0qedboljp3w)" height="36.2969" style="stroke:#000000;stroke-width:1.5;" width="118" x="208.0821" y="201.699"/><text fill="#000000" font-family="sans-serif" font-size="14" lengthAdjust="spacing" textLength="98" x="218.0821" y="224.6941">Establishment</text><!--MD5=[231376d31558eb0510d08effb233da7f]
reverse link EN to LU--><path d="M77.0821,107.019 C77.0821,133.609 77.0821,177.439 77.0821,201.519 " fill="none" id="EN-backto-LU" style="stroke:#A80036;stroke-width:1.0;"/><polygon fill="#A80036" points="77.0821,101.939,73.0821,110.939,77.0821,106.939,81.0821,110.939,77.0821,101.939" style="stroke:#A80036;stroke-width:1.0;"/><text fill="#000000" font-family="sans-serif" font-size="13" lengthAdjust="spacing" textLength="97" x="78.0821" y="146.7659">always has one</text><!--MD5=[c90fd950c28391eb999737bc032cae42]
reverse link LU to ES--><path d="M125.9121,219.699 C150.9021,219.699 181.5321,219.699 207.8521,219.699 " fill="none" id="LU-backto-ES" style="stroke:#A80036;stroke-width:1.0;"/><polygon fill="#A80036" points="120.6721,219.699,129.6721,223.699,125.6721,219.699,129.6721,215.699,120.6721,219.699" style="stroke:#A80036;stroke-width:1.0;"/><text fill="#000000" font-family="sans-serif" font-size="13" lengthAdjust="spacing" textLength="51" x="138.8321" y="212.7659">has one</text><!--MD5=[088846109433e341e33c74db1b566e1e]
@startuml

title Domain Overview for Formal Economy

cloud "Statistical" {
  rectangle "Enterprise" AS EN
}

cloud "Legal" {
  rectangle "Legal Unit" AS LU
}

cloud "Physical" {
  rectangle "Establishment" AS ES
}

LU -up-> EN : always has one
ES -left-> LU : has one
@enduml

PlantUML version 1.2021.16(Wed Dec 08 17:25:22 UTC 2021)
(GPL source distribution)
Java Runtime: OpenJDK Runtime Environment
JVM: OpenJDK 64-Bit Server VM
Default Encoding: UTF-8
Language: en
Country: null
--></g></svg>