<?plantuml 1.2026.1?><svg xmlns="http://www.w3.org/2000/svg" xmlns:xlink="http://www.w3.org/1999/xlink" contentStyleType="text/css" data-diagram-type="DESCRIPTION" height="1268px" preserveAspectRatio="none" style="width:1888px;height:1268px;background:#FEFEFE;" version="1.1" viewBox="0 0 1888 1268" width="1888px" zoomAndPan="magnify"><title>StatBus Git Deployment Workflow</title><defs/><g><rect fill="#FEFEFE" height="1268" style="stroke:none;stroke-width:1;" width="1888" x="0" y="0"/><g class="title" data-source-line="11"><text fill="#000000" font-family="sans-serif" font-size="14" font-weight="bold" lengthAdjust="spacing" textLength="243.0928" x="815.7467" y="23.5352">StatBus Git Deployment Workflow</text></g><!--cluster Development--><g class="cluster" data-qualified-name="Development" data-source-line="13" id="ent0002"><rect fill="none" height="438.46" rx="2.5" ry="2.5" style="stroke:#181818;stroke-width:1;" width="339" x="654" y="44.4883"/><text fill="#000000" font-family="sans-serif" font-size="14" font-weight="bold" lengthAdjust="spacing" textLength="95.2314" x="775.8843" y="60.0234">Development</text></g><!--cluster feature--><g class="cluster" data-qualified-name="Development.feature" data-source-line="14" id="ent0003"><rect fill="#E3F2FD" height="129.49" rx="2.5" ry="2.5" style="stroke:#181818;stroke-width:1;" width="213" x="711" y="95.4883"/><text fill="#000000" font-family="sans-serif" font-size="14" font-style="italic" lengthAdjust="spacing" textLength="60.7305" x="787.1348" y="111.0234">&#171;Branch&#187;</text><text fill="#000000" font-family="sans-serif" font-size="14" font-weight="bold" lengthAdjust="spacing" textLength="84.4033" x="775.2983" y="127.5117">feature/xxx</text></g><!--cluster master--><g class="cluster" data-qualified-name="Development.master" data-source-line="18" id="ent0005"><rect fill="#E3F2FD" height="145.97" rx="2.5" ry="2.5" style="stroke:#181818;stroke-width:1;" width="275" x="686" y="304.9783"/><text fill="#000000" font-family="sans-serif" font-size="14" font-style="italic" lengthAdjust="spacing" textLength="60.7305" x="793.1348" y="320.5134">&#171;Branch&#187;</text><text fill="#000000" font-family="sans-serif" font-size="14" font-weight="bold" lengthAdjust="spacing" textLength="49.9639" x="798.5181" y="337.0017">master</text></g><!--cluster Deployment Branches--><g class="cluster" data-qualified-name="Deployment Branches" data-source-line="23" id="ent0007"><rect fill="none" height="336.95" rx="2.5" ry="2.5" style="stroke:#181818;stroke-width:1;" width="1649" x="7" y="546.9483"/><text fill="#000000" font-family="sans-serif" font-size="14" font-weight="bold" lengthAdjust="spacing" textLength="156.8711" x="753.0645" y="562.4834">Deployment Branches</text></g><!--cluster prod--><g class="cluster" data-qualified-name="Deployment Branches.prod" data-source-line="24" id="ent0008"><rect fill="#FFF3E0" height="145.98" rx="2.5" ry="2.5" style="stroke:#181818;stroke-width:1;" width="239" x="722" y="597.9483"/><text fill="#000000" font-family="sans-serif" font-size="14" font-style="italic" lengthAdjust="spacing" textLength="107.7891" x="787.6055" y="613.4834">&#171;DeployBranch&#187;</text><text fill="#000000" font-family="sans-serif" font-size="14" font-weight="bold" lengthAdjust="spacing" textLength="219.6113" x="731.6943" y="629.9717">devops/deploy-to-production</text></g><!--cluster niue--><g class="cluster" data-qualified-name="niue" data-source-line="38" id="ent0018"><rect fill="#E8F5E9" height="178.96" rx="2.5" ry="2.5" style="stroke:#181818;stroke-width:1;" width="213" x="645" y="955.8983"/><text fill="#000000" font-family="sans-serif" font-size="14" font-style="italic" lengthAdjust="spacing" textLength="56.5127" x="723.2437" y="971.4334">&#171;Server&#187;</text><text fill="#000000" font-family="sans-serif" font-size="14" font-weight="bold" lengthAdjust="spacing" textLength="116.4844" x="693.2578" y="987.9217">niue.statbus.org</text></g><!--entity Developer work--><g class="entity" data-qualified-name="Development.feature.Developer work" data-source-line="15" id="ent0004"><rect fill="#F1F1F1" height="46.4883" rx="2.5" ry="2.5" style="stroke:#181818;stroke-width:0.5;" width="146.0459" x="734.98" y="154.4883"/><rect fill="#F1F1F1" height="10" style="stroke:#181818;stroke-width:0.5;" width="15" x="861.0259" y="159.4883"/><rect fill="#F1F1F1" height="2" style="stroke:#181818;stroke-width:0.5;" width="4" x="859.0259" y="161.4883"/><rect fill="#F1F1F1" height="2" style="stroke:#181818;stroke-width:0.5;" width="4" x="859.0259" y="165.4883"/><text fill="#000000" font-family="sans-serif" font-size="14" lengthAdjust="spacing" textLength="106.0459" x="749.98" y="188.0234">Developer work</text></g><!--entity Main branch\nAll features merged here--><g class="entity" data-qualified-name="Development.master.Main branch.nAll features merged here" data-source-line="19" id="ent0006"><rect fill="#F1F1F1" height="62.9766" rx="2.5" ry="2.5" style="stroke:#181818;stroke-width:0.5;" width="208.2666" x="709.87" y="363.9783"/><rect fill="#F1F1F1" height="10" style="stroke:#181818;stroke-width:0.5;" width="15" x="898.1366" y="368.9783"/><rect fill="#F1F1F1" height="2" style="stroke:#181818;stroke-width:0.5;" width="4" x="896.1366" y="370.9783"/><rect fill="#F1F1F1" height="2" style="stroke:#181818;stroke-width:0.5;" width="4" x="896.1366" y="374.9783"/><text fill="#000000" font-family="sans-serif" font-size="14" lengthAdjust="spacing" textLength="83.7744" x="724.87" y="397.5134">Main branch</text><text fill="#000000" font-family="sans-serif" font-size="14" lengthAdjust="spacing" textLength="168.2666" x="724.87" y="414.0017">All features merged here</text></g><!--entity dev--><g class="entity" data-qualified-name="Deployment Branches.dev" data-source-line="28" id="ent0010"><rect fill="#FFF3E0" height="52.9766" rx="2.5" ry="2.5" style="stroke:#181818;stroke-width:0.5;" width="175.0254" x="23.49" y="814.9283"/><text fill="#000000" font-family="sans-serif" font-size="14" font-style="italic" lengthAdjust="spacing" textLength="107.7891" x="57.1082" y="838.4634">&#171;DeployBranch&#187;</text><text fill="#000000" font-family="sans-serif" font-size="14" lengthAdjust="spacing" textLength="155.0254" x="33.49" y="854.9517">devops/deploy-to-dev</text></g><!--entity demo--><g class="entity" data-qualified-name="Deployment Branches.demo" data-source-line="29" id="ent0011"><rect fill="#FFF3E0" height="52.9766" rx="2.5" ry="2.5" style="stroke:#181818;stroke-width:0.5;" width="189.4492" x="233.28" y="814.9283"/><text fill="#000000" font-family="sans-serif" font-size="14" font-style="italic" lengthAdjust="spacing" textLength="107.7891" x="274.1101" y="838.4634">&#171;DeployBranch&#187;</text><text fill="#000000" font-family="sans-serif" font-size="14" lengthAdjust="spacing" textLength="169.4492" x="243.28" y="854.9517">devops/deploy-to-demo</text></g><!--entity no--><g class="entity" data-qualified-name="Deployment Branches.no" data-source-line="30" id="ent0012"><rect fill="#FFF3E0" height="52.9766" rx="2.5" ry="2.5" style="stroke:#181818;stroke-width:0.5;" width="168.4561" x="457.77" y="814.9283"/><text fill="#000000" font-family="sans-serif" font-size="14" font-style="italic" lengthAdjust="spacing" textLength="107.7891" x="488.1035" y="838.4634">&#171;DeployBranch&#187;</text><text fill="#000000" font-family="sans-serif" font-size="14" lengthAdjust="spacing" textLength="148.4561" x="467.77" y="854.9517">devops/deploy-to-no</text></g><!--entity ma--><g class="entity" data-qualified-name="Deployment Branches.ma" data-source-line="31" id="ent0013"><rect fill="#FFF3E0" height="52.9766" rx="2.5" ry="2.5" style="stroke:#181818;stroke-width:0.5;" width="171.9697" x="661.02" y="814.9283"/><text fill="#000000" font-family="sans-serif" font-size="14" font-style="italic" lengthAdjust="spacing" textLength="107.7891" x="693.1103" y="838.4634">&#171;DeployBranch&#187;</text><text fill="#000000" font-family="sans-serif" font-size="14" lengthAdjust="spacing" textLength="151.9697" x="671.02" y="854.9517">devops/deploy-to-ma</text></g><!--entity tcc--><g class="entity" data-qualified-name="Deployment Branches.tcc" data-source-line="32" id="ent0014"><rect fill="#FFF3E0" height="52.9766" rx="2.5" ry="2.5" style="stroke:#181818;stroke-width:0.5;" width="170.7461" x="867.63" y="814.9283"/><text fill="#000000" font-family="sans-serif" font-size="14" font-style="italic" lengthAdjust="spacing" textLength="107.7891" x="899.1085" y="838.4634">&#171;DeployBranch&#187;</text><text fill="#000000" font-family="sans-serif" font-size="14" lengthAdjust="spacing" textLength="150.7461" x="877.63" y="854.9517">devops/deploy-to-tcc</text></g><!--entity ug--><g class="entity" data-qualified-name="Deployment Branches.ug" data-source-line="33" id="ent0015"><rect fill="#FFF3E0" height="52.9766" rx="2.5" ry="2.5" style="stroke:#181818;stroke-width:0.5;" width="168.5859" x="1073.71" y="814.9283"/><text fill="#000000" font-family="sans-serif" font-size="14" font-style="italic" lengthAdjust="spacing" textLength="107.7891" x="1104.1084" y="838.4634">&#171;DeployBranch&#187;</text><text fill="#000000" font-family="sans-serif" font-size="14" lengthAdjust="spacing" textLength="148.5859" x="1083.71" y="854.9517">devops/deploy-to-ug</text></g><!--entity et--><g class="entity" data-qualified-name="Deployment Branches.et" data-source-line="34" id="ent0016"><rect fill="#FFF3E0" height="52.9766" rx="2.5" ry="2.5" style="stroke:#181818;stroke-width:0.5;" width="164.2041" x="1276.9" y="814.9283"/><text fill="#000000" font-family="sans-serif" font-size="14" font-style="italic" lengthAdjust="spacing" textLength="107.7891" x="1305.1075" y="838.4634">&#171;DeployBranch&#187;</text><text fill="#000000" font-family="sans-serif" font-size="14" lengthAdjust="spacing" textLength="144.2041" x="1286.9" y="854.9517">devops/deploy-to-et</text></g><!--entity jo--><g class="entity" data-qualified-name="Deployment Branches.jo" data-source-line="35" id="ent0017"><rect fill="#FFF3E0" height="52.9766" rx="2.5" ry="2.5" style="stroke:#181818;stroke-width:0.5;" width="164.0264" x="1475.99" y="814.9283"/><text fill="#000000" font-family="sans-serif" font-size="14" font-style="italic" lengthAdjust="spacing" textLength="107.7891" x="1504.1087" y="838.4634">&#171;DeployBranch&#187;</text><text fill="#000000" font-family="sans-serif" font-size="14" lengthAdjust="spacing" textLength="144.0264" x="1485.99" y="854.9517">devops/deploy-to-jo</text></g><!--entity Production trigger\nPushes to ALL slots--><g class="entity" data-qualified-name="Deployment Branches.prod.Production trigger.nPushes to ALL slots" data-source-line="25" id="ent0009"><rect fill="#F1F1F1" height="62.9766" rx="2.5" ry="2.5" style="stroke:#181818;stroke-width:0.5;" width="171.0586" x="746.47" y="656.9483"/><rect fill="#F1F1F1" height="10" style="stroke:#181818;stroke-width:0.5;" width="15" x="897.5286" y="661.9483"/><rect fill="#F1F1F1" height="2" style="stroke:#181818;stroke-width:0.5;" width="4" x="895.5286" y="663.9483"/><rect fill="#F1F1F1" height="2" style="stroke:#181818;stroke-width:0.5;" width="4" x="895.5286" y="667.9483"/><text fill="#000000" font-family="sans-serif" font-size="14" lengthAdjust="spacing" textLength="123.7373" x="761.47" y="690.4834">Production trigger</text><text fill="#000000" font-family="sans-serif" font-size="14" lengthAdjust="spacing" textLength="131.0586" x="761.47" y="706.9717">Pushes to ALL slots</text></g><!--entity dev.statbus.org\nno.statbus.org\nma.statbus.org\n...--><g class="entity" data-qualified-name="niue.dev.statbus.org.nno.statbus.org.nma.statbus.org.n..." data-source-line="39" id="ent0019"><rect fill="#F1F1F1" height="95.9531" rx="2.5" ry="2.5" style="stroke:#181818;stroke-width:0.5;" width="145.752" x="669.12" y="1014.8983"/><rect fill="#F1F1F1" height="10" style="stroke:#181818;stroke-width:0.5;" width="15" x="794.872" y="1019.8983"/><rect fill="#F1F1F1" height="2" style="stroke:#181818;stroke-width:0.5;" width="4" x="792.872" y="1021.8983"/><rect fill="#F1F1F1" height="2" style="stroke:#181818;stroke-width:0.5;" width="4" x="792.872" y="1025.8983"/><text fill="#000000" font-family="sans-serif" font-size="14" lengthAdjust="spacing" textLength="105.752" x="684.12" y="1048.4334">dev.statbus.org</text><text fill="#000000" font-family="sans-serif" font-size="14" lengthAdjust="spacing" textLength="99.1826" x="684.12" y="1064.9217">no.statbus.org</text><text fill="#000000" font-family="sans-serif" font-size="14" lengthAdjust="spacing" textLength="102.6963" x="684.12" y="1081.41">ma.statbus.org</text><text fill="#000000" font-family="sans-serif" font-size="14" lengthAdjust="spacing" textLength="13.2891" x="684.12" y="1097.8983">...</text></g><g class="entity" data-qualified-name="GMN38" data-source-line="63" id="ent0039"><path d="M1672.41,660.4683 L1672.41,716.3999 L1881.5863,716.3999 L1881.5863,670.4683 L1871.5863,660.4683 L1672.41,660.4683" fill="#FEFFDD" style="stroke:#181818;stroke-width:0.5;"/><path d="M1871.5863,660.4683 L1871.5863,670.4683 L1881.5863,670.4683 L1871.5863,660.4683" fill="#FEFFDD" style="stroke:#181818;stroke-width:1;"/><text fill="#000000" font-family="sans-serif" font-size="13" lengthAdjust="spacing" textLength="167.6797" x="1678.41" y="678.0366">Push to production branch</text><text fill="#000000" font-family="sans-serif" font-size="13" lengthAdjust="spacing" textLength="177.3979" x="1678.41" y="693.3472">triggers GitHub Actions that</text><text fill="#000000" font-family="sans-serif" font-size="13" lengthAdjust="spacing" textLength="188.1763" x="1678.41" y="708.6577">push to ALL country branches</text></g><g class="entity" data-qualified-name="GMN41" data-source-line="69" id="ent0042"><path d="M735.22,1189.8583 L735.22,1261.1005 L964.7786,1261.1005 L964.7786,1199.8583 L954.7786,1189.8583 L735.22,1189.8583" fill="#FEFFDD" style="stroke:#181818;stroke-width:0.5;"/><path d="M954.7786,1189.8583 L954.7786,1199.8583 L964.7786,1199.8583 L954.7786,1189.8583" fill="#FEFFDD" style="stroke:#181818;stroke-width:1;"/><text fill="#000000" font-family="sans-serif" font-size="13" lengthAdjust="spacing" textLength="208.5586" x="741.22" y="1207.4266">Each deployment branch triggers</text><text fill="#000000" font-family="sans-serif" font-size="13" lengthAdjust="spacing" textLength="165.731" x="741.22" y="1222.7372">SSH to niue.statbus.org as</text><text fill="#000000" font-family="sans-serif" font-size="13" lengthAdjust="spacing" textLength="182.5396" x="741.22" y="1238.0477">statbus_{code} user and runs</text><text fill="#000000" font-family="sans-serif" font-size="13" lengthAdjust="spacing" textLength="172.7578" x="741.22" y="1253.3583">/statbus/devops/deploy.sh</text></g><!--link feature to master--><g class="link" data-entity-1="ent0003" data-entity-2="ent0005" data-link-type="dependency" data-source-line="42" id="lnk20"><path d="M923.9707,225.1961 C924.0294,225.5388 924.0884,225.8826 924.1476,226.2277 C924.3843,227.6081 924.6244,229.0079 924.8675,230.4257 C925.8401,236.0968 926.862,242.0552 927.9167,248.2052 C930.0261,260.505 932.2669,273.5708 934.5075,286.6358 C935.0677,289.902 935.6278,293.1682 936.1859,296.4224 C936.4649,298.0495 936.7434,299.6736 937.0212,301.2931 C937.1601,302.1029 937.2988,302.9116 937.4372,303.7189 C937.5064,304.1226 936.5614,298.6123 936.6306,299.0153" fill="none" id="feature-to-master" style="stroke:#181818;stroke-width:1;"/><polygon fill="#181818" points="937.6447,304.929,940.0659,295.3823,936.7996,300.0009,932.181,296.7346,937.6447,304.929" style="stroke:#181818;stroke-width:1;"/><text fill="#0000FF" font-family="sans-serif" font-size="13" font-weight="bold" lengthAdjust="spacing" textLength="48.3882" x="939.9791" y="262.5466">Manual</text><text fill="#000000" font-family="sans-serif" font-size="13" lengthAdjust="spacing" textLength="59.5664" x="934.39" y="277.8572">PR merge</text></g><!--link master to prod--><g class="link" data-entity-1="ent0005" data-entity-2="ent0008" data-link-type="dependency" data-source-line="43" id="lnk21"><path d="M953,451.0723 C953,451.9686 953,452.8727 953,453.7841 C953,457.4298 953,461.1941 953,465.06 C953,472.7919 953,480.9303 953,489.3397 C953,506.1587 953,524.0617 953,541.9645 C953,559.8673 953,577.7699 953,594.5879 C953,595.639 953,590.6859 953,591.7283" fill="none" id="master-to-prod" style="stroke:#181818;stroke-width:1;"/><polygon fill="#181818" points="953,597.7283,957,588.7283,953,592.7283,949,588.7283,953,597.7283" style="stroke:#181818;stroke-width:1;"/><text fill="#0000FF" font-family="sans-serif" font-size="13" font-weight="bold" lengthAdjust="spacing" textLength="48.3882" x="988.2043" y="512.5166">Manual</text><text fill="#000000" font-family="sans-serif" font-size="13" lengthAdjust="spacing" textLength="116.7969" x="954" y="527.8272">Production release</text></g><!--link prod to dev--><g class="link" data-entity-1="ent0008" data-entity-2="ent0010" data-link-type="dependency" data-source-line="44" id="lnk22"><path d="M946.1456,744.2306 C946.0931,744.341 946.0402,744.4512 945.9871,744.5612 C945.8807,744.7811 945.7729,745.0002 945.6637,745.2186 C945.4453,745.6552 945.2213,746.0884 944.9916,746.5181 C944.0726,748.2366 943.0614,749.8969 941.9495,751.4811 C939.7256,754.6495 937.0988,757.5133 934,759.9283 C923.37,768.2083 462.4,766.4783 449,767.9283 C343.97,779.2883 319.13,792.0183 216,814.9283 C210.41,816.1683 210.5155,816.1254 204.7255,817.4654" fill="none" id="prod-to-dev" style="stroke:#181818;stroke-width:1;"/><polygon fill="#181818" points="198.88,818.8183,208.5501,820.686,203.7512,817.6909,206.7463,812.892,198.88,818.8183" style="stroke:#181818;stroke-width:1;"/><text fill="#008000" font-family="sans-serif" font-size="13" font-weight="bold" lengthAdjust="spacing" textLength="68.3452" x="450" y="781.4966">Automatic</text></g><!--link prod to demo--><g class="link" data-entity-1="ent0008" data-entity-2="ent0011" data-link-type="dependency" data-source-line="45" id="lnk23"><path d="M946.1138,744.1858 C946.0614,744.2963 946.0086,744.4067 945.9555,744.5168 C945.8493,744.737 945.7417,744.9564 945.6327,745.175 C945.4148,745.6122 945.1912,746.0461 944.9619,746.4764 C944.0446,748.1975 943.0357,749.8611 941.9265,751.4491 C939.7081,754.6253 937.0888,757.4995 934,759.9283 C920.06,770.8883 632.56,765.5183 615,767.9283 C544.86,777.5383 472.868,796.1115 415.998,812.7715" fill="none" id="prod-to-demo" style="stroke:#181818;stroke-width:1;"/><polygon fill="#181818" points="410.24,814.4583,420.0016,815.7668,415.0383,813.0526,417.7525,808.0894,410.24,814.4583" style="stroke:#181818;stroke-width:1;"/><text fill="#008000" font-family="sans-serif" font-size="13" font-weight="bold" lengthAdjust="spacing" textLength="68.3452" x="616" y="781.4966">Automatic</text></g><!--link prod to no--><g class="link" data-entity-1="ent0008" data-entity-2="ent0012" data-link-type="dependency" data-source-line="46" id="lnk24"><path d="M946.0322,744.0813 C945.98,744.1921 945.9275,744.3028 945.8746,744.4132 C945.7689,744.634 945.6618,744.8541 945.5534,745.0733 C945.3365,745.5118 945.114,745.9471 944.8859,746.3789 C943.9734,748.106 942.9704,749.777 941.8683,751.3741 C939.6641,754.5683 937.0638,757.467 934,759.9283 C918.91,772.0483 779.03,764.3983 760,767.9283 C706.28,777.8983 653.2208,795.8064 610.3008,812.2964" fill="none" id="prod-to-no" style="stroke:#181818;stroke-width:1;"/><polygon fill="#181818" points="604.7,814.4483,614.5358,814.9544,609.3674,812.6551,611.6667,807.4866,604.7,814.4483" style="stroke:#181818;stroke-width:1;"/><text fill="#008000" font-family="sans-serif" font-size="13" font-weight="bold" lengthAdjust="spacing" textLength="68.3452" x="761" y="781.4966">Automatic</text></g><!--link prod to ma--><g class="link" data-entity-1="ent0008" data-entity-2="ent0013" data-link-type="dependency" data-source-line="47" id="lnk25"><path d="M945.5147,743.9882 C945.4111,744.2116 945.3063,744.4343 945.2001,744.6562 C944.9878,745.1002 944.7702,745.5413 944.5473,745.9793 C943.6557,747.7311 942.6785,749.4326 941.6078,751.0669 C939.4664,754.3353 936.9513,757.3345 934,759.9283 C914.13,777.3983 900.08,759.4783 875,767.9283 C842.33,778.9383 813.5506,795.2182 788.8906,811.2482" fill="none" id="prod-to-ma" style="stroke:#181818;stroke-width:1;"/><polygon fill="#181818" points="783.86,814.5183,793.5859,812.9669,788.0521,811.7932,789.2258,806.2595,783.86,814.5183" style="stroke:#181818;stroke-width:1;"/><text fill="#008000" font-family="sans-serif" font-size="13" font-weight="bold" lengthAdjust="spacing" textLength="68.3452" x="876" y="781.4966">Automatic</text></g><!--link prod to tcc--><g class="link" data-entity-1="ent0008" data-entity-2="ent0014" data-link-type="dependency" data-source-line="48" id="lnk26"><path d="M953,744.1281 C953,744.3334 953,744.5388 953,744.7445 C953,745.5673 953,746.3935 953,747.2227 C953,750.5397 953,753.905 953,757.291 C953,764.0629 953,770.9177 953,777.6344 C953,791.0677 953,797.9483 953,808.5083" fill="none" id="prod-to-tcc" style="stroke:#181818;stroke-width:1;"/><polygon fill="#181818" points="953,814.5083,957,805.5083,953,809.5083,949,805.5083,953,814.5083" style="stroke:#181818;stroke-width:1;"/><text fill="#008000" font-family="sans-serif" font-size="13" font-weight="bold" lengthAdjust="spacing" textLength="68.3452" x="954" y="781.4966">Automatic</text></g><!--link prod to ug--><g class="link" data-entity-1="ent0008" data-entity-2="ent0015" data-link-type="dependency" data-source-line="49" id="lnk27"><path d="M961.1276,695.4232 C961.2494,695.5129 961.3724,695.6035 961.4966,695.695 C961.7451,695.878 961.9985,696.0646 962.2568,696.2548 C963.2898,697.0156 964.4001,697.8333 965.5831,698.7045 C967.9491,700.447 970.6058,702.4036 973.5156,704.5466 C985.155,713.1186 1000.845,724.6739 1018.185,737.4445 C1052.865,762.9858 1089.3139,789.8301 1117.9889,810.9501" fill="none" id="prod-to-ug" style="stroke:#181818;stroke-width:1;"/><polygon fill="#181818" points="1122.82,814.5083,1117.9456,805.9503,1118.7941,811.5431,1113.2013,812.3917,1122.82,814.5083" style="stroke:#181818;stroke-width:1;"/><text fill="#008000" font-family="sans-serif" font-size="13" font-weight="bold" lengthAdjust="spacing" textLength="68.3452" x="1080.89" y="781.4966">Automatic</text></g><!--link prod to et--><g class="link" data-entity-1="ent0008" data-entity-2="ent0016" data-link-type="dependency" data-source-line="50" id="lnk28"><path d="M961.2344,692.5024 C961.4135,692.569 961.5954,692.6366 961.7799,692.7052 C962.5182,692.9797 963.2998,693.2702 964.1237,693.5765 C970.7145,696.0268 980.0072,699.4819 991.3881,703.7136 C1014.15,712.177 1045.265,723.747 1079.825,736.5983 C1148.945,762.3008 1226.2212,791.0371 1283.6362,812.3871" fill="none" id="prod-to-et" style="stroke:#181818;stroke-width:1;"/><polygon fill="#181818" points="1289.26,814.4783,1282.2185,807.5923,1284.5735,812.7356,1279.4302,815.0906,1289.26,814.4783" style="stroke:#181818;stroke-width:1;"/><text fill="#008000" font-family="sans-serif" font-size="13" font-weight="bold" lengthAdjust="spacing" textLength="68.3452" x="1205.3" y="781.4966">Automatic</text></g><!--link prod to jo--><g class="link" data-entity-1="ent0008" data-entity-2="ent0017" data-link-type="dependency" data-source-line="51" id="lnk29"><path d="M961.4284,691.3748 C961.5938,691.4129 961.7615,691.4515 961.9315,691.4907 C962.2715,691.5689 962.6206,691.6493 962.9787,691.7318 C968.7088,693.0514 976.7491,694.9066 986.6889,697.2094 C1006.5684,701.8148 1034.0456,708.2102 1065.8338,715.6895 C1129.41,730.6483 1210.23,749.9433 1282,767.9283 C1347.24,784.2683 1415.0924,802.1229 1469.9024,816.7329" fill="none" id="prod-to-jo" style="stroke:#181818;stroke-width:1;"/><polygon fill="#181818" points="1475.7,818.2783,1468.0339,812.0952,1470.8687,816.9905,1465.9734,819.8253,1475.7,818.2783" style="stroke:#181818;stroke-width:1;"/><text fill="#008000" font-family="sans-serif" font-size="13" font-weight="bold" lengthAdjust="spacing" textLength="68.3452" x="1343.6" y="781.4966">Automatic</text></g><!--link dev to niue--><g class="link" data-entity-1="ent0010" data-entity-2="ent0018" data-link-type="dependency" data-source-line="53" id="lnk30"><path d="M161.11,868.2883 C207.97,890.7683 280.65,921.3483 348,931.8983 C361.26,933.9783 820.88,931.0883 831,939.8983 C836.0913,944.332 840.2172,949.5216 843.5383,955.2137 C843.6421,955.3916 840.7679,950.3607 840.8701,950.5396" fill="none" id="dev-to-niue" style="stroke:#181818;stroke-width:1;"/><polygon fill="#181818" points="843.8473,955.7489,842.8544,945.9502,841.3663,951.4078,835.9087,949.9197,843.8473,955.7489" style="stroke:#181818;stroke-width:1;"/><text fill="#008000" font-family="sans-serif" font-size="13" font-weight="bold" lengthAdjust="spacing" textLength="68.3452" x="366.3608" y="913.4666">Automatic</text><text fill="#000000" font-family="sans-serif" font-size="13" lengthAdjust="spacing" textLength="103.0669" x="349" y="928.7772">SSH + deploy.sh</text></g><!--link demo to niue--><g class="link" data-entity-1="ent0011" data-entity-2="ent0018" data-link-type="dependency" data-source-line="54" id="lnk31"><path d="M384.32,868.3383 C402.02,876.1983 421.72,884.6683 440,891.8983 C489.93,911.6583 501.2,922.1183 554,931.8983 C569.14,934.7083 819.45,929.7183 831,939.8983 C836.0638,944.3633 840.1691,949.5764 843.4751,955.2859 C843.5785,955.4644 840.7205,950.4245 840.8223,950.6039" fill="none" id="demo-to-niue" style="stroke:#181818;stroke-width:1;"/><polygon fill="#181818" points="843.7827,955.8227,842.8213,946.0208,841.3157,951.4737,835.8629,949.9681,843.7827,955.8227" style="stroke:#181818;stroke-width:1;"/><text fill="#008000" font-family="sans-serif" font-size="13" font-weight="bold" lengthAdjust="spacing" textLength="68.3452" x="555" y="920.9666">Automatic</text></g><!--link no to niue--><g class="link" data-entity-1="ent0012" data-entity-2="ent0018" data-link-type="dependency" data-source-line="55" id="lnk32"><path d="M578.89,868.3383 C611.27,889.5783 660.48,918.2583 708,931.8983 C721.16,935.6883 820.89,930.6583 831,939.8983 C835.9825,944.4545 837.0704,944.5152 840.3316,950.2751" fill="none" id="no-to-niue" style="stroke:#181818;stroke-width:1;"/><polygon fill="#181818" points="843.2877,955.4963,842.3343,945.6937,840.8243,951.1453,835.3727,949.6352,843.2877,955.4963" style="stroke:#181818;stroke-width:1;"/><text fill="#008000" font-family="sans-serif" font-size="13" font-weight="bold" lengthAdjust="spacing" textLength="68.3452" x="709" y="920.9666">Automatic</text></g><!--link ma to niue--><g class="link" data-entity-1="ent0013" data-entity-2="ent0018" data-link-type="dependency" data-source-line="56" id="lnk33"><path d="M762.68,868.3383 C775.29,887.6283 794.43,913.6583 816,931.8983 C821.77,936.7783 826.62,933.7483 831,939.8983 C832.955,942.6502 834.7414,945.5252 836.3725,948.4977 C837.188,949.984 837.9647,951.4947 838.7043,953.0265 C839.0741,953.7925 836.9597,949.0979 837.3112,949.874" fill="none" id="ma-to-niue" style="stroke:#181818;stroke-width:1;"/><polygon fill="#181818" points="839.786,955.3398,839.7176,945.4912,837.7236,950.785,832.4299,948.791,839.786,955.3398" style="stroke:#181818;stroke-width:1;"/><text fill="#008000" font-family="sans-serif" font-size="13" font-weight="bold" lengthAdjust="spacing" textLength="68.3452" x="817" y="920.9666">Automatic</text></g><!--link tcc to niue--><g class="link" data-entity-1="ent0014" data-entity-2="ent0018" data-link-type="dependency" data-source-line="57" id="lnk34"><path d="M940.98,868.0183 C927.61,896.5133 905.3625,943.9208 886.215,984.7208 C876.6412,1005.1208 867.8425,1023.8689 861.3159,1037.7752 C860.5001,1039.5134 859.7198,1041.1761 858.9779,1042.7568 C858.7924,1043.152 858.6094,1043.5421 858.4287,1043.9269 C858.3384,1044.1193 860.7979,1038.8789 860.7088,1039.0687" fill="none" id="tcc-to-niue" style="stroke:#181818;stroke-width:1;"/><polygon fill="#181818" points="858.1596,1044.5003,865.6045,1038.0524,860.284,1039.974,858.3624,1034.6535,858.1596,1044.5003" style="stroke:#181818;stroke-width:1;"/><text fill="#008000" font-family="sans-serif" font-size="13" font-weight="bold" lengthAdjust="spacing" textLength="68.3452" x="926.38" y="920.9666">Automatic</text></g><!--link ug to niue--><g class="link" data-entity-1="ent0015" data-entity-2="ent0018" data-link-type="dependency" data-source-line="58" id="lnk35"><path d="M1121.76,868.2383 C1081.69,896.7883 1015.23,944.1433 958.065,984.8758 C929.4825,1005.242 903.2238,1023.9527 883.7494,1037.8292 C874.0122,1044.7675 865.9711,1050.4973 860.1837,1054.6212 C859.4602,1055.1367 863.6584,1052.1452 863.0065,1052.6098" fill="none" id="ug-to-niue" style="stroke:#181818;stroke-width:1;"/><polygon fill="#181818" points="858.1201,1056.0916,867.7709,1054.1264,862.1921,1053.1901,863.1284,1047.6112,858.1201,1056.0916" style="stroke:#181818;stroke-width:1;"/><text fill="#008000" font-family="sans-serif" font-size="13" font-weight="bold" lengthAdjust="spacing" textLength="68.3452" x="1076.4" y="920.9666">Automatic</text></g><!--link et to niue--><g class="link" data-entity-1="ent0016" data-entity-2="ent0018" data-link-type="dependency" data-source-line="59" id="lnk36"><path d="M1308.97,868.2783 C1293.39,876.1083 1276.08,884.5583 1260,891.8983 C1171.68,932.2233 1070.9775,974.0308 991.4775,1006.0933 C951.7275,1022.1245 917.2781,1035.7195 892.3275,1045.4748 C879.8522,1050.3525 869.7516,1054.2702 862.5504,1057.0526 C861.6502,1057.4004 860.7954,1057.7305 859.9869,1058.0424 C859.5826,1058.1984 859.19,1058.3499 858.809,1058.4968 C858.6185,1058.5703 864.0294,1056.4845 863.8448,1056.5556" fill="none" id="et-to-niue" style="stroke:#181818;stroke-width:1;"/><polygon fill="#181818" points="858.2463,1058.7137,868.0827,1059.2089,862.9117,1056.9153,865.2053,1051.7443,858.2463,1058.7137" style="stroke:#181818;stroke-width:1;"/><text fill="#008000" font-family="sans-serif" font-size="13" font-weight="bold" lengthAdjust="spacing" textLength="68.3452" x="1239.24" y="920.9666">Automatic</text></g><!--link jo to niue--><g class="link" data-entity-1="ent0017" data-entity-2="ent0018" data-link-type="dependency" data-source-line="60" id="lnk37"><path d="M1510.99,868.2083 C1494.81,876.4683 1476.39,885.1983 1459,891.8983 C1328.935,942.0733 1178.0375,984.2983 1058.9875,1014.1133 C999.4625,1029.0208 947.8994,1040.8258 910.8831,1048.9708 C892.375,1053.0433 877.5036,1056.2008 867.092,1058.3736 C864.4891,1058.9168 862.165,1059.3985 860.1324,1059.8175 C859.6243,1059.9222 865.0115,1058.8151 864.54,1058.912" fill="none" id="jo-to-niue" style="stroke:#181818;stroke-width:1;"/><polygon fill="#181818" points="858.6629,1060.12,868.2839,1062.2261,863.5605,1059.1133,866.6733,1054.3899,858.6629,1060.12" style="stroke:#181818;stroke-width:1;"/><text fill="#008000" font-family="sans-serif" font-size="13" font-weight="bold" lengthAdjust="spacing" textLength="68.3452" x="1428.16" y="920.9666">Automatic</text></g><!--link prod to GMN38--><g class="link" data-entity-1="ent0008" data-entity-2="ent0039" data-link-type="association" data-source-line="63" id="lnk40"><path d="M962.2175,688.4383 C963.1527,688.4383 964.088,688.4383 965.0233,688.4383 C968.7644,688.4383 972.5055,688.4383 976.2466,688.4383 C983.7288,688.4383 991.2109,688.4383 998.6931,688.4383 C1013.6575,688.4383 1028.6219,688.4383 1043.5862,688.4383 C1073.515,688.4383 1103.4438,688.4383 1133.3725,688.4383 C1193.23,688.4383 1253.0875,688.4383 1312.945,688.4383 C1432.66,688.4383 1552.375,688.4383 1672.09,688.4383" fill="none" id="prod-GMN38" style="stroke:#181818;stroke-width:1;stroke-dasharray:7,7;"/></g><!--link niue to GMN41--><g class="link" data-entity-1="ent0018" data-entity-2="ent0042" data-link-type="association" data-source-line="69" id="lnk43"><path d="M850,1135.4094 C850,1137.1129 850,1138.8217 850,1140.5328 C850,1143.9548 850,1147.3857 850,1150.8005 C850,1164.4595 850,1177.8608 850,1189.4083" fill="none" id="niue-GMN41" style="stroke:#181818;stroke-width:1;stroke-dasharray:7,7;"/></g><?plantuml-src dLNRJjj047ttLqpXBLMIggXIYw981c908YqYe3uGX3Rsn76mTwEzS16YtzxPzIPnBfYcpeEpUywPcPsT6NzAS9nnX7xuyoQykB--EZyzxLr19nQva8UZt62tqUWpRbZUQ7JQRhiRVFAgyERwLp-yFZzU5wOIaPCoD5eKJ6TnHHoeXupFc6G5Z5Zya4fXU79iCTYFUlPNOKYCDUDfZl0Q03r7gufEvqWo7a-wNTZl7KHVevFjh1ESvU9boOsYwA3tPJjtWF8HfRFuFVhM-n6y1O7ED8Kmq4mV6GMdcORIOe5SmsyX7yQvU0g2PRHx9_Y8kPXPmfwFlOAEaMaZiVty_Bm7J85VG-KyfSO-jzuMIdWYLtSEeA3MR1PCQPJENFdt7Mjzbd4OEM38mpoVEoSPoXGJcA34kPEtjKCj3brQHhNbS0a-Yfbg9uxSrA8vao8niSu4Tz7P9MpSIIN2omKVjCpI5EMGNnf5ta0B22ykGEL2g_SIiU6VDfnZUc_u_GTn8Row4BlBUIdc_o4jcB_CtQKwZfsMthkBJUgq9jrTYjf9KUykdPQ9ccv9r6eHyinWIr4hZeng2La6QpUXqhjbDTsIbofroBbONHTiTTrgjUwiltb3DflTUJSThWr9gichicK2px1aLznRgCkIbfWZKnWuffNOiZpSdALL0bLUBOD_W5CDrUAsJce9L0orEDruBJxT7c1Wp-uEOEzl2sF81uCp-0nbdRJK9739g9C4_0ESab6BssJK4YWPjJWbenQVVX0WdK0ZqEIRQ11ZLr9KpdO2slctdAP-YXFcnwJxD9sP4OGEf_wVC4tmp4ljw8pfKwVbYzUY2f0dO1rwjoEXwPjj_ThuIDnZySJdtqt-KhXmIGnxHMHzlJ6fBmdq6_UliKZm3OoYHc7aKXfkuJzjJsYlJ0Hxqul0_W80?></g></svg>