<?plantuml 1.2026.1?><svg xmlns="http://www.w3.org/2000/svg" xmlns:xlink="http://www.w3.org/1999/xlink" contentStyleType="text/css" data-diagram-type="DESCRIPTION" height="1268px" preserveAspectRatio="none" style="width:1873px;height:1268px;background:#FEFEFE;" version="1.1" viewBox="0 0 1873 1268" width="1873px" zoomAndPan="magnify"><title>StatBus Git Deployment Workflow</title><defs/><g><rect fill="#FEFEFE" height="1268" style="stroke:none;stroke-width:1;" width="1873" x="0" y="0"/><g class="title" data-source-line="11"><text fill="#000000" font-family="sans-serif" font-size="14" font-weight="bold" lengthAdjust="spacing" textLength="243.0928" x="808.2467" y="23.5352">StatBus Git Deployment Workflow</text></g><!--cluster Development--><g class="cluster" data-qualified-name="Development" data-source-line="13" id="ent0002"><rect fill="none" height="438.46" rx="2.5" ry="2.5" style="stroke:#181818;stroke-width:1;" width="339" x="645" y="44.4883"/><text fill="#000000" font-family="sans-serif" font-size="14" font-weight="bold" lengthAdjust="spacing" textLength="95.2314" x="766.8843" y="60.0234">Development</text></g><!--cluster feature--><g class="cluster" data-qualified-name="Development.feature" data-source-line="14" id="ent0003"><rect fill="#E3F2FD" height="129.49" rx="2.5" ry="2.5" style="stroke:#181818;stroke-width:1;" width="213" x="702" y="95.4883"/><text fill="#000000" font-family="sans-serif" font-size="14" font-style="italic" lengthAdjust="spacing" textLength="60.7305" x="778.1348" y="111.0234">&#171;Branch&#187;</text><text fill="#000000" font-family="sans-serif" font-size="14" font-weight="bold" lengthAdjust="spacing" textLength="84.4033" x="766.2983" y="127.5117">feature/xxx</text></g><!--cluster master--><g class="cluster" data-qualified-name="Development.master" data-source-line="18" id="ent0005"><rect fill="#E3F2FD" height="145.97" rx="2.5" ry="2.5" style="stroke:#181818;stroke-width:1;" width="275" x="677" y="304.9783"/><text fill="#000000" font-family="sans-serif" font-size="14" font-style="italic" lengthAdjust="spacing" textLength="60.7305" x="784.1348" y="320.5134">&#171;Branch&#187;</text><text fill="#000000" font-family="sans-serif" font-size="14" font-weight="bold" lengthAdjust="spacing" textLength="49.9639" x="789.5181" y="337.0017">master</text></g><!--cluster Deployment Branches--><g class="cluster" data-qualified-name="Deployment Branches" data-source-line="23" id="ent0007"><rect fill="none" height="336.95" rx="2.5" ry="2.5" style="stroke:#181818;stroke-width:1;" width="1634" x="7" y="546.9483"/><text fill="#000000" font-family="sans-serif" font-size="14" font-weight="bold" lengthAdjust="spacing" textLength="156.8711" x="745.5645" y="562.4834">Deployment Branches</text></g><!--cluster prod--><g class="cluster" data-qualified-name="Deployment Branches.prod" data-source-line="24" id="ent0008"><rect fill="#FFF3E0" height="145.98" rx="2.5" ry="2.5" style="stroke:#181818;stroke-width:1;" width="239" x="713" y="597.9483"/><text fill="#000000" font-family="sans-serif" font-size="14" font-style="italic" lengthAdjust="spacing" textLength="107.7891" x="778.6055" y="613.4834">&#171;DeployBranch&#187;</text><text fill="#000000" font-family="sans-serif" font-size="14" font-weight="bold" lengthAdjust="spacing" textLength="216.5762" x="724.2119" y="629.9717">ops/cloud/deploy/production</text></g><!--cluster niue--><g class="cluster" data-qualified-name="niue" data-source-line="38" id="ent0018"><rect fill="#E8F5E9" height="178.96" rx="2.5" ry="2.5" style="stroke:#181818;stroke-width:1;" width="213" x="636" y="955.8983"/><text fill="#000000" font-family="sans-serif" font-size="14" font-style="italic" lengthAdjust="spacing" textLength="56.5127" x="714.2437" y="971.4334">&#171;Server&#187;</text><text fill="#000000" font-family="sans-serif" font-size="14" font-weight="bold" lengthAdjust="spacing" textLength="116.4844" x="684.2578" y="987.9217">niue.statbus.org</text></g><!--entity Developer work--><g class="entity" data-qualified-name="Development.feature.Developer work" data-source-line="15" id="ent0004"><rect fill="#F1F1F1" height="46.4883" rx="2.5" ry="2.5" style="stroke:#181818;stroke-width:0.5;" width="146.0459" x="725.98" y="154.4883"/><rect fill="#F1F1F1" height="10" style="stroke:#181818;stroke-width:0.5;" width="15" x="852.0259" y="159.4883"/><rect fill="#F1F1F1" height="2" style="stroke:#181818;stroke-width:0.5;" width="4" x="850.0259" y="161.4883"/><rect fill="#F1F1F1" height="2" style="stroke:#181818;stroke-width:0.5;" width="4" x="850.0259" y="165.4883"/><text fill="#000000" font-family="sans-serif" font-size="14" lengthAdjust="spacing" textLength="106.0459" x="740.98" y="188.0234">Developer work</text></g><!--entity Main branch\nAll features merged here--><g class="entity" data-qualified-name="Development.master.Main branch.nAll features merged here" data-source-line="19" id="ent0006"><rect fill="#F1F1F1" height="62.9766" rx="2.5" ry="2.5" style="stroke:#181818;stroke-width:0.5;" width="208.2666" x="700.87" y="363.9783"/><rect fill="#F1F1F1" height="10" style="stroke:#181818;stroke-width:0.5;" width="15" x="889.1366" y="368.9783"/><rect fill="#F1F1F1" height="2" style="stroke:#181818;stroke-width:0.5;" width="4" x="887.1366" y="370.9783"/><rect fill="#F1F1F1" height="2" style="stroke:#181818;stroke-width:0.5;" width="4" x="887.1366" y="374.9783"/><text fill="#000000" font-family="sans-serif" font-size="14" lengthAdjust="spacing" textLength="83.7744" x="715.87" y="397.5134">Main branch</text><text fill="#000000" font-family="sans-serif" font-size="14" lengthAdjust="spacing" textLength="168.2666" x="715.87" y="414.0017">All features merged here</text></g><!--entity dev--><g class="entity" data-qualified-name="Deployment Branches.dev" data-source-line="28" id="ent0010"><rect fill="#FFF3E0" height="52.9766" rx="2.5" ry="2.5" style="stroke:#181818;stroke-width:0.5;" width="173.1318" x="23.43" y="814.9283"/><text fill="#000000" font-family="sans-serif" font-size="14" font-style="italic" lengthAdjust="spacing" textLength="107.7891" x="56.1014" y="838.4634">&#171;DeployBranch&#187;</text><text fill="#000000" font-family="sans-serif" font-size="14" lengthAdjust="spacing" textLength="153.1318" x="33.43" y="854.9517">ops/cloud/deploy/dev</text></g><!--entity demo--><g class="entity" data-qualified-name="Deployment Branches.demo" data-source-line="29" id="ent0011"><rect fill="#FFF3E0" height="52.9766" rx="2.5" ry="2.5" style="stroke:#181818;stroke-width:0.5;" width="187.5557" x="231.22" y="814.9283"/><text fill="#000000" font-family="sans-serif" font-size="14" font-style="italic" lengthAdjust="spacing" textLength="107.7891" x="271.1033" y="838.4634">&#171;DeployBranch&#187;</text><text fill="#000000" font-family="sans-serif" font-size="14" lengthAdjust="spacing" textLength="167.5557" x="241.22" y="854.9517">ops/cloud/deploy/demo</text></g><!--entity no--><g class="entity" data-qualified-name="Deployment Branches.no" data-source-line="30" id="ent0012"><rect fill="#FFF3E0" height="52.9766" rx="2.5" ry="2.5" style="stroke:#181818;stroke-width:0.5;" width="166.5625" x="453.72" y="814.9283"/><text fill="#000000" font-family="sans-serif" font-size="14" font-style="italic" lengthAdjust="spacing" textLength="107.7891" x="483.1067" y="838.4634">&#171;DeployBranch&#187;</text><text fill="#000000" font-family="sans-serif" font-size="14" lengthAdjust="spacing" textLength="146.5625" x="463.72" y="854.9517">ops/cloud/deploy/no</text></g><!--entity ma--><g class="entity" data-qualified-name="Deployment Branches.ma" data-source-line="31" id="ent0013"><rect fill="#FFF3E0" height="52.9766" rx="2.5" ry="2.5" style="stroke:#181818;stroke-width:0.5;" width="170.0762" x="654.96" y="814.9283"/><text fill="#000000" font-family="sans-serif" font-size="14" font-style="italic" lengthAdjust="spacing" textLength="107.7891" x="686.1036" y="838.4634">&#171;DeployBranch&#187;</text><text fill="#000000" font-family="sans-serif" font-size="14" lengthAdjust="spacing" textLength="150.0762" x="664.96" y="854.9517">ops/cloud/deploy/ma</text></g><!--entity tcc--><g class="entity" data-qualified-name="Deployment Branches.tcc" data-source-line="32" id="ent0014"><rect fill="#FFF3E0" height="52.9766" rx="2.5" ry="2.5" style="stroke:#181818;stroke-width:0.5;" width="168.8525" x="859.57" y="814.9283"/><text fill="#000000" font-family="sans-serif" font-size="14" font-style="italic" lengthAdjust="spacing" textLength="107.7891" x="890.1017" y="838.4634">&#171;DeployBranch&#187;</text><text fill="#000000" font-family="sans-serif" font-size="14" lengthAdjust="spacing" textLength="148.8525" x="869.57" y="854.9517">ops/cloud/deploy/tcc</text></g><!--entity ug--><g class="entity" data-qualified-name="Deployment Branches.ug" data-source-line="33" id="ent0015"><rect fill="#FFF3E0" height="52.9766" rx="2.5" ry="2.5" style="stroke:#181818;stroke-width:0.5;" width="166.6924" x="1063.65" y="814.9283"/><text fill="#000000" font-family="sans-serif" font-size="14" font-style="italic" lengthAdjust="spacing" textLength="107.7891" x="1093.1017" y="838.4634">&#171;DeployBranch&#187;</text><text fill="#000000" font-family="sans-serif" font-size="14" lengthAdjust="spacing" textLength="146.6924" x="1073.65" y="854.9517">ops/cloud/deploy/ug</text></g><!--entity et--><g class="entity" data-qualified-name="Deployment Branches.et" data-source-line="34" id="ent0016"><rect fill="#FFF3E0" height="52.9766" rx="2.5" ry="2.5" style="stroke:#181818;stroke-width:0.5;" width="162.3105" x="1265.84" y="814.9283"/><text fill="#000000" font-family="sans-serif" font-size="14" font-style="italic" lengthAdjust="spacing" textLength="107.7891" x="1293.1007" y="838.4634">&#171;DeployBranch&#187;</text><text fill="#000000" font-family="sans-serif" font-size="14" lengthAdjust="spacing" textLength="142.3105" x="1275.84" y="854.9517">ops/cloud/deploy/et</text></g><!--entity jo--><g class="entity" data-qualified-name="Deployment Branches.jo" data-source-line="35" id="ent0017"><rect fill="#FFF3E0" height="52.9766" rx="2.5" ry="2.5" style="stroke:#181818;stroke-width:0.5;" width="162.1328" x="1462.93" y="814.9283"/><text fill="#000000" font-family="sans-serif" font-size="14" font-style="italic" lengthAdjust="spacing" textLength="107.7891" x="1490.1019" y="838.4634">&#171;DeployBranch&#187;</text><text fill="#000000" font-family="sans-serif" font-size="14" lengthAdjust="spacing" textLength="142.1328" x="1472.93" y="854.9517">ops/cloud/deploy/jo</text></g><!--entity Production trigger\nPushes to ALL slots--><g class="entity" data-qualified-name="Deployment Branches.prod.Production trigger.nPushes to ALL slots" data-source-line="25" id="ent0009"><rect fill="#F1F1F1" height="62.9766" rx="2.5" ry="2.5" style="stroke:#181818;stroke-width:0.5;" width="171.0586" x="737.47" y="656.9483"/><rect fill="#F1F1F1" height="10" style="stroke:#181818;stroke-width:0.5;" width="15" x="888.5286" y="661.9483"/><rect fill="#F1F1F1" height="2" style="stroke:#181818;stroke-width:0.5;" width="4" x="886.5286" y="663.9483"/><rect fill="#F1F1F1" height="2" style="stroke:#181818;stroke-width:0.5;" width="4" x="886.5286" y="667.9483"/><text fill="#000000" font-family="sans-serif" font-size="14" lengthAdjust="spacing" textLength="123.7373" x="752.47" y="690.4834">Production trigger</text><text fill="#000000" font-family="sans-serif" font-size="14" lengthAdjust="spacing" textLength="131.0586" x="752.47" y="706.9717">Pushes to ALL slots</text></g><!--entity dev.statbus.org\nno.statbus.org\nma.statbus.org\n...--><g class="entity" data-qualified-name="niue.dev.statbus.org.nno.statbus.org.nma.statbus.org.n..." data-source-line="39" id="ent0019"><rect fill="#F1F1F1" height="95.9531" rx="2.5" ry="2.5" style="stroke:#181818;stroke-width:0.5;" width="145.752" x="660.12" y="1014.8983"/><rect fill="#F1F1F1" height="10" style="stroke:#181818;stroke-width:0.5;" width="15" x="785.872" y="1019.8983"/><rect fill="#F1F1F1" height="2" style="stroke:#181818;stroke-width:0.5;" width="4" x="783.872" y="1021.8983"/><rect fill="#F1F1F1" height="2" style="stroke:#181818;stroke-width:0.5;" width="4" x="783.872" y="1025.8983"/><text fill="#000000" font-family="sans-serif" font-size="14" lengthAdjust="spacing" textLength="105.752" x="675.12" y="1048.4334">dev.statbus.org</text><text fill="#000000" font-family="sans-serif" font-size="14" lengthAdjust="spacing" textLength="99.1826" x="675.12" y="1064.9217">no.statbus.org</text><text fill="#000000" font-family="sans-serif" font-size="14" lengthAdjust="spacing" textLength="102.6963" x="675.12" y="1081.41">ma.statbus.org</text><text fill="#000000" font-family="sans-serif" font-size="14" lengthAdjust="spacing" textLength="13.2891" x="675.12" y="1097.8983">...</text></g><g class="entity" data-qualified-name="GMN38" data-source-line="63" id="ent0039"><path d="M1657.41,660.4683 L1657.41,716.3999 L1866.5863,716.3999 L1866.5863,670.4683 L1856.5863,660.4683 L1657.41,660.4683" fill="#FEFFDD" style="stroke:#181818;stroke-width:0.5;"/><path d="M1856.5863,660.4683 L1856.5863,670.4683 L1866.5863,670.4683 L1856.5863,660.4683" fill="#FEFFDD" style="stroke:#181818;stroke-width:1;"/><text fill="#000000" font-family="sans-serif" font-size="13" lengthAdjust="spacing" textLength="167.6797" x="1663.41" y="678.0366">Push to production branch</text><text fill="#000000" font-family="sans-serif" font-size="13" lengthAdjust="spacing" textLength="177.3979" x="1663.41" y="693.3472">triggers GitHub Actions that</text><text fill="#000000" font-family="sans-serif" font-size="13" lengthAdjust="spacing" textLength="188.1763" x="1663.41" y="708.6577">push to ALL country branches</text></g><g class="entity" data-qualified-name="GMN41" data-source-line="69" id="ent0042"><path d="M726.22,1189.8583 L726.22,1261.1005 L955.7786,1261.1005 L955.7786,1199.8583 L945.7786,1189.8583 L726.22,1189.8583" fill="#FEFFDD" style="stroke:#181818;stroke-width:0.5;"/><path d="M945.7786,1189.8583 L945.7786,1199.8583 L955.7786,1199.8583 L945.7786,1189.8583" fill="#FEFFDD" style="stroke:#181818;stroke-width:1;"/><text fill="#000000" font-family="sans-serif" font-size="13" lengthAdjust="spacing" textLength="208.5586" x="732.22" y="1207.4266">Each deployment branch triggers</text><text fill="#000000" font-family="sans-serif" font-size="13" lengthAdjust="spacing" textLength="165.731" x="732.22" y="1222.7372">SSH to niue.statbus.org as</text><text fill="#000000" font-family="sans-serif" font-size="13" lengthAdjust="spacing" textLength="203.7979" x="732.22" y="1238.0477">statbus_{code} user and triggers</text><text fill="#000000" font-family="sans-serif" font-size="13" lengthAdjust="spacing" textLength="124.2554" x="732.22" y="1253.3583">the upgrade service</text></g><!--link feature to master--><g class="link" data-entity-1="ent0003" data-entity-2="ent0005" data-link-type="dependency" data-source-line="42" id="lnk20"><path d="M914.9707,225.1961 C915.0294,225.5388 915.0884,225.8826 915.1476,226.2277 C915.3843,227.6081 915.6244,229.0079 915.8675,230.4257 C916.8401,236.0968 917.862,242.0552 918.9167,248.2052 C921.0261,260.505 923.2669,273.5708 925.5075,286.6358 C926.0677,289.902 926.6278,293.1682 927.1859,296.4224 C927.4649,298.0495 927.7434,299.6736 928.0212,301.2931 C928.1601,302.1029 928.2988,302.9116 928.4372,303.7189 C928.5064,304.1226 927.5614,298.6123 927.6306,299.0153" fill="none" id="feature-to-master" style="stroke:#181818;stroke-width:1;"/><polygon fill="#181818" points="928.6447,304.929,931.0659,295.3823,927.7996,300.0009,923.181,296.7346,928.6447,304.929" style="stroke:#181818;stroke-width:1;"/><text fill="#0000FF" font-family="sans-serif" font-size="13" font-weight="bold" lengthAdjust="spacing" textLength="48.3882" x="930.9791" y="262.5466">Manual</text><text fill="#000000" font-family="sans-serif" font-size="13" lengthAdjust="spacing" textLength="59.5664" x="925.39" y="277.8572">PR merge</text></g><!--link master to prod--><g class="link" data-entity-1="ent0005" data-entity-2="ent0008" data-link-type="dependency" data-source-line="43" id="lnk21"><path d="M944,451.0723 C944,451.9686 944,452.8727 944,453.7841 C944,457.4298 944,461.1941 944,465.06 C944,472.7919 944,480.9303 944,489.3397 C944,506.1587 944,524.0617 944,541.9645 C944,559.8673 944,577.7699 944,594.5879 C944,595.639 944,590.6859 944,591.7283" fill="none" id="master-to-prod" style="stroke:#181818;stroke-width:1;"/><polygon fill="#181818" points="944,597.7283,948,588.7283,944,592.7283,940,588.7283,944,597.7283" style="stroke:#181818;stroke-width:1;"/><text fill="#0000FF" font-family="sans-serif" font-size="13" font-weight="bold" lengthAdjust="spacing" textLength="48.3882" x="979.2043" y="512.5166">Manual</text><text fill="#000000" font-family="sans-serif" font-size="13" lengthAdjust="spacing" textLength="116.7969" x="945" y="527.8272">Production release</text></g><!--link prod to dev--><g class="link" data-entity-1="ent0008" data-entity-2="ent0010" data-link-type="dependency" data-source-line="44" id="lnk22"><path d="M937.1456,744.2306 C937.0931,744.341 937.0402,744.4512 936.9871,744.5612 C936.8807,744.7811 936.7729,745.0002 936.6637,745.2186 C936.4453,745.6552 936.2213,746.0884 935.9916,746.5181 C935.0726,748.2366 934.0614,749.8969 932.9495,751.4811 C930.7256,754.6495 928.0988,757.5133 925,759.9283 C914.44,768.1583 456.31,766.4583 443,767.9283 C339.72,779.2783 315.36,792.1083 214,814.9283 C208.47,816.1683 208.6201,816.1023 202.8901,817.4523" fill="none" id="prod-to-dev" style="stroke:#181818;stroke-width:1;"/><polygon fill="#181818" points="197.05,818.8283,206.7274,820.6578,201.9168,817.6817,204.8929,812.871,197.05,818.8283" style="stroke:#181818;stroke-width:1;"/><text fill="#008000" font-family="sans-serif" font-size="13" font-weight="bold" lengthAdjust="spacing" textLength="68.3452" x="444" y="781.4966">Automatic</text></g><!--link prod to demo--><g class="link" data-entity-1="ent0008" data-entity-2="ent0011" data-link-type="dependency" data-source-line="45" id="lnk23"><path d="M937.1138,744.1858 C937.0614,744.2963 937.0086,744.4067 936.9555,744.5168 C936.8493,744.737 936.7417,744.9564 936.6327,745.175 C936.4148,745.6122 936.1912,746.0461 935.9619,746.4764 C935.0446,748.1975 934.0357,749.8611 932.9265,751.4491 C930.7081,754.6253 928.0888,757.4995 925,759.9283 C911.11,770.8483 624.5,765.4883 607,767.9283 C538.03,777.5283 467.3897,796.0735 411.5297,812.7335" fill="none" id="prod-to-demo" style="stroke:#181818;stroke-width:1;"/><polygon fill="#181818" points="405.78,814.4483,415.5478,815.7092,410.5714,813.0193,413.2614,808.0429,405.78,814.4483" style="stroke:#181818;stroke-width:1;"/><text fill="#008000" font-family="sans-serif" font-size="13" font-weight="bold" lengthAdjust="spacing" textLength="68.3452" x="608" y="781.4966">Automatic</text></g><!--link prod to no--><g class="link" data-entity-1="ent0008" data-entity-2="ent0012" data-link-type="dependency" data-source-line="46" id="lnk24"><path d="M937.0322,744.0813 C936.98,744.1921 936.9275,744.3028 936.8746,744.4132 C936.7689,744.634 936.6618,744.8541 936.5534,745.0733 C936.3365,745.5118 936.114,745.9471 935.8859,746.3789 C934.9734,748.106 933.9704,749.777 932.8683,751.3741 C930.6641,754.5683 928.0638,757.467 925,759.9283 C909.91,772.0483 770.02,764.3383 751,767.9283 C698.19,777.8783 646.1965,795.7493 604.0865,812.2493" fill="none" id="prod-to-no" style="stroke:#181818;stroke-width:1;"/><polygon fill="#181818" points="598.5,814.4383,608.339,814.8792,603.1554,812.6142,605.4204,807.4306,598.5,814.4383" style="stroke:#181818;stroke-width:1;"/><text fill="#008000" font-family="sans-serif" font-size="13" font-weight="bold" lengthAdjust="spacing" textLength="68.3452" x="752" y="781.4966">Automatic</text></g><!--link prod to ma--><g class="link" data-entity-1="ent0008" data-entity-2="ent0013" data-link-type="dependency" data-source-line="47" id="lnk25"><path d="M936.5147,743.9882 C936.4111,744.2116 936.3063,744.4343 936.2001,744.6562 C935.9878,745.1002 935.7702,745.5413 935.5473,745.9793 C934.6557,747.7311 933.6785,749.4326 932.6078,751.0669 C930.4664,754.3353 927.9513,757.3345 925,759.9283 C905.13,777.3983 891.05,759.3883 866,767.9283 C833.75,778.9183 805.485,795.1591 781.225,811.1991" fill="none" id="prod-to-ma" style="stroke:#181818;stroke-width:1;"/><polygon fill="#181818" points="776.22,814.5083,785.9335,812.8812,780.3908,811.7507,781.5214,806.2079,776.22,814.5083" style="stroke:#181818;stroke-width:1;"/><text fill="#008000" font-family="sans-serif" font-size="13" font-weight="bold" lengthAdjust="spacing" textLength="68.3452" x="867" y="781.4966">Automatic</text></g><!--link prod to tcc--><g class="link" data-entity-1="ent0008" data-entity-2="ent0014" data-link-type="dependency" data-source-line="48" id="lnk26"><path d="M944,744.1281 C944,744.3334 944,744.5388 944,744.7445 C944,745.5673 944,746.3935 944,747.2227 C944,750.5397 944,753.905 944,757.291 C944,764.0629 944,770.9177 944,777.6344 C944,791.0677 944,797.9483 944,808.5083" fill="none" id="prod-to-tcc" style="stroke:#181818;stroke-width:1;"/><polygon fill="#181818" points="944,814.5083,948,805.5083,944,809.5083,940,805.5083,944,814.5083" style="stroke:#181818;stroke-width:1;"/><text fill="#008000" font-family="sans-serif" font-size="13" font-weight="bold" lengthAdjust="spacing" textLength="68.3452" x="945" y="781.4966">Automatic</text></g><!--link prod to ug--><g class="link" data-entity-1="ent0008" data-entity-2="ent0015" data-link-type="dependency" data-source-line="49" id="lnk27"><path d="M952.0483,695.4232 C952.1689,695.5129 952.2907,695.6035 952.4137,695.695 C952.6598,695.878 952.9107,696.0646 953.1664,696.2548 C954.1893,697.0156 955.2888,697.8333 956.4602,698.7045 C958.8032,700.447 961.4339,702.4036 964.3155,704.5466 C975.8416,713.1186 991.3794,724.6739 1008.5513,737.4445 C1042.895,762.9858 1078.9607,789.8074 1107.3557,810.9274" fill="none" id="prod-to-ug" style="stroke:#181818;stroke-width:1;"/><polygon fill="#181818" points="1112.17,814.5083,1107.3358,805.9275,1108.1581,811.5242,1102.5613,812.3465,1112.17,814.5083" style="stroke:#181818;stroke-width:1;"/><text fill="#008000" font-family="sans-serif" font-size="13" font-weight="bold" lengthAdjust="spacing" textLength="68.3452" x="1070.65" y="781.4966">Automatic</text></g><!--link prod to et--><g class="link" data-entity-1="ent0008" data-entity-2="ent0016" data-link-type="dependency" data-source-line="50" id="lnk28"><path d="M952.175,692.5024 C952.3528,692.569 952.5333,692.6366 952.7165,692.7052 C953.4493,692.9797 954.2252,693.2702 955.0429,693.5765 C961.5853,696.0268 970.8093,699.4819 982.1061,703.7136 C1004.6997,712.177 1035.5844,723.747 1069.8888,736.5983 C1138.4975,762.3008 1215.1663,791.0235 1272.1613,812.3735" fill="none" id="prod-to-et" style="stroke:#181818;stroke-width:1;"/><polygon fill="#181818" points="1277.78,814.4783,1270.7551,807.5754,1273.0977,812.7243,1267.9488,815.067,1277.78,814.4783" style="stroke:#181818;stroke-width:1;"/><text fill="#008000" font-family="sans-serif" font-size="13" font-weight="bold" lengthAdjust="spacing" textLength="68.3452" x="1194.45" y="781.4966">Automatic</text></g><!--link prod to jo--><g class="link" data-entity-1="ent0008" data-entity-2="ent0017" data-link-type="dependency" data-source-line="51" id="lnk29"><path d="M952.3772,691.3721 C952.5416,691.4101 952.7083,691.4487 952.8773,691.4877 C953.2152,691.5659 953.5622,691.6461 953.9182,691.7285 C959.6137,693.0461 967.6059,694.8985 977.4861,697.1981 C997.2466,701.7973 1024.5594,708.1852 1056.1563,715.6595 C1119.35,730.6083 1199.68,749.9033 1271,767.9283 C1335.54,784.2383 1402.607,802.0757 1456.807,816.6957" fill="none" id="prod-to-jo" style="stroke:#181818;stroke-width:1;"/><polygon fill="#181818" points="1462.6,818.2583,1454.9523,812.0524,1457.7725,816.9561,1452.8688,819.7763,1462.6,818.2583" style="stroke:#181818;stroke-width:1;"/><text fill="#008000" font-family="sans-serif" font-size="13" font-weight="bold" lengthAdjust="spacing" textLength="68.3452" x="1331.95" y="781.4966">Automatic</text></g><!--link dev to niue--><g class="link" data-entity-1="ent0010" data-entity-2="ent0018" data-link-type="dependency" data-source-line="53" id="lnk30"><path d="M152.26,868.3183 C190.54,890.1583 249.32,919.7583 305,931.8983 C319.03,934.9683 811.16,930.4783 822,939.8983 C827.0938,944.3295 831.2216,949.5172 834.544,955.208 C834.6479,955.3858 831.7723,950.3557 831.8746,950.5345" fill="none" id="dev-to-niue" style="stroke:#181818;stroke-width:1;"/><polygon fill="#181818" points="834.8532,955.743,833.8576,945.9446,832.371,951.4026,826.913,949.9161,834.8532,955.743" style="stroke:#181818;stroke-width:1;"/><text fill="#008000" font-family="sans-serif" font-size="13" font-weight="bold" lengthAdjust="spacing" textLength="68.3452" x="342.8704" y="913.4666">Automatic</text><text fill="#000000" font-family="sans-serif" font-size="13" lengthAdjust="spacing" textLength="142.0859" x="306" y="928.7772">SSH + upgrade service</text></g><!--link demo to niue--><g class="link" data-entity-1="ent0011" data-entity-2="ent0018" data-link-type="dependency" data-source-line="54" id="lnk31"><path d="M381.13,868.3983 C398.59,876.2283 417.99,884.6583 436,891.8983 C484.65,911.4783 495.48,922.1283 547,931.8983 C562.02,934.7483 810.54,929.7983 822,939.8983 C827.0638,944.3645 831.1691,949.5786 834.4751,955.2888 C834.5785,955.4673 831.7208,950.4272 831.8226,950.6066" fill="none" id="demo-to-niue" style="stroke:#181818;stroke-width:1;"/><polygon fill="#181818" points="834.7827,955.8256,833.8218,946.0237,832.3159,951.4765,826.8632,949.9706,834.7827,955.8256" style="stroke:#181818;stroke-width:1;"/><text fill="#008000" font-family="sans-serif" font-size="13" font-weight="bold" lengthAdjust="spacing" textLength="68.3452" x="548" y="920.9666">Automatic</text></g><!--link no to niue--><g class="link" data-entity-1="ent0012" data-entity-2="ent0018" data-link-type="dependency" data-source-line="55" id="lnk32"><path d="M573.15,868.3383 C604.9,889.5683 653.2,918.2583 700,931.8983 C713.04,935.7083 811.98,930.7383 822,939.8983 C826.9813,944.4558 828.069,944.5169 831.3294,950.2776" fill="none" id="no-to-niue" style="stroke:#181818;stroke-width:1;"/><polygon fill="#181818" points="834.2848,955.4992,833.3328,945.6965,831.822,951.1478,826.3706,949.637,834.2848,955.4992" style="stroke:#181818;stroke-width:1;"/><text fill="#008000" font-family="sans-serif" font-size="13" font-weight="bold" lengthAdjust="spacing" textLength="68.3452" x="701" y="920.9666">Automatic</text></g><!--link ma to niue--><g class="link" data-entity-1="ent0013" data-entity-2="ent0018" data-link-type="dependency" data-source-line="56" id="lnk33"><path d="M755.07,868.3683 C767.24,887.6683 785.79,913.7083 807,931.8983 C812.73,936.8183 817.62,933.7483 822,939.8983 C823.955,942.6502 825.7414,945.5252 827.3725,948.4977 C828.188,949.984 828.9647,951.4947 829.7043,953.0265 C830.0741,953.7925 827.9597,949.0979 828.3112,949.874" fill="none" id="ma-to-niue" style="stroke:#181818;stroke-width:1;"/><polygon fill="#181818" points="830.786,955.3398,830.7176,945.4912,828.7236,950.785,823.4299,948.791,830.786,955.3398" style="stroke:#181818;stroke-width:1;"/><text fill="#008000" font-family="sans-serif" font-size="13" font-weight="bold" lengthAdjust="spacing" textLength="68.3452" x="808" y="920.9666">Automatic</text></g><!--link tcc to niue--><g class="link" data-entity-1="ent0014" data-entity-2="ent0018" data-link-type="dependency" data-source-line="57" id="lnk34"><path d="M931.98,868.0183 C918.61,896.5133 896.3625,943.9208 877.215,984.7208 C867.6412,1005.1208 858.8425,1023.8689 852.3159,1037.7752 C851.5001,1039.5134 850.7198,1041.1761 849.9779,1042.7568 C849.7924,1043.152 849.6094,1043.5421 849.4287,1043.9269 C849.3384,1044.1193 851.7979,1038.8789 851.7088,1039.0687" fill="none" id="tcc-to-niue" style="stroke:#181818;stroke-width:1;"/><polygon fill="#181818" points="849.1596,1044.5003,856.6045,1038.0524,851.284,1039.974,849.3624,1034.6535,849.1596,1044.5003" style="stroke:#181818;stroke-width:1;"/><text fill="#008000" font-family="sans-serif" font-size="13" font-weight="bold" lengthAdjust="spacing" textLength="68.3452" x="917.38" y="920.9666">Automatic</text></g><!--link ug to niue--><g class="link" data-entity-1="ent0015" data-entity-2="ent0018" data-link-type="dependency" data-source-line="58" id="lnk35"><path d="M1111,868.2383 C1071.185,896.7883 1005.155,944.1433 948.3612,984.8758 C919.9644,1005.242 893.8766,1023.9527 874.5292,1037.8292 C864.8555,1044.7675 856.867,1050.4973 851.1175,1054.6212 C850.3988,1055.1367 854.5906,1052.13 853.9429,1052.5946" fill="none" id="ug-to-niue" style="stroke:#181818;stroke-width:1;"/><polygon fill="#181818" points="849.0675,1056.0916,858.7121,1054.0963,853.1304,1053.1774,854.0493,1047.5957,849.0675,1056.0916" style="stroke:#181818;stroke-width:1;"/><text fill="#008000" font-family="sans-serif" font-size="13" font-weight="bold" lengthAdjust="spacing" textLength="68.3452" x="1065.93" y="920.9666">Automatic</text></g><!--link et to niue--><g class="link" data-entity-1="ent0016" data-entity-2="ent0018" data-link-type="dependency" data-source-line="59" id="lnk36"><path d="M1296.7,868.3883 C1281.19,876.1683 1263.98,884.5783 1248,891.8983 C1160.285,932.0833 1060.32,973.8883 981.4125,1005.9845 C941.9588,1022.0327 907.7694,1035.6536 883.0078,1045.4312 C870.627,1050.3201 860.6032,1054.2481 853.4568,1057.0383 C852.5635,1057.387 851.7151,1057.718 850.9127,1058.0309 C850.5115,1058.1873 850.1219,1058.3392 849.7438,1058.4866 C849.5548,1058.5602 854.9594,1056.4548 854.7762,1056.5262" fill="none" id="et-to-niue" style="stroke:#181818;stroke-width:1;"/><polygon fill="#181818" points="849.1854,1058.7041,859.0235,1059.1643,853.8444,1056.8891,856.1196,1051.71,849.1854,1058.7041" style="stroke:#181818;stroke-width:1;"/><text fill="#008000" font-family="sans-serif" font-size="13" font-weight="bold" lengthAdjust="spacing" textLength="68.3452" x="1227.39" y="920.9666">Automatic</text></g><!--link jo to niue--><g class="link" data-entity-1="ent0017" data-entity-2="ent0018" data-link-type="dependency" data-source-line="60" id="lnk37"><path d="M1497.49,868.2083 C1481.47,876.4683 1463.23,885.1983 1446,891.8983 C1316.875,942.1483 1166.97,984.3758 1048.6813,1014.1733 C989.5369,1029.072 938.2966,1040.8633 901.5098,1048.9961 C883.1165,1053.0625 868.3365,1056.2143 857.9887,1058.3826 C855.4017,1058.9247 853.0917,1059.4053 851.0716,1059.8234 C850.5665,1059.9279 855.9558,1058.8161 855.4872,1058.9128" fill="none" id="jo-to-niue" style="stroke:#181818;stroke-width:1;"/><polygon fill="#181818" points="849.611,1060.1252,859.2336,1062.2241,854.5078,1059.1149,857.6171,1054.3892,849.611,1060.1252" style="stroke:#181818;stroke-width:1;"/><text fill="#008000" font-family="sans-serif" font-size="13" font-weight="bold" lengthAdjust="spacing" textLength="68.3452" x="1415.39" y="920.9666">Automatic</text></g><!--link prod to GMN38--><g class="link" data-entity-1="ent0008" data-entity-2="ent0039" data-link-type="association" data-source-line="63" id="lnk40"><path d="M953.1468,688.4383 C954.0742,688.4383 955.0016,688.4383 955.9291,688.4383 C959.6388,688.4383 963.3484,688.4383 967.0581,688.4383 C974.4775,688.4383 981.8969,688.4383 989.3163,688.4383 C1004.155,688.4383 1018.9938,688.4383 1033.8325,688.4383 C1063.51,688.4383 1093.1875,688.4383 1122.865,688.4383 C1182.22,688.4383 1241.575,688.4383 1300.93,688.4383 C1419.64,688.4383 1538.35,688.4383 1657.06,688.4383" fill="none" id="prod-GMN38" style="stroke:#181818;stroke-width:1;stroke-dasharray:7,7;"/></g><!--link niue to GMN41--><g class="link" data-entity-1="ent0018" data-entity-2="ent0042" data-link-type="association" data-source-line="69" id="lnk43"><path d="M841,1135.4094 C841,1137.1129 841,1138.8217 841,1140.5328 C841,1143.9548 841,1147.3857 841,1150.8005 C841,1164.4595 841,1177.8608 841,1189.4083" fill="none" id="niue-GMN41" style="stroke:#181818;stroke-width:1;stroke-dasharray:7,7;"/></g><?plantuml-src dLNVJ-9047xlNp7g6nVXSkQIEqD8gb8raJiZcdiGOvPsACLsjzaVYZ7-xpUxBL2WrkFAGzb-tpSpEpCxknVX9E480__NdN_rU7jpUNxUlu5kA58XZyUfmLwhDM3SiBJLwdRSvvwtLwhykzlV0__sydHJ64j4JahVQ94ndOGLiQUU4fupoJ8Oi_0fbiBmwDHYS13qxQ_2a1XgnkCKuSq3UaxM5TtkYMGydFPwSD0_2hu5P_MiCynJyRhY1a5mrFzQpnsYV4RfBFu8llT_Uk-UfnDD8GmrqoT6mNcYeR2O8TVmHyYdIIfUF6yLxVuPFcCgSalOBsEle1DasaZipEVpVM0AoZLKzbDex7DVsa89B-JgmG4Kr8RDZ2cDqfah_dvWRS0I3cC7ZBYVfWld94CPOmHJbBXmyhwngUMc2ykeQZOdSjK9Ks6YJkJudLoAo8Gw4Tn5PvUmLPDAXDTBFcYPn37A4RysYho15k1VNO5AXLOV9MBBVuJFpZ6zj_p-WpWJfJeJkyjv8UR_8SrOMSpTfJeCdPRUkujDxBGctbsAsabHxowT5OcQrIHglGbvOh2jw2YEZMeBMGHhFqBbx1RTT4yLhr97d8lrTSRMr-rs-y7wMnp8myFUuZGTRmn9wicRuiXu9SEINNFNK5SjBJ55fj1pJ2knRNcyFKkh1EgyHWR_1ASUQiHjdpGIg1aQSQfu8pwh3z2pUtSRiFMhOOpuS7W1Ny3aiMGHWg829o5wBYLDGez_WbDA6d6RaaO2fQGHfvGquhDF0gGTQ0IQVrCDOk8QYvhQpa4x1LSpjPpbX9N3qbrG5sOCliDf2aoP9ZWlfNQ0XdJXQVbQQb5vo2Em3aktOw7fvhP-RNmaxhDm2j5g_XV2fKjYs4AHzStZIQUJmFB3urie8dm7GtK4HYuhUZt5hJ8le_eB?></g></svg>