<?plantuml 1.2026.1?><svg xmlns="http://www.w3.org/2000/svg" xmlns:xlink="http://www.w3.org/1999/xlink" contentStyleType="text/css" data-diagram-type="DESCRIPTION" height="1277px" preserveAspectRatio="none" style="width:1517px;height:1277px;background:#FEFEFE;" version="1.1" viewBox="0 0 1517 1277" width="1517px" zoomAndPan="magnify"><title>StatBus Docker Compose Internals</title><defs/><g><rect fill="#FEFEFE" height="1277" style="stroke:none;stroke-width:1;" width="1517" x="0" y="0"/><g class="title" data-source-line="10"><text fill="#000000" font-family="sans-serif" font-size="14" font-weight="bold" lengthAdjust="spacing" textLength="249.0674" x="626.9663" y="23.5352">StatBus Docker Compose Internals</text></g><!--cluster Host Ports (External)--><g class="cluster" data-qualified-name="Host Ports .External." data-source-line="13" id="ent0002"><rect fill="#F5F5F5" height="129.98" rx="2.5" ry="2.5" style="stroke:#181818;stroke-width:1;" width="826" x="679" y="211.4583"/><text fill="#000000" font-family="sans-serif" font-size="14" font-style="italic" lengthAdjust="spacing" textLength="70.0752" x="1056.9624" y="226.9934">&#171;External&#187;</text><text fill="#000000" font-family="sans-serif" font-size="14" font-weight="bold" lengthAdjust="spacing" textLength="149.4404" x="1017.2798" y="243.4817">Host Ports (External)</text></g><!--cluster Configuration Flow--><g class="cluster" data-qualified-name="Configuration Flow" data-source-line="20" id="ent0007"><rect fill="#FFF3E0" height="537.68" rx="2.5" ry="2.5" style="stroke:#181818;stroke-width:1;" width="418" x="7" y="44.4883"/><text fill="#000000" font-family="sans-serif" font-size="14" font-style="italic" lengthAdjust="spacing" textLength="59.5684" x="186.2158" y="60.0234">&#171;Config&#187;</text><text fill="#000000" font-family="sans-serif" font-size="14" font-weight="bold" lengthAdjust="spacing" textLength="138.0791" x="146.9604" y="76.5117">Configuration Flow</text></g><!--cluster Docker Network: statbus-{slot}-network--><g class="cluster" data-qualified-name="Docker Network. statbus-.slot.-network" data-source-line="33" id="ent0017"><rect fill="#E3F2FD" height="683.68" rx="2.5" ry="2.5" style="stroke:#181818;stroke-width:1;" width="801" x="449" y="390.4383"/><text fill="#000000" font-family="sans-serif" font-size="14" font-style="italic" lengthAdjust="spacing" textLength="71.3467" x="813.8267" y="405.9734">&#171;Network&#187;</text><text fill="#000000" font-family="sans-serif" font-size="14" font-weight="bold" lengthAdjust="spacing" textLength="293.0293" x="702.9854" y="422.4617">Docker Network: statbus-{slot}-network</text></g><!--cluster caddy--><g class="cluster" data-qualified-name="Docker Network. statbus-.slot.-network.caddy" data-source-line="34" id="ent0018"><rect fill="#BBDEFB" height="145.98" rx="2.5" ry="2.5" style="stroke:#181818;stroke-width:1;" width="209" x="930" y="457.4383"/><text fill="#000000" font-family="sans-serif" font-size="14" font-style="italic" lengthAdjust="spacing" textLength="80.876" x="994.062" y="472.9734">&#171;Container&#187;</text><text fill="#000000" font-family="sans-serif" font-size="14" font-weight="bold" lengthAdjust="spacing" textLength="151.6211" x="958.6895" y="489.4617">statbus-{slot}-caddy</text></g><!--cluster app--><g class="cluster" data-qualified-name="Docker Network. statbus-.slot.-network.app" data-source-line="38" id="ent0020"><rect fill="#BBDEFB" height="145.98" rx="2.5" ry="2.5" style="stroke:#181818;stroke-width:1;" width="155" x="697" y="685.1683"/><text fill="#000000" font-family="sans-serif" font-size="14" font-style="italic" lengthAdjust="spacing" textLength="80.876" x="734.062" y="700.7034">&#171;Container&#187;</text><text fill="#000000" font-family="sans-serif" font-size="14" font-weight="bold" lengthAdjust="spacing" textLength="136.0078" x="706.4961" y="717.1917">statbus-{slot}-app</text></g><!--cluster rest--><g class="cluster" data-qualified-name="Docker Network. statbus-.slot.-network.rest" data-source-line="42" id="ent0022"><rect fill="#BBDEFB" height="145.98" rx="2.5" ry="2.5" style="stroke:#181818;stroke-width:1;" width="177" x="892" y="685.1683"/><text fill="#000000" font-family="sans-serif" font-size="14" font-style="italic" lengthAdjust="spacing" textLength="80.876" x="940.062" y="700.7034">&#171;Container&#187;</text><text fill="#000000" font-family="sans-serif" font-size="14" font-weight="bold" lengthAdjust="spacing" textLength="137.3818" x="911.8091" y="717.1917">statbus-{slot}-rest</text></g><!--cluster db--><g class="cluster" data-qualified-name="Docker Network. statbus-.slot.-network.db" data-source-line="46" id="ent0024"><rect fill="#BBDEFB" height="145.97" rx="2.5" ry="2.5" style="stroke:#181818;stroke-width:1;" width="184" x="861" y="896.1483"/><text fill="#000000" font-family="sans-serif" font-size="14" font-style="italic" lengthAdjust="spacing" textLength="80.876" x="912.562" y="911.6834">&#171;Container&#187;</text><text fill="#000000" font-family="sans-serif" font-size="14" font-weight="bold" lengthAdjust="spacing" textLength="127.7773" x="889.1113" y="928.1717">statbus-{slot}-db</text></g><!--cluster worker--><g class="cluster" data-qualified-name="Docker Network. statbus-.slot.-network.worker" data-source-line="50" id="ent0026"><rect fill="#BBDEFB" height="129.49" rx="2.5" ry="2.5" style="stroke:#181818;stroke-width:1;" width="176" x="481" y="693.4083"/><text fill="#000000" font-family="sans-serif" font-size="14" font-style="italic" lengthAdjust="spacing" textLength="80.876" x="528.562" y="708.9434">&#171;Container&#187;</text><text fill="#000000" font-family="sans-serif" font-size="14" font-weight="bold" lengthAdjust="spacing" textLength="160.0361" x="488.9819" y="725.4317">statbus-{slot}-worker</text></g><!--cluster Volumes--><g class="cluster" data-qualified-name="Volumes" data-source-line="55" id="ent0028"><rect fill="#C8E6C9" height="137.98" rx="2.5" ry="2.5" style="stroke:#181818;stroke-width:1;" width="418" x="1093" y="1107.1183"/><text fill="#000000" font-family="sans-serif" font-size="14" font-style="italic" lengthAdjust="spacing" textLength="66.0283" x="1268.9858" y="1122.6534">&#171;Volume&#187;</text><text fill="#000000" font-family="sans-serif" font-size="14" font-weight="bold" lengthAdjust="spacing" textLength="62.166" x="1270.917" y="1139.1417">Volumes</text></g><!--entity httpport--><g class="entity" data-qualified-name="Host Ports .External..httpport" data-source-line="14" id="ent0003"><rect fill="#F1F1F1" height="62.9766" rx="2.5" ry="2.5" style="stroke:#181818;stroke-width:0.5;" width="192.1953" x="1059.9" y="262.4583"/><rect fill="#F1F1F1" height="10" style="stroke:#181818;stroke-width:0.5;" width="15" x="1232.0953" y="267.4583"/><rect fill="#F1F1F1" height="2" style="stroke:#181818;stroke-width:0.5;" width="4" x="1230.0953" y="269.4583"/><rect fill="#F1F1F1" height="2" style="stroke:#181818;stroke-width:0.5;" width="4" x="1230.0953" y="273.4583"/><text fill="#000000" font-family="sans-serif" font-size="14" lengthAdjust="spacing" textLength="35.7314" x="1074.9" y="295.9934">HTTP</text><text fill="#000000" font-family="sans-serif" font-size="14" lengthAdjust="spacing" textLength="152.1953" x="1074.9" y="312.4817">3010 (dev) / 80 (prod)</text></g><!--entity httpsport--><g class="entity" data-qualified-name="Host Ports .External..httpsport" data-source-line="15" id="ent0004"><rect fill="#F1F1F1" height="62.9766" rx="2.5" ry="2.5" style="stroke:#181818;stroke-width:0.5;" width="201.0479" x="1287.48" y="262.4583"/><rect fill="#F1F1F1" height="10" style="stroke:#181818;stroke-width:0.5;" width="15" x="1468.5279" y="267.4583"/><rect fill="#F1F1F1" height="2" style="stroke:#181818;stroke-width:0.5;" width="4" x="1466.5279" y="269.4583"/><rect fill="#F1F1F1" height="2" style="stroke:#181818;stroke-width:0.5;" width="4" x="1466.5279" y="273.4583"/><text fill="#000000" font-family="sans-serif" font-size="14" lengthAdjust="spacing" textLength="43.2715" x="1302.48" y="295.9934">HTTPS</text><text fill="#000000" font-family="sans-serif" font-size="14" lengthAdjust="spacing" textLength="161.0479" x="1302.48" y="312.4817">3011 (dev) / 443 (prod)</text></g><!--entity dbport--><g class="entity" data-qualified-name="Host Ports .External..dbport" data-source-line="16" id="ent0005"><rect fill="#F1F1F1" height="62.9766" rx="2.5" ry="2.5" style="stroke:#181818;stroke-width:0.5;" width="149.1289" x="695.44" y="262.4583"/><rect fill="#F1F1F1" height="10" style="stroke:#181818;stroke-width:0.5;" width="15" x="824.5689" y="267.4583"/><rect fill="#F1F1F1" height="2" style="stroke:#181818;stroke-width:0.5;" width="4" x="822.5689" y="269.4583"/><rect fill="#F1F1F1" height="2" style="stroke:#181818;stroke-width:0.5;" width="4" x="822.5689" y="273.4583"/><text fill="#000000" font-family="sans-serif" font-size="14" lengthAdjust="spacing" textLength="76.8496" x="710.44" y="295.9934">PostgreSQL</text><text fill="#000000" font-family="sans-serif" font-size="14" lengthAdjust="spacing" textLength="109.1289" x="710.44" y="312.4817">3014 (plaintext)</text></g><!--entity dbtlsport--><g class="entity" data-qualified-name="Host Ports .External..dbtlsport" data-source-line="17" id="ent0006"><rect fill="#F1F1F1" height="62.9766" rx="2.5" ry="2.5" style="stroke:#181818;stroke-width:0.5;" width="145.1367" x="879.43" y="262.4583"/><rect fill="#F1F1F1" height="10" style="stroke:#181818;stroke-width:0.5;" width="15" x="1004.5667" y="267.4583"/><rect fill="#F1F1F1" height="2" style="stroke:#181818;stroke-width:0.5;" width="4" x="1002.5667" y="269.4583"/><rect fill="#F1F1F1" height="2" style="stroke:#181818;stroke-width:0.5;" width="4" x="1002.5667" y="273.4583"/><text fill="#000000" font-family="sans-serif" font-size="14" lengthAdjust="spacing" textLength="105.1367" x="894.43" y="295.9934">PostgreSQL TLS</text><text fill="#000000" font-family="sans-serif" font-size="14" lengthAdjust="spacing" textLength="35.4102" x="894.43" y="312.4817">3015</text></g><!--entity envcreds--><g class="entity" data-qualified-name="Configuration Flow.envcreds" data-source-line="21" id="ent0008"><path d="M22.6,97.9883 L22.6,145.9648 A2.5,2.5 0 0 0 25.1,148.4648 L146.891,148.4648 A2.5,2.5 0 0 0 149.391,145.9648 L149.391,105.4883 L139.391,95.4883 L25.1,95.4883 A2.5,2.5 0 0 0 22.6,97.9883" fill="#F1F1F1" style="stroke:#181818;stroke-width:0.5;"/><path d="M139.391,95.4883 L139.391,102.9883 A2.5,2.5 0 0 0 141.891,105.4883 L149.391,105.4883" fill="#F1F1F1" style="stroke:#181818;stroke-width:0.5;"/><text fill="#000000" font-family="sans-serif" font-size="14" lengthAdjust="spacing" textLength="106.791" x="32.6" y="119.0234">.env.credentials</text><text fill="#000000" font-family="sans-serif" font-size="14" lengthAdjust="spacing" textLength="57.1143" x="32.6" y="135.5117">(secrets)</text></g><!--entity envconfig--><g class="entity" data-qualified-name="Configuration Flow.envconfig" data-source-line="22" id="ent0009"><path d="M241.51,97.9883 L241.51,145.9648 A2.5,2.5 0 0 0 244.01,148.4648 L333.9866,148.4648 A2.5,2.5 0 0 0 336.4866,145.9648 L336.4866,105.4883 L326.4866,95.4883 L244.01,95.4883 A2.5,2.5 0 0 0 241.51,97.9883" fill="#F1F1F1" style="stroke:#181818;stroke-width:0.5;"/><path d="M326.4866,95.4883 L326.4866,102.9883 A2.5,2.5 0 0 0 328.9866,105.4883 L336.4866,105.4883" fill="#F1F1F1" style="stroke:#181818;stroke-width:0.5;"/><text fill="#000000" font-family="sans-serif" font-size="14" lengthAdjust="spacing" textLength="74.9766" x="251.51" y="119.0234">.env.config</text><text fill="#000000" font-family="sans-serif" font-size="14" lengthAdjust="spacing" textLength="64.5381" x="251.51" y="135.5117">(edit this)</text></g><!--entity env--><g class="entity" data-qualified-name="Configuration Flow.env" data-source-line="23" id="ent0010"><path d="M154.28,269.9583 L154.28,317.9348 A2.5,2.5 0 0 0 156.78,320.4348 L249.2107,320.4348 A2.5,2.5 0 0 0 251.7107,317.9348 L251.7107,277.4583 L241.7107,267.4583 L156.78,267.4583 A2.5,2.5 0 0 0 154.28,269.9583" fill="#F1F1F1" style="stroke:#181818;stroke-width:0.5;"/><path d="M241.7107,267.4583 L241.7107,274.9583 A2.5,2.5 0 0 0 244.2107,277.4583 L251.7107,277.4583" fill="#F1F1F1" style="stroke:#181818;stroke-width:0.5;"/><text fill="#000000" font-family="sans-serif" font-size="14" lengthAdjust="spacing" textLength="28.1641" x="164.28" y="290.9934">.env</text><text fill="#000000" font-family="sans-serif" font-size="14" lengthAdjust="spacing" textLength="77.4307" x="164.28" y="307.4817">(generated)</text></g><!--entity compose--><g class="entity" data-qualified-name="Configuration Flow.compose" data-source-line="24" id="ent0011"><path d="M244.78,532.1783 L244.78,563.6666 A2.5,2.5 0 0 0 247.28,566.1666 L406.7234,566.1666 A2.5,2.5 0 0 0 409.2234,563.6666 L409.2234,539.6783 L399.2234,529.6783 L247.28,529.6783 A2.5,2.5 0 0 0 244.78,532.1783" fill="#F1F1F1" style="stroke:#181818;stroke-width:0.5;"/><path d="M399.2234,529.6783 L399.2234,537.1783 A2.5,2.5 0 0 0 401.7234,539.6783 L409.2234,539.6783" fill="#F1F1F1" style="stroke:#181818;stroke-width:0.5;"/><text fill="#000000" font-family="sans-serif" font-size="14" lengthAdjust="spacing" textLength="144.4434" x="254.78" y="553.2134">docker-compose.yml</text></g><!--entity caddyconfig--><g class="entity" data-qualified-name="Configuration Flow.caddyconfig" data-source-line="25" id="ent0012"><path d="M287.55,278.2083 L287.55,309.6966 A2.5,2.5 0 0 0 290.05,312.1966 L401.9563,312.1966 A2.5,2.5 0 0 0 404.4563,309.6966 L404.4563,285.7083 L394.4563,275.7083 L290.05,275.7083 A2.5,2.5 0 0 0 287.55,278.2083" fill="#F1F1F1" style="stroke:#181818;stroke-width:0.5;"/><path d="M394.4563,275.7083 L394.4563,283.2083 A2.5,2.5 0 0 0 396.9563,285.7083 L404.4563,285.7083" fill="#F1F1F1" style="stroke:#181818;stroke-width:0.5;"/><text fill="#000000" font-family="sans-serif" font-size="14" lengthAdjust="spacing" textLength="96.9063" x="297.55" y="299.2434">caddy/config/</text></g><!--entity caddycomp--><g class="entity" data-qualified-name="Docker Network. statbus-.slot.-network.caddy.caddycomp" data-source-line="35" id="ent0019"><rect fill="#F1F1F1" height="62.9766" rx="2.5" ry="2.5" style="stroke:#181818;stroke-width:0.5;" width="141.8213" x="954.09" y="516.4383"/><rect fill="#F1F1F1" height="10" style="stroke:#181818;stroke-width:0.5;" width="15" x="1075.9113" y="521.4383"/><rect fill="#F1F1F1" height="2" style="stroke:#181818;stroke-width:0.5;" width="4" x="1073.9113" y="523.4383"/><rect fill="#F1F1F1" height="2" style="stroke:#181818;stroke-width:0.5;" width="4" x="1073.9113" y="527.4383"/><text fill="#000000" font-family="sans-serif" font-size="14" lengthAdjust="spacing" textLength="42.3555" x="969.09" y="549.9734">Caddy</text><text fill="#000000" font-family="sans-serif" font-size="14" lengthAdjust="spacing" textLength="101.8213" x="969.09" y="566.4617">:80 :443 :5432</text></g><!--entity appcomp--><g class="entity" data-qualified-name="Docker Network. statbus-.slot.-network.app.appcomp" data-source-line="39" id="ent0021"><rect fill="#F1F1F1" height="62.9766" rx="2.5" ry="2.5" style="stroke:#181818;stroke-width:0.5;" width="87.79" x="721.1" y="744.1683"/><rect fill="#F1F1F1" height="10" style="stroke:#181818;stroke-width:0.5;" width="15" x="788.89" y="749.1683"/><rect fill="#F1F1F1" height="2" style="stroke:#181818;stroke-width:0.5;" width="4" x="786.89" y="751.1683"/><rect fill="#F1F1F1" height="2" style="stroke:#181818;stroke-width:0.5;" width="4" x="786.89" y="755.1683"/><text fill="#000000" font-family="sans-serif" font-size="14" lengthAdjust="spacing" textLength="47.79" x="736.1" y="777.7034">Next.js</text><text fill="#000000" font-family="sans-serif" font-size="14" lengthAdjust="spacing" textLength="39.8398" x="736.1" y="794.1917">:3000</text></g><!--entity restcomp--><g class="entity" data-qualified-name="Docker Network. statbus-.slot.-network.rest.restcomp" data-source-line="43" id="ent0023"><rect fill="#F1F1F1" height="62.9766" rx="2.5" ry="2.5" style="stroke:#181818;stroke-width:0.5;" width="110.2734" x="915.86" y="744.1683"/><rect fill="#F1F1F1" height="10" style="stroke:#181818;stroke-width:0.5;" width="15" x="1006.1334" y="749.1683"/><rect fill="#F1F1F1" height="2" style="stroke:#181818;stroke-width:0.5;" width="4" x="1004.1334" y="751.1683"/><rect fill="#F1F1F1" height="2" style="stroke:#181818;stroke-width:0.5;" width="4" x="1004.1334" y="755.1683"/><text fill="#000000" font-family="sans-serif" font-size="14" lengthAdjust="spacing" textLength="70.2734" x="930.86" y="777.7034">PostgREST</text><text fill="#000000" font-family="sans-serif" font-size="14" lengthAdjust="spacing" textLength="39.8398" x="930.86" y="794.1917">:3000</text></g><!--entity dbcomp--><g class="entity" data-qualified-name="Docker Network. statbus-.slot.-network.db.dbcomp" data-source-line="47" id="ent0025"><rect fill="#F1F1F1" height="62.9766" rx="2.5" ry="2.5" style="stroke:#181818;stroke-width:0.5;" width="116.8496" x="884.58" y="955.1483"/><rect fill="#F1F1F1" height="10" style="stroke:#181818;stroke-width:0.5;" width="15" x="981.4296" y="960.1483"/><rect fill="#F1F1F1" height="2" style="stroke:#181818;stroke-width:0.5;" width="4" x="979.4296" y="962.1483"/><rect fill="#F1F1F1" height="2" style="stroke:#181818;stroke-width:0.5;" width="4" x="979.4296" y="966.1483"/><text fill="#000000" font-family="sans-serif" font-size="14" lengthAdjust="spacing" textLength="76.8496" x="899.58" y="988.6834">PostgreSQL</text><text fill="#000000" font-family="sans-serif" font-size="14" lengthAdjust="spacing" textLength="39.8398" x="899.58" y="1005.1717">:5432</text></g><!--entity workercomp--><g class="entity" data-qualified-name="Docker Network. statbus-.slot.-network.worker.workercomp" data-source-line="51" id="ent0027"><rect fill="#F1F1F1" height="46.4883" rx="2.5" ry="2.5" style="stroke:#181818;stroke-width:0.5;" width="88.0156" x="514.99" y="752.4083"/><rect fill="#F1F1F1" height="10" style="stroke:#181818;stroke-width:0.5;" width="15" x="583.0056" y="757.4083"/><rect fill="#F1F1F1" height="2" style="stroke:#181818;stroke-width:0.5;" width="4" x="581.0056" y="759.4083"/><rect fill="#F1F1F1" height="2" style="stroke:#181818;stroke-width:0.5;" width="4" x="581.0056" y="763.4083"/><text fill="#000000" font-family="sans-serif" font-size="14" lengthAdjust="spacing" textLength="48.0156" x="529.99" y="785.9434">Worker</text></g><!--entity dbdata--><g class="entity" data-qualified-name="Volumes.dbdata" data-source-line="56" id="ent0029"><path d="M1109.38,1180.8683 C1109.38,1170.8683 1146.9972,1170.8683 1146.9972,1170.8683 C1146.9972,1170.8683 1184.6144,1170.8683 1184.6144,1180.8683 L1184.6144,1206.3566 C1184.6144,1216.3566 1146.9972,1216.3566 1146.9972,1216.3566 C1146.9972,1216.3566 1109.38,1216.3566 1109.38,1206.3566 L1109.38,1180.8683" fill="#F1F1F1" style="stroke:#181818;stroke-width:0.5;"/><path d="M1109.38,1180.8683 C1109.38,1190.8683 1146.9972,1190.8683 1146.9972,1190.8683 C1146.9972,1190.8683 1184.6144,1190.8683 1184.6144,1180.8683" fill="none" style="stroke:#181818;stroke-width:0.5;"/><text fill="#000000" font-family="sans-serif" font-size="14" lengthAdjust="spacing" textLength="55.2344" x="1119.38" y="1208.4034">db-data</text></g><!--entity caddydata--><g class="entity" data-qualified-name="Volumes.caddydata" data-source-line="57" id="ent0030"><path d="M1222.48,1158.1183 L1263.48,1158.1183 A3.75,3.75 0 0 1 1265.98,1160.6183 L1272.98,1179.1183 L1331.5142,1179.1183 A2.5,2.5 0 0 1 1334.0142,1181.6183 L1334.0142,1226.5948 A2.5,2.5 0 0 1 1331.5142,1229.0948 L1222.48,1229.0948 A2.5,2.5 0 0 1 1219.98,1226.5948 L1219.98,1160.6183 A2.5,2.5 0 0 1 1222.48,1158.1183" fill="#F1F1F1" style="stroke:#181818;stroke-width:0.5;"/><line style="stroke:#181818;stroke-width:0.5;" x1="1219.98" x2="1272.98" y1="1179.1183" y2="1179.1183"/><text fill="#000000" font-family="sans-serif" font-size="14" lengthAdjust="spacing" textLength="84.0342" x="1229.98" y="1199.6534">caddy/data/</text><text fill="#000000" font-family="sans-serif" font-size="14" lengthAdjust="spacing" textLength="42.1777" x="1229.98" y="1216.1417">(certs)</text></g><!--entity caddyconfigvol--><g class="entity" data-qualified-name="Volumes.caddyconfigvol" data-source-line="58" id="ent0031"><path d="M1371.05,1166.3683 L1412.05,1166.3683 A3.75,3.75 0 0 1 1414.55,1168.8683 L1421.55,1187.3683 L1492.9563,1187.3683 A2.5,2.5 0 0 1 1495.4563,1189.8683 L1495.4563,1218.3566 A2.5,2.5 0 0 1 1492.9563,1220.8566 L1371.05,1220.8566 A2.5,2.5 0 0 1 1368.55,1218.3566 L1368.55,1168.8683 A2.5,2.5 0 0 1 1371.05,1166.3683" fill="#F1F1F1" style="stroke:#181818;stroke-width:0.5;"/><line style="stroke:#181818;stroke-width:0.5;" x1="1368.55" x2="1421.55" y1="1187.3683" y2="1187.3683"/><text fill="#000000" font-family="sans-serif" font-size="14" lengthAdjust="spacing" textLength="96.9063" x="1378.55" y="1207.9034">caddy/config/</text></g><g class="entity" data-qualified-name="GMN49" data-source-line="89" id="ent0050"><path d="M1266.1,481.6883 L1266.1,614.1727 L1437.9013,614.1727 L1437.9013,491.6883 L1427.9013,481.6883 L1266.1,481.6883" fill="#FEFFDD" style="stroke:#181818;stroke-width:0.5;"/><path d="M1427.9013,481.6883 L1427.9013,491.6883 L1437.9013,491.6883 L1427.9013,481.6883" fill="#FEFFDD" style="stroke:#181818;stroke-width:1;"/><text fill="#000000" font-family="sans-serif" font-size="13" font-weight="bold" lengthAdjust="spacing" textLength="52.4189" x="1272.1" y="499.2566">Routing</text><text fill="#000000" font-family="sans-serif" font-size="13" lengthAdjust="spacing" textLength="99.7026" x="1272.1" y="514.5672">/* -&gt; app:3000</text><text fill="#000000" font-family="sans-serif" font-size="13" lengthAdjust="spacing" textLength="131.0791" x="1272.1" y="529.8777">/rest/* -&gt; rest:3000</text><text fill="#000000" font-family="sans-serif" font-size="13" lengthAdjust="spacing" textLength="150.8013" x="1272.1" y="545.1883">PostgreSQL -&gt; db:5432</text><text fill="#000000" font-family="sans-serif" font-size="13" lengthAdjust="spacing" textLength="4.1133" x="1272.1" y="560.4988">&#160;</text><text fill="#000000" font-family="sans-serif" font-size="13" font-weight="bold" lengthAdjust="spacing" textLength="57.4082" x="1272.1" y="575.8094">Features</text><text fill="#000000" font-family="sans-serif" font-size="13" lengthAdjust="spacing" textLength="136.8555" x="1272.1" y="591.1199">Cookie to Header JWT</text><text fill="#000000" font-family="sans-serif" font-size="13" lengthAdjust="spacing" textLength="99.5059" x="1272.1" y="606.4305">TLS termination</text></g><g class="entity" data-qualified-name="GMN52" data-source-line="100" id="ent0053"><path d="M879.4,1142.6783 L879.4,1244.5416 L1074.5924,1244.5416 L1074.5924,1152.6783 L1064.5924,1142.6783 L879.4,1142.6783" fill="#FEFFDD" style="stroke:#181818;stroke-width:0.5;"/><path d="M1064.5924,1142.6783 L1064.5924,1152.6783 L1074.5924,1152.6783 L1064.5924,1142.6783" fill="#FEFFDD" style="stroke:#181818;stroke-width:1;"/><text fill="#000000" font-family="sans-serif" font-size="13" font-weight="bold" lengthAdjust="spacing" textLength="73.4551" x="885.4" y="1160.2466">Port Offset</text><text fill="#000000" font-family="sans-serif" font-size="13" lengthAdjust="spacing" textLength="174.1924" x="885.4" y="1175.5572">Base = 3000 + (offset * 10)</text><text fill="#000000" font-family="sans-serif" font-size="13" lengthAdjust="spacing" textLength="4.1133" x="885.4" y="1190.8677">&#160;</text><text fill="#000000" font-family="sans-serif" font-size="13" lengthAdjust="spacing" textLength="174.1416" x="885.4" y="1206.1783">Offset 1 (local): 3010-3015</text><text fill="#000000" font-family="sans-serif" font-size="13" lengthAdjust="spacing" textLength="160.856" x="885.4" y="1221.4888">Offset 2 (no): 3020-3025</text><text fill="#000000" font-family="sans-serif" font-size="13" lengthAdjust="spacing" textLength="164.1187" x="885.4" y="1236.7994">Offset 5 (ma): 3050-3055</text></g><!--link envcreds to env--><g class="link" data-entity-1="ent0008" data-entity-2="ent0010" data-link-type="dependency" data-source-line="27" id="lnk13"><path d="M76.58,148.6383 C72.86,163.0583 70.94,181.0083 78,195.4583 C93.82,227.8583 121.0157,249.5738 148.8457,266.0338" fill="none" id="envcreds-to-env" style="stroke:#181818;stroke-width:1;"/><polygon fill="#181818" points="154.01,269.0883,148.2998,261.0637,149.7064,266.5429,144.2272,267.9495,154.01,269.0883" style="stroke:#181818;stroke-width:1;"/><text fill="#000000" font-family="sans-serif" font-size="13" lengthAdjust="spacing" textLength="102.1401" x="79" y="192.0266">generate-config</text></g><!--link envconfig to env--><g class="link" data-entity-1="ent0009" data-entity-2="ent0010" data-link-type="dependency" data-source-line="28" id="lnk14"><path d="M241.27,140.0683 C224.17,148.7683 206.72,161.2483 197,178.4583 C181.64,205.6683 185.7767,236.7837 192.5167,261.2537" fill="none" id="envconfig-to-env" style="stroke:#181818;stroke-width:1;"/><polygon fill="#181818" points="194.11,267.0383,195.5764,257.2992,192.7822,262.2178,187.8637,259.4236,194.11,267.0383" style="stroke:#181818;stroke-width:1;"/><text fill="#000000" font-family="sans-serif" font-size="13" lengthAdjust="spacing" textLength="102.1401" x="198" y="192.0266">generate-config</text></g><!--link env to compose--><g class="link" data-entity-1="ent0010" data-entity-2="ent0011" data-link-type="dependency" data-source-line="29" id="lnk15"><path d="M215.57,320.4983 C240.75,371.6683 294.1612,480.1946 315.6912,523.9546" fill="none" id="env-to-compose" style="stroke:#181818;stroke-width:1;"/><polygon fill="#181818" points="318.34,529.3383,317.9559,519.4969,316.1327,524.8519,310.7777,523.0286,318.34,529.3383" style="stroke:#181818;stroke-width:1;"/><text fill="#000000" font-family="sans-serif" font-size="13" lengthAdjust="spacing" textLength="75.0864" x="240.64" y="371.0066">interpolates</text></g><!--link envconfig to caddyconfig--><g class="link" data-entity-1="ent0009" data-entity-2="ent0012" data-link-type="dependency" data-source-line="30" id="lnk16"><path d="M297.66,148.7883 C309.37,183.7083 328.0419,239.3998 338.1519,269.5398" fill="none" id="envconfig-to-caddyconfig" style="stroke:#181818;stroke-width:1;"/><polygon fill="#181818" points="340.06,275.2283,340.9902,265.4234,338.4699,270.4879,333.4055,267.9676,340.06,275.2283" style="stroke:#181818;stroke-width:1;"/><text fill="#000000" font-family="sans-serif" font-size="13" lengthAdjust="spacing" textLength="61.8896" x="313.39" y="192.0266">generates</text></g><!--link httpport to caddy--><g class="link" data-entity-1="ent0003" data-entity-2="ent0018" data-link-type="dependency" data-source-line="62" id="lnk32"><path d="M1152.93,325.8483 C1149.645,358.9633 1144.28,413.0358 1139.6788,459.4145 C1139.535,460.8639 1139.3919,462.3057 1139.2497,463.7391 C1139.1786,464.4558 1139.7001,459.1998 1139.6294,459.9122" fill="none" id="httpport-to-caddy" style="stroke:#181818;stroke-width:1;"/><polygon fill="#181818" points="1139.037,465.8829,1143.906,457.3217,1139.5306,460.9073,1135.9451,456.5319,1139.037,465.8829" style="stroke:#181818;stroke-width:1;"/></g><!--link httpsport to caddy--><g class="link" data-entity-1="ent0004" data-entity-2="ent0018" data-link-type="dependency" data-source-line="63" id="lnk33"><path d="M1327.96,325.8783 C1302.03,340.8983 1272.36,360.4483 1249,382.4383 C1216.755,412.7883 1187.665,453.1083 1166.4363,486.232 C1155.8219,502.7939 1147.1728,517.5567 1141.0773,528.3747 C1140.6964,529.0508 1140.3254,529.7115 1139.9645,530.3563 C1139.7841,530.6787 1139.6062,530.9971 1139.4308,531.3115 C1139.3431,531.4686 1142.1754,526.3829 1142.089,526.538" fill="none" id="httpsport-to-caddy" style="stroke:#181818;stroke-width:1;"/><polygon fill="#181818" points="1139.1697,531.78,1147.0433,525.8633,1141.6024,527.4117,1140.054,521.9709,1139.1697,531.78" style="stroke:#181818;stroke-width:1;"/></g><!--link dbport to caddy--><g class="link" data-entity-1="ent0005" data-entity-2="ent0018" data-link-type="dependency" data-source-line="64" id="lnk34"><path d="M813.62,325.6583 C828.37,334.6883 845.33,343.6783 862,349.4383 C863.65,350.0083 1110.77,381.1883 1112,382.4383 C1137.405,408.2583 1142.405,448.5083 1140.9313,482.7295 C1140.747,487.0072 1140.4617,491.1906 1140.1023,495.2399 C1139.9227,497.2646 1139.7245,499.2557 1139.5113,501.2083 C1139.4047,502.1846 1139.2943,503.1512 1139.1806,504.1076 C1139.1237,504.5858 1139.8023,499.1068 1139.7438,499.5798" fill="none" id="dbport-to-caddy" style="stroke:#181818;stroke-width:1;"/><polygon fill="#181818" points="1139.0075,505.5344,1144.0817,497.0933,1139.6211,500.5722,1136.1422,496.1116,1139.0075,505.5344" style="stroke:#181818;stroke-width:1;"/></g><!--link dbtlsport to caddy--><g class="link" data-entity-1="ent0006" data-entity-2="ent0018" data-link-type="dependency" data-source-line="65" id="lnk35"><path d="M1000.98,325.8683 C1014.14,333.8283 1028.48,342.1883 1042,349.4383 C1072.31,365.6983 1091.94,354.4983 1112,382.4383 C1122.5625,397.1508 1129.0769,414.5839 1132.8959,432.5075 C1133.8507,436.9884 1134.637,441.5 1135.276,446.0073 C1135.5955,448.261 1135.8782,450.5136 1136.1266,452.7609 C1136.2509,453.8845 1136.3666,455.0067 1136.474,456.1271 C1136.5009,456.4072 1135.9755,450.7126 1136.0013,450.9924" fill="none" id="dbtlsport-to-caddy" style="stroke:#181818;stroke-width:1;"/><polygon fill="#181818" points="1136.5531,456.967,1139.7084,447.6373,1136.0933,451.9882,1131.7423,448.373,1136.5531,456.967" style="stroke:#181818;stroke-width:1;"/></g><!--link caddy to app--><g class="link" data-entity-1="ent0018" data-entity-2="ent0020" data-link-type="dependency" data-source-line="68" id="lnk36"><path d="M1123.2392,603.6779 C1123.1871,603.7897 1123.1347,603.9013 1123.082,604.0127 C1122.8713,604.4584 1122.6554,604.9014 1122.4342,605.3413 C1121.5496,607.101 1120.581,608.8123 1119.5208,610.4584 C1117.4005,613.7506 1114.9138,616.782 1112,619.4183 C1061.9,664.7483 1027.06,625.9283 962,644.1683 C933.39,652.1883 922.08,649.2883 900,669.1683 C880.585,686.6483 866.715,712.4758 857.635,734.1995 C856.5,736.915 855.4398,739.5663 854.4531,742.1293 C853.9597,743.4107 853.4846,744.6701 853.0277,745.9042 C852.7993,746.5213 852.5754,747.1322 852.356,747.7363 C852.2463,748.0384 854.1686,742.6929 854.0611,742.9916" fill="none" id="caddy-to-app" style="stroke:#181818;stroke-width:1;"/><polygon fill="#181818" points="852.0303,748.6375,858.8404,741.5226,853.7226,743.9326,851.3126,738.8148,852.0303,748.6375" style="stroke:#181818;stroke-width:1;"/><text fill="#000000" font-family="sans-serif" font-size="13" lengthAdjust="spacing" textLength="57.3003" x="963" y="657.7366">/* routes</text></g><!--link caddy to rest--><g class="link" data-entity-1="ent0018" data-entity-2="ent0022" data-link-type="dependency" data-source-line="69" id="lnk37"><path d="M1122.3386,603.7467 C1122.2873,603.8598 1122.2356,603.9728 1122.1837,604.0856 C1122.0799,604.3113 1121.9748,604.5364 1121.8686,604.7608 C1121.0191,606.5564 1120.0937,608.3121 1119.0861,610.0121 C1117.0708,613.4122 1114.7263,616.5895 1112,619.4183 C1086.17,646.2083 1054.09,614.2083 1032,644.1683 C1027.52,650.2483 1028.73,654.3583 1032,661.1683 C1034.47,666.2983 1039.09,664.2783 1042,669.1683 C1043.4994,671.6864 1044.8862,674.294 1046.1686,676.9705 C1046.8098,678.3087 1047.4249,679.6642 1048.0149,681.0343 C1048.3099,681.7194 1048.5986,682.4081 1048.8812,683.1002 C1049.0225,683.4462 1049.1623,683.7931 1049.3005,684.1408 C1049.3697,684.3146 1047.2468,678.9033 1047.3151,679.0775" fill="none" id="caddy-to-rest" style="stroke:#181818;stroke-width:1;"/><polygon fill="#181818" points="1049.5068,684.6629,1049.9429,674.8237,1047.6804,680.0084,1042.4957,677.7459,1049.5068,684.6629" style="stroke:#181818;stroke-width:1;"/><text fill="#000000" font-family="sans-serif" font-size="13" lengthAdjust="spacing" textLength="88.1689" x="1033" y="657.7366">/rest/* routes</text></g><!--link caddy to db--><g class="link" data-entity-1="ent0018" data-entity-2="ent0024" data-link-type="dependency" data-source-line="70" id="lnk38"><path d="M1130.1318,603.5911 C1130.1173,603.9655 1130.1027,604.3408 1130.0878,604.717 C1129.8496,610.7361 1129.553,616.9807 1129.1845,623.3097 C1128.4475,635.9677 1127.4225,648.9633 1126,661.1683 C1114.96,755.9683 1113.97,780.8983 1086,872.1483 C1078.075,897.9983 1066.08,925.8933 1055.9412,947.5583 C1053.4066,952.9745 1050.9879,958.0014 1048.7778,962.5096 C1047.6728,964.7637 1046.6199,966.8881 1045.6308,968.8667 C1045.5071,969.1141 1045.3845,969.3591 1045.2629,969.6019 C1045.202,969.7232 1047.8318,964.481 1047.7715,964.6012" fill="none" id="caddy-to-db" style="stroke:#181818;stroke-width:1;"/><polygon fill="#181818" points="1045.0812,969.9642,1052.6921,963.7133,1047.3231,965.495,1045.5414,960.1261,1045.0812,969.9642" style="stroke:#181818;stroke-width:1;"/><text fill="#000000" font-family="sans-serif" font-size="13" lengthAdjust="spacing" textLength="101.8101" x="1125.93" y="780.7266">PostgreSQL wire</text></g><!--link rest to db--><g class="link" data-entity-1="ent0022" data-entity-2="ent0024" data-link-type="dependency" data-source-line="73" id="lnk39"><path d="M1054.6488,831.9632 C1054.6082,832.3168 1054.5675,832.6715 1054.5266,833.0271 C1054.445,833.7382 1054.3629,834.4532 1054.2803,835.1718 C1053.9503,838.0463 1053.6135,840.9787 1053.2715,843.9574 C1051.9032,855.8725 1050.4497,868.5295 1048.9963,881.1858 C1048.2695,887.5139 1047.5428,893.8418 1046.8268,900.0767 C1046.4688,903.1942 1046.1135,906.2884 1045.7621,909.3477 C1045.5865,910.8773 1045.4118,912.3983 1045.2383,913.9091 C1045.1949,914.2868 1045.1516,914.6638 1045.1084,915.0402 C1045.0868,915.2284 1045.7497,909.4556 1045.7282,909.6435" fill="none" id="rest-to-db" style="stroke:#181818;stroke-width:1;"/><polygon fill="#181818" points="1045.0436,915.6043,1050.0443,907.1194,1045.6141,910.637,1042.0966,906.2067,1045.0436,915.6043" style="stroke:#181818;stroke-width:1;"/><text fill="#000000" font-family="sans-serif" font-size="13" lengthAdjust="spacing" textLength="24.0322" x="1052.86" y="868.7166">SQL</text></g><!--link worker to db--><g class="link" data-entity-1="ent0026" data-entity-2="ent0024" data-link-type="dependency" data-source-line="74" id="lnk40"><path d="M657.0598,800.3409 C657.1352,800.4518 657.2107,800.563 657.2866,800.6743 C658.5003,802.4558 659.7841,804.2862 661.135,806.147 C671.9425,821.0333 687.05,837.8633 705,847.1483 C766.93,879.1783 965.72,832.9083 1017,880.1483 C1021.3187,884.1258 1024.8775,888.7216 1027.7979,893.7232 C1028.1629,894.3485 1028.518,894.98 1028.8634,895.6175 C1028.9497,895.7769 1026.2188,890.6388 1026.3039,890.7989" fill="none" id="worker-to-db" style="stroke:#181818;stroke-width:1;"/><polygon fill="#181818" points="1029.1205,896.0967,1028.4275,886.2723,1026.7733,891.6819,1021.3637,890.0278,1029.1205,896.0967" style="stroke:#181818;stroke-width:1;"/><text fill="#000000" font-family="sans-serif" font-size="13" lengthAdjust="spacing" textLength="24.0322" x="1003.01" y="868.7166">SQL</text></g><!--link db to dbdata--><g class="link" data-entity-1="ent0024" data-entity-2="ent0029" data-link-type="dependency" data-source-line="77" id="lnk41"><path d="M1045.278,1003.0594 C1045.4656,1003.409 1045.6559,1003.7637 1045.8488,1004.1233 C1046.2348,1004.8426 1046.6314,1005.5817 1047.0383,1006.34 C1047.852,1007.8565 1048.7069,1009.4496 1049.5995,1011.1131 C1056.7409,1024.4217 1066.3056,1042.2452 1076.6588,1061.537 C1097.365,1100.1208 1118.3873,1139.2918 1132.3223,1165.2518" fill="none" id="db-to-dbdata" style="stroke:#181818;stroke-width:1;"/><polygon fill="#181818" points="1135.16,1170.5383,1134.4277,1160.7167,1132.7952,1166.1329,1127.3791,1164.5003,1135.16,1170.5383" style="stroke:#181818;stroke-width:1;"/></g><!--link caddy to caddydata--><g class="link" data-entity-1="ent0018" data-entity-2="ent0030" data-link-type="dependency" data-source-line="78" id="lnk42"><path d="M1139.0007,554.9334 C1139.0988,555.0096 1139.1977,555.0866 1139.2973,555.1642 C1140.8919,556.4057 1142.6832,557.8213 1144.6416,559.4006 C1152.475,565.718 1162.9813,574.6552 1174.26,585.552 C1196.8175,607.3458 1222.465,636.9783 1236,669.1683 C1308.07,840.5883 1291.9832,1086.2362 1282.2032,1172.8462" fill="none" id="caddy-to-caddydata" style="stroke:#181818;stroke-width:1;"/><polygon fill="#181818" points="1281.53,1178.8083,1286.5146,1170.3139,1282.091,1173.8399,1278.5651,1169.4163,1281.53,1178.8083" style="stroke:#181818;stroke-width:1;"/></g><!--link caddy to caddyconfigvol--><g class="link" data-entity-1="ent0018" data-entity-2="ent0031" data-link-type="dependency" data-source-line="79" id="lnk43"><path d="M1139.3231,552.9198 C1140.2816,553.3968 1141.3139,553.9154 1142.4152,554.4747 C1144.6178,555.5933 1147.0965,556.8752 1149.8128,558.315 C1160.6781,564.0742 1175.3463,572.3602 1191.3625,582.832 C1223.395,603.7758 1260.82,633.4633 1284,669.1683 C1392.89,836.8983 1422.3737,1100.3014 1429.4937,1181.1514" fill="none" id="caddy-to-caddyconfigvol" style="stroke:#181818;stroke-width:1;"/><polygon fill="#181818" points="1430.02,1187.1283,1433.2151,1177.8121,1429.5814,1182.1476,1425.2459,1178.5139,1430.02,1187.1283" style="stroke:#181818;stroke-width:1;"/></g><!--link env to caddy--><g class="link" data-entity-1="ent0010" data-entity-2="ent0018" data-link-type="dependency" data-source-line="82" id="lnk44"><path d="M226.54,320.6583 C238.38,331.7183 253.67,343.4683 270,349.4383 C292.54,357.6883 678.04,355.9883 702,357.4383 C776.03,361.9083 794,369.4383 868,374.4383 C881.53,375.3483 1102.02,373.2483 1112,382.4383 C1138.645,406.9783 1143.665,447.2083 1141.8925,481.7383 C1141.4494,490.3708 1140.5817,498.647 1139.5213,506.2328 C1139.3887,507.181 1139.2532,508.1185 1139.115,509.0445 C1139.0805,509.276 1139.9443,503.5744 1139.9095,503.8045" fill="none" id="env-to-caddy" style="stroke:#181818;stroke-width:1;stroke-dasharray:7,7;"/><polygon fill="#181818" points="1139.011,509.7368,1144.3136,501.4373,1139.7597,504.7932,1136.4038,500.2393,1139.011,509.7368" style="stroke:#181818;stroke-width:1;"/><text fill="#000000" font-family="sans-serif" font-size="13" lengthAdjust="spacing" textLength="52.0063" x="869" y="371.0066">env vars</text></g><!--link env to app--><g class="link" data-entity-1="ent0010" data-entity-2="ent0020" data-link-type="dependency" data-source-line="83" id="lnk45"><path d="M228.15,320.8683 C239.88,331.4183 254.62,342.6883 270,349.4383 C292.62,359.3683 300.75,352.7183 325,357.4383 C370.81,366.3583 389.02,355.2983 427,382.4383 C528.81,455.1883 488.83,532.6683 579,619.4183 C605.38,644.7983 614.91,650.7483 650,661.1683 C668.66,666.7083 810.36,656.3483 825,669.1683 C829.41,673.0295 833.0223,677.5377 835.9666,682.475 C836.3346,683.0922 836.6922,683.716 837.0396,684.3462 C837.1264,684.5037 834.3594,679.3835 834.445,679.5418" fill="none" id="env-to-app" style="stroke:#181818;stroke-width:1;stroke-dasharray:7,7;"/><polygon fill="#181818" points="837.2982,684.82,836.5372,675.0006,834.9206,680.4215,829.4996,678.8048,837.2982,684.82" style="stroke:#181818;stroke-width:1;"/><text fill="#000000" font-family="sans-serif" font-size="13" lengthAdjust="spacing" textLength="52.0063" x="580" y="552.9966">env vars</text></g><!--link env to rest--><g class="link" data-entity-1="ent0010" data-entity-2="ent0022" data-link-type="dependency" data-source-line="84" id="lnk46"><path d="M227.28,320.8883 C239.06,331.7183 254.09,343.2083 270,349.4383 C295.92,359.5883 367.26,355.1183 395,357.4383 C502.75,366.4483 539.91,334.8383 637,382.4383 C790.75,457.8183 747.57,589.2983 903,661.1683 C917.04,667.6583 1030.42,658.9083 1042,669.1683 C1046.3875,673.0558 1049.983,677.5837 1052.9149,682.5357 C1053.2814,683.1547 1053.6375,683.7803 1053.9835,684.4121 C1054.07,684.5701 1051.3171,679.4425 1051.4024,679.6012" fill="none" id="env-to-rest" style="stroke:#181818;stroke-width:1;stroke-dasharray:7,7;"/><polygon fill="#181818" points="1054.2411,684.8872,1053.507,675.0657,1051.8755,680.4822,1046.459,678.8507,1054.2411,684.8872" style="stroke:#181818;stroke-width:1;"/><text fill="#000000" font-family="sans-serif" font-size="13" lengthAdjust="spacing" textLength="52.0063" x="837.71" y="552.9966">env vars</text></g><!--link env to db--><g class="link" data-entity-1="ent0010" data-entity-2="ent0024" data-link-type="dependency" data-source-line="85" id="lnk47"><path d="M172.57,320.7583 C156.26,336.6583 137.76,358.5283 129,382.4383 C86.16,499.4383 65.67,578.6283 159,661.1683 C288.02,775.2783 334.73,795.3683 499,847.1483 C595.38,877.5283 624.18,865.1983 725,872.1483 C741.19,873.2583 1004.64,869.6283 1017,880.1483 C1021.47,883.9545 1025.1428,888.4212 1028.1469,893.3283 C1028.5224,893.9416 1028.8875,894.5619 1029.2424,895.1886 C1029.4198,895.502 1026.7252,890.5476 1026.8976,890.8641" fill="none" id="env-to-db" style="stroke:#181818;stroke-width:1;stroke-dasharray:7,7;"/><polygon fill="#181818" points="1029.7671,896.1334,1028.9757,886.3164,1027.3758,891.7423,1021.9499,890.1424,1029.7671,896.1334" style="stroke:#181818;stroke-width:1;"/><text fill="#000000" font-family="sans-serif" font-size="13" lengthAdjust="spacing" textLength="52.0063" x="160" y="657.7366">env vars</text></g><!--link env to worker--><g class="link" data-entity-1="ent0010" data-entity-2="ent0026" data-link-type="dependency" data-source-line="86" id="lnk48"><path d="M189.5,320.7083 C159.89,381.1583 97.64,533.5083 173,619.4183 C220,672.9883 420.06,654.2983 491,661.1683 C505.18,662.5383 608.14,659.9383 619,669.1683 C623.5063,673.0008 627.2669,677.4873 630.3971,682.409 C631.9623,684.8698 633.3698,687.4394 634.6342,690.0903 C634.9503,690.7531 635.2574,691.4209 635.5559,692.0934 C635.7051,692.4296 633.4914,687.251 633.6363,687.5895" fill="none" id="env-to-worker" style="stroke:#181818;stroke-width:1;stroke-dasharray:7,7;"/><polygon fill="#181818" points="635.997,693.1055,636.1333,683.2576,634.0297,688.5088,628.7785,686.4053,635.997,693.1055" style="stroke:#181818;stroke-width:1;"/><text fill="#000000" font-family="sans-serif" font-size="13" lengthAdjust="spacing" textLength="52.0063" x="174" y="552.9966">env vars</text></g><!--link caddy to GMN49--><g class="link" data-entity-1="ent0018" data-entity-2="ent0050" data-link-type="association" data-source-line="89" id="lnk51"><path d="M1139.3051,547.9283 C1139.4801,547.9283 1139.6551,547.9283 1139.8301,547.9283 C1142.6302,547.9283 1145.4303,547.9283 1148.2304,547.9283 C1153.8307,547.9283 1159.4311,547.9283 1165.0316,547.9283 C1176.2325,547.9283 1187.4338,547.9283 1198.635,547.9283 C1221.0375,547.9283 1243.44,547.9283 1265.84,547.9283" fill="none" id="caddy-GMN49" style="stroke:#181818;stroke-width:1;stroke-dasharray:7,7;"/></g><!--link db to GMN52--><g class="link" data-entity-1="ent0024" data-entity-2="ent0053" data-link-type="association" data-source-line="100" id="lnk54"><path d="M1026.7972,1042.1964 C1026.7282,1042.5174 1026.6589,1042.8388 1026.5893,1043.1607 C1026.0324,1045.7358 1025.4574,1048.3394 1024.8652,1050.957 C1022.4962,1061.4277 1019.8525,1072.1233 1017,1082.1183 C1011.32,1102.0283 1003.85,1123.5283 996.91,1142.2083" fill="none" id="db-GMN52" style="stroke:#181818;stroke-width:1;stroke-dasharray:7,7;"/></g><g class="caption" data-source-line="11"><text fill="#000000" font-family="sans-serif" font-size="14" lengthAdjust="spacing" textLength="351.3672" x="575.8164" y="1265.0767">Containers, networks, ports, and configuration flow</text></g><?plantuml-src bLRVRzis47xNNt787kPuyu_OyT09NHxis6Y7earhOtt92oNIZcQP54ZQQL7aVzyTIKkqetH83CJMtNVt7J_UaJBRGbPCinraBDzkjDfBFbEbql3BOawVnDG8BNBBvAOKy2C1_9kUHhnzE_zcXPQilBd1w0bzsd4p9TV5ng4MY_5ys8xwAEoZqbk2pSUBqUBsnMIM5L9e0awdj_F5j1tuZohtEq6esPlv7xC_awSaiON5vImjizEzWLkLRuM6cTfLoWXuB_roJ9ApoXPAGirbVWVfoyDVbT8MlvZaaBkLxJLpy7Mf7fEaaUtYdJ8MxWWEdQDObnTmefpNDgSQf90MWrQhktiv7buDeSF5uH86y0P_LbfnZ6K67gojg8QsmAMBlAeZhw_7vw6cBVOEAzreiVpymIMung0ILsx5D-iZUVRpC5XzyDoJ0BUb9tewKMHs8jW21ICvwWRnOgmBWlQ5FFHpBJWo5RWhzx9Z13vRuoj2DtdDin2N3D625nRiGn7XdUii094RWNlChE0rCi9mroMzt7T9__kkTA3m705pnldtWUSOU0nP8bBtxrWtz7etz00f7Fbx4ROkz_zn3X7gGHHjcwvKYK3JaYegAaffpZOgp4OOoXGCpaosDxqVfbJsgHUcWJQlcLk_Ur6Iio377FQxdk6ZJ27whC5cvBgNAKv0IhsSJgx7erZRNUN2dXfzN-PdLTN2ZjPsxe_O_Fr_iU_IyN0ul0ZOrr5gOMmB9vdRITr4VPalLp4jmL_7oxCMLfxzX3CCVoCmprv7IKqWT0kjTxHJVmr1DIpYF6r8VvmRob-Vx3ubPvPbpD2ePZrw2ENJJp-UgkHOG1XGCWzmw7EXZqU9Sxm0Vs6U3wga0d-5ur4ELe7hrkHuFZVJbjJdRcJp9-g98PoPaGq9N5BAReG-5BcWwuai1ABUJM7G1Rpux8d7THYwwBlDZxsGGdHyFnPQ4Dioa13XxJHnQMey0fEmcoSsZ0lRWui8BYTdmzT8V6PhvAIr-cC9kVFwwateXElt0nmPwVd08eTNuPavIF3Cxif-PWthYZo9L5Q0BZOF5jGwR0X0j_i5nIpafjl59zJMxuERLZ84nSCU7CsHr4uUDsU96wfkTo6OtIFQPPmfjIq4QV1EC6h4lx-kq8ptAs2dxGhfxawicmCL6ChCbBLgHtNopEMarmxuj5uROLtQAKt8Nq3bm6_GKSu3NRWQNleoF1RmtQ5KERwdf43l83swqXll23fIETU8NAF8DO7EZZdNX5oJILFYVm00?></g></svg>