<?plantuml 1.2026.1?><svg xmlns="http://www.w3.org/2000/svg" xmlns:xlink="http://www.w3.org/1999/xlink" contentStyleType="text/css" data-diagram-type="DESCRIPTION" height="1216px" preserveAspectRatio="none" style="width:1253px;height:1216px;background:#FEFEFE;" version="1.1" viewBox="0 0 1253 1216" width="1253px" zoomAndPan="magnify"><title>StatBus Standalone Deployment</title><defs/><g><rect fill="#FEFEFE" height="1216" style="stroke:none;stroke-width:1;" width="1253" x="0" y="0"/><g class="title" data-source-line="9"><text fill="#000000" font-family="sans-serif" font-size="14" font-weight="bold" lengthAdjust="spacing" textLength="229.1133" x="505.3074" y="23.5352">StatBus Standalone Deployment</text></g><!--cluster Internet--><g class="cluster" data-qualified-name="Internet" data-source-line="12" id="ent0002"><rect fill="#F5F5F5" height="159.98" rx="2.5" ry="2.5" style="stroke:#181818;stroke-width:1;" width="347" x="443" y="44.4883"/><text fill="#000000" font-family="sans-serif" font-size="14" font-style="italic" lengthAdjust="spacing" textLength="67.8809" x="582.5596" y="60.0234">&#171;Internet&#187;</text><text fill="#000000" font-family="sans-serif" font-size="14" font-weight="bold" lengthAdjust="spacing" textLength="57.1484" x="587.9258" y="76.5117">Internet</text></g><!--cluster Server: statbus.nso.gov.cc--><g class="cluster" data-qualified-name="Server. statbus.nso.gov.cc" data-source-line="18" id="ent0006"><rect fill="#E8F5E9" height="781.91" rx="2.5" ry="2.5" style="stroke:#181818;stroke-width:1;" width="1024" x="7" y="268.4683"/><text fill="#000000" font-family="sans-serif" font-size="14" font-style="italic" lengthAdjust="spacing" textLength="56.5127" x="490.7437" y="284.0034">&#171;Server&#187;</text><text fill="#000000" font-family="sans-serif" font-size="14" font-weight="bold" lengthAdjust="spacing" textLength="185.2061" x="426.397" y="300.4917">Server: statbus.nso.gov.cc</text></g><!--cluster Docker Compose--><g class="cluster" data-qualified-name="Server. statbus.nso.gov.cc.Docker Compose" data-source-line="19" id="ent0007"><rect fill="#E3F2FD" height="698.91" rx="2.5" ry="2.5" style="stroke:#181818;stroke-width:1;" width="976" x="31" y="327.4683"/><text fill="#000000" font-family="sans-serif" font-size="14" font-style="italic" lengthAdjust="spacing" textLength="62.6377" x="487.6812" y="343.0034">&#171;Docker&#187;</text><text fill="#000000" font-family="sans-serif" font-size="14" font-weight="bold" lengthAdjust="spacing" textLength="122.3633" x="457.8184" y="359.4917">Docker Compose</text></g><!--cluster caddy--><g class="cluster" data-qualified-name="Server. statbus.nso.gov.cc.Docker Compose.caddy" data-source-line="20" id="ent0008"><rect fill="#BBDEFB" height="178.95" rx="2.5" ry="2.5" style="stroke:#181818;stroke-width:1;" width="301" x="308" y="394.4683"/><text fill="#000000" font-family="sans-serif" font-size="14" font-style="italic" lengthAdjust="spacing" textLength="80.876" x="418.062" y="410.0034">&#171;Container&#187;</text><text fill="#000000" font-family="sans-serif" font-size="14" font-weight="bold" lengthAdjust="spacing" textLength="158.4092" x="379.2954" y="426.4917">statbus-{code}-caddy</text></g><!--cluster app--><g class="cluster" data-qualified-name="Server. statbus.nso.gov.cc.Docker Compose.app" data-source-line="24" id="ent0010"><rect fill="#BBDEFB" height="145.98" rx="2.5" ry="2.5" style="stroke:#181818;stroke-width:1;" width="231" x="63" y="653.4183"/><text fill="#000000" font-family="sans-serif" font-size="14" font-style="italic" lengthAdjust="spacing" textLength="80.876" x="138.062" y="668.9534">&#171;Container&#187;</text><text fill="#000000" font-family="sans-serif" font-size="14" font-weight="bold" lengthAdjust="spacing" textLength="142.7959" x="107.1021" y="685.4417">statbus-{code}-app</text></g><!--cluster rest--><g class="cluster" data-qualified-name="Server. statbus.nso.gov.cc.Docker Compose.rest" data-source-line="28" id="ent0012"><rect fill="#BBDEFB" height="145.98" rx="2.5" ry="2.5" style="stroke:#181818;stroke-width:1;" width="231" x="334" y="653.4183"/><text fill="#000000" font-family="sans-serif" font-size="14" font-style="italic" lengthAdjust="spacing" textLength="80.876" x="409.062" y="668.9534">&#171;Container&#187;</text><text fill="#000000" font-family="sans-serif" font-size="14" font-weight="bold" lengthAdjust="spacing" textLength="144.1699" x="377.415" y="685.4417">statbus-{code}-rest</text></g><!--cluster db--><g class="cluster" data-qualified-name="Server. statbus.nso.gov.cc.Docker Compose.db" data-source-line="32" id="ent0014"><rect fill="#BBDEFB" height="145.98" rx="2.5" ry="2.5" style="stroke:#181818;stroke-width:1;" width="231" x="404" y="848.3983"/><text fill="#000000" font-family="sans-serif" font-size="14" font-style="italic" lengthAdjust="spacing" textLength="80.876" x="479.062" y="863.9334">&#171;Container&#187;</text><text fill="#000000" font-family="sans-serif" font-size="14" font-weight="bold" lengthAdjust="spacing" textLength="134.5654" x="452.2173" y="880.4217">statbus-{code}-db</text></g><!--cluster worker--><g class="cluster" data-qualified-name="Server. statbus.nso.gov.cc.Docker Compose.worker" data-source-line="36" id="ent0016"><rect fill="#BBDEFB" height="145.98" rx="2.5" ry="2.5" style="stroke:#181818;stroke-width:1;" width="221" x="754" y="653.4183"/><text fill="#000000" font-family="sans-serif" font-size="14" font-style="italic" lengthAdjust="spacing" textLength="80.876" x="824.062" y="668.9534">&#171;Container&#187;</text><text fill="#000000" font-family="sans-serif" font-size="14" font-weight="bold" lengthAdjust="spacing" textLength="166.8242" x="781.0879" y="685.4417">statbus-{code}-worker</text></g><!--entity webusers--><g class="entity" data-qualified-name="Internet.webusers" data-source-line="13" id="ent0003"><ellipse cx="493.9998" cy="112.2383" fill="#F1F1F1" rx="8" ry="8" style="stroke:#181818;stroke-width:0.5;"/><path d="M493.9998,120.2383 L493.9998,147.2383 M480.9998,128.2383 L506.9998,128.2383 M493.9998,147.2383 L480.9998,162.2383 M493.9998,147.2383 L506.9998,162.2383" fill="none" style="stroke:#181818;stroke-width:0.5;"/><text fill="#000000" font-family="sans-serif" font-size="14" lengthAdjust="spacing" textLength="70.5195" x="458.74" y="177.2734">Web Users</text></g><!--entity apiclients--><g class="entity" data-qualified-name="Internet.apiclients" data-source-line="14" id="ent0004"><ellipse cx="601.001" cy="112.2383" fill="#F1F1F1" rx="8" ry="8" style="stroke:#181818;stroke-width:0.5;"/><path d="M601.001,120.2383 L601.001,147.2383 M588.001,128.2383 L614.001,128.2383 M601.001,147.2383 L588.001,162.2383 M601.001,147.2383 L614.001,162.2383" fill="none" style="stroke:#181818;stroke-width:0.5;"/><text fill="#000000" font-family="sans-serif" font-size="14" lengthAdjust="spacing" textLength="72.502" x="564.75" y="177.2734">API Clients</text></g><!--entity sqlclients--><g class="entity" data-qualified-name="Internet.sqlclients" data-source-line="15" id="ent0005"><ellipse cx="722.9981" cy="103.9883" fill="#F1F1F1" rx="8" ry="8" style="stroke:#181818;stroke-width:0.5;"/><path d="M722.9981,111.9883 L722.9981,138.9883 M709.9981,119.9883 L735.9981,119.9883 M722.9981,138.9883 L709.9981,153.9883 M722.9981,138.9883 L735.9981,153.9883" fill="none" style="stroke:#181818;stroke-width:0.5;"/><text fill="#000000" font-family="sans-serif" font-size="14" lengthAdjust="spacing" textLength="76.9521" x="672.19" y="169.0234">SQL Clients</text><text fill="#000000" font-family="sans-serif" font-size="14" lengthAdjust="spacing" textLength="101.6162" x="672.19" y="185.5117">(psql, DBeaver)</text></g><!--entity Caddy (standalone mode)\n? ACME/Let's Encrypt certs\n? HTTPS termination\n? PostgreSQL TLS+SNI proxy--><g class="entity" data-qualified-name="Server. statbus.nso.gov.cc.Docker Compose.caddy.Caddy .standalone mode..n. ACME.Let.s Encrypt certs.n. HTTPS termination.n. PostgreSQL TLS.SNI proxy" data-source-line="21" id="ent0009"><rect fill="#F1F1F1" height="95.9531" rx="2.5" ry="2.5" style="stroke:#181818;stroke-width:0.5;" width="233.9287" x="332.04" y="453.4683"/><rect fill="#F1F1F1" height="10" style="stroke:#181818;stroke-width:0.5;" width="15" x="545.9687" y="458.4683"/><rect fill="#F1F1F1" height="2" style="stroke:#181818;stroke-width:0.5;" width="4" x="543.9687" y="460.4683"/><rect fill="#F1F1F1" height="2" style="stroke:#181818;stroke-width:0.5;" width="4" x="543.9687" y="464.4683"/><text fill="#000000" font-family="sans-serif" font-size="14" lengthAdjust="spacing" textLength="173.0723" x="347.04" y="487.0034">Caddy (standalone mode)</text><text fill="#000000" font-family="sans-serif" font-size="14" lengthAdjust="spacing" textLength="181.9248" x="347.04" y="503.4917">&#8226; ACME/Let's Encrypt certs</text><text fill="#000000" font-family="sans-serif" font-size="14" lengthAdjust="spacing" textLength="138.8516" x="347.04" y="519.98">&#8226; HTTPS termination</text><text fill="#000000" font-family="sans-serif" font-size="14" lengthAdjust="spacing" textLength="193.9287" x="347.04" y="536.4683">&#8226; PostgreSQL TLS+SNI proxy</text></g><!--entity Next.js\nPort 3000 internal--><g class="entity" data-qualified-name="Server. statbus.nso.gov.cc.Docker Compose.app.Next.js.nPort 3000 internal" data-source-line="25" id="ent0011"><rect fill="#F1F1F1" height="62.9766" rx="2.5" ry="2.5" style="stroke:#181818;stroke-width:0.5;" width="163.5391" x="87.23" y="712.4183"/><rect fill="#F1F1F1" height="10" style="stroke:#181818;stroke-width:0.5;" width="15" x="230.7691" y="717.4183"/><rect fill="#F1F1F1" height="2" style="stroke:#181818;stroke-width:0.5;" width="4" x="228.7691" y="719.4183"/><rect fill="#F1F1F1" height="2" style="stroke:#181818;stroke-width:0.5;" width="4" x="228.7691" y="723.4183"/><text fill="#000000" font-family="sans-serif" font-size="14" lengthAdjust="spacing" textLength="47.79" x="102.23" y="745.9534">Next.js</text><text fill="#000000" font-family="sans-serif" font-size="14" lengthAdjust="spacing" textLength="123.5391" x="102.23" y="762.4417">Port 3000 internal</text></g><!--entity PostgREST\nPort 3000 internal--><g class="entity" data-qualified-name="Server. statbus.nso.gov.cc.Docker Compose.rest.PostgREST.nPort 3000 internal" data-source-line="29" id="ent0013"><rect fill="#F1F1F1" height="62.9766" rx="2.5" ry="2.5" style="stroke:#181818;stroke-width:0.5;" width="163.5391" x="358.23" y="712.4183"/><rect fill="#F1F1F1" height="10" style="stroke:#181818;stroke-width:0.5;" width="15" x="501.7691" y="717.4183"/><rect fill="#F1F1F1" height="2" style="stroke:#181818;stroke-width:0.5;" width="4" x="499.7691" y="719.4183"/><rect fill="#F1F1F1" height="2" style="stroke:#181818;stroke-width:0.5;" width="4" x="499.7691" y="723.4183"/><text fill="#000000" font-family="sans-serif" font-size="14" lengthAdjust="spacing" textLength="70.2734" x="373.23" y="745.9534">PostgREST</text><text fill="#000000" font-family="sans-serif" font-size="14" lengthAdjust="spacing" textLength="123.5391" x="373.23" y="762.4417">Port 3000 internal</text></g><!--entity PostgreSQL\nPort 5432 internal--><g class="entity" data-qualified-name="Server. statbus.nso.gov.cc.Docker Compose.db.PostgreSQL.nPort 5432 internal" data-source-line="33" id="ent0015"><rect fill="#F1F1F1" height="62.9766" rx="2.5" ry="2.5" style="stroke:#181818;stroke-width:0.5;" width="163.5391" x="428.23" y="907.3983"/><rect fill="#F1F1F1" height="10" style="stroke:#181818;stroke-width:0.5;" width="15" x="571.7691" y="912.3983"/><rect fill="#F1F1F1" height="2" style="stroke:#181818;stroke-width:0.5;" width="4" x="569.7691" y="914.3983"/><rect fill="#F1F1F1" height="2" style="stroke:#181818;stroke-width:0.5;" width="4" x="569.7691" y="918.3983"/><text fill="#000000" font-family="sans-serif" font-size="14" lengthAdjust="spacing" textLength="76.8496" x="443.23" y="940.9334">PostgreSQL</text><text fill="#000000" font-family="sans-serif" font-size="14" lengthAdjust="spacing" textLength="123.5391" x="443.23" y="957.4217">Port 5432 internal</text></g><!--entity Crystal Worker\nBackground jobs--><g class="entity" data-qualified-name="Server. statbus.nso.gov.cc.Docker Compose.worker.Crystal Worker.nBackground jobs" data-source-line="37" id="ent0017"><rect fill="#F1F1F1" height="62.9766" rx="2.5" ry="2.5" style="stroke:#181818;stroke-width:0.5;" width="153.6201" x="778.19" y="712.4183"/><rect fill="#F1F1F1" height="10" style="stroke:#181818;stroke-width:0.5;" width="15" x="911.8101" y="717.4183"/><rect fill="#F1F1F1" height="2" style="stroke:#181818;stroke-width:0.5;" width="4" x="909.8101" y="719.4183"/><rect fill="#F1F1F1" height="2" style="stroke:#181818;stroke-width:0.5;" width="4" x="909.8101" y="723.4183"/><text fill="#000000" font-family="sans-serif" font-size="14" lengthAdjust="spacing" textLength="99.3262" x="793.19" y="745.9534">Crystal Worker</text><text fill="#000000" font-family="sans-serif" font-size="14" lengthAdjust="spacing" textLength="113.6201" x="793.19" y="762.4417">Background jobs</text></g><g class="entity" data-qualified-name="GMN26" data-source-line="54" id="ent0027"><path d="M1047.27,458.1683 L1047.27,544.721 L1246.728,544.721 L1246.728,468.1683 L1236.728,458.1683 L1047.27,458.1683" fill="#FEFFDD" style="stroke:#181818;stroke-width:0.5;"/><path d="M1236.728,458.1683 L1236.728,468.1683 L1246.728,468.1683 L1236.728,458.1683" fill="#FEFFDD" style="stroke:#181818;stroke-width:1;"/><text fill="#000000" font-family="sans-serif" font-size="13" font-weight="bold" lengthAdjust="spacing" textLength="176.1284" x="1053.27" y="475.7366">Standalone Mode Features</text><text fill="#000000" font-family="sans-serif" font-size="13" lengthAdjust="spacing" textLength="156.9902" x="1053.27" y="491.0472">&#8226; Handles HTTPS directly</text><text fill="#000000" font-family="sans-serif" font-size="13" lengthAdjust="spacing" textLength="159.6753" x="1053.27" y="506.3577">&#8226; Automatic Let's Encrypt</text><text fill="#000000" font-family="sans-serif" font-size="13" lengthAdjust="spacing" textLength="150.3315" x="1053.27" y="521.6683">&#8226; Or custom certificates</text><text fill="#000000" font-family="sans-serif" font-size="13" lengthAdjust="spacing" textLength="178.458" x="1053.27" y="536.9788">&#8226; Standard ports: 443, 5432</text></g><g class="entity" data-qualified-name="GMN29" data-source-line="62" id="ent0030"><path d="M524.49,1097.3783 L524.49,1183.931 L729.5086,1183.931 L729.5086,1107.3783 L719.5086,1097.3783 L524.49,1097.3783" fill="#FEFFDD" style="stroke:#181818;stroke-width:0.5;"/><path d="M719.5086,1097.3783 L719.5086,1107.3783 L729.5086,1107.3783 L719.5086,1097.3783" fill="#FEFFDD" style="stroke:#181818;stroke-width:1;"/><text fill="#000000" font-family="sans-serif" font-size="13" font-weight="bold" lengthAdjust="spacing" textLength="156.4888" x="530.49" y="1114.9466">PostgreSQL Connection</text><text fill="#000000" font-family="sans-serif" font-size="13" lengthAdjust="spacing" textLength="73.4741" x="530.49" y="1130.2572">Clients use:</text><text fill="#000000" font-family="sans-serif" font-size="13" lengthAdjust="spacing" textLength="184.0186" x="530.49" y="1145.5677">&#8226; PGSSLNEGOTIATION=direct</text><text fill="#000000" font-family="sans-serif" font-size="13" lengthAdjust="spacing" textLength="159.834" x="530.49" y="1160.8783">&#8226; PGSSLMODE=verify-full</text><text fill="#000000" font-family="sans-serif" font-size="13" lengthAdjust="spacing" textLength="87.8198" x="530.49" y="1176.1888">&#8226; PGSSLSNI=1</text></g><!--link webusers to caddy--><g class="link" data-entity-1="ent0003" data-entity-2="ent0008" data-link-type="dependency" data-source-line="42" id="lnk18"><path d="M490.82,180.5083 C490.98,204.5283 495.67,234.4583 515,252.4683 C536.94,272.9083 561.22,238.8483 582,260.4683 C618.485,298.4383 623.6575,357.1658 619.5025,407.0195 C617.425,431.9464 614.4042,448.8177 610.4111,465.6038" fill="none" id="webusers-to-caddy" style="stroke:#181818;stroke-width:1;"/><polygon fill="#181818" points="609.0225,471.4409,614.9967,463.611,610.1796,466.5767,607.2139,461.7596,609.0225,471.4409" style="stroke:#181818;stroke-width:1;"/><text fill="#000000" font-family="sans-serif" font-size="13" lengthAdjust="spacing" textLength="73.0679" x="516" y="234.0366">HTTPS :443</text><text fill="#000000" font-family="sans-serif" font-size="13" lengthAdjust="spacing" textLength="57.3003" x="523.8838" y="249.3472">/* routes</text></g><!--link apiclients to caddy--><g class="link" data-entity-1="ent0004" data-entity-2="ent0008" data-link-type="dependency" data-source-line="43" id="lnk19"><path d="M599.26,180.4183 C598.74,193.1283 598.25,207.4083 598,220.4683 C597.4075,251.0858 597.2881,283.5895 597.445,315.1969 C597.5234,331.0005 597.6709,346.5801 597.8629,361.5878 C597.9589,369.0916 598.066,376.4524 598.1811,383.6268 C598.2386,387.214 598.193,384.7555 598.2542,388.244" fill="none" id="apiclients-to-caddy" style="stroke:#181818;stroke-width:1;"/><polygon fill="#181818" points="598.3594,394.2431,602.2009,385.1743,598.2717,389.2438,594.2022,385.3146,598.3594,394.2431" style="stroke:#181818;stroke-width:1;"/><text fill="#000000" font-family="sans-serif" font-size="13" lengthAdjust="spacing" textLength="73.0679" x="606.5505" y="234.0366">HTTPS :443</text><text fill="#000000" font-family="sans-serif" font-size="13" lengthAdjust="spacing" textLength="88.1689" x="599" y="249.3472">/rest/* routes</text></g><!--link sqlclients to caddy--><g class="link" data-entity-1="ent0005" data-entity-2="ent0008" data-link-type="dependency" data-source-line="44" id="lnk20"><path d="M710.87,188.7583 C705.44,208.4683 698.74,231.7083 692,252.4683 C674.165,307.4283 651.8425,368.3583 633.77,416.0683 C624.7338,439.9233 616.76,460.4733 610.9409,475.3195 C610.5772,476.2474 610.222,477.153 609.8754,478.0358 C609.7021,478.4771 609.531,478.9128 609.362,479.3427 C609.2776,479.5576 611.3889,474.1871 611.3055,474.3991" fill="none" id="sqlclients-to-caddy" style="stroke:#181818;stroke-width:1;"/><polygon fill="#181818" points="609.1103,479.9831,616.1258,473.0706,610.9397,475.3298,608.6805,470.1436,609.1103,479.9831" style="stroke:#181818;stroke-width:1;"/><text fill="#000000" font-family="sans-serif" font-size="13" lengthAdjust="spacing" textLength="93.9453" x="710.2054" y="234.0366">TLS+SNI :5432</text><text fill="#000000" font-family="sans-serif" font-size="13" lengthAdjust="spacing" textLength="109.916" x="702.22" y="249.3472">ALPN=postgresql</text></g><!--link caddy to app--><g class="link" data-entity-1="ent0008" data-entity-2="ent0010" data-link-type="dependency" data-source-line="46" id="lnk21"><path d="M593.6765,573.4349 C593.4106,573.979 593.1374,574.519 592.8567,575.0544 C592.2952,576.1253 591.7037,577.178 591.0807,578.21 C588.5886,582.3377 585.5925,586.132 582,589.4183 C571.59,598.9483 532.9,594.9783 519,597.4183 C439.57,611.4083 406.08,588.4483 342,637.4183 C321.24,653.2833 307.35,679.0858 298.5963,701.2008 C297.502,703.9652 296.4881,706.6719 295.551,709.2944 C295.0824,710.6057 294.6331,711.8959 294.2026,713.1617 C294.1487,713.32 296.0167,707.7938 295.9635,707.9513" fill="none" id="caddy-to-app" style="stroke:#181818;stroke-width:1;"/><polygon fill="#181818" points="294.042,713.6353,300.7136,706.3903,295.6433,708.8986,293.1349,703.8283,294.042,713.6353" style="stroke:#181818;stroke-width:1;"/><text fill="#000000" font-family="sans-serif" font-size="13" lengthAdjust="spacing" textLength="33.1792" x="520" y="610.9866">HTTP</text><text fill="#000000" font-family="sans-serif" font-size="13" lengthAdjust="spacing" textLength="13.0825" x="530.0483" y="626.2972">/*</text></g><!--link caddy to rest--><g class="link" data-entity-1="ent0008" data-entity-2="ent0012" data-link-type="dependency" data-source-line="47" id="lnk22"><path d="M589.3857,573.7412 C589.2766,574.0291 589.1666,574.3165 589.0555,574.6035 C588.8333,575.1773 588.607,575.7491 588.3765,576.3185 C586.5325,580.8744 584.42,585.2833 582,589.4183 C579.3,594.0383 575.46,592.6683 573,597.4183 C565.6525,611.6433 560.9525,627.6783 558.0419,643.7709 C557.678,645.7825 557.3422,647.795 557.0326,649.805 C556.8778,650.8099 557.5696,645.8734 557.4277,646.8767" fill="none" id="caddy-to-rest" style="stroke:#181818;stroke-width:1;"/><polygon fill="#181818" points="556.5877,652.8176,561.8083,644.4662,557.2877,647.8668,553.8871,643.3462,556.5877,652.8176" style="stroke:#181818;stroke-width:1;"/><text fill="#000000" font-family="sans-serif" font-size="13" lengthAdjust="spacing" textLength="33.1792" x="579.386" y="610.9866">HTTP</text><text fill="#000000" font-family="sans-serif" font-size="13" lengthAdjust="spacing" textLength="43.9512" x="574" y="626.2972">/rest/*</text></g><!--link caddy to db--><g class="link" data-entity-1="ent0008" data-entity-2="ent0014" data-link-type="dependency" data-source-line="48" id="lnk23"><path d="M609.0113,531.4153 C609.0803,531.6861 609.1495,531.9581 609.2189,532.2314 C609.4964,533.3246 609.7766,534.4383 610.0587,535.5708 C614.5725,553.6908 619.575,576.6233 622,597.4183 C630.63,671.4033 631.975,755.0383 631.1162,820.9008 C631.0089,829.1336 630.8671,837.0887 630.7008,844.7126 C630.6801,845.6656 630.7959,840.6149 630.7744,841.5575" fill="none" id="caddy-to-db" style="stroke:#181818;stroke-width:1;"/><polygon fill="#181818" points="630.6374,847.5559,634.8419,838.6496,630.7516,842.5572,626.844,838.4669,630.6374,847.5559" style="stroke:#181818;stroke-width:1;"/><text fill="#000000" font-family="sans-serif" font-size="13" lengthAdjust="spacing" textLength="58.4619" x="654.0141" y="741.4766">Plain TCP</text><text fill="#000000" font-family="sans-serif" font-size="13" lengthAdjust="spacing" textLength="101.8101" x="632.34" y="756.7872">PostgreSQL wire</text></g><!--link rest to db--><g class="link" data-entity-1="ent0012" data-entity-2="ent0014" data-link-type="dependency" data-source-line="50" id="lnk24"><path d="M565.107,777.6487 C565.1837,777.8788 565.261,778.1094 565.3389,778.3405 C565.4948,778.8025 565.6532,779.2664 565.8141,779.7317 C566.136,780.6625 566.4681,781.5994 566.8105,782.5407 C568.1804,786.3061 569.7165,790.1424 571.4327,793.9406 C574.865,801.537 579.0175,808.9808 584,815.3983 C592.02,825.7283 600.99,821.3683 608,832.3983 C611.145,837.3445 611.5499,837.11 613.7944,842.6476" fill="none" id="rest-to-db" style="stroke:#181818;stroke-width:1;"/><polygon fill="#181818" points="616.0483,848.2082,616.3746,838.3648,614.1701,843.5744,608.9604,841.3699,616.0483,848.2082" style="stroke:#181818;stroke-width:1;"/></g><!--link worker to db--><g class="link" data-entity-1="ent0016" data-entity-2="ent0014" data-link-type="dependency" data-source-line="51" id="lnk25"><path d="M958.0512,799.4585 C958.0008,799.5725 957.9502,799.6864 957.8993,799.8002 C957.7974,800.0278 957.6945,800.2548 957.5904,800.4812 C956.758,802.2928 955.8538,804.0683 954.872,805.7924 C952.9083,809.2406 950.6338,812.4833 948,815.3983 C897.615,871.1633 819.065,901.7083 752.2813,918.3495 C718.8894,926.6702 688.4391,931.5148 665.9217,934.2981 C654.663,935.6898 645.3876,936.5661 638.7194,937.1038 C637.8858,937.171 637.093,937.233 636.3422,937.2899 C635.9668,937.3184 641.5857,936.9055 641.2314,936.9315" fill="none" id="worker-to-db" style="stroke:#181818;stroke-width:1;"/><polygon fill="#181818" points="635.2475,937.3718,644.5168,940.7007,640.2341,937.0049,643.9298,932.7222,635.2475,937.3718" style="stroke:#181818;stroke-width:1;"/></g><!--link caddy to GMN26--><g class="link" data-entity-1="ent0008" data-entity-2="ent0027" data-link-type="association" data-source-line="54" id="lnk28"><path d="M610.4936,501.4483 C611.0731,501.4483 611.6527,501.4483 612.2323,501.4483 C613.3914,501.4483 614.5505,501.4483 615.7097,501.4483 C620.3462,501.4483 624.9828,501.4483 629.6194,501.4483 C638.8925,501.4483 648.1656,501.4483 657.4387,501.4483 C675.985,501.4483 694.5312,501.4483 713.0773,501.4483 C750.1697,501.4483 787.2619,501.4483 824.3538,501.4483 C898.5375,501.4483 972.72,501.4483 1046.9,501.4483" fill="none" id="caddy-GMN26" style="stroke:#181818;stroke-width:1;stroke-dasharray:7,7;"/></g><!--link db to GMN29--><g class="link" data-entity-1="ent0014" data-entity-2="ent0030" data-link-type="association" data-source-line="62" id="lnk31"><path d="M627,994.9216 C627,995.1638 627,995.4064 627,995.6495 C627,996.6219 627,997.6012 627,998.587 C627,1030.1333 627,1068.3233 627,1097.0083" fill="none" id="db-GMN29" style="stroke:#181818;stroke-width:1;stroke-dasharray:7,7;"/></g><g class="caption" data-source-line="10"><text fill="#000000" font-family="sans-serif" font-size="14" lengthAdjust="spacing" textLength="432.1064" x="403.8108" y="1204.4662">Single server with direct public access (e.g., statbus.nso.gov.cc)</text></g><?plantuml-src hLJDRjf04BxxAKRqq8G6aeP4Qb68n8z9aGYuDLKEfOVrUY5kpAwxkmv14LAVfO_M9-ciru2XhbIrjG_WdMzcllbcPjL3n1CYoG82GX_cKgGyx8fOI7ZHTythg2r2Cge9dySCdXt0fxFlSNKru9f9plJrDNfVchSSvpFvoAH1kM_wb-xRSbHFq8SSrUYVztlbgAxWcaJS0ZkTdjllE6l7qP56dhuckfCgyyj34WlEeCUIMAmMZ6k7aaH7WeCVPKMfZ1Ki8tqFOMIAXIGDueW2ePGf1KUiFg-VWCAWGQhgN8dwN3pMAJrsd9qsbOqA5TXJn6f6g4PjAtSiW8-OK5M0A5WoZ8SVHKJR6q0tZf2dnP0aelQpYFBV3pUeAJzArDVu17eTHh2GuymDJpPkwpsMjWVDaceCxss7BEk2d-qATCKY4OePxBPF5dk0p-FNdga8sRf6IHYkZ5UnRyWpEoz4CC-dRdPuf7RTMs2Guod_yUqxjBktxkcGwPSAN4xbAj50cJGw6EkxoSJp0SLVH9oOBjjZJoWzbyp8DXdwh_pH018fdbQVjudNstz_K0r9af9QyFImaX5xqlKloCqJKaFZxEmCecmqIFoNgILJkYItEJvCdXNzmVKd_p5z69Ga3uFIr9dUUUxBYyRvl-PU2ea3LvBV6dwP8hd2037SPTOftrqXy4K4wf34sYpAPYEXLhlEPxEPprJpug8nvQTLm12QAMUtcBy7cwxiF7OxkUUn6SYcqMZAsqDlr4giVkZXE1PdFCo0sGo6IC6GTNzhiLaBPknF4xmO5OD9rpCTsMx34YyySp-WlqKwkPZvbyE5PY2Z-Rq6CRESKQvgjN2rtc9teC-8JZ5EjOhcR1FH7ZEL2s8lrdYL6zkf5WlSJmfxcvnRnn9egX2HRNOqYoWn-bcZJIn3I72kL1DGwPDil1o6dJLqSzA1q2O4iiOw3EL2sJX07FdW_P3npQzImDutypJUZUyFH-xDU39eJmRZKSjMKBJUZdjk2w_BQBQgpT8uBjgmeQtNEqO_0G00?></g></svg>