<?plantuml 1.2026.1?><svg xmlns="http://www.w3.org/2000/svg" xmlns:xlink="http://www.w3.org/1999/xlink" contentStyleType="text/css" data-diagram-type="DESCRIPTION" height="1068px" preserveAspectRatio="none" style="width:1580px;height:1068px;background:#FEFEFE;" version="1.1" viewBox="0 0 1580 1068" width="1580px" zoomAndPan="magnify"><title>StatBus Multi-Tenant Cloud Deployment</title><defs/><g><rect fill="#FEFEFE" height="1068" style="stroke:none;stroke-width:1;" width="1580" x="0" y="0"/><g class="title" data-source-line="9"><text fill="#000000" font-family="sans-serif" font-size="14" font-weight="bold" lengthAdjust="spacing" textLength="291.9492" x="637.1019" y="23.5352">StatBus Multi-Tenant Cloud Deployment</text></g><!--cluster Internet--><g class="cluster" data-qualified-name="Internet" data-source-line="12" id="ent0002"><rect fill="#F5F5F5" height="159.98" rx="2.5" ry="2.5" style="stroke:#181818;stroke-width:1;" width="409" x="673" y="44.4883"/><text fill="#000000" font-family="sans-serif" font-size="14" font-style="italic" lengthAdjust="spacing" textLength="67.8809" x="843.5596" y="60.0234">&#171;Internet&#187;</text><text fill="#000000" font-family="sans-serif" font-size="14" font-weight="bold" lengthAdjust="spacing" textLength="57.1484" x="848.9258" y="76.5117">Internet</text></g><!--cluster niue.statbus.org--><g class="cluster" data-qualified-name="niue.statbus.org" data-source-line="18" id="ent0006"><rect fill="#E8F5E9" height="603.42" rx="2.5" ry="2.5" style="stroke:#181818;stroke-width:1;" width="1264" x="7" y="283.4683"/><text fill="#000000" font-family="sans-serif" font-size="14" font-style="italic" lengthAdjust="spacing" textLength="45.9307" x="616.0347" y="299.0034">&#171;Host&#187;</text><text fill="#000000" font-family="sans-serif" font-size="14" font-weight="bold" lengthAdjust="spacing" textLength="116.4844" x="580.7578" y="315.4917">niue.statbus.org</text></g><!--cluster hostcaddy--><g class="cluster" data-qualified-name="niue.statbus.org.hostcaddy" data-source-line="19" id="ent0007"><rect fill="none" height="179.44" rx="2.5" ry="2.5" style="stroke:#181818;stroke-width:1;" width="394" x="493" y="350.4683"/><text fill="#000000" font-family="sans-serif" font-size="14" font-weight="bold" lengthAdjust="spacing" textLength="158.7031" x="610.6484" y="366.0034">Host Caddy (systemd)</text></g><!--cluster devinstall--><g class="cluster" data-qualified-name="niue.statbus.org.devinstall" data-source-line="23" id="ent0009"><rect fill="#E3F2FD" height="244.98" rx="2.5" ry="2.5" style="stroke:#181818;stroke-width:1;" width="400" x="39" y="609.9083"/><text fill="#000000" font-family="sans-serif" font-size="14" font-style="italic" lengthAdjust="spacing" textLength="89.8926" x="194.0537" y="625.4434">&#171;Installation&#187;</text><text fill="#000000" font-family="sans-serif" font-size="14" font-weight="bold" lengthAdjust="spacing" textLength="150.3291" x="163.8354" y="641.9317">/home/statbus_dev/</text></g><!--cluster devstack--><g class="cluster" data-qualified-name="niue.statbus.org.devinstall.devstack" data-source-line="24" id="ent0010"><rect fill="none" height="129.98" rx="2.5" ry="2.5" style="stroke:#181818;stroke-width:1;" width="312" x="79" y="684.9083"/><text fill="#000000" font-family="sans-serif" font-size="14" font-weight="bold" lengthAdjust="spacing" textLength="203.957" x="133.0215" y="700.4434">Docker Stack (private mode)</text></g><!--cluster noinstall--><g class="cluster" data-qualified-name="niue.statbus.org.noinstall" data-source-line="29" id="ent0012"><rect fill="#E3F2FD" height="228.98" rx="2.5" ry="2.5" style="stroke:#181818;stroke-width:1;" width="376" x="471" y="617.9083"/><text fill="#000000" font-family="sans-serif" font-size="14" font-style="italic" lengthAdjust="spacing" textLength="89.8926" x="614.0537" y="633.4434">&#171;Installation&#187;</text><text fill="#000000" font-family="sans-serif" font-size="14" font-weight="bold" lengthAdjust="spacing" textLength="142.6797" x="587.6602" y="649.9317">/home/statbus_no/</text></g><!--cluster nostack--><g class="cluster" data-qualified-name="niue.statbus.org.noinstall.nostack" data-source-line="30" id="ent0013"><rect fill="none" height="129.98" rx="2.5" ry="2.5" style="stroke:#181818;stroke-width:1;" width="312" x="503" y="684.9083"/><text fill="#000000" font-family="sans-serif" font-size="14" font-weight="bold" lengthAdjust="spacing" textLength="203.957" x="557.0215" y="700.4434">Docker Stack (private mode)</text></g><!--cluster mainstall--><g class="cluster" data-qualified-name="niue.statbus.org.mainstall" data-source-line="35" id="ent0015"><rect fill="#E3F2FD" height="228.98" rx="2.5" ry="2.5" style="stroke:#181818;stroke-width:1;" width="376" x="871" y="617.9083"/><text fill="#000000" font-family="sans-serif" font-size="14" font-style="italic" lengthAdjust="spacing" textLength="89.8926" x="1014.0537" y="633.4434">&#171;Installation&#187;</text><text fill="#000000" font-family="sans-serif" font-size="14" font-weight="bold" lengthAdjust="spacing" textLength="146.3506" x="985.8247" y="649.9317">/home/statbus_ma/</text></g><!--cluster mastack--><g class="cluster" data-qualified-name="niue.statbus.org.mainstall.mastack" data-source-line="36" id="ent0016"><rect fill="none" height="129.98" rx="2.5" ry="2.5" style="stroke:#181818;stroke-width:1;" width="312" x="903" y="684.9083"/><text fill="#000000" font-family="sans-serif" font-size="14" font-weight="bold" lengthAdjust="spacing" textLength="203.957" x="957.0215" y="700.4434">Docker Stack (private mode)</text></g><!--cluster more--><g class="cluster" data-qualified-name="niue.statbus.org.more" data-source-line="41" id="ent0018"><rect fill="none" height="97.48" rx="2.5" ry="2.5" style="stroke:#181818;stroke-width:1;" width="208" x="1015" y="391.4483"/><text fill="#000000" font-family="sans-serif" font-size="14" font-weight="bold" lengthAdjust="spacing" textLength="160.8633" x="1038.5684" y="406.9834">... more installations ...</text></g><!--entity devusers--><g class="entity" data-qualified-name="Internet.devusers" data-source-line="13" id="ent0003"><ellipse cx="741.996" cy="103.9883" fill="#F1F1F1" rx="8" ry="8" style="stroke:#181818;stroke-width:0.5;"/><path d="M741.996,111.9883 L741.996,138.9883 M728.996,119.9883 L754.996,119.9883 M741.996,138.9883 L728.996,153.9883 M741.996,138.9883 L754.996,153.9883" fill="none" style="stroke:#181818;stroke-width:0.5;"/><text fill="#000000" font-family="sans-serif" font-size="14" lengthAdjust="spacing" textLength="105.752" x="689.12" y="169.0234">dev.statbus.org</text><text fill="#000000" font-family="sans-serif" font-size="14" lengthAdjust="spacing" textLength="36.4902" x="689.12" y="185.5117">users</text></g><!--entity nousers--><g class="entity" data-qualified-name="Internet.nousers" data-source-line="14" id="ent0004"><ellipse cx="879.0013" cy="103.9883" fill="#F1F1F1" rx="8" ry="8" style="stroke:#181818;stroke-width:0.5;"/><path d="M879.0013,111.9883 L879.0013,138.9883 M866.0013,119.9883 L892.0013,119.9883 M879.0013,138.9883 L866.0013,153.9883 M879.0013,138.9883 L892.0013,153.9883" fill="none" style="stroke:#181818;stroke-width:0.5;"/><text fill="#000000" font-family="sans-serif" font-size="14" lengthAdjust="spacing" textLength="99.1826" x="829.41" y="169.0234">no.statbus.org</text><text fill="#000000" font-family="sans-serif" font-size="14" lengthAdjust="spacing" textLength="36.4902" x="829.41" y="185.5117">users</text></g><!--entity mausers--><g class="entity" data-qualified-name="Internet.mausers" data-source-line="15" id="ent0005"><ellipse cx="1014.9981" cy="103.9883" fill="#F1F1F1" rx="8" ry="8" style="stroke:#181818;stroke-width:0.5;"/><path d="M1014.9981,111.9883 L1014.9981,138.9883 M1001.9981,119.9883 L1027.9981,119.9883 M1014.9981,138.9883 L1001.9981,153.9883 M1014.9981,138.9883 L1027.9981,153.9883" fill="none" style="stroke:#181818;stroke-width:0.5;"/><text fill="#000000" font-family="sans-serif" font-size="14" lengthAdjust="spacing" textLength="102.6963" x="963.65" y="169.0234">ma.statbus.org</text><text fill="#000000" font-family="sans-serif" font-size="14" lengthAdjust="spacing" textLength="36.4902" x="963.65" y="185.5117">users</text></g><!--entity ? ACME certs for all domains\n? SNI-based HTTP routing\n? SNI-based PostgreSQL routing\n? Imports configs from\n  /home/statbus_*/statbus/caddy/config/--><g class="entity" data-qualified-name="niue.statbus.org.hostcaddy.. ACME certs for all domains.n. SNI-based HTTP routing.n. SNI-based PostgreSQL routing.n. Imports configs from.n  .home.statbus_..statbus.caddy.config." data-source-line="20" id="ent0008"><rect fill="#F1F1F1" height="112.4414" rx="2.5" ry="2.5" style="stroke:#181818;stroke-width:0.5;" width="326.9932" x="516.5" y="393.4683"/><rect fill="#F1F1F1" height="10" style="stroke:#181818;stroke-width:0.5;" width="15" x="823.4932" y="398.4683"/><rect fill="#F1F1F1" height="2" style="stroke:#181818;stroke-width:0.5;" width="4" x="821.4932" y="400.4683"/><rect fill="#F1F1F1" height="2" style="stroke:#181818;stroke-width:0.5;" width="4" x="821.4932" y="404.4683"/><text fill="#000000" font-family="sans-serif" font-size="14" lengthAdjust="spacing" textLength="195.4463" x="531.5" y="427.0034">&#8226; ACME certs for all domains</text><text fill="#000000" font-family="sans-serif" font-size="14" lengthAdjust="spacing" textLength="176.8936" x="531.5" y="443.4917">&#8226; SNI-based HTTP routing</text><text fill="#000000" font-family="sans-serif" font-size="14" lengthAdjust="spacing" textLength="218.0117" x="531.5" y="459.98">&#8226; SNI-based PostgreSQL routing</text><text fill="#000000" font-family="sans-serif" font-size="14" lengthAdjust="spacing" textLength="155.8184" x="531.5" y="476.4683">&#8226; Imports configs from</text><text fill="#000000" font-family="sans-serif" font-size="14" lengthAdjust="spacing" textLength="278.1338" x="540.3594" y="492.9566">/home/statbus_*/statbus/caddy/config/</text></g><!--entity caddy ? app, rest, db, worker\nPorts: 3010-3015--><g class="entity" data-qualified-name="niue.statbus.org.devinstall.devstack.caddy . app. rest. db. worker.nPorts. 3010-3015" data-source-line="25" id="ent0011"><rect fill="#F1F1F1" height="62.9766" rx="2.5" ry="2.5" style="stroke:#181818;stroke-width:0.5;" width="244.9824" x="102.51" y="727.9083"/><rect fill="#F1F1F1" height="10" style="stroke:#181818;stroke-width:0.5;" width="15" x="327.4924" y="732.9083"/><rect fill="#F1F1F1" height="2" style="stroke:#181818;stroke-width:0.5;" width="4" x="325.4924" y="734.9083"/><rect fill="#F1F1F1" height="2" style="stroke:#181818;stroke-width:0.5;" width="4" x="325.4924" y="738.9083"/><text fill="#000000" font-family="sans-serif" font-size="14" lengthAdjust="spacing" textLength="204.9824" x="117.51" y="761.4434">caddy &#8594; app, rest, db, worker</text><text fill="#000000" font-family="sans-serif" font-size="14" lengthAdjust="spacing" textLength="122.2197" x="117.51" y="777.9317">Ports: 3010-3015</text></g><!--entity caddy ? app, rest, db, worker\nPorts: 3020-3025--><g class="entity" data-qualified-name="niue.statbus.org.noinstall.nostack.caddy . app. rest. db. worker.nPorts. 3020-3025" data-source-line="31" id="ent0014"><rect fill="#F1F1F1" height="62.9766" rx="2.5" ry="2.5" style="stroke:#181818;stroke-width:0.5;" width="244.9824" x="526.51" y="727.9083"/><rect fill="#F1F1F1" height="10" style="stroke:#181818;stroke-width:0.5;" width="15" x="751.4924" y="732.9083"/><rect fill="#F1F1F1" height="2" style="stroke:#181818;stroke-width:0.5;" width="4" x="749.4924" y="734.9083"/><rect fill="#F1F1F1" height="2" style="stroke:#181818;stroke-width:0.5;" width="4" x="749.4924" y="738.9083"/><text fill="#000000" font-family="sans-serif" font-size="14" lengthAdjust="spacing" textLength="204.9824" x="541.51" y="761.4434">caddy &#8594; app, rest, db, worker</text><text fill="#000000" font-family="sans-serif" font-size="14" lengthAdjust="spacing" textLength="122.2197" x="541.51" y="777.9317">Ports: 3020-3025</text></g><!--entity caddy ? app, rest, db, worker\nPorts: 3050-3055--><g class="entity" data-qualified-name="niue.statbus.org.mainstall.mastack.caddy . app. rest. db. worker.nPorts. 3050-3055" data-source-line="37" id="ent0017"><rect fill="#F1F1F1" height="62.9766" rx="2.5" ry="2.5" style="stroke:#181818;stroke-width:0.5;" width="244.9824" x="926.51" y="727.9083"/><rect fill="#F1F1F1" height="10" style="stroke:#181818;stroke-width:0.5;" width="15" x="1151.4924" y="732.9083"/><rect fill="#F1F1F1" height="2" style="stroke:#181818;stroke-width:0.5;" width="4" x="1149.4924" y="734.9083"/><rect fill="#F1F1F1" height="2" style="stroke:#181818;stroke-width:0.5;" width="4" x="1149.4924" y="738.9083"/><text fill="#000000" font-family="sans-serif" font-size="14" lengthAdjust="spacing" textLength="204.9824" x="941.51" y="761.4434">caddy &#8594; app, rest, db, worker</text><text fill="#000000" font-family="sans-serif" font-size="14" lengthAdjust="spacing" textLength="122.2197" x="941.51" y="777.9317">Ports: 3050-3055</text></g><!--entity et, jo, tcc, ug, demo--><g class="entity" data-qualified-name="niue.statbus.org.more.et. jo. tcc. ug. demo" data-source-line="42" id="ent0019"><rect fill="#F1F1F1" height="46.4883" rx="2.5" ry="2.5" style="stroke:#181818;stroke-width:0.5;" width="176.6094" x="1030.7" y="426.4483"/><rect fill="#F1F1F1" height="10" style="stroke:#181818;stroke-width:0.5;" width="15" x="1187.3094" y="431.4483"/><rect fill="#F1F1F1" height="2" style="stroke:#181818;stroke-width:0.5;" width="4" x="1185.3094" y="433.4483"/><rect fill="#F1F1F1" height="2" style="stroke:#181818;stroke-width:0.5;" width="4" x="1185.3094" y="437.4483"/><text fill="#000000" font-family="sans-serif" font-size="14" lengthAdjust="spacing" textLength="136.6094" x="1045.7" y="459.9834">et, jo, tcc, ug, demo</text></g><g class="entity" data-qualified-name="GMN26" data-source-line="55" id="ent0027"><path d="M1286.84,406.4083 L1286.84,492.961 L1573.153,492.961 L1573.153,416.4083 L1563.153,406.4083 L1286.84,406.4083" fill="#FEFFDD" style="stroke:#181818;stroke-width:0.5;"/><path d="M1563.153,406.4083 L1563.153,416.4083 L1573.153,416.4083 L1563.153,406.4083" fill="#FEFFDD" style="stroke:#181818;stroke-width:1;"/><text fill="#000000" font-family="sans-serif" font-size="13" font-weight="bold" lengthAdjust="spacing" textLength="174.0654" x="1292.84" y="423.9766">Host Caddy Configuration</text><text fill="#000000" font-family="sans-serif" font-size="13" lengthAdjust="spacing" textLength="192.1753" x="1292.84" y="439.2872">/etc/caddy/Caddyfile imports:</text><text fill="#000000" font-family="sans-serif" font-size="13" lengthAdjust="spacing" textLength="200.6177" x="1292.84" y="454.5977">&#8226; public.caddyfile (HTTP routes)</text><text fill="#000000" font-family="sans-serif" font-size="13" lengthAdjust="spacing" textLength="265.313" x="1292.84" y="469.9083">&#8226; public-layer4-tcp-5432-route.caddyfile</text><text fill="#000000" font-family="sans-serif" font-size="13" lengthAdjust="spacing" textLength="137.4585" x="1292.84" y="485.2188">from each installation</text></g><g class="entity" data-qualified-name="GMN29" data-source-line="63" id="ent0030"><path d="M328.43,933.8883 L328.43,1035.7516 L533.5692,1035.7516 L533.5692,943.8883 L523.5692,933.8883 L328.43,933.8883" fill="#FEFFDD" style="stroke:#181818;stroke-width:0.5;"/><path d="M523.5692,933.8883 L523.5692,943.8883 L533.5692,943.8883 L523.5692,933.8883" fill="#FEFFDD" style="stroke:#181818;stroke-width:1;"/><text fill="#000000" font-family="sans-serif" font-size="13" font-weight="bold" lengthAdjust="spacing" textLength="141.6797" x="334.43" y="951.4566">Each installation has:</text><text fill="#000000" font-family="sans-serif" font-size="13" lengthAdjust="spacing" textLength="177.2266" x="334.43" y="966.7672">&#8226; Linux user: statbus_{code}</text><text fill="#000000" font-family="sans-serif" font-size="13" lengthAdjust="spacing" textLength="130.5269" x="334.43" y="982.0777">&#8226; Git repo: /statbus/</text><text fill="#000000" font-family="sans-serif" font-size="13" lengthAdjust="spacing" textLength="184.1392" x="334.43" y="997.3883">&#8226; Docker stack: private mode</text><text fill="#000000" font-family="sans-serif" font-size="13" lengthAdjust="spacing" textLength="126.5786" x="334.43" y="1012.6988">&#8226; Unique port offset</text><text fill="#000000" font-family="sans-serif" font-size="13" lengthAdjust="spacing" textLength="121.729" x="334.43" y="1028.0094">&#8226; Isolated database</text></g><!--link devusers to hostcaddy--><g class="link" data-entity-1="ent0003" data-entity-2="ent0007" data-link-type="dependency" data-source-line="46" id="lnk20"><path d="M726.09,188.8483 C720.12,215.1583 718.79,246.9483 738,267.4683 C756.42,287.1383 839.48,256.8883 859,275.4683 C886.625,301.7733 891.9025,344.1458 890.1388,380.397 C889.6978,389.4598 888.8168,398.1401 887.7349,406.091 C887.5996,407.0849 887.4612,408.0674 887.3202,409.0378 C887.2497,409.523 888.0678,404.0714 887.996,404.5505" fill="none" id="devusers-to-hostcaddy" style="stroke:#181818;stroke-width:1;"/><polygon fill="#181818" points="887.1067,410.4842,892.3965,402.1766,887.8478,405.5395,884.4849,400.9908,887.1067,410.4842" style="stroke:#181818;stroke-width:1;"/><text fill="#000000" font-family="sans-serif" font-size="13" lengthAdjust="spacing" textLength="73.0679" x="766.9075" y="234.0366">HTTPS :443</text><text fill="#000000" font-family="sans-serif" font-size="13" lengthAdjust="spacing" textLength="112.4678" x="747.2075" y="249.3472">PostgreSQL :5432</text><text fill="#000000" font-family="sans-serif" font-size="13" lengthAdjust="spacing" textLength="128.8828" x="739" y="264.6577">SNI=dev.statbus.org</text></g><!--link nousers to hostcaddy--><g class="link" data-entity-1="ent0004" data-entity-2="ent0007" data-link-type="dependency" data-source-line="47" id="lnk21"><path d="M876.93,188.8583 C876.54,199.2483 876.2,210.2383 876,220.4683 C875.5175,245.4283 875.4544,271.9245 875.6334,297.6894 C875.723,310.5718 875.873,323.2714 876.0615,335.5046 C876.1086,338.5629 876.1582,341.5921 876.2097,344.5877 C876.2355,346.0855 876.2618,347.5749 876.2886,349.0554 C876.2953,349.4255 876.1923,343.7961 876.199,344.165" fill="none" id="nousers-to-hostcaddy" style="stroke:#181818;stroke-width:1;"/><polygon fill="#181818" points="876.3088,350.164,880.1435,341.0924,876.2173,345.1649,872.1448,341.2387,876.3088,350.164" style="stroke:#181818;stroke-width:1;"/><text fill="#000000" font-family="sans-serif" font-size="13" lengthAdjust="spacing" textLength="73.0679" x="901.8574" y="234.0366">HTTPS :443</text><text fill="#000000" font-family="sans-serif" font-size="13" lengthAdjust="spacing" textLength="112.4678" x="882.1575" y="249.3472">PostgreSQL :5432</text><text fill="#000000" font-family="sans-serif" font-size="13" lengthAdjust="spacing" textLength="122.7827" x="877" y="264.6577">SNI=no.statbus.org</text></g><!--link mausers to hostcaddy--><g class="link" data-entity-1="ent0005" data-entity-2="ent0007" data-link-type="dependency" data-source-line="48" id="lnk22"><path d="M1016.5,188.8383 C1015.92,212.8883 1013.01,242.4683 1004,267.4683 C987.67,312.7733 957.135,357.3808 930.3338,391.002 C916.9331,407.8127 904.4659,421.8767 895.1745,431.9081 C892.8517,434.416 890.7273,436.6718 888.8365,438.6555 C888.3638,439.1514 887.9056,439.6303 887.4627,440.0919 C887.3519,440.2073 891.4002,435.996 891.2913,436.1092" fill="none" id="mausers-to-hostcaddy" style="stroke:#181818;stroke-width:1;"/><polygon fill="#181818" points="887.1333,440.4348,896.2541,436.7185,890.5983,436.8302,890.4867,431.1744,887.1333,440.4348" style="stroke:#181818;stroke-width:1;"/><text fill="#000000" font-family="sans-serif" font-size="13" lengthAdjust="spacing" textLength="73.0679" x="1041.7988" y="234.0366">HTTPS :443</text><text fill="#000000" font-family="sans-serif" font-size="13" lengthAdjust="spacing" textLength="112.4678" x="1022.0988" y="249.3472">PostgreSQL :5432</text><text fill="#000000" font-family="sans-serif" font-size="13" lengthAdjust="spacing" textLength="126.0454" x="1015.31" y="264.6577">SNI=ma.statbus.org</text></g><!--link hostcaddy to devstack--><g class="link" data-entity-1="ent0007" data-entity-2="ent0010" data-link-type="dependency" data-source-line="50" id="lnk23"><path d="M871.3462,530.1012 C871.2697,530.2465 871.1927,530.3915 871.1152,530.5362 C870.4951,531.6936 869.8402,532.8295 869.149,533.9411 C866.3842,538.3872 863.0375,542.442 859,545.9083 C846.76,556.4183 730.07,552.4883 714,553.9083 C641.08,560.3683 436.18,539.6883 387,593.9083 C374.91,607.2383 368.5281,623.9689 365.7772,641.6192 C364.4017,650.4444 363.934,659.4995 364.1143,668.4743 C364.2045,672.9618 364.4567,677.4292 364.8385,681.8377 C364.8862,682.3888 364.9359,682.939 364.9876,683.4881 C365.0135,683.7627 364.4554,678.0656 364.4822,678.3397" fill="none" id="hostcaddy-to-devstack" style="stroke:#181818;stroke-width:1;"/><polygon fill="#181818" points="365.0667,684.3111,368.1709,674.9643,364.5796,679.3349,360.209,675.7436,365.0667,684.3111" style="stroke:#181818;stroke-width:1;"/><text fill="#000000" font-family="sans-serif" font-size="13" lengthAdjust="spacing" textLength="98.6553" x="729.4663" y="567.4766">127.0.0.1:3010</text><text fill="#000000" font-family="sans-serif" font-size="13" lengthAdjust="spacing" textLength="127.5879" x="715" y="582.7872">127.0.0.1:3014 (db)</text></g><!--link hostcaddy to nostack--><g class="link" data-entity-1="ent0007" data-entity-2="ent0013" data-link-type="dependency" data-source-line="51" id="lnk24"><path d="M862.4999,530.224 C861.3345,535.5361 860.1613,540.802 859,545.9083 C848.395,592.5733 835.6325,644.7783 825.405,685.7645 C822.8481,696.0111 820.4497,705.5565 818.283,714.1388 C817.1997,718.43 816.1743,722.4805 815.216,726.2574 C815.1561,726.4934 816.5724,720.9128 816.5131,721.1467" fill="none" id="hostcaddy-to-nostack" style="stroke:#181818;stroke-width:1;"/><polygon fill="#181818" points="815.0371,726.9624,821.1282,719.2229,816.2671,722.116,813.374,717.2549,815.0371,726.9624" style="stroke:#181818;stroke-width:1;"/><text fill="#000000" font-family="sans-serif" font-size="13" lengthAdjust="spacing" textLength="98.6553" x="871.8363" y="567.4766">127.0.0.1:3020</text><text fill="#000000" font-family="sans-serif" font-size="13" lengthAdjust="spacing" textLength="127.5879" x="857.37" y="582.7872">127.0.0.1:3024 (db)</text></g><!--link hostcaddy to mastack--><g class="link" data-entity-1="ent0007" data-entity-2="ent0016" data-link-type="dependency" data-source-line="52" id="lnk25"><path d="M887.0414,457.8296 C887.1386,457.9142 887.2367,457.9994 887.3355,458.0853 C887.5331,458.257 887.734,458.4314 887.938,458.6083 C888.3461,458.9621 888.767,459.326 889.2003,459.6998 C890.0668,460.4474 890.9833,461.2344 891.9475,462.0578 C899.6612,468.6455 910.4325,477.5714 923.19,487.407 C948.705,507.0783 982.165,530.3883 1015,545.9083 C1086.76,579.8183 1135.28,533.7083 1187,593.9083 C1210.62,621.3983 1215.835,661.6758 1215.04,695.4933 C1215.0338,695.7575 1215.1852,690.0234 1215.1783,690.2868" fill="none" id="hostcaddy-to-mastack" style="stroke:#181818;stroke-width:1;"/><polygon fill="#181818" points="1215.0203,696.2847,1219.2559,687.3931,1215.1519,691.2864,1211.2587,687.1825,1215.0203,696.2847" style="stroke:#181818;stroke-width:1;"/><text fill="#000000" font-family="sans-serif" font-size="13" lengthAdjust="spacing" textLength="98.6553" x="1193.1863" y="567.4766">127.0.0.1:3050</text><text fill="#000000" font-family="sans-serif" font-size="13" lengthAdjust="spacing" textLength="127.5879" x="1178.72" y="582.7872">127.0.0.1:3054 (db)</text></g><!--link hostcaddy to GMN26--><g class="link" data-entity-1="ent0007" data-entity-2="ent0027" data-link-type="association" data-source-line="55" id="lnk28"><path d="M887.2008,428.2101 C887.2897,427.994 887.3794,427.7766 887.4698,427.5579 C887.8313,426.6831 888.2044,425.787 888.589,424.8706 C889.3583,423.0378 890.1738,421.1236 891.0355,419.135 C897.9291,403.2261 907.7794,382.5552 920.5713,360.6995 C946.155,316.9883 983.505,268.5383 1032.5,243.9683 C1101.23,209.4983 1133.84,216.0983 1205.5,243.9683 C1289.01,276.4483 1360.36,356.0983 1399.03,406.2183" fill="none" id="hostcaddy-GMN26" style="stroke:#181818;stroke-width:1;stroke-dasharray:7,7;"/></g><!--link devinstall to GMN29--><g class="link" data-entity-1="ent0009" data-entity-2="ent0030" data-link-type="association" data-source-line="63" id="lnk31"><path d="M431,855.1306 C431,856.2996 431,857.4712 431,858.6448 C431,860.9921 431,863.3473 431,865.7064 C431,870.4246 431,875.158 431,879.873 C431,898.7327 431,917.2958 431,933.3983" fill="none" id="devinstall-GMN29" style="stroke:#181818;stroke-width:1;stroke-dasharray:7,7;"/></g><g class="caption" data-source-line="10"><text fill="#000000" font-family="sans-serif" font-size="14" lengthAdjust="spacing" textLength="421.5996" x="572.2767" y="1056.2867">Multiple countries on niue.statbus.org with SNI-based routing</text></g><?plantuml-src fLNRJjj047ttLupI5uZY179HMuiYDRU211KLzAb1rMQzIRQnTztTDHIXL7tg1_GJ-cbyIMVNTcAdH49WIr6ySyvupjoibrmaH94OfeGkvqgc8Xp8I2fuDHxPszDhX6BK436F6DnxW5U_oZWwEXM6AS7CyJ6oU_P-77SYjSECtenxexUxV6b3eeWOBeN3TiRjyV1nx40AGxXWoWBx_U5etFTMdcUumLWl3J7zLCDv6XdkNp51X8519DCGXYo9v5tCXF4eIUoRCbI2D8h-ZU9C0vuAdh8cncEcgMvADOTRRXPm-V7KdnBDGi1W31Tppzkag5OaemQLn6If8zHWYciXkocxdOXKCwLhG3IWoJsKuKBkGWlv7pWcky0noS2hIhpR6ctSUQ6oc4jOUmu34ePtiAVlj65nkEzSBz10tNd6iTUNXrz_uVtWV0IKAQDXXj5XPI6KCHPDJuIrRt9vSdLrKIHqstQ1xkUANNuwgo9EuqHQrrIA6P_ZAvIC9mAWjP0nQ-MYljQBVoqNOYj3jwvTf2ltkosqwW1hqihAMUdDh5eyEom9B_aPIhfaolOYNS9UelWDCGnY6RBzejhQsJPibxeibm-__m19aWPwrAO1uRG1jrAXmucuiBe3w1mS7lZuqxjUyrTFbYNa3bL2laYKa2_KrBQQsi_I59CTcbpFFLzJJ5wegMSrzPwegTbiuhiL0rxIeG6Fis2igJHe35_wJJR0KDg0T8uHi5WMxOtJNkmKyFtZqgW6RkOk8UXsEpRIzOm5lMwdFH4uV--sDfMNBvndUAekCIzVHizmL5rmdhTXMr_hYGhWiFswUO3tOM37P28gprtO2wVxM-IYSwlSzXQt_IYtw90gjxV5xULSJ2Jsb-BpXG4vssG0YrQlbzRimEsgLBaEgDVHt6A6velCGMOSEuPdYp10kzsBIJgDE6tIjNrllLsPtg-0_8ZSCTNr3KrycsFVWJPK1Dkj2epGHQKTFIP2i2foBLDf3E9Gp6OfEZMZRIOiY0wS5Xl66HVf3x3D440nnVSK1s-L0pvmWxEHo01-hXTvRigdrYK-WFBKve3FWdzF6TZaO6GppKnkEDKIWy5FIqWCiH-PZPn_?></g></svg>