<?plantuml 1.2026.2?><svg xmlns="http://www.w3.org/2000/svg" xmlns:xlink="http://www.w3.org/1999/xlink" contentStyleType="text/css" data-diagram-type="SEQUENCE" height="1830px" preserveAspectRatio="none" style="width:1156px;height:1830px;background:#FEFEFE;" version="1.1" viewBox="0 0 1156 1830" width="1156px" zoomAndPan="magnify"><title>StatBus Upgrade Timeline (single service, fail-fast one-shot, rollback to snapshot)</title><defs/><g><rect fill="#FEFEFE" height="1830" style="stroke:none;stroke-width:1;" width="1156" x="0" y="0"/><text fill="#000000" font-family="sans-serif" font-size="14" font-weight="bold" lengthAdjust="spacing" textLength="596.2646" x="276.178" y="28.5352">StatBus Upgrade Timeline (single service, fail-fast one-shot, rollback to snapshot)</text><rect fill="none" height="232.1738" style="stroke:#90A4AE;stroke-width:1.5;" width="649.2344" x="480.3862" y="654.0547"/><rect fill="none" height="189.8633" style="stroke:#90A4AE;stroke-width:1.5;" width="649.2344" x="480.3862" y="1095.0918"/><rect fill="none" height="368.3262" style="stroke:#90A4AE;stroke-width:1.5;" width="1124.6206" x="15" y="1392.8867"/><rect fill="none" height="90.8867" style="stroke:#90A4AE;stroke-width:1.5;" width="649.2344" x="480.3862" y="1591.7051"/><g class="participant-lifeline" data-entity-uid="part1" data-qualified-name="cici" id="part1-lifeline"><g><title>Operator . CI</title><rect fill="#000000" fill-opacity="0.00000" height="1687.748" width="8" x="73.2163" y="90.4648"/><line style="stroke:#90A4AE;stroke-width:0.5;stroke-dasharray:5,5;" x1="77" x2="77" y1="90.4648" y2="1778.2129"/></g></g><g class="participant-lifeline" data-entity-uid="part2" data-qualified-name="systemd" id="part2-lifeline"><g><title>systemd .user.</title><rect fill="#000000" fill-opacity="0.00000" height="1687.748" width="8" x="192.1299" y="90.4648"/><line style="stroke:#90A4AE;stroke-width:0.5;stroke-dasharray:5,5;" x1="195.4326" x2="195.4326" y1="90.4648" y2="1778.2129"/></g></g><g class="participant-lifeline" data-entity-uid="part3" data-qualified-name="service" id="part3-lifeline"><g><title>Upgrade Service</title><rect fill="#000000" fill-opacity="0.00000" height="1687.748" width="8" x="577.8511" y="90.4648"/><line style="stroke:#90A4AE;stroke-width:0.5;stroke-dasharray:5,5;" x1="581.3862" x2="581.3862" y1="90.4648" y2="1778.2129"/></g></g><g class="participant-lifeline" data-entity-uid="part4" data-qualified-name="db" id="part4-lifeline"><g><title>PostgreSQL</title><rect fill="#000000" fill-opacity="0.00000" height="1687.748" width="8" x="1016.4585" y="90.4648"/><line style="stroke:#90A4AE;stroke-width:0.5;stroke-dasharray:5,5;" x1="1020.2964" x2="1020.2964" y1="90.4648" y2="1778.2129"/></g></g><g class="participant participant-head" data-entity-uid="part1" data-qualified-name="cici" id="part1-head"><rect fill="#E3F2FD" height="30.4883" rx="2.5" ry="2.5" style="stroke:#1565C0;stroke-width:0.5;" width="104.4326" x="25" y="58.9766"/><text fill="#000000" font-family="sans-serif" font-size="14" lengthAdjust="spacing" textLength="90.4326" x="32" y="79.5117">Operator / CI</text></g><g class="participant participant-tail" data-entity-uid="part1" data-qualified-name="cici" id="part1-tail"><rect fill="#E3F2FD" height="30.4883" rx="2.5" ry="2.5" style="stroke:#1565C0;stroke-width:0.5;" width="104.4326" x="25" y="1777.2129"/><text fill="#000000" font-family="sans-serif" font-size="14" lengthAdjust="spacing" textLength="90.4326" x="32" y="1797.748">Operator / CI</text></g><g class="participant participant-head" data-entity-uid="part2" data-qualified-name="systemd" id="part2-head"><rect fill="#E3F2FD" height="30.4883" rx="2.5" ry="2.5" style="stroke:#1565C0;stroke-width:0.5;" width="113.3945" x="139.4326" y="58.9766"/><text fill="#000000" font-family="sans-serif" font-size="14" lengthAdjust="spacing" textLength="99.3945" x="146.4326" y="79.5117">systemd (user)</text></g><g class="participant participant-tail" data-entity-uid="part2" data-qualified-name="systemd" id="part2-tail"><rect fill="#E3F2FD" height="30.4883" rx="2.5" ry="2.5" style="stroke:#1565C0;stroke-width:0.5;" width="113.3945" x="139.4326" y="1777.2129"/><text fill="#000000" font-family="sans-serif" font-size="14" lengthAdjust="spacing" textLength="99.3945" x="146.4326" y="1797.748">systemd (user)</text></g><g class="participant participant-head" data-entity-uid="part3" data-qualified-name="service" id="part3-head"><rect fill="#E3F2FD" height="46.9766" rx="2.5" ry="2.5" style="stroke:#1565C0;stroke-width:0.5;" width="182.9297" x="490.3862" y="42.4883"/><text fill="#000000" font-family="sans-serif" font-size="14" lengthAdjust="spacing" textLength="109.0742" x="527.314" y="63.0234">Upgrade Service</text><text fill="#000000" font-family="sans-serif" font-size="14" lengthAdjust="spacing" textLength="168.9297" x="497.3862" y="79.5117">statbus-upgrade@$USER</text></g><g class="participant participant-tail" data-entity-uid="part3" data-qualified-name="service" id="part3-tail"><rect fill="#E3F2FD" height="46.9766" rx="2.5" ry="2.5" style="stroke:#1565C0;stroke-width:0.5;" width="182.9297" x="490.3862" y="1777.2129"/><text fill="#000000" font-family="sans-serif" font-size="14" lengthAdjust="spacing" textLength="109.0742" x="527.314" y="1797.748">Upgrade Service</text><text fill="#000000" font-family="sans-serif" font-size="14" lengthAdjust="spacing" textLength="168.9297" x="497.3862" y="1814.2363">statbus-upgrade@$USER</text></g><g class="participant participant-head" data-entity-uid="part4" data-qualified-name="db" id="part4-head"><rect fill="#E3F2FD" height="46.9766" rx="2.5" ry="2.5" style="stroke:#1565C0;stroke-width:0.5;" width="198.3242" x="921.2964" y="42.4883"/><text fill="#000000" font-family="sans-serif" font-size="14" lengthAdjust="spacing" textLength="76.8496" x="982.0337" y="63.0234">PostgreSQL</text><text fill="#000000" font-family="sans-serif" font-size="14" lengthAdjust="spacing" textLength="184.3242" x="928.2964" y="79.5117">public.upgrade + snapshot</text></g><g class="participant participant-tail" data-entity-uid="part4" data-qualified-name="db" id="part4-tail"><rect fill="#E3F2FD" height="46.9766" rx="2.5" ry="2.5" style="stroke:#1565C0;stroke-width:0.5;" width="198.3242" x="921.2964" y="1777.2129"/><text fill="#000000" font-family="sans-serif" font-size="14" lengthAdjust="spacing" textLength="76.8496" x="982.0337" y="1797.748">PostgreSQL</text><text fill="#000000" font-family="sans-serif" font-size="14" lengthAdjust="spacing" textLength="184.3242" x="928.2964" y="1814.2363">public.upgrade + snapshot</text></g><rect fill="#EEEEEE" height="3" style="stroke:#EEEEEE;stroke-width:1;" width="1149.6206" x="0" y="121.1201"/><line style="stroke:#000000;stroke-width:1;" x1="0" x2="1149.6206" y1="121.1201" y2="121.1201"/><line style="stroke:#000000;stroke-width:1;" x1="0" x2="1149.6206" y1="124.1201" y2="124.1201"/><rect fill="#EEEEEE" height="23.3105" style="stroke:#000000;stroke-width:2;" width="421.583" x="364.0188" y="110.4648"/><text fill="#000000" font-family="sans-serif" font-size="13" font-weight="bold" lengthAdjust="spacing" textLength="403.2983" x="370.0188" y="127.0332">Fresh install &#8212; seed restore (first boot, before any upgrade)</text><g class="message" data-entity-1="part1" data-entity-2="part4" id="msg1"><polygon fill="#1565C0" points="1008.4585,176.3965,1018.4585,180.3965,1008.4585,184.3965,1012.4585,180.3965" style="stroke:#1565C0;stroke-width:1;"/><line style="stroke:#1565C0;stroke-width:1;" x1="77.2163" x2="1014.4585" y1="180.3965" y2="180.3965"/><text fill="#000000" font-family="sans-serif" font-size="13" lengthAdjust="spacing" textLength="231.8418" x="84.2163" y="160.3438">./sb install (StateFresh) &#8212; Seed step:</text><text fill="#000000" font-family="sans-serif" font-size="13" lengthAdjust="spacing" textLength="571.4541" x="84.2163" y="175.6543">./sb db seed fetch (pull statbus-seed:&lt;commit_short&gt;) + pg_restore --single-transaction</text></g><g class="message" data-entity-1="part1" data-entity-2="part4" id="msg2"><polygon fill="#1565C0" points="1008.4585,205.707,1018.4585,209.707,1008.4585,213.707,1012.4585,209.707" style="stroke:#1565C0;stroke-width:1;"/><line style="stroke:#1565C0;stroke-width:1;" x1="77.2163" x2="1014.4585" y1="209.707" y2="209.707"/><text fill="#000000" font-family="sans-serif" font-size="13" lengthAdjust="spacing" textLength="413.042" x="84.2163" y="204.9648">./sb migrate up &#8212; apply only the migrations newer than the seed</text></g><path d="M5,222.707 L5,277.707 L1094,277.707 L1094,232.707 L1084,222.707 L5,222.707" fill="#FEFFDD" style="stroke:#181818;stroke-width:0.5;"/><path d="M1084,222.707 L1084,232.707 L1094,232.707 L1084,222.707" fill="#FEFFDD" style="stroke:#181818;stroke-width:0.5;"/><text fill="#000000" font-family="sans-serif" font-size="13" lengthAdjust="spacing" textLength="493.3081" x="284.4883" y="240.2754">Fresh DB only: checkSeedRestored gates the Seed step OFF when the DB holds</text><text fill="#000000" font-family="sans-serif" font-size="13" lengthAdjust="spacing" textLength="521.644" x="284.4883" y="255.5859">user data or applied migrations &#8212; a seed restore never overwrites a populated DB.</text><text fill="#000000" font-family="sans-serif" font-size="13" lengthAdjust="spacing" textLength="494.6602" x="284.4883" y="270.8965">Seed CREATION is a CI/dev activity &#8212; see DEVELOPMENT.md &#167; Database seed.</text><rect fill="#EEEEEE" height="3" style="stroke:#EEEEEE;stroke-width:1;" width="1149.6206" x="0" y="304.2939"/><line style="stroke:#000000;stroke-width:1;" x1="0" x2="1149.6206" y1="304.2939" y2="304.2939"/><line style="stroke:#000000;stroke-width:1;" x1="0" x2="1149.6206" y1="307.2939" y2="307.2939"/><rect fill="#EEEEEE" height="23.3105" style="stroke:#000000;stroke-width:2;" width="100.4868" x="524.5669" y="293.6387"/><text fill="#000000" font-family="sans-serif" font-size="13" font-weight="bold" lengthAdjust="spacing" textLength="82.2021" x="530.5669" y="310.207">Service boot</text><g class="message" data-entity-1="part2" data-entity-2="part3" id="msg3"><polygon fill="#1565C0" points="569.8511,344.2598,579.8511,348.2598,569.8511,352.2598,573.8511,348.2598" style="stroke:#1565C0;stroke-width:1;"/><line style="stroke:#1565C0;stroke-width:1;" x1="196.1299" x2="575.8511" y1="348.2598" y2="348.2598"/><text fill="#000000" font-family="sans-serif" font-size="13" lengthAdjust="spacing" textLength="237.5166" x="203.1299" y="343.5176">start statbus-upgrade@$USER.service</text></g><g class="message" data-entity-1="part3" data-entity-2="part3" id="msg4"><line style="stroke:#1565C0;stroke-width:1;" x1="581.8511" x2="623.8511" y1="377.5703" y2="377.5703"/><line style="stroke:#1565C0;stroke-width:1;" x1="623.8511" x2="623.8511" y1="377.5703" y2="390.5703"/><line style="stroke:#1565C0;stroke-width:1;" x1="582.8511" x2="623.8511" y1="390.5703" y2="390.5703"/><polygon fill="#1565C0" points="592.8511,386.5703,582.8511,390.5703,592.8511,394.5703,588.8511,390.5703" style="stroke:#1565C0;stroke-width:1;"/><text fill="#000000" font-family="sans-serif" font-size="13" lengthAdjust="spacing" textLength="288.958" x="588.8511" y="372.8281">recoverFromFlag &#8212; reconcile any leftover flag</text></g><g class="message" data-entity-1="part3" data-entity-2="part2" id="msg5"><polygon fill="#1565C0" points="207.1299,415.8809,197.1299,419.8809,207.1299,423.8809,203.1299,419.8809" style="stroke:#1565C0;stroke-width:1;"/><line style="stroke:#1565C0;stroke-width:1;" x1="201.1299" x2="580.8511" y1="419.8809" y2="419.8809"/><text fill="#000000" font-family="sans-serif" font-size="13" lengthAdjust="spacing" textLength="260.9648" x="213.1299" y="415.1387">sd_notify READY=1 (after cheap init only)</text></g><g class="message" data-entity-1="part3" data-entity-2="part4" id="msg6"><polygon fill="#1565C0" points="1008.4585,445.1914,1018.4585,449.1914,1008.4585,453.1914,1012.4585,449.1914" style="stroke:#1565C0;stroke-width:1;"/><line style="stroke:#1565C0;stroke-width:1;" x1="581.8511" x2="1014.4585" y1="449.1914" y2="449.1914"/><text fill="#000000" font-family="sans-serif" font-size="13" lengthAdjust="spacing" textLength="253.3413" x="588.8511" y="444.4492">LISTEN upgrade channel + advisory lock</text></g><rect fill="#EEEEEE" height="3" style="stroke:#EEEEEE;stroke-width:1;" width="1149.6206" x="0" y="477.8467"/><line style="stroke:#000000;stroke-width:1;" x1="0" x2="1149.6206" y1="477.8467" y2="477.8467"/><line style="stroke:#000000;stroke-width:1;" x1="0" x2="1149.6206" y1="480.8467" y2="480.8467"/><rect fill="#EEEEEE" height="23.3105" style="stroke:#000000;stroke-width:2;" width="153.8643" x="497.8782" y="467.1914"/><text fill="#000000" font-family="sans-serif" font-size="13" font-weight="bold" lengthAdjust="spacing" textLength="135.5796" x="503.8782" y="483.7598">Schedule + dispatch</text><g class="message" data-entity-1="part1" data-entity-2="part4" id="msg7"><polygon fill="#1565C0" points="1008.4585,533.123,1018.4585,537.123,1008.4585,541.123,1012.4585,537.123" style="stroke:#1565C0;stroke-width:1;"/><line style="stroke:#1565C0;stroke-width:1;" x1="77.2163" x2="1014.4585" y1="537.123" y2="537.123"/><text fill="#000000" font-family="sans-serif" font-size="13" lengthAdjust="spacing" textLength="179.5054" x="84.2163" y="517.0703">./sb upgrade apply-latest &#8594;</text><text fill="#000000" font-family="sans-serif" font-size="13" lengthAdjust="spacing" textLength="230.6675" x="84.2163" y="532.3809">UPDATE state='scheduled' + NOTIFY</text></g><g class="message" data-entity-1="part4" data-entity-2="part3" id="msg8"><polygon fill="#1565C0" points="592.8511,562.4336,582.8511,566.4336,592.8511,570.4336,588.8511,566.4336" style="stroke:#1565C0;stroke-width:1;"/><line style="stroke:#1565C0;stroke-width:1;" x1="586.8511" x2="1019.4585" y1="566.4336" y2="566.4336"/><text fill="#000000" font-family="sans-serif" font-size="13" lengthAdjust="spacing" textLength="164.7915" x="598.8511" y="561.6914">NOTIFY wakes the listener</text></g><g class="message" data-entity-1="part3" data-entity-2="part4" id="msg9"><polygon fill="#1565C0" points="1008.4585,591.7441,1018.4585,595.7441,1008.4585,599.7441,1012.4585,595.7441" style="stroke:#1565C0;stroke-width:1;"/><line style="stroke:#1565C0;stroke-width:1;" x1="581.8511" x2="1014.4585" y1="595.7441" y2="595.7441"/><text fill="#000000" font-family="sans-serif" font-size="13" lengthAdjust="spacing" textLength="318.189" x="588.8511" y="591.002">claim row WHERE state='scheduled' &#8594; in_progress</text></g><rect fill="#EEEEEE" height="3" style="stroke:#EEEEEE;stroke-width:1;" width="1149.6206" x="0" y="624.3994"/><line style="stroke:#000000;stroke-width:1;" x1="0" x2="1149.6206" y1="624.3994" y2="624.3994"/><line style="stroke:#000000;stroke-width:1;" x1="0" x2="1149.6206" y1="627.3994" y2="627.3994"/><rect fill="#EEEEEE" height="23.3105" style="stroke:#000000;stroke-width:2;" width="427.0229" x="361.2988" y="613.7441"/><text fill="#000000" font-family="sans-serif" font-size="13" font-weight="bold" lengthAdjust="spacing" textLength="408.7383" x="367.2988" y="630.3125">Execute upgrade (pre-swap &#8212; mutex held, Holder="service")</text><path d="M480.3862,654.0547 L590.6528,654.0547 L590.6528,661.3652 L580.6528,671.3652 L480.3862,671.3652 L480.3862,654.0547" fill="#ECEFF1" style="stroke:#90A4AE;stroke-width:1.5;"/><rect fill="none" height="232.1738" style="stroke:#90A4AE;stroke-width:1.5;" width="649.2344" x="480.3862" y="654.0547"/><text fill="#000000" font-family="sans-serif" font-size="13" font-weight="bold" lengthAdjust="spacing" textLength="65.2666" x="495.3862" y="667.623">pre-swap</text><g class="message" data-entity-1="part3" data-entity-2="part3" id="msg10"><line style="stroke:#1565C0;stroke-width:1;" x1="581.8511" x2="623.8511" y1="692.6758" y2="692.6758"/><line style="stroke:#1565C0;stroke-width:1;" x1="623.8511" x2="623.8511" y1="692.6758" y2="705.6758"/><line style="stroke:#1565C0;stroke-width:1;" x1="582.8511" x2="623.8511" y1="705.6758" y2="705.6758"/><polygon fill="#1565C0" points="592.8511,701.6758,582.8511,705.6758,592.8511,709.6758,588.8511,705.6758" style="stroke:#1565C0;stroke-width:1;"/><text fill="#000000" font-family="sans-serif" font-size="13" lengthAdjust="spacing" textLength="376.2192" x="588.8511" y="687.9336">writeUpgradeFlag &#8212; acquireFlock (flock LOCK_EX on the fd)</text></g><g class="message" data-entity-1="part3" data-entity-2="part4" id="msg11"><polygon fill="#1565C0" points="1008.4585,730.9863,1018.4585,734.9863,1008.4585,738.9863,1012.4585,734.9863" style="stroke:#1565C0;stroke-width:1;"/><line style="stroke:#1565C0;stroke-width:1;" x1="581.8511" x2="1014.4585" y1="734.9863" y2="734.9863"/><text fill="#000000" font-family="sans-serif" font-size="13" lengthAdjust="spacing" textLength="343.313" x="588.8511" y="730.2441">pre-flight &#8212; downgrade guard, assets, disk, signature</text></g><g class="message" data-entity-1="part3" data-entity-2="part4" id="msg12"><polygon fill="#1565C0" points="1008.4585,760.2969,1018.4585,764.2969,1008.4585,768.2969,1012.4585,764.2969" style="stroke:#1565C0;stroke-width:1;"/><line style="stroke:#1565C0;stroke-width:1;" x1="581.8511" x2="1014.4585" y1="764.2969" y2="764.2969"/><text fill="#000000" font-family="sans-serif" font-size="13" lengthAdjust="spacing" textLength="140.2896" x="588.8511" y="759.5547">maintenance mode on</text></g><g class="message" data-entity-1="part3" data-entity-2="part4" id="msg13"><polygon fill="#1565C0" points="1008.4585,789.6074,1018.4585,793.6074,1008.4585,797.6074,1012.4585,793.6074" style="stroke:#1565C0;stroke-width:1;"/><line style="stroke:#1565C0;stroke-width:1;" x1="581.8511" x2="1014.4585" y1="793.6074" y2="793.6074"/><text fill="#000000" font-family="sans-serif" font-size="13" lengthAdjust="spacing" textLength="216.6646" x="588.8511" y="788.8652">take DB snapshot -&gt; backup_path</text></g><g class="message" data-entity-1="part3" data-entity-2="part3" id="msg14"><line style="stroke:#1565C0;stroke-width:1;" x1="581.8511" x2="623.8511" y1="822.918" y2="822.918"/><line style="stroke:#1565C0;stroke-width:1;" x1="623.8511" x2="623.8511" y1="822.918" y2="835.918"/><line style="stroke:#1565C0;stroke-width:1;" x1="582.8511" x2="623.8511" y1="835.918" y2="835.918"/><polygon fill="#1565C0" points="592.8511,831.918,582.8511,835.918,592.8511,839.918,588.8511,835.918" style="stroke:#1565C0;stroke-width:1;"/><text fill="#000000" font-family="sans-serif" font-size="13" lengthAdjust="spacing" textLength="171.3169" x="588.8511" y="818.1758">git checkout target commit</text></g><g class="message" data-entity-1="part3" data-entity-2="part3" id="msg15"><line style="stroke:#1565C0;stroke-width:1;" x1="581.8511" x2="623.8511" y1="865.2285" y2="865.2285"/><line style="stroke:#1565C0;stroke-width:1;" x1="623.8511" x2="623.8511" y1="865.2285" y2="878.2285"/><line style="stroke:#1565C0;stroke-width:1;" x1="582.8511" x2="623.8511" y1="878.2285" y2="878.2285"/><polygon fill="#1565C0" points="592.8511,874.2285,582.8511,878.2285,592.8511,882.2285,588.8511,878.2285" style="stroke:#1565C0;stroke-width:1;"/><text fill="#000000" font-family="sans-serif" font-size="13" lengthAdjust="spacing" textLength="304.9224" x="588.8511" y="860.4863">replaceBinaryOnDisk -&gt; stamp Phase=PostSwap</text></g><path d="M489,898.2285 L489,938.2285 L1113,938.2285 L1113,908.2285 L1103,898.2285 L489,898.2285" fill="#FEFFDD" style="stroke:#181818;stroke-width:0.5;"/><path d="M1103,898.2285 L1103,908.2285 L1113,908.2285 L1103,898.2285" fill="#FEFFDD" style="stroke:#181818;stroke-width:0.5;"/><text fill="#000000" font-family="sans-serif" font-size="13" lengthAdjust="spacing" textLength="447.6367" x="572.2974" y="915.7969">Fail-fast: any step (pre- or post-swap) that errors OR hangs aborts the</text><text fill="#000000" font-family="sans-serif" font-size="13" lengthAdjust="spacing" textLength="448.6396" x="572.2974" y="931.1074">single attempt and routes to rollback (&#167; Complete / rollback). No retry.</text><rect fill="#EEEEEE" height="3" style="stroke:#EEEEEE;stroke-width:1;" width="1149.6206" x="0" y="964.5049"/><line style="stroke:#000000;stroke-width:1;" x1="0" x2="1149.6206" y1="964.5049" y2="964.5049"/><line style="stroke:#000000;stroke-width:1;" x1="0" x2="1149.6206" y1="967.5049" y2="967.5049"/><rect fill="#EEEEEE" height="23.3105" style="stroke:#000000;stroke-width:2;" width="438.5503" x="355.5352" y="953.8496"/><text fill="#000000" font-family="sans-serif" font-size="13" font-weight="bold" lengthAdjust="spacing" textLength="420.2656" x="361.5352" y="970.418">Binary-swap restart + resume (post-swap, on the NEW binary)</text><g class="message" data-entity-1="part3" data-entity-2="part2" id="msg16"><polygon fill="#1565C0" points="207.1299,1004.4707,197.1299,1008.4707,207.1299,1012.4707,203.1299,1008.4707" style="stroke:#1565C0;stroke-width:1;"/><line style="stroke:#1565C0;stroke-width:1;" x1="201.1299" x2="580.8511" y1="1008.4707" y2="1008.4707"/><text fill="#000000" font-family="sans-serif" font-size="13" lengthAdjust="spacing" textLength="361.7212" x="213.1299" y="1003.7285">exit 42 &#8212; self-update, request the ONE planned respawn</text></g><g class="message" data-entity-1="part2" data-entity-2="part3" id="msg17"><polygon fill="#1565C0" points="569.8511,1033.7813,579.8511,1037.7813,569.8511,1041.7813,573.8511,1037.7813" style="stroke:#1565C0;stroke-width:1;"/><line style="stroke:#1565C0;stroke-width:1;" x1="196.1299" x2="575.8511" y1="1037.7813" y2="1037.7813"/><text fill="#000000" font-family="sans-serif" font-size="13" lengthAdjust="spacing" textLength="187.5859" x="203.1299" y="1033.0391">restart unit on the new binary</text></g><g class="message" data-entity-1="part3" data-entity-2="part3" id="msg18"><line style="stroke:#1565C0;stroke-width:1;" x1="581.8511" x2="623.8511" y1="1067.0918" y2="1067.0918"/><line style="stroke:#1565C0;stroke-width:1;" x1="623.8511" x2="623.8511" y1="1067.0918" y2="1080.0918"/><line style="stroke:#1565C0;stroke-width:1;" x1="582.8511" x2="623.8511" y1="1080.0918" y2="1080.0918"/><polygon fill="#1565C0" points="592.8511,1076.0918,582.8511,1080.0918,592.8511,1084.0918,588.8511,1080.0918" style="stroke:#1565C0;stroke-width:1;"/><text fill="#000000" font-family="sans-serif" font-size="13" lengthAdjust="spacing" textLength="424.6074" x="588.8511" y="1062.3496">recoverFromFlag sees Phase=PostSwap -&gt; stamp Phase=Resuming</text></g><path d="M480.3862,1095.0918 L908.3467,1095.0918 L908.3467,1102.4023 L898.3467,1112.4023 L480.3862,1112.4023 L480.3862,1095.0918" fill="#ECEFF1" style="stroke:#90A4AE;stroke-width:1.5;"/><rect fill="none" height="189.8633" style="stroke:#90A4AE;stroke-width:1.5;" width="649.2344" x="480.3862" y="1095.0918"/><text fill="#000000" font-family="sans-serif" font-size="13" font-weight="bold" lengthAdjust="spacing" textLength="382.9604" x="495.3862" y="1108.6602">applyPostSwap &#8212; remaining steps run on the new binary</text><g class="message" data-entity-1="part3" data-entity-2="part3" id="msg19"><line style="stroke:#1565C0;stroke-width:1;" x1="581.8511" x2="623.8511" y1="1133.7129" y2="1133.7129"/><line style="stroke:#1565C0;stroke-width:1;" x1="623.8511" x2="623.8511" y1="1133.7129" y2="1146.7129"/><line style="stroke:#1565C0;stroke-width:1;" x1="582.8511" x2="623.8511" y1="1146.7129" y2="1146.7129"/><polygon fill="#1565C0" points="592.8511,1142.7129,582.8511,1146.7129,592.8511,1150.7129,588.8511,1146.7129" style="stroke:#1565C0;stroke-width:1;"/><text fill="#000000" font-family="sans-serif" font-size="13" lengthAdjust="spacing" textLength="249.0884" x="588.8511" y="1128.9707">config generate + docker compose pull</text></g><g class="message" data-entity-1="part3" data-entity-2="part4" id="msg20"><polygon fill="#1565C0" points="1008.4585,1172.0234,1018.4585,1176.0234,1008.4585,1180.0234,1012.4585,1176.0234" style="stroke:#1565C0;stroke-width:1;"/><line style="stroke:#1565C0;stroke-width:1;" x1="581.8511" x2="1014.4585" y1="1176.0234" y2="1176.0234"/><text fill="#000000" font-family="sans-serif" font-size="13" lengthAdjust="spacing" textLength="218.5117" x="588.8511" y="1171.2813">start DB + wait health + reconnect</text></g><g class="message" data-entity-1="part3" data-entity-2="part4" id="msg21"><polygon fill="#1565C0" points="1008.4585,1201.334,1018.4585,1205.334,1008.4585,1209.334,1012.4585,1205.334" style="stroke:#1565C0;stroke-width:1;"/><line style="stroke:#1565C0;stroke-width:1;" x1="581.8511" x2="1014.4585" y1="1205.334" y2="1205.334"/><text fill="#000000" font-family="sans-serif" font-size="13" lengthAdjust="spacing" textLength="98.8203" x="588.8511" y="1200.5918">./sb migrate up</text></g><g class="message" data-entity-1="part3" data-entity-2="part3" id="msg22"><line style="stroke:#1565C0;stroke-width:1;" x1="581.8511" x2="623.8511" y1="1234.6445" y2="1234.6445"/><line style="stroke:#1565C0;stroke-width:1;" x1="623.8511" x2="623.8511" y1="1234.6445" y2="1247.6445"/><line style="stroke:#1565C0;stroke-width:1;" x1="582.8511" x2="623.8511" y1="1247.6445" y2="1247.6445"/><polygon fill="#1565C0" points="592.8511,1243.6445,582.8511,1247.6445,592.8511,1251.6445,588.8511,1247.6445" style="stroke:#1565C0;stroke-width:1;"/><text fill="#000000" font-family="sans-serif" font-size="13" lengthAdjust="spacing" textLength="208.9014" x="588.8511" y="1229.9023">start app services + health check</text></g><g class="message" data-entity-1="part3" data-entity-2="part4" id="msg23"><polygon fill="#1565C0" points="1008.4585,1272.9551,1018.4585,1276.9551,1008.4585,1280.9551,1012.4585,1276.9551" style="stroke:#1565C0;stroke-width:1;"/><line style="stroke:#1565C0;stroke-width:1;" x1="581.8511" x2="1014.4585" y1="1276.9551" y2="1276.9551"/><text fill="#000000" font-family="sans-serif" font-size="13" lengthAdjust="spacing" textLength="215.6172" x="588.8511" y="1272.2129">maintenance off + archive backup</text></g><path d="M124,1296.9551 L124,1336.9551 L652,1336.9551 L652,1306.9551 L642,1296.9551 L124,1296.9551" fill="#FEFFDD" style="stroke:#181818;stroke-width:0.5;"/><path d="M642,1296.9551 L642,1306.9551 L652,1306.9551 L642,1296.9551" fill="#FEFFDD" style="stroke:#181818;stroke-width:0.5;"/><text fill="#000000" font-family="sans-serif" font-size="13" lengthAdjust="spacing" textLength="476.6328" x="145.5459" y="1314.5234">The exit-42 restart is the ONE planned restart. A death DURING the resume</text><text fill="#000000" font-family="sans-serif" font-size="13" lengthAdjust="spacing" textLength="476.7915" x="145.5459" y="1329.834">leaves Phase=Resuming -&gt; recoverFromFlag rolls back (never re-resumes).</text><rect fill="#EEEEEE" height="3" style="stroke:#EEEEEE;stroke-width:1;" width="1149.6206" x="0" y="1363.2314"/><line style="stroke:#000000;stroke-width:1;" x1="0" x2="1149.6206" y1="1363.2314" y2="1363.2314"/><line style="stroke:#000000;stroke-width:1;" x1="0" x2="1149.6206" y1="1366.2314" y2="1366.2314"/><rect fill="#EEEEEE" height="23.3105" style="stroke:#000000;stroke-width:2;" width="151.7886" x="498.916" y="1352.5762"/><text fill="#000000" font-family="sans-serif" font-size="13" font-weight="bold" lengthAdjust="spacing" textLength="133.5039" x="504.916" y="1369.1445">Complete / rollback</text><path d="M15,1392.8867 L77.1387,1392.8867 L77.1387,1400.1973 L67.1387,1410.1973 L15,1410.1973 L15,1392.8867" fill="#ECEFF1" style="stroke:#90A4AE;stroke-width:1.5;"/><rect fill="none" height="368.3262" style="stroke:#90A4AE;stroke-width:1.5;" width="1124.6206" x="15" y="1392.8867"/><text fill="#000000" font-family="sans-serif" font-size="13" font-weight="bold" lengthAdjust="spacing" textLength="17.1387" x="30" y="1406.4551">alt</text><text fill="#000000" font-family="sans-serif" font-size="11" font-weight="bold" lengthAdjust="spacing" textLength="118.7227" x="92.1387" y="1405.5215">[all steps succeeded]</text><g class="message" data-entity-1="part3" data-entity-2="part4" id="msg24"><polygon fill="#1565C0" points="1008.4585,1427.5078,1018.4585,1431.5078,1008.4585,1435.5078,1012.4585,1431.5078" style="stroke:#1565C0;stroke-width:1;"/><line style="stroke:#1565C0;stroke-width:1;" x1="581.8511" x2="1014.4585" y1="1431.5078" y2="1431.5078"/><text fill="#000000" font-family="sans-serif" font-size="13" lengthAdjust="spacing" textLength="241.0649" x="588.8511" y="1426.7656">mark completed_at (state=completed)</text></g><g class="message" data-entity-1="part3" data-entity-2="part3" id="msg25"><line style="stroke:#1565C0;stroke-width:1;" x1="581.8511" x2="623.8511" y1="1460.8184" y2="1460.8184"/><line style="stroke:#1565C0;stroke-width:1;" x1="623.8511" x2="623.8511" y1="1460.8184" y2="1473.8184"/><line style="stroke:#1565C0;stroke-width:1;" x1="582.8511" x2="623.8511" y1="1473.8184" y2="1473.8184"/><polygon fill="#1565C0" points="592.8511,1469.8184,582.8511,1473.8184,592.8511,1477.8184,588.8511,1473.8184" style="stroke:#1565C0;stroke-width:1;"/><text fill="#000000" font-family="sans-serif" font-size="13" lengthAdjust="spacing" textLength="235.644" x="588.8511" y="1456.0762">removeUpgradeFlag (mutex released)</text></g><g class="message" data-entity-1="part3" data-entity-2="part4" id="msg26"><polygon fill="#1565C0" points="1008.4585,1499.1289,1018.4585,1503.1289,1008.4585,1507.1289,1012.4585,1503.1289" style="stroke:#1565C0;stroke-width:1;"/><line style="stroke:#1565C0;stroke-width:1;" x1="581.8511" x2="1014.4585" y1="1503.1289" y2="1503.1289"/><text fill="#000000" font-family="sans-serif" font-size="13" lengthAdjust="spacing" textLength="207.0669" x="588.8511" y="1498.3867">supersede older rows + notify UI</text></g><g class="message" data-entity-1="part3" data-entity-2="part1" id="msg27"><polygon fill="#1565C0" points="88.2163,1528.4395,78.2163,1532.4395,88.2163,1536.4395,84.2163,1532.4395" style="stroke:#1565C0;stroke-width:1;"/><line style="stroke:#1565C0;stroke-width:1;" x1="82.2163" x2="580.8511" y1="1532.4395" y2="1532.4395"/><text fill="#000000" font-family="sans-serif" font-size="13" lengthAdjust="spacing" textLength="127.0928" x="94.2163" y="1527.6973">Slack callback &#8212; OK</text></g><line style="stroke:#90A4AE;stroke-width:1;stroke-dasharray:2,2;" x1="15" x2="1139.6206" y1="1541.4395" y2="1541.4395"/><text fill="#000000" font-family="sans-serif" font-size="11" font-weight="bold" lengthAdjust="spacing" textLength="275.1772" x="20" y="1552.0742">[any step failed or hung (one attempt, NO retry)]</text><g class="message" data-entity-1="part3" data-entity-2="part4" id="msg28"><polygon fill="#1565C0" points="1008.4585,1572.7051,1018.4585,1576.7051,1008.4585,1580.7051,1012.4585,1576.7051" style="stroke:#1565C0;stroke-width:1;"/><line style="stroke:#1565C0;stroke-width:1;" x1="581.8511" x2="1014.4585" y1="1576.7051" y2="1576.7051"/><text fill="#000000" font-family="sans-serif" font-size="13" lengthAdjust="spacing" textLength="311.8096" x="588.8511" y="1571.9629">rollback() &#8212; restore git + DB snapshot + services</text></g><path d="M480.3862,1591.7051 L542.5249,1591.7051 L542.5249,1599.0156 L532.5249,1609.0156 L480.3862,1609.0156 L480.3862,1591.7051" fill="#ECEFF1" style="stroke:#90A4AE;stroke-width:1.5;"/><rect fill="none" height="90.8867" style="stroke:#90A4AE;stroke-width:1.5;" width="649.2344" x="480.3862" y="1591.7051"/><text fill="#000000" font-family="sans-serif" font-size="13" font-weight="bold" lengthAdjust="spacing" textLength="17.1387" x="495.3862" y="1605.2734">alt</text><text fill="#000000" font-family="sans-serif" font-size="11" font-weight="bold" lengthAdjust="spacing" textLength="167.1914" x="557.5249" y="1604.3398">[snapshot restore succeeded]</text><g class="message" data-entity-1="part3" data-entity-2="part4" id="msg29"><polygon fill="#1565C0" points="1008.4585,1626.3262,1018.4585,1630.3262,1008.4585,1634.3262,1012.4585,1630.3262" style="stroke:#1565C0;stroke-width:1;"/><line style="stroke:#1565C0;stroke-width:1;" x1="581.8511" x2="1014.4585" y1="1630.3262" y2="1630.3262"/><text fill="#000000" font-family="sans-serif" font-size="13" lengthAdjust="spacing" textLength="328.9038" x="588.8511" y="1625.584">state=rolled_back (+ error) &#8212; healthy at old version</text></g><line style="stroke:#90A4AE;stroke-width:1;stroke-dasharray:2,2;" x1="480.3862" x2="1129.6206" y1="1639.3262" y2="1639.3262"/><text fill="#000000" font-family="sans-serif" font-size="11" font-weight="bold" lengthAdjust="spacing" textLength="111.2031" x="485.3862" y="1649.9609">[restore also failed]</text><g class="message" data-entity-1="part3" data-entity-2="part4" id="msg30"><polygon fill="#1565C0" points="1008.4585,1670.5918,1018.4585,1674.5918,1008.4585,1678.5918,1012.4585,1674.5918" style="stroke:#1565C0;stroke-width:1;"/><line style="stroke:#1565C0;stroke-width:1;" x1="581.8511" x2="1014.4585" y1="1674.5918" y2="1674.5918"/><text fill="#000000" font-family="sans-serif" font-size="13" lengthAdjust="spacing" textLength="258.6099" x="588.8511" y="1669.8496">state=failed (+ error) &#8212; needs hands-on</text></g><g class="message" data-entity-1="part3" data-entity-2="part3" id="msg31"><line style="stroke:#1565C0;stroke-width:1;" x1="581.8511" x2="623.8511" y1="1710.9023" y2="1710.9023"/><line style="stroke:#1565C0;stroke-width:1;" x1="623.8511" x2="623.8511" y1="1710.9023" y2="1723.9023"/><line style="stroke:#1565C0;stroke-width:1;" x1="582.8511" x2="623.8511" y1="1723.9023" y2="1723.9023"/><polygon fill="#1565C0" points="592.8511,1719.9023,582.8511,1723.9023,592.8511,1727.9023,588.8511,1723.9023" style="stroke:#1565C0;stroke-width:1;"/><text fill="#000000" font-family="sans-serif" font-size="13" lengthAdjust="spacing" textLength="235.644" x="588.8511" y="1706.1602">removeUpgradeFlag (mutex released)</text></g><g class="message" data-entity-1="part3" data-entity-2="part1" id="msg32"><polygon fill="#1565C0" points="88.2163,1749.2129,78.2163,1753.2129,88.2163,1757.2129,84.2163,1753.2129" style="stroke:#1565C0;stroke-width:1;"/><line style="stroke:#1565C0;stroke-width:1;" x1="82.2163" x2="580.8511" y1="1753.2129" y2="1753.2129"/><text fill="#000000" font-family="sans-serif" font-size="13" lengthAdjust="spacing" textLength="290.3989" x="94.2163" y="1748.4707">Slack callback &#8212; FAILED (exact step + reason)</text></g><?plantuml-src hLTTRYD547xtAKfPfDYAxR2mYqI4LsJZyH8Huf0VOAL8sVPCZztoJC_GtHF7GaWySG347RW7H-4aVDKzuutDXEM1H4hYxlglhxxgxDDnvHQ5KKuuTI_9oXyhgMD9YH9p8t9A2qD94HzM9JucSk1KBZEbvJ1FXfrzkbv8UZSQlQEPq8abOIGv7CMmDyiaQP7BXCg5iDBINx_yJaifIvR8IMcoQntJIha5dy3OksVFtY62sAb2qqB2dR4ir-ARR45naS1JaUTIEqknqEoMxUnPALkL_lo3lk10N-qDEtQfT2aunPc8btDJL3evAJAa-smIyVSZYKrLVkeGlewDALQrxFENdxqy-TWVdwbKdi7Jwy8Wylh-yu-FNnn7_lv26ATYLGhjjaGUcNWiiXjLzEdaaydOYxt1UVbFWPDeCdd-IA0bZfyx7QSSEdE5Xh-kBDs4Cj5rNIRgMgNd6IF1tAjOzYaLAXkamZegj1pOHU7wP8eiuxAHAyXgKV9fhzCftuTFUzDI6k7W-v1EJlT8e4MusvQnQ-ia6jEjuAxdXUgZRRacogiGrAss27zMsK7TvIy_khcABeD-4DdMloYicnjvzUtPhIwhMQRYOQr91vi4l7eowtH68veOQHV07lnacKSkC9KGJf4HYfGgWuBC2Yx6JAPy9lIw0LsFHgCEPqk3Lx18HpGyjBEDkIuNNteNFM_xYcqZxVBeLdj9w7X_gNJnWhfb1QqcPRuu-e9nhzmTuZRkLGzPbFEx9hh18FHmu8pGLlXvQWadLmZMyQJu84HPPclq63zuXCCjD2rfkP86XvWmlk40Ehg0Pd6FSpRSvxfHNRNnQs_bYEA5Z9USssK8BA4v_5blP9CoJISJMYrai0tTHP4b5iOO4fG89mWOuk0KD1v5vMFURekM7117jGAZmPEWia3nu3M1wI6iUhydbz7nzUdqd1IBd9mU9lAUk4xtogsRRjCu-Yuwcrvy4vrVr-GnHZGpS9dtEkn8dH3NmIEcXgR71BU_WJPANaCITKSFZQDMy0uRu3RIMuf6nfpMn1Jv91Dp7oEVwLXb0NgPJ9tlHuhxBIDr8F2Ut25SbQu9-O_VZfvJLwIEMmYoBG5FvNpdUe_LFLxEJg-ke_C6tf0NMiiCg1F9lRA5WViYNeOwm5XIPJnOYRAbO02tJaDZpEDkm3t2HFtrws-t-kPYV7mT-JB9qRwj3IRxC7a-lJwTlEt0obPvmZ6jnBA6LwQGj9Rc7vd4cL0v-6j5ttyLNROvGGWenLrf2Z26jJwfw476bTii5Koa0HMkH9YS75SFM5XPqgUlW5vfHdkrtprF1KpJ9JKwdg5Rk-nHMtFTfiqY_h5I1fzHOH2F_tKsFVdwBle1tVBPfablrwXFbZsccPeldBUK52iTufzNmY1OOQrqji-DMlR9ghaMhZAorLOkb4P91Q_1d3SlEALDpg47FCODg_85huggl0CO5aydFmVwF6CKbOCLCvUE0iizhMDacObOlbPQcFLKZv675t0YB-c2dnqZfluhhZgczH5hRTPR8AvcnntvMVAyv7lCt5F2WczSZpdGaSJwnyDaUaaOWpaOP0OEzh23fNfx2eUPAnsiWPsG4CEoUBysko2Jao8lCubu3ZVdlI6TGqewizvXbv1XW1op7TF80VzLvOp69i9-WuZpw7kQUHqFm5Owa0-e-8jFQhxBKl0Hw1ObCVpSmJ2oeUbvHAWnnjtJR2bMkftQcgYgm29U6OkZZkA_iHferUwqRRUTbvmoQbpFb2UFZMnWHKOg97mNBPbAjuJp9A90gQcQqvp9WvVZ0Rz-byoHQ5S1wkTTt0hya3wGVm0UGWt0gHcUjWU1fpMUjQrgEwluwSY2VIJSd5dOhftukVdWs1PfofHjuWK_zSDGxev5Q6r_yumY_yHdg0m0bQR9ohQ1Ww-6T4o9nA3J-ERozFoDbmiuXQrCYljDYvjMSgoxIE29i1Hc9Mnr36CmOtixiz4oI8nv58Q4VpSn36mLnrZQUBcqLyaiVOVPJdA78U-6nR0vw_qR2UM8_J5jTyD6C1BvMla4ETiA3sJSelAyCdWdSKVh3NrpkglaD-WHNMMSNopgH1doqwyxChFoFNNnanqj0NSjAjItYuTxmqXzxCh0CErHDHNizkff2Yyh9kU3BLe_sC3Gs-5gR-uQhUsYFp4qg38xHTb3kmy2mGR_0TzhHCzL8W31gdhn-9GRJoB3FuGXxG_ugckpxKOZIijqdjX1Orud_sVBd-xUvFZqB1fJLpxW1HhwnvmXRA5xVZh_1W00?></g></svg>