<?plantuml 1.2026.2?><svg xmlns="http://www.w3.org/2000/svg" xmlns:xlink="http://www.w3.org/1999/xlink" contentStyleType="text/css" data-diagram-type="SEQUENCE" height="1647px" preserveAspectRatio="none" style="width:1151px;height:1647px;background:#FEFEFE;" version="1.1" viewBox="0 0 1151 1647" width="1151px" zoomAndPan="magnify"><title>StatBus Upgrade Timeline (single service, fail-fast one-shot, rollback to snapshot)</title><defs/><g><rect fill="#FEFEFE" height="1647" style="stroke:none;stroke-width:1;" width="1151" x="0" y="0"/><text fill="#000000" font-family="sans-serif" font-size="14" font-weight="bold" lengthAdjust="spacing" textLength="596.2646" x="273.678" y="28.5352">StatBus Upgrade Timeline (single service, fail-fast one-shot, rollback to snapshot)</text><rect fill="none" height="232.1738" style="stroke:#90A4AE;stroke-width:1.5;" width="649.2344" x="475.3862" y="470.8809"/><rect fill="none" height="189.8633" style="stroke:#90A4AE;stroke-width:1.5;" width="649.2344" x="475.3862" y="911.918"/><rect fill="none" height="368.3262" style="stroke:#90A4AE;stroke-width:1.5;" width="1124.6206" x="10" y="1209.7129"/><rect fill="none" height="90.8867" style="stroke:#90A4AE;stroke-width:1.5;" width="649.2344" x="475.3862" y="1408.5313"/><g class="participant-lifeline" data-entity-uid="part1" data-qualified-name="cici" id="part1-lifeline"><g><title>Operator . CI</title><rect fill="#000000" fill-opacity="0.00000" height="1504.5742" width="8" x="68.2163" y="90.4648"/><line style="stroke:#90A4AE;stroke-width:0.5;stroke-dasharray:5,5;" x1="72" x2="72" y1="90.4648" y2="1595.0391"/></g></g><g class="participant-lifeline" data-entity-uid="part2" data-qualified-name="systemd" id="part2-lifeline"><g><title>systemd .user.</title><rect fill="#000000" fill-opacity="0.00000" height="1504.5742" width="8" x="187.1299" y="90.4648"/><line style="stroke:#90A4AE;stroke-width:0.5;stroke-dasharray:5,5;" x1="190.4326" x2="190.4326" y1="90.4648" y2="1595.0391"/></g></g><g class="participant-lifeline" data-entity-uid="part3" data-qualified-name="service" id="part3-lifeline"><g><title>Upgrade Service</title><rect fill="#000000" fill-opacity="0.00000" height="1504.5742" width="8" x="572.8511" y="90.4648"/><line style="stroke:#90A4AE;stroke-width:0.5;stroke-dasharray:5,5;" x1="576.3862" x2="576.3862" y1="90.4648" y2="1595.0391"/></g></g><g class="participant-lifeline" data-entity-uid="part4" data-qualified-name="db" id="part4-lifeline"><g><title>PostgreSQL</title><rect fill="#000000" fill-opacity="0.00000" height="1504.5742" width="8" x="1011.4585" y="90.4648"/><line style="stroke:#90A4AE;stroke-width:0.5;stroke-dasharray:5,5;" x1="1015.2964" x2="1015.2964" y1="90.4648" y2="1595.0391"/></g></g><g class="participant participant-head" data-entity-uid="part1" data-qualified-name="cici" id="part1-head"><rect fill="#E3F2FD" height="30.4883" rx="2.5" ry="2.5" style="stroke:#1565C0;stroke-width:0.5;" width="104.4326" x="20" y="58.9766"/><text fill="#000000" font-family="sans-serif" font-size="14" lengthAdjust="spacing" textLength="90.4326" x="27" y="79.5117">Operator / CI</text></g><g class="participant participant-tail" data-entity-uid="part1" data-qualified-name="cici" id="part1-tail"><rect fill="#E3F2FD" height="30.4883" rx="2.5" ry="2.5" style="stroke:#1565C0;stroke-width:0.5;" width="104.4326" x="20" y="1594.0391"/><text fill="#000000" font-family="sans-serif" font-size="14" lengthAdjust="spacing" textLength="90.4326" x="27" y="1614.5742">Operator / CI</text></g><g class="participant participant-head" data-entity-uid="part2" data-qualified-name="systemd" id="part2-head"><rect fill="#E3F2FD" height="30.4883" rx="2.5" ry="2.5" style="stroke:#1565C0;stroke-width:0.5;" width="113.3945" x="134.4326" y="58.9766"/><text fill="#000000" font-family="sans-serif" font-size="14" lengthAdjust="spacing" textLength="99.3945" x="141.4326" y="79.5117">systemd (user)</text></g><g class="participant participant-tail" data-entity-uid="part2" data-qualified-name="systemd" id="part2-tail"><rect fill="#E3F2FD" height="30.4883" rx="2.5" ry="2.5" style="stroke:#1565C0;stroke-width:0.5;" width="113.3945" x="134.4326" y="1594.0391"/><text fill="#000000" font-family="sans-serif" font-size="14" lengthAdjust="spacing" textLength="99.3945" x="141.4326" y="1614.5742">systemd (user)</text></g><g class="participant participant-head" data-entity-uid="part3" data-qualified-name="service" id="part3-head"><rect fill="#E3F2FD" height="46.9766" rx="2.5" ry="2.5" style="stroke:#1565C0;stroke-width:0.5;" width="182.9297" x="485.3862" y="42.4883"/><text fill="#000000" font-family="sans-serif" font-size="14" lengthAdjust="spacing" textLength="109.0742" x="522.314" y="63.0234">Upgrade Service</text><text fill="#000000" font-family="sans-serif" font-size="14" lengthAdjust="spacing" textLength="168.9297" x="492.3862" y="79.5117">statbus-upgrade@$USER</text></g><g class="participant participant-tail" data-entity-uid="part3" data-qualified-name="service" id="part3-tail"><rect fill="#E3F2FD" height="46.9766" rx="2.5" ry="2.5" style="stroke:#1565C0;stroke-width:0.5;" width="182.9297" x="485.3862" y="1594.0391"/><text fill="#000000" font-family="sans-serif" font-size="14" lengthAdjust="spacing" textLength="109.0742" x="522.314" y="1614.5742">Upgrade Service</text><text fill="#000000" font-family="sans-serif" font-size="14" lengthAdjust="spacing" textLength="168.9297" x="492.3862" y="1631.0625">statbus-upgrade@$USER</text></g><g class="participant participant-head" data-entity-uid="part4" data-qualified-name="db" id="part4-head"><rect fill="#E3F2FD" height="46.9766" rx="2.5" ry="2.5" style="stroke:#1565C0;stroke-width:0.5;" width="198.3242" x="916.2964" y="42.4883"/><text fill="#000000" font-family="sans-serif" font-size="14" lengthAdjust="spacing" textLength="76.8496" x="977.0337" y="63.0234">PostgreSQL</text><text fill="#000000" font-family="sans-serif" font-size="14" lengthAdjust="spacing" textLength="184.3242" x="923.2964" y="79.5117">public.upgrade + snapshot</text></g><g class="participant participant-tail" data-entity-uid="part4" data-qualified-name="db" id="part4-tail"><rect fill="#E3F2FD" height="46.9766" rx="2.5" ry="2.5" style="stroke:#1565C0;stroke-width:0.5;" width="198.3242" x="916.2964" y="1594.0391"/><text fill="#000000" font-family="sans-serif" font-size="14" lengthAdjust="spacing" textLength="76.8496" x="977.0337" y="1614.5742">PostgreSQL</text><text fill="#000000" font-family="sans-serif" font-size="14" lengthAdjust="spacing" textLength="184.3242" x="923.2964" y="1631.0625">public.upgrade + snapshot</text></g><rect fill="#EEEEEE" height="3" style="stroke:#EEEEEE;stroke-width:1;" width="1144.6206" x="0" y="121.1201"/><line style="stroke:#000000;stroke-width:1;" x1="0" x2="1144.6206" y1="121.1201" y2="121.1201"/><line style="stroke:#000000;stroke-width:1;" x1="0" x2="1144.6206" y1="124.1201" y2="124.1201"/><rect fill="#EEEEEE" height="23.3105" style="stroke:#000000;stroke-width:2;" width="100.4868" x="522.0669" y="110.4648"/><text fill="#000000" font-family="sans-serif" font-size="13" font-weight="bold" lengthAdjust="spacing" textLength="82.2021" x="528.0669" y="127.0332">Service boot</text><g class="message" data-entity-1="part2" data-entity-2="part3" id="msg1"><polygon fill="#1565C0" points="564.8511,161.0859,574.8511,165.0859,564.8511,169.0859,568.8511,165.0859" style="stroke:#1565C0;stroke-width:1;"/><line style="stroke:#1565C0;stroke-width:1;" x1="191.1299" x2="570.8511" y1="165.0859" y2="165.0859"/><text fill="#000000" font-family="sans-serif" font-size="13" lengthAdjust="spacing" textLength="237.5166" x="198.1299" y="160.3438">start statbus-upgrade@$USER.service</text></g><g class="message" data-entity-1="part3" data-entity-2="part3" id="msg2"><line style="stroke:#1565C0;stroke-width:1;" x1="576.8511" x2="618.8511" y1="194.3965" y2="194.3965"/><line style="stroke:#1565C0;stroke-width:1;" x1="618.8511" x2="618.8511" y1="194.3965" y2="207.3965"/><line style="stroke:#1565C0;stroke-width:1;" x1="577.8511" x2="618.8511" y1="207.3965" y2="207.3965"/><polygon fill="#1565C0" points="587.8511,203.3965,577.8511,207.3965,587.8511,211.3965,583.8511,207.3965" style="stroke:#1565C0;stroke-width:1;"/><text fill="#000000" font-family="sans-serif" font-size="13" lengthAdjust="spacing" textLength="288.958" x="583.8511" y="189.6543">recoverFromFlag &#8212; reconcile any leftover flag</text></g><g class="message" data-entity-1="part3" data-entity-2="part2" id="msg3"><polygon fill="#1565C0" points="202.1299,232.707,192.1299,236.707,202.1299,240.707,198.1299,236.707" style="stroke:#1565C0;stroke-width:1;"/><line style="stroke:#1565C0;stroke-width:1;" x1="196.1299" x2="575.8511" y1="236.707" y2="236.707"/><text fill="#000000" font-family="sans-serif" font-size="13" lengthAdjust="spacing" textLength="260.9648" x="208.1299" y="231.9648">sd_notify READY=1 (after cheap init only)</text></g><g class="message" data-entity-1="part3" data-entity-2="part4" id="msg4"><polygon fill="#1565C0" points="1003.4585,262.0176,1013.4585,266.0176,1003.4585,270.0176,1007.4585,266.0176" style="stroke:#1565C0;stroke-width:1;"/><line style="stroke:#1565C0;stroke-width:1;" x1="576.8511" x2="1009.4585" y1="266.0176" y2="266.0176"/><text fill="#000000" font-family="sans-serif" font-size="13" lengthAdjust="spacing" textLength="253.3413" x="583.8511" y="261.2754">LISTEN upgrade channel + advisory lock</text></g><rect fill="#EEEEEE" height="3" style="stroke:#EEEEEE;stroke-width:1;" width="1144.6206" x="0" y="294.6729"/><line style="stroke:#000000;stroke-width:1;" x1="0" x2="1144.6206" y1="294.6729" y2="294.6729"/><line style="stroke:#000000;stroke-width:1;" x1="0" x2="1144.6206" y1="297.6729" y2="297.6729"/><rect fill="#EEEEEE" height="23.3105" style="stroke:#000000;stroke-width:2;" width="153.8643" x="495.3782" y="284.0176"/><text fill="#000000" font-family="sans-serif" font-size="13" font-weight="bold" lengthAdjust="spacing" textLength="135.5796" x="501.3782" y="300.5859">Schedule + dispatch</text><g class="message" data-entity-1="part1" data-entity-2="part4" id="msg5"><polygon fill="#1565C0" points="1003.4585,349.9492,1013.4585,353.9492,1003.4585,357.9492,1007.4585,353.9492" style="stroke:#1565C0;stroke-width:1;"/><line style="stroke:#1565C0;stroke-width:1;" x1="72.2163" x2="1009.4585" y1="353.9492" y2="353.9492"/><text fill="#000000" font-family="sans-serif" font-size="13" lengthAdjust="spacing" textLength="179.5054" x="79.2163" y="333.8965">./sb upgrade apply-latest &#8594;</text><text fill="#000000" font-family="sans-serif" font-size="13" lengthAdjust="spacing" textLength="230.6675" x="79.2163" y="349.207">UPDATE state='scheduled' + NOTIFY</text></g><g class="message" data-entity-1="part4" data-entity-2="part3" id="msg6"><polygon fill="#1565C0" points="587.8511,379.2598,577.8511,383.2598,587.8511,387.2598,583.8511,383.2598" style="stroke:#1565C0;stroke-width:1;"/><line style="stroke:#1565C0;stroke-width:1;" x1="581.8511" x2="1014.4585" y1="383.2598" y2="383.2598"/><text fill="#000000" font-family="sans-serif" font-size="13" lengthAdjust="spacing" textLength="164.7915" x="593.8511" y="378.5176">NOTIFY wakes the listener</text></g><g class="message" data-entity-1="part3" data-entity-2="part4" id="msg7"><polygon fill="#1565C0" points="1003.4585,408.5703,1013.4585,412.5703,1003.4585,416.5703,1007.4585,412.5703" style="stroke:#1565C0;stroke-width:1;"/><line style="stroke:#1565C0;stroke-width:1;" x1="576.8511" x2="1009.4585" y1="412.5703" y2="412.5703"/><text fill="#000000" font-family="sans-serif" font-size="13" lengthAdjust="spacing" textLength="318.189" x="583.8511" y="407.8281">claim row WHERE state='scheduled' &#8594; in_progress</text></g><rect fill="#EEEEEE" height="3" style="stroke:#EEEEEE;stroke-width:1;" width="1144.6206" x="0" y="441.2256"/><line style="stroke:#000000;stroke-width:1;" x1="0" x2="1144.6206" y1="441.2256" y2="441.2256"/><line style="stroke:#000000;stroke-width:1;" x1="0" x2="1144.6206" y1="444.2256" y2="444.2256"/><rect fill="#EEEEEE" height="23.3105" style="stroke:#000000;stroke-width:2;" width="427.0229" x="358.7988" y="430.5703"/><text fill="#000000" font-family="sans-serif" font-size="13" font-weight="bold" lengthAdjust="spacing" textLength="408.7383" x="364.7988" y="447.1387">Execute upgrade (pre-swap &#8212; mutex held, Holder="service")</text><path d="M475.3862,470.8809 L585.6528,470.8809 L585.6528,478.1914 L575.6528,488.1914 L475.3862,488.1914 L475.3862,470.8809" fill="#ECEFF1" style="stroke:#90A4AE;stroke-width:1.5;"/><rect fill="none" height="232.1738" style="stroke:#90A4AE;stroke-width:1.5;" width="649.2344" x="475.3862" y="470.8809"/><text fill="#000000" font-family="sans-serif" font-size="13" font-weight="bold" lengthAdjust="spacing" textLength="65.2666" x="490.3862" y="484.4492">pre-swap</text><g class="message" data-entity-1="part3" data-entity-2="part3" id="msg8"><line style="stroke:#1565C0;stroke-width:1;" x1="576.8511" x2="618.8511" y1="509.502" y2="509.502"/><line style="stroke:#1565C0;stroke-width:1;" x1="618.8511" x2="618.8511" y1="509.502" y2="522.502"/><line style="stroke:#1565C0;stroke-width:1;" x1="577.8511" x2="618.8511" y1="522.502" y2="522.502"/><polygon fill="#1565C0" points="587.8511,518.502,577.8511,522.502,587.8511,526.502,583.8511,522.502" style="stroke:#1565C0;stroke-width:1;"/><text fill="#000000" font-family="sans-serif" font-size="13" lengthAdjust="spacing" textLength="376.2192" x="583.8511" y="504.7598">writeUpgradeFlag &#8212; acquireFlock (flock LOCK_EX on the fd)</text></g><g class="message" data-entity-1="part3" data-entity-2="part4" id="msg9"><polygon fill="#1565C0" points="1003.4585,547.8125,1013.4585,551.8125,1003.4585,555.8125,1007.4585,551.8125" style="stroke:#1565C0;stroke-width:1;"/><line style="stroke:#1565C0;stroke-width:1;" x1="576.8511" x2="1009.4585" y1="551.8125" y2="551.8125"/><text fill="#000000" font-family="sans-serif" font-size="13" lengthAdjust="spacing" textLength="343.313" x="583.8511" y="547.0703">pre-flight &#8212; downgrade guard, assets, disk, signature</text></g><g class="message" data-entity-1="part3" data-entity-2="part4" id="msg10"><polygon fill="#1565C0" points="1003.4585,577.123,1013.4585,581.123,1003.4585,585.123,1007.4585,581.123" style="stroke:#1565C0;stroke-width:1;"/><line style="stroke:#1565C0;stroke-width:1;" x1="576.8511" x2="1009.4585" y1="581.123" y2="581.123"/><text fill="#000000" font-family="sans-serif" font-size="13" lengthAdjust="spacing" textLength="140.2896" x="583.8511" y="576.3809">maintenance mode on</text></g><g class="message" data-entity-1="part3" data-entity-2="part4" id="msg11"><polygon fill="#1565C0" points="1003.4585,606.4336,1013.4585,610.4336,1003.4585,614.4336,1007.4585,610.4336" style="stroke:#1565C0;stroke-width:1;"/><line style="stroke:#1565C0;stroke-width:1;" x1="576.8511" x2="1009.4585" y1="610.4336" y2="610.4336"/><text fill="#000000" font-family="sans-serif" font-size="13" lengthAdjust="spacing" textLength="216.6646" x="583.8511" y="605.6914">take DB snapshot -&gt; backup_path</text></g><g class="message" data-entity-1="part3" data-entity-2="part3" id="msg12"><line style="stroke:#1565C0;stroke-width:1;" x1="576.8511" x2="618.8511" y1="639.7441" y2="639.7441"/><line style="stroke:#1565C0;stroke-width:1;" x1="618.8511" x2="618.8511" y1="639.7441" y2="652.7441"/><line style="stroke:#1565C0;stroke-width:1;" x1="577.8511" x2="618.8511" y1="652.7441" y2="652.7441"/><polygon fill="#1565C0" points="587.8511,648.7441,577.8511,652.7441,587.8511,656.7441,583.8511,652.7441" style="stroke:#1565C0;stroke-width:1;"/><text fill="#000000" font-family="sans-serif" font-size="13" lengthAdjust="spacing" textLength="171.3169" x="583.8511" y="635.002">git checkout target commit</text></g><g class="message" data-entity-1="part3" data-entity-2="part3" id="msg13"><line style="stroke:#1565C0;stroke-width:1;" x1="576.8511" x2="618.8511" y1="682.0547" y2="682.0547"/><line style="stroke:#1565C0;stroke-width:1;" x1="618.8511" x2="618.8511" y1="682.0547" y2="695.0547"/><line style="stroke:#1565C0;stroke-width:1;" x1="577.8511" x2="618.8511" y1="695.0547" y2="695.0547"/><polygon fill="#1565C0" points="587.8511,691.0547,577.8511,695.0547,587.8511,699.0547,583.8511,695.0547" style="stroke:#1565C0;stroke-width:1;"/><text fill="#000000" font-family="sans-serif" font-size="13" lengthAdjust="spacing" textLength="304.9224" x="583.8511" y="677.3125">replaceBinaryOnDisk -&gt; stamp Phase=PostSwap</text></g><path d="M484,715.0547 L484,755.0547 L1108,755.0547 L1108,725.0547 L1098,715.0547 L484,715.0547" fill="#FEFFDD" style="stroke:#181818;stroke-width:0.5;"/><path d="M1098,715.0547 L1098,725.0547 L1108,725.0547 L1098,715.0547" fill="#FEFFDD" style="stroke:#181818;stroke-width:0.5;"/><text fill="#000000" font-family="sans-serif" font-size="13" lengthAdjust="spacing" textLength="447.6367" x="567.2974" y="732.623">Fail-fast: any step (pre- or post-swap) that errors OR hangs aborts the</text><text fill="#000000" font-family="sans-serif" font-size="13" lengthAdjust="spacing" textLength="448.6396" x="567.2974" y="747.9336">single attempt and routes to rollback (&#167; Complete / rollback). No retry.</text><rect fill="#EEEEEE" height="3" style="stroke:#EEEEEE;stroke-width:1;" width="1144.6206" x="0" y="781.3311"/><line style="stroke:#000000;stroke-width:1;" x1="0" x2="1144.6206" y1="781.3311" y2="781.3311"/><line style="stroke:#000000;stroke-width:1;" x1="0" x2="1144.6206" y1="784.3311" y2="784.3311"/><rect fill="#EEEEEE" height="23.3105" style="stroke:#000000;stroke-width:2;" width="438.5503" x="353.0352" y="770.6758"/><text fill="#000000" font-family="sans-serif" font-size="13" font-weight="bold" lengthAdjust="spacing" textLength="420.2656" x="359.0352" y="787.2441">Binary-swap restart + resume (post-swap, on the NEW binary)</text><g class="message" data-entity-1="part3" data-entity-2="part2" id="msg14"><polygon fill="#1565C0" points="202.1299,821.2969,192.1299,825.2969,202.1299,829.2969,198.1299,825.2969" style="stroke:#1565C0;stroke-width:1;"/><line style="stroke:#1565C0;stroke-width:1;" x1="196.1299" x2="575.8511" y1="825.2969" y2="825.2969"/><text fill="#000000" font-family="sans-serif" font-size="13" lengthAdjust="spacing" textLength="361.7212" x="208.1299" y="820.5547">exit 42 &#8212; self-update, request the ONE planned respawn</text></g><g class="message" data-entity-1="part2" data-entity-2="part3" id="msg15"><polygon fill="#1565C0" points="564.8511,850.6074,574.8511,854.6074,564.8511,858.6074,568.8511,854.6074" style="stroke:#1565C0;stroke-width:1;"/><line style="stroke:#1565C0;stroke-width:1;" x1="191.1299" x2="570.8511" y1="854.6074" y2="854.6074"/><text fill="#000000" font-family="sans-serif" font-size="13" lengthAdjust="spacing" textLength="187.5859" x="198.1299" y="849.8652">restart unit on the new binary</text></g><g class="message" data-entity-1="part3" data-entity-2="part3" id="msg16"><line style="stroke:#1565C0;stroke-width:1;" x1="576.8511" x2="618.8511" y1="883.918" y2="883.918"/><line style="stroke:#1565C0;stroke-width:1;" x1="618.8511" x2="618.8511" y1="883.918" y2="896.918"/><line style="stroke:#1565C0;stroke-width:1;" x1="577.8511" x2="618.8511" y1="896.918" y2="896.918"/><polygon fill="#1565C0" points="587.8511,892.918,577.8511,896.918,587.8511,900.918,583.8511,896.918" style="stroke:#1565C0;stroke-width:1;"/><text fill="#000000" font-family="sans-serif" font-size="13" lengthAdjust="spacing" textLength="424.6074" x="583.8511" y="879.1758">recoverFromFlag sees Phase=PostSwap -&gt; stamp Phase=Resuming</text></g><path d="M475.3862,911.918 L903.3467,911.918 L903.3467,919.2285 L893.3467,929.2285 L475.3862,929.2285 L475.3862,911.918" fill="#ECEFF1" style="stroke:#90A4AE;stroke-width:1.5;"/><rect fill="none" height="189.8633" style="stroke:#90A4AE;stroke-width:1.5;" width="649.2344" x="475.3862" y="911.918"/><text fill="#000000" font-family="sans-serif" font-size="13" font-weight="bold" lengthAdjust="spacing" textLength="382.9604" x="490.3862" y="925.4863">applyPostSwap &#8212; remaining steps run on the new binary</text><g class="message" data-entity-1="part3" data-entity-2="part3" id="msg17"><line style="stroke:#1565C0;stroke-width:1;" x1="576.8511" x2="618.8511" y1="950.5391" y2="950.5391"/><line style="stroke:#1565C0;stroke-width:1;" x1="618.8511" x2="618.8511" y1="950.5391" y2="963.5391"/><line style="stroke:#1565C0;stroke-width:1;" x1="577.8511" x2="618.8511" y1="963.5391" y2="963.5391"/><polygon fill="#1565C0" points="587.8511,959.5391,577.8511,963.5391,587.8511,967.5391,583.8511,963.5391" style="stroke:#1565C0;stroke-width:1;"/><text fill="#000000" font-family="sans-serif" font-size="13" lengthAdjust="spacing" textLength="249.0884" x="583.8511" y="945.7969">config generate + docker compose pull</text></g><g class="message" data-entity-1="part3" data-entity-2="part4" id="msg18"><polygon fill="#1565C0" points="1003.4585,988.8496,1013.4585,992.8496,1003.4585,996.8496,1007.4585,992.8496" style="stroke:#1565C0;stroke-width:1;"/><line style="stroke:#1565C0;stroke-width:1;" x1="576.8511" x2="1009.4585" y1="992.8496" y2="992.8496"/><text fill="#000000" font-family="sans-serif" font-size="13" lengthAdjust="spacing" textLength="218.5117" x="583.8511" y="988.1074">start DB + wait health + reconnect</text></g><g class="message" data-entity-1="part3" data-entity-2="part4" id="msg19"><polygon fill="#1565C0" points="1003.4585,1018.1602,1013.4585,1022.1602,1003.4585,1026.1602,1007.4585,1022.1602" style="stroke:#1565C0;stroke-width:1;"/><line style="stroke:#1565C0;stroke-width:1;" x1="576.8511" x2="1009.4585" y1="1022.1602" y2="1022.1602"/><text fill="#000000" font-family="sans-serif" font-size="13" lengthAdjust="spacing" textLength="98.8203" x="583.8511" y="1017.418">./sb migrate up</text></g><g class="message" data-entity-1="part3" data-entity-2="part3" id="msg20"><line style="stroke:#1565C0;stroke-width:1;" x1="576.8511" x2="618.8511" y1="1051.4707" y2="1051.4707"/><line style="stroke:#1565C0;stroke-width:1;" x1="618.8511" x2="618.8511" y1="1051.4707" y2="1064.4707"/><line style="stroke:#1565C0;stroke-width:1;" x1="577.8511" x2="618.8511" y1="1064.4707" y2="1064.4707"/><polygon fill="#1565C0" points="587.8511,1060.4707,577.8511,1064.4707,587.8511,1068.4707,583.8511,1064.4707" style="stroke:#1565C0;stroke-width:1;"/><text fill="#000000" font-family="sans-serif" font-size="13" lengthAdjust="spacing" textLength="208.9014" x="583.8511" y="1046.7285">start app services + health check</text></g><g class="message" data-entity-1="part3" data-entity-2="part4" id="msg21"><polygon fill="#1565C0" points="1003.4585,1089.7813,1013.4585,1093.7813,1003.4585,1097.7813,1007.4585,1093.7813" style="stroke:#1565C0;stroke-width:1;"/><line style="stroke:#1565C0;stroke-width:1;" x1="576.8511" x2="1009.4585" y1="1093.7813" y2="1093.7813"/><text fill="#000000" font-family="sans-serif" font-size="13" lengthAdjust="spacing" textLength="215.6172" x="583.8511" y="1089.0391">maintenance off + archive backup</text></g><path d="M119,1113.7813 L119,1153.7813 L647,1153.7813 L647,1123.7813 L637,1113.7813 L119,1113.7813" fill="#FEFFDD" style="stroke:#181818;stroke-width:0.5;"/><path d="M637,1113.7813 L637,1123.7813 L647,1123.7813 L637,1113.7813" fill="#FEFFDD" style="stroke:#181818;stroke-width:0.5;"/><text fill="#000000" font-family="sans-serif" font-size="13" lengthAdjust="spacing" textLength="476.6328" x="140.5459" y="1131.3496">The exit-42 restart is the ONE planned restart. A death DURING the resume</text><text fill="#000000" font-family="sans-serif" font-size="13" lengthAdjust="spacing" textLength="476.7915" x="140.5459" y="1146.6602">leaves Phase=Resuming -&gt; recoverFromFlag rolls back (never re-resumes).</text><rect fill="#EEEEEE" height="3" style="stroke:#EEEEEE;stroke-width:1;" width="1144.6206" x="0" y="1180.0576"/><line style="stroke:#000000;stroke-width:1;" x1="0" x2="1144.6206" y1="1180.0576" y2="1180.0576"/><line style="stroke:#000000;stroke-width:1;" x1="0" x2="1144.6206" y1="1183.0576" y2="1183.0576"/><rect fill="#EEEEEE" height="23.3105" style="stroke:#000000;stroke-width:2;" width="151.7886" x="496.416" y="1169.4023"/><text fill="#000000" font-family="sans-serif" font-size="13" font-weight="bold" lengthAdjust="spacing" textLength="133.5039" x="502.416" y="1185.9707">Complete / rollback</text><path d="M10,1209.7129 L72.1387,1209.7129 L72.1387,1217.0234 L62.1387,1227.0234 L10,1227.0234 L10,1209.7129" fill="#ECEFF1" style="stroke:#90A4AE;stroke-width:1.5;"/><rect fill="none" height="368.3262" style="stroke:#90A4AE;stroke-width:1.5;" width="1124.6206" x="10" y="1209.7129"/><text fill="#000000" font-family="sans-serif" font-size="13" font-weight="bold" lengthAdjust="spacing" textLength="17.1387" x="25" y="1223.2813">alt</text><text fill="#000000" font-family="sans-serif" font-size="11" font-weight="bold" lengthAdjust="spacing" textLength="118.7227" x="87.1387" y="1222.3477">[all steps succeeded]</text><g class="message" data-entity-1="part3" data-entity-2="part4" id="msg22"><polygon fill="#1565C0" points="1003.4585,1244.334,1013.4585,1248.334,1003.4585,1252.334,1007.4585,1248.334" style="stroke:#1565C0;stroke-width:1;"/><line style="stroke:#1565C0;stroke-width:1;" x1="576.8511" x2="1009.4585" y1="1248.334" y2="1248.334"/><text fill="#000000" font-family="sans-serif" font-size="13" lengthAdjust="spacing" textLength="241.0649" x="583.8511" y="1243.5918">mark completed_at (state=completed)</text></g><g class="message" data-entity-1="part3" data-entity-2="part3" id="msg23"><line style="stroke:#1565C0;stroke-width:1;" x1="576.8511" x2="618.8511" y1="1277.6445" y2="1277.6445"/><line style="stroke:#1565C0;stroke-width:1;" x1="618.8511" x2="618.8511" y1="1277.6445" y2="1290.6445"/><line style="stroke:#1565C0;stroke-width:1;" x1="577.8511" x2="618.8511" y1="1290.6445" y2="1290.6445"/><polygon fill="#1565C0" points="587.8511,1286.6445,577.8511,1290.6445,587.8511,1294.6445,583.8511,1290.6445" style="stroke:#1565C0;stroke-width:1;"/><text fill="#000000" font-family="sans-serif" font-size="13" lengthAdjust="spacing" textLength="235.644" x="583.8511" y="1272.9023">removeUpgradeFlag (mutex released)</text></g><g class="message" data-entity-1="part3" data-entity-2="part4" id="msg24"><polygon fill="#1565C0" points="1003.4585,1315.9551,1013.4585,1319.9551,1003.4585,1323.9551,1007.4585,1319.9551" style="stroke:#1565C0;stroke-width:1;"/><line style="stroke:#1565C0;stroke-width:1;" x1="576.8511" x2="1009.4585" y1="1319.9551" y2="1319.9551"/><text fill="#000000" font-family="sans-serif" font-size="13" lengthAdjust="spacing" textLength="207.0669" x="583.8511" y="1315.2129">supersede older rows + notify UI</text></g><g class="message" data-entity-1="part3" data-entity-2="part1" id="msg25"><polygon fill="#1565C0" points="83.2163,1345.2656,73.2163,1349.2656,83.2163,1353.2656,79.2163,1349.2656" style="stroke:#1565C0;stroke-width:1;"/><line style="stroke:#1565C0;stroke-width:1;" x1="77.2163" x2="575.8511" y1="1349.2656" y2="1349.2656"/><text fill="#000000" font-family="sans-serif" font-size="13" lengthAdjust="spacing" textLength="127.0928" x="89.2163" y="1344.5234">Slack callback &#8212; OK</text></g><line style="stroke:#90A4AE;stroke-width:1;stroke-dasharray:2,2;" x1="10" x2="1134.6206" y1="1358.2656" y2="1358.2656"/><text fill="#000000" font-family="sans-serif" font-size="11" font-weight="bold" lengthAdjust="spacing" textLength="275.1772" x="15" y="1368.9004">[any step failed or hung (one attempt, NO retry)]</text><g class="message" data-entity-1="part3" data-entity-2="part4" id="msg26"><polygon fill="#1565C0" points="1003.4585,1389.5313,1013.4585,1393.5313,1003.4585,1397.5313,1007.4585,1393.5313" style="stroke:#1565C0;stroke-width:1;"/><line style="stroke:#1565C0;stroke-width:1;" x1="576.8511" x2="1009.4585" y1="1393.5313" y2="1393.5313"/><text fill="#000000" font-family="sans-serif" font-size="13" lengthAdjust="spacing" textLength="311.8096" x="583.8511" y="1388.7891">rollback() &#8212; restore git + DB snapshot + services</text></g><path d="M475.3862,1408.5313 L537.5249,1408.5313 L537.5249,1415.8418 L527.5249,1425.8418 L475.3862,1425.8418 L475.3862,1408.5313" fill="#ECEFF1" style="stroke:#90A4AE;stroke-width:1.5;"/><rect fill="none" height="90.8867" style="stroke:#90A4AE;stroke-width:1.5;" width="649.2344" x="475.3862" y="1408.5313"/><text fill="#000000" font-family="sans-serif" font-size="13" font-weight="bold" lengthAdjust="spacing" textLength="17.1387" x="490.3862" y="1422.0996">alt</text><text fill="#000000" font-family="sans-serif" font-size="11" font-weight="bold" lengthAdjust="spacing" textLength="167.1914" x="552.5249" y="1421.166">[snapshot restore succeeded]</text><g class="message" data-entity-1="part3" data-entity-2="part4" id="msg27"><polygon fill="#1565C0" points="1003.4585,1443.1523,1013.4585,1447.1523,1003.4585,1451.1523,1007.4585,1447.1523" style="stroke:#1565C0;stroke-width:1;"/><line style="stroke:#1565C0;stroke-width:1;" x1="576.8511" x2="1009.4585" y1="1447.1523" y2="1447.1523"/><text fill="#000000" font-family="sans-serif" font-size="13" lengthAdjust="spacing" textLength="328.9038" x="583.8511" y="1442.4102">state=rolled_back (+ error) &#8212; healthy at old version</text></g><line style="stroke:#90A4AE;stroke-width:1;stroke-dasharray:2,2;" x1="475.3862" x2="1124.6206" y1="1456.1523" y2="1456.1523"/><text fill="#000000" font-family="sans-serif" font-size="11" font-weight="bold" lengthAdjust="spacing" textLength="111.2031" x="480.3862" y="1466.7871">[restore also failed]</text><g class="message" data-entity-1="part3" data-entity-2="part4" id="msg28"><polygon fill="#1565C0" points="1003.4585,1487.418,1013.4585,1491.418,1003.4585,1495.418,1007.4585,1491.418" style="stroke:#1565C0;stroke-width:1;"/><line style="stroke:#1565C0;stroke-width:1;" x1="576.8511" x2="1009.4585" y1="1491.418" y2="1491.418"/><text fill="#000000" font-family="sans-serif" font-size="13" lengthAdjust="spacing" textLength="258.6099" x="583.8511" y="1486.6758">state=failed (+ error) &#8212; needs hands-on</text></g><g class="message" data-entity-1="part3" data-entity-2="part3" id="msg29"><line style="stroke:#1565C0;stroke-width:1;" x1="576.8511" x2="618.8511" y1="1527.7285" y2="1527.7285"/><line style="stroke:#1565C0;stroke-width:1;" x1="618.8511" x2="618.8511" y1="1527.7285" y2="1540.7285"/><line style="stroke:#1565C0;stroke-width:1;" x1="577.8511" x2="618.8511" y1="1540.7285" y2="1540.7285"/><polygon fill="#1565C0" points="587.8511,1536.7285,577.8511,1540.7285,587.8511,1544.7285,583.8511,1540.7285" style="stroke:#1565C0;stroke-width:1;"/><text fill="#000000" font-family="sans-serif" font-size="13" lengthAdjust="spacing" textLength="235.644" x="583.8511" y="1522.9863">removeUpgradeFlag (mutex released)</text></g><g class="message" data-entity-1="part3" data-entity-2="part1" id="msg30"><polygon fill="#1565C0" points="83.2163,1566.0391,73.2163,1570.0391,83.2163,1574.0391,79.2163,1570.0391" style="stroke:#1565C0;stroke-width:1;"/><line style="stroke:#1565C0;stroke-width:1;" x1="77.2163" x2="575.8511" y1="1570.0391" y2="1570.0391"/><text fill="#000000" font-family="sans-serif" font-size="13" lengthAdjust="spacing" textLength="290.3989" x="89.2163" y="1565.2969">Slack callback &#8212; FAILED (exact step + reason)</text></g><?plantuml-src hLPRRXit5FtNAYwS0fPWIMxIf423AgXYIuaHmtRzG1eWW4tDK18X3ZaXEPQ5ea2_ke2YU-W-kfIifETo7h4KEUb7dG_7dFk-vnnobuP5c5kdWWZgLfAN7mff4acf4ZCdCffQHwbDzeiSVwQo5rGcjJAodwNzrYvTpYNT30OtD14czIISf82Z1F4cMf8HcKmfdmilFNty_IzQI9cpHKRAa5-PX9OgpFa4mMuUFRf11KbGrj1S8ftpRBSbDtbBYKsHoMQPDC5J8WodvJWxNigjJl_yJJzoeIzs-Ys_K2ONtE9498kPiuL93wn6ku_68_vtpwAPogyjmi_GERkiR1y_-_xPmRVn-5XDvJ4olRGEbLVVV_Xs-7GuYj_FX0igKRamOStaNeZx9fjLZRuRFnaVHhDNECy_DpWOZSUFxnbigUEtLYkeWCrSOE4l2qzNvPZeiXeJjRqoCyr8SBSgaLsQ2gLxK-43MIDxVcv3bvpLciT6mP8t8kVJJgkLVogVTavpwKH0xdqwEDeXWHNXsxgDN_aWiPXsWNITQ5GThTlLLLwKHRqt7kLF2j-hjlpJDrSNe_FIlpHPzp-pFioSlFZv-Bt9YubMIR_ofBscWUYUJbgjmQ1EH1Dh0mq6hRhGteiw0Jqd5E42RIsbNvTHMwyvEfdOM-d6pcPZBMQH6Nnc4eN92xCYBQU1JMYAxsj1gaAGFRqsDgZfYiv7myDtWyVK5jC0bmJKoS4RnHlJgyvzztG2p-EZYylHISqGs0jZfCOaH7ghl7L8RvD5EGS4ImlDOqgLpqL8vZmEtcGJhh_l9qqmaUTwrTCYI03cunz_lZTNPuV3or4Sanpi-YfWkekG9wUNH-DtBKHP6qzvJ4knW6gmd6Y5ferqdtMIQA4oe759Rr-FphSbGGaOnNNkBFRlVMngT2UJ8ZGIGUtS0TXB38qNaU7J7UH7frrwRJKeDDYfykvqk7acNKwrJ-JRrYqleQgoGcwpPf5yA9J3tvWmjQVnr_7fmPlhqI_OLknscdOsWyPcEUDKgzayn4YfNPgo_baX78eLtilWkxoeHPUycXaH2YUtnig4CXYfO57BM4UjsMeNi0CwVDbmX3ymyOly6c2OFzpy3EZ35fA5BGAYk9aCKQjLUDZ7oLoBHBvKHhZLgJb47z4WY2odCxv41apa2vwwD6aBy4VXp996h41Ved6jMCyZbu2TlDmnGOroH8YBws3O8f24cEEQEJqdq626AsnYNOYmGwHA2qK0v_A0Q2d01dnu5hv61DkuLmvibck9UlQRyqwVJc0bWrlrkLxYUYC0omvBo06LKKRs-7z5ncYiA-pMY3WPlQL9z8a0t2e7yWuJV_eaGiDBFOKUfI03j9elBv2H0vsUZ0Wp1jrJJfUBfTakRNLLHQaYqTd8PLN5VrCrtC9-OssRwppdbZ7ZYbDHF1hRKXKPgR28M_Ja2hEbd0SH1KcTgXdDM3mm35On48ur4kkoNb9UQBqL-6NxGFuUT0WpWAPgF5JsIfqsUAHiTOjQcAbPp5PyGHpA-6YuFlE8NIM9lFagRUrqofBjaZa_t4fIRjAYN6stkHGfFjWOAZr0fLwoyjl0mP_wDAHKWkXqU7L-TF8gsfKuHImjnMspudgLNEic4fWHdagk6CcLWOnb6D_PuCOM8Z7cCHWIMbSmy4MII9dAz84fkKNSCCT9hq7oTdanD6UTBubGXjhlotQxl16SHBzUFY3Eli1p1rynURuo-4xYZLOtzDNHfbEyGP_JXUR-4b4rof0_VTEIsijFqiKFCAm4sZKlCDysdc6r8dLnLvOAixsgUeBjJiKcZmUPZEAyjoRhUmqCOnoUTlEjzbeV-WEamPGvASPUhdkl5DWoVudl5QhdAH60u5LrySIMwqn2utbVjlsLNDLirjCOLEbPpbFVgyERzFzS-SFR6m-FZaU7r9Pt8Wdb_bWpXBUc4zdvBm00?></g></svg>