<?plantuml 1.2026.2?><svg xmlns="http://www.w3.org/2000/svg" xmlns:xlink="http://www.w3.org/1999/xlink" contentStyleType="text/css" data-diagram-type="SEQUENCE" height="1107px" preserveAspectRatio="none" style="width:952px;height:1107px;background:#FEFEFE;" version="1.1" viewBox="0 0 952 1107" width="952px" zoomAndPan="magnify"><title>StatBus Upgrade Timeline (service-driven, binary-swap restart, rollback)</title><defs/><g><rect fill="#FEFEFE" height="1107" style="stroke:none;stroke-width:1;" width="952" x="0" y="0"/><text fill="#000000" font-family="sans-serif" font-size="14" font-weight="bold" lengthAdjust="spacing" textLength="526.5859" x="209.1379" y="28.5352">StatBus Upgrade Timeline (service-driven, binary-swap restart, rollback)</text><rect fill="none" height="303.7949" style="stroke:#90A4AE;stroke-width:1.5;" width="572.6558" x="363.2061" y="369.9492"/><rect fill="none" height="147.5527" style="stroke:#90A4AE;stroke-width:1.5;" width="925.8618" x="10" y="890.6074"/><g class="participant-lifeline" data-entity-uid="part1" data-qualified-name="cici" id="part1-lifeline"><g><title>Operator . CI</title><rect fill="#000000" fill-opacity="0.00000" height="964.6953" width="8" x="68.2163" y="90.4648"/><line style="stroke:#90A4AE;stroke-width:0.5;stroke-dasharray:5,5;" x1="72" x2="72" y1="90.4648" y2="1055.1602"/></g></g><g class="participant-lifeline" data-entity-uid="part2" data-qualified-name="systemd" id="part2-lifeline"><g><title>systemd</title><rect fill="#000000" fill-opacity="0.00000" height="964.6953" width="8" x="165.6855" y="90.4648"/><line style="stroke:#90A4AE;stroke-width:0.5;stroke-dasharray:5,5;" x1="169.4326" x2="169.4326" y1="90.4648" y2="1055.1602"/></g></g><g class="participant-lifeline" data-entity-uid="part3" data-qualified-name="service" id="part3-lifeline"><g><title>Upgrade Service</title><rect fill="#000000" fill-opacity="0.00000" height="964.6953" width="8" x="450.6631" y="90.4648"/><line style="stroke:#90A4AE;stroke-width:0.5;stroke-dasharray:5,5;" x1="454.2061" x2="454.2061" y1="90.4648" y2="1055.1602"/></g></g><g class="participant-lifeline" data-entity-uid="part4" data-qualified-name="db" id="part4-lifeline"><g><title>Database</title><rect fill="#000000" fill-opacity="0.00000" height="964.6953" width="8" x="824.4634" y="90.4648"/><line style="stroke:#90A4AE;stroke-width:0.5;stroke-dasharray:5,5;" x1="828.0649" x2="828.0649" y1="90.4648" y2="1055.1602"/></g></g><g class="participant participant-head" data-entity-uid="part1" data-qualified-name="cici" id="part1-head"><rect fill="#E3F2FD" height="30.4883" rx="2.5" ry="2.5" style="stroke:#1565C0;stroke-width:0.5;" width="104.4326" x="20" y="58.9766"/><text fill="#000000" font-family="sans-serif" font-size="14" lengthAdjust="spacing" textLength="90.4326" x="27" y="79.5117">Operator / CI</text></g><g class="participant participant-tail" data-entity-uid="part1" data-qualified-name="cici" id="part1-tail"><rect fill="#E3F2FD" height="30.4883" rx="2.5" ry="2.5" style="stroke:#1565C0;stroke-width:0.5;" width="104.4326" x="20" y="1054.1602"/><text fill="#000000" font-family="sans-serif" font-size="14" lengthAdjust="spacing" textLength="90.4326" x="27" y="1074.6953">Operator / CI</text></g><g class="participant participant-head" data-entity-uid="part2" data-qualified-name="systemd" id="part2-head"><rect fill="#E3F2FD" height="30.4883" rx="2.5" ry="2.5" style="stroke:#1565C0;stroke-width:0.5;" width="70.5059" x="134.4326" y="58.9766"/><text fill="#000000" font-family="sans-serif" font-size="14" lengthAdjust="spacing" textLength="56.5059" x="141.4326" y="79.5117">systemd</text></g><g class="participant participant-tail" data-entity-uid="part2" data-qualified-name="systemd" id="part2-tail"><rect fill="#E3F2FD" height="30.4883" rx="2.5" ry="2.5" style="stroke:#1565C0;stroke-width:0.5;" width="70.5059" x="134.4326" y="1054.1602"/><text fill="#000000" font-family="sans-serif" font-size="14" lengthAdjust="spacing" textLength="56.5059" x="141.4326" y="1074.6953">systemd</text></g><g class="participant participant-head" data-entity-uid="part3" data-qualified-name="service" id="part3-head"><rect fill="#E3F2FD" height="46.9766" rx="2.5" ry="2.5" style="stroke:#1565C0;stroke-width:0.5;" width="162.9141" x="373.2061" y="42.4883"/><text fill="#000000" font-family="sans-serif" font-size="14" lengthAdjust="spacing" textLength="109.0742" x="400.126" y="63.0234">Upgrade Service</text><text fill="#000000" font-family="sans-serif" font-size="14" lengthAdjust="spacing" textLength="148.9141" x="380.2061" y="79.5117">(./sb upgrade service)</text></g><g class="participant participant-tail" data-entity-uid="part3" data-qualified-name="service" id="part3-tail"><rect fill="#E3F2FD" height="46.9766" rx="2.5" ry="2.5" style="stroke:#1565C0;stroke-width:0.5;" width="162.9141" x="373.2061" y="1054.1602"/><text fill="#000000" font-family="sans-serif" font-size="14" lengthAdjust="spacing" textLength="109.0742" x="400.126" y="1074.6953">Upgrade Service</text><text fill="#000000" font-family="sans-serif" font-size="14" lengthAdjust="spacing" textLength="148.9141" x="380.2061" y="1091.1836">(./sb upgrade service)</text></g><g class="participant participant-head" data-entity-uid="part4" data-qualified-name="db" id="part4-head"><rect fill="#E3F2FD" height="46.9766" rx="2.5" ry="2.5" style="stroke:#1565C0;stroke-width:0.5;" width="194.7969" x="731.0649" y="42.4883"/><text fill="#000000" font-family="sans-serif" font-size="14" lengthAdjust="spacing" textLength="62.665" x="797.1309" y="63.0234">Database</text><text fill="#000000" font-family="sans-serif" font-size="14" lengthAdjust="spacing" textLength="180.7969" x="738.0649" y="79.5117">(public.upgrade + backup)</text></g><g class="participant participant-tail" data-entity-uid="part4" data-qualified-name="db" id="part4-tail"><rect fill="#E3F2FD" height="46.9766" rx="2.5" ry="2.5" style="stroke:#1565C0;stroke-width:0.5;" width="194.7969" x="731.0649" y="1054.1602"/><text fill="#000000" font-family="sans-serif" font-size="14" lengthAdjust="spacing" textLength="62.665" x="797.1309" y="1074.6953">Database</text><text fill="#000000" font-family="sans-serif" font-size="14" lengthAdjust="spacing" textLength="180.7969" x="738.0649" y="1091.1836">(public.upgrade + backup)</text></g><rect fill="#EEEEEE" height="3" style="stroke:#EEEEEE;stroke-width:1;" width="945.8618" x="0" y="121.1201"/><line style="stroke:#000000;stroke-width:1;" x1="0" x2="945.8618" y1="121.1201" y2="121.1201"/><line style="stroke:#000000;stroke-width:1;" x1="0" x2="945.8618" y1="124.1201" y2="124.1201"/><rect fill="#EEEEEE" height="23.3105" style="stroke:#000000;stroke-width:2;" width="100.4868" x="422.6875" y="110.4648"/><text fill="#000000" font-family="sans-serif" font-size="13" font-weight="bold" lengthAdjust="spacing" textLength="82.2021" x="428.6875" y="127.0332">Service boot</text><g class="message" data-entity-1="part2" data-entity-2="part3" id="msg1"><polygon fill="#1565C0" points="442.6631,161.0859,452.6631,165.0859,442.6631,169.0859,446.6631,165.0859" style="stroke:#1565C0;stroke-width:1;"/><line style="stroke:#1565C0;stroke-width:1;" x1="169.6855" x2="448.6631" y1="165.0859" y2="165.0859"/><text fill="#000000" font-family="sans-serif" font-size="13" lengthAdjust="spacing" textLength="241.9219" x="176.6855" y="160.3438">start statbus-upgrade@&lt;slot&gt;.service</text></g><g class="message" data-entity-1="part3" data-entity-2="part2" id="msg2"><polygon fill="#1565C0" points="180.6855,190.3965,170.6855,194.3965,180.6855,198.3965,176.6855,194.3965" style="stroke:#1565C0;stroke-width:1;"/><line style="stroke:#1565C0;stroke-width:1;" x1="174.6855" x2="453.6631" y1="194.3965" y2="194.3965"/><text fill="#000000" font-family="sans-serif" font-size="13" lengthAdjust="spacing" textLength="122.2939" x="186.6855" y="189.6543">sd_notify READY=1</text></g><g class="message" data-entity-1="part3" data-entity-2="part4" id="msg3"><polygon fill="#1565C0" points="816.4634,219.707,826.4634,223.707,816.4634,227.707,820.4634,223.707" style="stroke:#1565C0;stroke-width:1;"/><line style="stroke:#1565C0;stroke-width:1;" x1="454.6631" x2="822.4634" y1="223.707" y2="223.707"/><text fill="#000000" font-family="sans-serif" font-size="13" lengthAdjust="spacing" textLength="253.3413" x="461.6631" y="218.9648">LISTEN upgrade channel + advisory lock</text></g><rect fill="#EEEEEE" height="3" style="stroke:#EEEEEE;stroke-width:1;" width="945.8618" x="0" y="252.3623"/><line style="stroke:#000000;stroke-width:1;" x1="0" x2="945.8618" y1="252.3623" y2="252.3623"/><line style="stroke:#000000;stroke-width:1;" x1="0" x2="945.8618" y1="255.3623" y2="255.3623"/><rect fill="#EEEEEE" height="23.3105" style="stroke:#000000;stroke-width:2;" width="153.8643" x="395.9988" y="241.707"/><text fill="#000000" font-family="sans-serif" font-size="13" font-weight="bold" lengthAdjust="spacing" textLength="135.5796" x="401.9988" y="258.2754">Schedule + dispatch</text><g class="message" data-entity-1="part1" data-entity-2="part4" id="msg4"><polygon fill="#1565C0" points="816.4634,292.3281,826.4634,296.3281,816.4634,300.3281,820.4634,296.3281" style="stroke:#1565C0;stroke-width:1;"/><line style="stroke:#1565C0;stroke-width:1;" x1="72.2163" x2="822.4634" y1="296.3281" y2="296.3281"/><text fill="#000000" font-family="sans-serif" font-size="13" lengthAdjust="spacing" textLength="348.4482" x="79.2163" y="291.5859">apply-latest -&gt; UPDATE upgrade=scheduled + NOTIFY</text></g><g class="message" data-entity-1="part4" data-entity-2="part3" id="msg5"><polygon fill="#1565C0" points="465.6631,321.6387,455.6631,325.6387,465.6631,329.6387,461.6631,325.6387" style="stroke:#1565C0;stroke-width:1;"/><line style="stroke:#1565C0;stroke-width:1;" x1="459.6631" x2="827.4634" y1="325.6387" y2="325.6387"/><text fill="#000000" font-family="sans-serif" font-size="13" lengthAdjust="spacing" textLength="164.7915" x="471.6631" y="320.8965">NOTIFY wakes the listener</text></g><g class="message" data-entity-1="part3" data-entity-2="part4" id="msg6"><polygon fill="#1565C0" points="816.4634,350.9492,826.4634,354.9492,816.4634,358.9492,820.4634,354.9492" style="stroke:#1565C0;stroke-width:1;"/><line style="stroke:#1565C0;stroke-width:1;" x1="454.6631" x2="822.4634" y1="354.9492" y2="354.9492"/><text fill="#000000" font-family="sans-serif" font-size="13" lengthAdjust="spacing" textLength="317.0908" x="461.6631" y="350.207">claim row WHERE state=scheduled -&gt; in_progress</text></g><path d="M363.2061,369.9492 L516.0083,369.9492 L516.0083,377.2598 L506.0083,387.2598 L363.2061,387.2598 L363.2061,369.9492" fill="#ECEFF1" style="stroke:#90A4AE;stroke-width:1.5;"/><rect fill="none" height="303.7949" style="stroke:#90A4AE;stroke-width:1.5;" width="572.6558" x="363.2061" y="369.9492"/><text fill="#000000" font-family="sans-serif" font-size="13" font-weight="bold" lengthAdjust="spacing" textLength="107.8022" x="378.2061" y="383.5176">executeUpgrade</text><g class="message" data-entity-1="part3" data-entity-2="part3" id="msg7"><line style="stroke:#1565C0;stroke-width:1;" x1="454.6631" x2="496.6631" y1="408.5703" y2="408.5703"/><line style="stroke:#1565C0;stroke-width:1;" x1="496.6631" x2="496.6631" y1="408.5703" y2="421.5703"/><line style="stroke:#1565C0;stroke-width:1;" x1="455.6631" x2="496.6631" y1="421.5703" y2="421.5703"/><polygon fill="#1565C0" points="465.6631,417.5703,455.6631,421.5703,465.6631,425.5703,461.6631,421.5703" style="stroke:#1565C0;stroke-width:1;"/><text fill="#000000" font-family="sans-serif" font-size="13" lengthAdjust="spacing" textLength="194.6445" x="461.6631" y="403.8281">writeUpgradeFlag (mutex held)</text></g><g class="message" data-entity-1="part3" data-entity-2="part4" id="msg8"><polygon fill="#1565C0" points="816.4634,446.8809,826.4634,450.8809,816.4634,454.8809,820.4634,450.8809" style="stroke:#1565C0;stroke-width:1;"/><line style="stroke:#1565C0;stroke-width:1;" x1="454.6631" x2="822.4634" y1="450.8809" y2="450.8809"/><text fill="#000000" font-family="sans-serif" font-size="13" lengthAdjust="spacing" textLength="140.2896" x="461.6631" y="446.1387">maintenance mode on</text></g><g class="message" data-entity-1="part3" data-entity-2="part4" id="msg9"><polygon fill="#1565C0" points="816.4634,476.1914,826.4634,480.1914,816.4634,484.1914,820.4634,480.1914" style="stroke:#1565C0;stroke-width:1;"/><line style="stroke:#1565C0;stroke-width:1;" x1="454.6631" x2="822.4634" y1="480.1914" y2="480.1914"/><text fill="#000000" font-family="sans-serif" font-size="13" lengthAdjust="spacing" textLength="98.1919" x="461.6631" y="475.4492">take DB backup</text></g><g class="message" data-entity-1="part3" data-entity-2="part3" id="msg10"><line style="stroke:#1565C0;stroke-width:1;" x1="454.6631" x2="496.6631" y1="509.502" y2="509.502"/><line style="stroke:#1565C0;stroke-width:1;" x1="496.6631" x2="496.6631" y1="509.502" y2="522.502"/><line style="stroke:#1565C0;stroke-width:1;" x1="455.6631" x2="496.6631" y1="522.502" y2="522.502"/><polygon fill="#1565C0" points="465.6631,518.502,455.6631,522.502,465.6631,526.502,461.6631,522.502" style="stroke:#1565C0;stroke-width:1;"/><text fill="#000000" font-family="sans-serif" font-size="13" lengthAdjust="spacing" textLength="119.666" x="461.6631" y="504.7598">git checkout target</text></g><g class="message" data-entity-1="part3" data-entity-2="part3" id="msg11"><line style="stroke:#1565C0;stroke-width:1;" x1="454.6631" x2="496.6631" y1="551.8125" y2="551.8125"/><line style="stroke:#1565C0;stroke-width:1;" x1="496.6631" x2="496.6631" y1="551.8125" y2="564.8125"/><line style="stroke:#1565C0;stroke-width:1;" x1="455.6631" x2="496.6631" y1="564.8125" y2="564.8125"/><polygon fill="#1565C0" points="465.6631,560.8125,455.6631,564.8125,465.6631,568.8125,461.6631,564.8125" style="stroke:#1565C0;stroke-width:1;"/><text fill="#000000" font-family="sans-serif" font-size="13" lengthAdjust="spacing" textLength="131.7964" x="461.6631" y="547.0703">docker compose pull</text></g><g class="message" data-entity-1="part3" data-entity-2="part4" id="msg12"><polygon fill="#1565C0" points="816.4634,590.123,826.4634,594.123,816.4634,598.123,820.4634,594.123" style="stroke:#1565C0;stroke-width:1;"/><line style="stroke:#1565C0;stroke-width:1;" x1="454.6631" x2="822.4634" y1="594.123" y2="594.123"/><text fill="#000000" font-family="sans-serif" font-size="13" lengthAdjust="spacing" textLength="137.8457" x="461.6631" y="589.3809">start DB + wait health</text></g><g class="message" data-entity-1="part3" data-entity-2="part4" id="msg13"><polygon fill="#1565C0" points="816.4634,619.4336,826.4634,623.4336,816.4634,627.4336,820.4634,623.4336" style="stroke:#1565C0;stroke-width:1;"/><line style="stroke:#1565C0;stroke-width:1;" x1="454.6631" x2="822.4634" y1="623.4336" y2="623.4336"/><text fill="#000000" font-family="sans-serif" font-size="13" lengthAdjust="spacing" textLength="68.9673" x="461.6631" y="618.6914">migrate up</text></g><g class="message" data-entity-1="part3" data-entity-2="part3" id="msg14"><line style="stroke:#1565C0;stroke-width:1;" x1="454.6631" x2="496.6631" y1="652.7441" y2="652.7441"/><line style="stroke:#1565C0;stroke-width:1;" x1="496.6631" x2="496.6631" y1="652.7441" y2="665.7441"/><line style="stroke:#1565C0;stroke-width:1;" x1="455.6631" x2="496.6631" y1="665.7441" y2="665.7441"/><polygon fill="#1565C0" points="465.6631,661.7441,455.6631,665.7441,465.6631,669.7441,461.6631,665.7441" style="stroke:#1565C0;stroke-width:1;"/><text fill="#000000" font-family="sans-serif" font-size="13" lengthAdjust="spacing" textLength="208.9014" x="461.6631" y="648.002">start app services + health check</text></g><rect fill="#EEEEEE" height="3" style="stroke:#EEEEEE;stroke-width:1;" width="945.8618" x="0" y="701.3994"/><line style="stroke:#000000;stroke-width:1;" x1="0" x2="945.8618" y1="701.3994" y2="701.3994"/><line style="stroke:#000000;stroke-width:1;" x1="0" x2="945.8618" y1="704.3994" y2="704.3994"/><rect fill="#EEEEEE" height="23.3105" style="stroke:#000000;stroke-width:2;" width="221.2954" x="362.2832" y="690.7441"/><text fill="#000000" font-family="sans-serif" font-size="13" font-weight="bold" lengthAdjust="spacing" textLength="203.0107" x="368.2832" y="707.3125">Binary-swap restart + resume</text><g class="message" data-entity-1="part3" data-entity-2="part2" id="msg15"><polygon fill="#1565C0" points="180.6855,741.3652,170.6855,745.3652,180.6855,749.3652,176.6855,745.3652" style="stroke:#1565C0;stroke-width:1;"/><line style="stroke:#1565C0;stroke-width:1;" x1="174.6855" x2="453.6631" y1="745.3652" y2="745.3652"/><text fill="#000000" font-family="sans-serif" font-size="13" lengthAdjust="spacing" textLength="260.9775" x="186.6855" y="740.623">exit 42 (self-update -&gt; request respawn)</text></g><g class="message" data-entity-1="part2" data-entity-2="part3" id="msg16"><polygon fill="#1565C0" points="442.6631,770.6758,452.6631,774.6758,442.6631,778.6758,446.6631,774.6758" style="stroke:#1565C0;stroke-width:1;"/><line style="stroke:#1565C0;stroke-width:1;" x1="169.6855" x2="448.6631" y1="774.6758" y2="774.6758"/><text fill="#000000" font-family="sans-serif" font-size="13" lengthAdjust="spacing" textLength="163.2998" x="176.6855" y="769.9336">restart unit on new binary</text></g><g class="message" data-entity-1="part3" data-entity-2="part4" id="msg17"><polygon fill="#1565C0" points="816.4634,799.9863,826.4634,803.9863,816.4634,807.9863,820.4634,803.9863" style="stroke:#1565C0;stroke-width:1;"/><line style="stroke:#1565C0;stroke-width:1;" x1="454.6631" x2="822.4634" y1="803.9863" y2="803.9863"/><text fill="#000000" font-family="sans-serif" font-size="13" lengthAdjust="spacing" textLength="349.8003" x="461.6631" y="799.2441">recoverFromFlag HEAD==target -&gt; mark completed_at</text></g><g class="message" data-entity-1="part3" data-entity-2="part3" id="msg18"><line style="stroke:#1565C0;stroke-width:1;" x1="454.6631" x2="496.6631" y1="833.2969" y2="833.2969"/><line style="stroke:#1565C0;stroke-width:1;" x1="496.6631" x2="496.6631" y1="833.2969" y2="846.2969"/><line style="stroke:#1565C0;stroke-width:1;" x1="455.6631" x2="496.6631" y1="846.2969" y2="846.2969"/><polygon fill="#1565C0" points="465.6631,842.2969,455.6631,846.2969,465.6631,850.2969,461.6631,846.2969" style="stroke:#1565C0;stroke-width:1;"/><text fill="#000000" font-family="sans-serif" font-size="13" lengthAdjust="spacing" textLength="235.644" x="461.6631" y="828.5547">removeUpgradeFlag (mutex released)</text></g><g class="message" data-entity-1="part3" data-entity-2="part4" id="msg19"><polygon fill="#1565C0" points="816.4634,871.6074,826.4634,875.6074,816.4634,879.6074,820.4634,875.6074" style="stroke:#1565C0;stroke-width:1;"/><line style="stroke:#1565C0;stroke-width:1;" x1="454.6631" x2="822.4634" y1="875.6074" y2="875.6074"/><text fill="#000000" font-family="sans-serif" font-size="13" lengthAdjust="spacing" textLength="207.0669" x="461.6631" y="870.8652">supersede older rows + notify UI</text></g><path d="M10,890.6074 L335.9854,890.6074 L335.9854,897.918 L325.9854,907.918 L10,907.918 L10,890.6074" fill="#ECEFF1" style="stroke:#90A4AE;stroke-width:1.5;"/><rect fill="none" height="147.5527" style="stroke:#90A4AE;stroke-width:1.5;" width="925.8618" x="10" y="890.6074"/><text fill="#000000" font-family="sans-serif" font-size="13" font-weight="bold" lengthAdjust="spacing" textLength="280.9854" x="25" y="904.1758">failure (any step from DB backup onward)</text><g class="message" data-entity-1="part3" data-entity-2="part4" id="msg20"><polygon fill="#1565C0" points="816.4634,925.2285,826.4634,929.2285,816.4634,933.2285,820.4634,929.2285" style="stroke:#1565C0;stroke-width:1;"/><line style="stroke:#1565C0;stroke-width:1;" x1="454.6631" x2="822.4634" y1="929.2285" y2="929.2285"/><text fill="#000000" font-family="sans-serif" font-size="13" lengthAdjust="spacing" textLength="282.9658" x="461.6631" y="924.4863">rollback() restore git + DB backup + services</text></g><g class="message" data-entity-1="part3" data-entity-2="part4" id="msg21"><polygon fill="#1565C0" points="816.4634,954.5391,826.4634,958.5391,816.4634,962.5391,820.4634,958.5391" style="stroke:#1565C0;stroke-width:1;"/><line style="stroke:#1565C0;stroke-width:1;" x1="454.6631" x2="822.4634" y1="958.5391" y2="958.5391"/><text fill="#000000" font-family="sans-serif" font-size="13" lengthAdjust="spacing" textLength="176.998" x="461.6631" y="953.7969">mark error + rolled_back_at</text></g><g class="message" data-entity-1="part3" data-entity-2="part3" id="msg22"><line style="stroke:#1565C0;stroke-width:1;" x1="454.6631" x2="496.6631" y1="987.8496" y2="987.8496"/><line style="stroke:#1565C0;stroke-width:1;" x1="496.6631" x2="496.6631" y1="987.8496" y2="1000.8496"/><line style="stroke:#1565C0;stroke-width:1;" x1="455.6631" x2="496.6631" y1="1000.8496" y2="1000.8496"/><polygon fill="#1565C0" points="465.6631,996.8496,455.6631,1000.8496,465.6631,1004.8496,461.6631,1000.8496" style="stroke:#1565C0;stroke-width:1;"/><text fill="#000000" font-family="sans-serif" font-size="13" lengthAdjust="spacing" textLength="235.644" x="461.6631" y="983.1074">removeUpgradeFlag (mutex released)</text></g><g class="message" data-entity-1="part3" data-entity-2="part1" id="msg23"><polygon fill="#1565C0" points="83.2163,1026.1602,73.2163,1030.1602,83.2163,1034.1602,79.2163,1030.1602" style="stroke:#1565C0;stroke-width:1;"/><line style="stroke:#1565C0;stroke-width:1;" x1="77.2163" x2="453.6631" y1="1030.1602" y2="1030.1602"/><text fill="#000000" font-family="sans-serif" font-size="13" lengthAdjust="spacing" textLength="134.7925" x="89.2163" y="1025.418">Slack callback FAILED</text></g><?plantuml-src ZLL_Ro8t4Fr_FyM8_d4W0hcaTvLwAgUIiDj3uYue8QeYLOgyzW0MNdjhUo6egdGVuZvXFqd7-uE305L1WiL-y_ncvdbu0zFxkzdTx6aQmpzVly5KCUqVFqy0_opacYdK7imSYdnXcS2UbnaggR4lhYzWRYmuIQlfjXU-WPiiPrOwe_lH6_WihJNMWJ3yiebtM-SnwsS2MlY2lF3uMEr0BlEIkGLTQDqZDskqMsBKtZBkeMshfSIQB55iqMdr8xUIcivZ6QIChnRM55hS6aMgVaZYyDv3ECe7DKVuAm9w3KdQfiPUlV_f_UtRSdaYvpWX4JV62hJr_izlX--6SRa_PTPBBdEgqG5aZs8VybfL_6DodOnAs6-qdXy3RkCakTe3dD3nTnHvwHN2WsV-fd3GL71MzmRQ3krQSkm9AzUeBo2LcbdgqORbOD5vadW1rYWLwjQ9eloxPcZTvMYPfmCluNRS0kQ0qzuXfcgZA7VhvqD0e-cXKlA7RlSlNThO26g1dOgW-d58C6AUfSo5oBn8bUJz9hPRThl8gs2HHj5Wq9m3gJ4U1eEe5WMzZmqzV80oyV3fqyBrQhvVVt7A-8_zHaK33v4r2KMAPssyd6_XFXwEdWPN-p2H4c8oVfZ5NtO9yYNJ6XM9PM9D5uAih0nVLLhv4aMXGYP2kfnvlWoIGvLtT2pFrRQdcATkXSN7wMWuYnlwWQif175ykPkDawU8mWwIhPPXmrRem2yHbAHiDDeZwLmncP4TDl3xf_W-BWkqVmJXf7xEhLcGTrmK1SVcS7XzIylkbswdOsFb3XKkBhGp2dk19IhHUHrMwicOrAIKXTkQ6IgcqITndbA3qKrjX_CA5j9JFv2lJE4fo2xGdmVJi5gXBIUPSJIL2gLE7bvvYKxlKedfW2KovPUdyv6Kl4VuBuqL7NMzMND4N75MsYFKedJFpV5T9YWz5HcMpZ_bNtmXYU-kmsHGStA-27e8OSDK98THUCuskdFwtZJ759fOZ0QDctga77dfrPI6JtHT1eEgw06KCRigYwlGetXcFZfP3eiPqPnmZKM5D1N8EKSDAMXkqGxPHT7C37uEDQolxUEuyUsSILLO6f9CRwdiI2iazhkFAC4DisUisSpCTgSiYY6UuAxkNdXtry4pvgO2OFXZ35qZEgf2Y0obEEkE_r6ELx7bCFa03ugeWRDADIJ3yIGUbLRw5m00?></g></svg>