<?plantuml 1.2026.2?><svg xmlns="http://www.w3.org/2000/svg" xmlns:xlink="http://www.w3.org/1999/xlink" contentStyleType="text/css" data-diagram-type="SEQUENCE" height="1544px" preserveAspectRatio="none" style="width:1085px;height:1544px;background:#FEFEFE;" version="1.1" viewBox="0 0 1085 1544" width="1085px" zoomAndPan="magnify"><title>StatBus Upgrade Timeline (single service, fail-fast one-shot, rollback to snapshot)</title><defs/><g><rect fill="#FEFEFE" height="1544" style="stroke:none;stroke-width:1;" width="1085" x="0" y="0"/><text fill="#000000" font-family="sans-serif" font-size="14" font-weight="bold" lengthAdjust="spacing" textLength="596.2646" x="240.4861" y="28.5352">StatBus Upgrade Timeline (single service, fail-fast one-shot, rollback to snapshot)</text><rect fill="none" height="333.1055" style="stroke:#90A4AE;stroke-width:1.5;" width="582.8506" x="475.3862" y="470.8809"/><rect fill="none" height="368.3262" style="stroke:#90A4AE;stroke-width:1.5;" width="1058.2368" x="10" y="1106.7813"/><rect fill="none" height="90.8867" style="stroke:#90A4AE;stroke-width:1.5;" width="582.8506" x="475.3862" y="1305.5996"/><g class="participant-lifeline" data-entity-uid="part1" data-qualified-name="cici" id="part1-lifeline"><g><title>Operator . CI</title><rect fill="#000000" fill-opacity="0.00000" height="1401.6426" width="8" x="68.2163" y="90.4648"/><line style="stroke:#90A4AE;stroke-width:0.5;stroke-dasharray:5,5;" x1="72" x2="72" y1="90.4648" y2="1492.1074"/></g></g><g class="participant-lifeline" data-entity-uid="part2" data-qualified-name="systemd" id="part2-lifeline"><g><title>systemd .user.</title><rect fill="#000000" fill-opacity="0.00000" height="1401.6426" width="8" x="187.1299" y="90.4648"/><line style="stroke:#90A4AE;stroke-width:0.5;stroke-dasharray:5,5;" x1="190.4326" x2="190.4326" y1="90.4648" y2="1492.1074"/></g></g><g class="participant-lifeline" data-entity-uid="part3" data-qualified-name="service" id="part3-lifeline"><g><title>Upgrade Service</title><rect fill="#000000" fill-opacity="0.00000" height="1401.6426" width="8" x="572.8511" y="90.4648"/><line style="stroke:#90A4AE;stroke-width:0.5;stroke-dasharray:5,5;" x1="576.3862" x2="576.3862" y1="90.4648" y2="1492.1074"/></g></g><g class="participant-lifeline" data-entity-uid="part4" data-qualified-name="db" id="part4-lifeline"><g><title>PostgreSQL</title><rect fill="#000000" fill-opacity="0.00000" height="1401.6426" width="8" x="945.0747" y="90.4648"/><line style="stroke:#90A4AE;stroke-width:0.5;stroke-dasharray:5,5;" x1="948.9126" x2="948.9126" y1="90.4648" y2="1492.1074"/></g></g><g class="participant participant-head" data-entity-uid="part1" data-qualified-name="cici" id="part1-head"><rect fill="#E3F2FD" height="30.4883" rx="2.5" ry="2.5" style="stroke:#1565C0;stroke-width:0.5;" width="104.4326" x="20" y="58.9766"/><text fill="#000000" font-family="sans-serif" font-size="14" lengthAdjust="spacing" textLength="90.4326" x="27" y="79.5117">Operator / CI</text></g><g class="participant participant-tail" data-entity-uid="part1" data-qualified-name="cici" id="part1-tail"><rect fill="#E3F2FD" height="30.4883" rx="2.5" ry="2.5" style="stroke:#1565C0;stroke-width:0.5;" width="104.4326" x="20" y="1491.1074"/><text fill="#000000" font-family="sans-serif" font-size="14" lengthAdjust="spacing" textLength="90.4326" x="27" y="1511.6426">Operator / CI</text></g><g class="participant participant-head" data-entity-uid="part2" data-qualified-name="systemd" id="part2-head"><rect fill="#E3F2FD" height="30.4883" rx="2.5" ry="2.5" style="stroke:#1565C0;stroke-width:0.5;" width="113.3945" x="134.4326" y="58.9766"/><text fill="#000000" font-family="sans-serif" font-size="14" lengthAdjust="spacing" textLength="99.3945" x="141.4326" y="79.5117">systemd (user)</text></g><g class="participant participant-tail" data-entity-uid="part2" data-qualified-name="systemd" id="part2-tail"><rect fill="#E3F2FD" height="30.4883" rx="2.5" ry="2.5" style="stroke:#1565C0;stroke-width:0.5;" width="113.3945" x="134.4326" y="1491.1074"/><text fill="#000000" font-family="sans-serif" font-size="14" lengthAdjust="spacing" textLength="99.3945" x="141.4326" y="1511.6426">systemd (user)</text></g><g class="participant participant-head" data-entity-uid="part3" data-qualified-name="service" id="part3-head"><rect fill="#E3F2FD" height="46.9766" rx="2.5" ry="2.5" style="stroke:#1565C0;stroke-width:0.5;" width="182.9297" x="485.3862" y="42.4883"/><text fill="#000000" font-family="sans-serif" font-size="14" lengthAdjust="spacing" textLength="109.0742" x="522.314" y="63.0234">Upgrade Service</text><text fill="#000000" font-family="sans-serif" font-size="14" lengthAdjust="spacing" textLength="168.9297" x="492.3862" y="79.5117">statbus-upgrade@$USER</text></g><g class="participant participant-tail" data-entity-uid="part3" data-qualified-name="service" id="part3-tail"><rect fill="#E3F2FD" height="46.9766" rx="2.5" ry="2.5" style="stroke:#1565C0;stroke-width:0.5;" width="182.9297" x="485.3862" y="1491.1074"/><text fill="#000000" font-family="sans-serif" font-size="14" lengthAdjust="spacing" textLength="109.0742" x="522.314" y="1511.6426">Upgrade Service</text><text fill="#000000" font-family="sans-serif" font-size="14" lengthAdjust="spacing" textLength="168.9297" x="492.3862" y="1528.1309">statbus-upgrade@$USER</text></g><g class="participant participant-head" data-entity-uid="part4" data-qualified-name="db" id="part4-head"><rect fill="#E3F2FD" height="46.9766" rx="2.5" ry="2.5" style="stroke:#1565C0;stroke-width:0.5;" width="198.3242" x="849.9126" y="42.4883"/><text fill="#000000" font-family="sans-serif" font-size="14" lengthAdjust="spacing" textLength="76.8496" x="910.6499" y="63.0234">PostgreSQL</text><text fill="#000000" font-family="sans-serif" font-size="14" lengthAdjust="spacing" textLength="184.3242" x="856.9126" y="79.5117">public.upgrade + snapshot</text></g><g class="participant participant-tail" data-entity-uid="part4" data-qualified-name="db" id="part4-tail"><rect fill="#E3F2FD" height="46.9766" rx="2.5" ry="2.5" style="stroke:#1565C0;stroke-width:0.5;" width="198.3242" x="849.9126" y="1491.1074"/><text fill="#000000" font-family="sans-serif" font-size="14" lengthAdjust="spacing" textLength="76.8496" x="910.6499" y="1511.6426">PostgreSQL</text><text fill="#000000" font-family="sans-serif" font-size="14" lengthAdjust="spacing" textLength="184.3242" x="856.9126" y="1528.1309">public.upgrade + snapshot</text></g><rect fill="#EEEEEE" height="3" style="stroke:#EEEEEE;stroke-width:1;" width="1078.2368" x="0" y="121.1201"/><line style="stroke:#000000;stroke-width:1;" x1="0" x2="1078.2368" y1="121.1201" y2="121.1201"/><line style="stroke:#000000;stroke-width:1;" x1="0" x2="1078.2368" y1="124.1201" y2="124.1201"/><rect fill="#EEEEEE" height="23.3105" style="stroke:#000000;stroke-width:2;" width="100.4868" x="488.875" y="110.4648"/><text fill="#000000" font-family="sans-serif" font-size="13" font-weight="bold" lengthAdjust="spacing" textLength="82.2021" x="494.875" y="127.0332">Service boot</text><g class="message" data-entity-1="part2" data-entity-2="part3" id="msg1"><polygon fill="#1565C0" points="564.8511,161.0859,574.8511,165.0859,564.8511,169.0859,568.8511,165.0859" style="stroke:#1565C0;stroke-width:1;"/><line style="stroke:#1565C0;stroke-width:1;" x1="191.1299" x2="570.8511" y1="165.0859" y2="165.0859"/><text fill="#000000" font-family="sans-serif" font-size="13" lengthAdjust="spacing" textLength="237.5166" x="198.1299" y="160.3438">start statbus-upgrade@$USER.service</text></g><g class="message" data-entity-1="part3" data-entity-2="part3" id="msg2"><line style="stroke:#1565C0;stroke-width:1;" x1="576.8511" x2="618.8511" y1="194.3965" y2="194.3965"/><line style="stroke:#1565C0;stroke-width:1;" x1="618.8511" x2="618.8511" y1="194.3965" y2="207.3965"/><line style="stroke:#1565C0;stroke-width:1;" x1="577.8511" x2="618.8511" y1="207.3965" y2="207.3965"/><polygon fill="#1565C0" points="587.8511,203.3965,577.8511,207.3965,587.8511,211.3965,583.8511,207.3965" style="stroke:#1565C0;stroke-width:1;"/><text fill="#000000" font-family="sans-serif" font-size="13" lengthAdjust="spacing" textLength="288.958" x="583.8511" y="189.6543">recoverFromFlag &#8212; reconcile any leftover flag</text></g><g class="message" data-entity-1="part3" data-entity-2="part2" id="msg3"><polygon fill="#1565C0" points="202.1299,232.707,192.1299,236.707,202.1299,240.707,198.1299,236.707" style="stroke:#1565C0;stroke-width:1;"/><line style="stroke:#1565C0;stroke-width:1;" x1="196.1299" x2="575.8511" y1="236.707" y2="236.707"/><text fill="#000000" font-family="sans-serif" font-size="13" lengthAdjust="spacing" textLength="260.9648" x="208.1299" y="231.9648">sd_notify READY=1 (after cheap init only)</text></g><g class="message" data-entity-1="part3" data-entity-2="part4" id="msg4"><polygon fill="#1565C0" points="937.0747,262.0176,947.0747,266.0176,937.0747,270.0176,941.0747,266.0176" style="stroke:#1565C0;stroke-width:1;"/><line style="stroke:#1565C0;stroke-width:1;" x1="576.8511" x2="943.0747" y1="266.0176" y2="266.0176"/><text fill="#000000" font-family="sans-serif" font-size="13" lengthAdjust="spacing" textLength="253.3413" x="583.8511" y="261.2754">LISTEN upgrade channel + advisory lock</text></g><rect fill="#EEEEEE" height="3" style="stroke:#EEEEEE;stroke-width:1;" width="1078.2368" x="0" y="294.6729"/><line style="stroke:#000000;stroke-width:1;" x1="0" x2="1078.2368" y1="294.6729" y2="294.6729"/><line style="stroke:#000000;stroke-width:1;" x1="0" x2="1078.2368" y1="297.6729" y2="297.6729"/><rect fill="#EEEEEE" height="23.3105" style="stroke:#000000;stroke-width:2;" width="153.8643" x="462.1863" y="284.0176"/><text fill="#000000" font-family="sans-serif" font-size="13" font-weight="bold" lengthAdjust="spacing" textLength="135.5796" x="468.1863" y="300.5859">Schedule + dispatch</text><g class="message" data-entity-1="part1" data-entity-2="part4" id="msg5"><polygon fill="#1565C0" points="937.0747,349.9492,947.0747,353.9492,937.0747,357.9492,941.0747,353.9492" style="stroke:#1565C0;stroke-width:1;"/><line style="stroke:#1565C0;stroke-width:1;" x1="72.2163" x2="943.0747" y1="353.9492" y2="353.9492"/><text fill="#000000" font-family="sans-serif" font-size="13" lengthAdjust="spacing" textLength="179.5054" x="79.2163" y="333.8965">./sb upgrade apply-latest &#8594;</text><text fill="#000000" font-family="sans-serif" font-size="13" lengthAdjust="spacing" textLength="230.6675" x="79.2163" y="349.207">UPDATE state='scheduled' + NOTIFY</text></g><g class="message" data-entity-1="part4" data-entity-2="part3" id="msg6"><polygon fill="#1565C0" points="587.8511,379.2598,577.8511,383.2598,587.8511,387.2598,583.8511,383.2598" style="stroke:#1565C0;stroke-width:1;"/><line style="stroke:#1565C0;stroke-width:1;" x1="581.8511" x2="948.0747" y1="383.2598" y2="383.2598"/><text fill="#000000" font-family="sans-serif" font-size="13" lengthAdjust="spacing" textLength="164.7915" x="593.8511" y="378.5176">NOTIFY wakes the listener</text></g><g class="message" data-entity-1="part3" data-entity-2="part4" id="msg7"><polygon fill="#1565C0" points="937.0747,408.5703,947.0747,412.5703,937.0747,416.5703,941.0747,412.5703" style="stroke:#1565C0;stroke-width:1;"/><line style="stroke:#1565C0;stroke-width:1;" x1="576.8511" x2="943.0747" y1="412.5703" y2="412.5703"/><text fill="#000000" font-family="sans-serif" font-size="13" lengthAdjust="spacing" textLength="318.189" x="583.8511" y="407.8281">claim row WHERE state='scheduled' &#8594; in_progress</text></g><rect fill="#EEEEEE" height="3" style="stroke:#EEEEEE;stroke-width:1;" width="1078.2368" x="0" y="441.2256"/><line style="stroke:#000000;stroke-width:1;" x1="0" x2="1078.2368" y1="441.2256" y2="441.2256"/><line style="stroke:#000000;stroke-width:1;" x1="0" x2="1078.2368" y1="444.2256" y2="444.2256"/><rect fill="#EEEEEE" height="23.3105" style="stroke:#000000;stroke-width:2;" width="129.5273" x="474.3547" y="430.5703"/><text fill="#000000" font-family="sans-serif" font-size="13" font-weight="bold" lengthAdjust="spacing" textLength="111.2427" x="480.3547" y="447.1387">Execute upgrade</text><path d="M475.3862,470.8809 L856.1709,470.8809 L856.1709,478.1914 L846.1709,488.1914 L475.3862,488.1914 L475.3862,470.8809" fill="#ECEFF1" style="stroke:#90A4AE;stroke-width:1.5;"/><rect fill="none" height="333.1055" style="stroke:#90A4AE;stroke-width:1.5;" width="582.8506" x="475.3862" y="470.8809"/><text fill="#000000" font-family="sans-serif" font-size="13" font-weight="bold" lengthAdjust="spacing" textLength="335.7847" x="490.3862" y="484.4492">execute upgrade &#8212; mutex held (Holder="service")</text><g class="message" data-entity-1="part3" data-entity-2="part3" id="msg8"><line style="stroke:#1565C0;stroke-width:1;" x1="576.8511" x2="618.8511" y1="509.502" y2="509.502"/><line style="stroke:#1565C0;stroke-width:1;" x1="618.8511" x2="618.8511" y1="509.502" y2="522.502"/><line style="stroke:#1565C0;stroke-width:1;" x1="577.8511" x2="618.8511" y1="522.502" y2="522.502"/><polygon fill="#1565C0" points="587.8511,518.502,577.8511,522.502,587.8511,526.502,583.8511,522.502" style="stroke:#1565C0;stroke-width:1;"/><text fill="#000000" font-family="sans-serif" font-size="13" lengthAdjust="spacing" textLength="275.6152" x="583.8511" y="504.7598">writeUpgradeFlag (flock LOCK_EX on the fd)</text></g><g class="message" data-entity-1="part3" data-entity-2="part4" id="msg9"><polygon fill="#1565C0" points="937.0747,547.8125,947.0747,551.8125,937.0747,555.8125,941.0747,551.8125" style="stroke:#1565C0;stroke-width:1;"/><line style="stroke:#1565C0;stroke-width:1;" x1="576.8511" x2="943.0747" y1="551.8125" y2="551.8125"/><text fill="#000000" font-family="sans-serif" font-size="13" lengthAdjust="spacing" textLength="343.313" x="583.8511" y="547.0703">pre-flight &#8212; downgrade guard, assets, disk, signature</text></g><g class="message" data-entity-1="part3" data-entity-2="part4" id="msg10"><polygon fill="#1565C0" points="937.0747,577.123,947.0747,581.123,937.0747,585.123,941.0747,581.123" style="stroke:#1565C0;stroke-width:1;"/><line style="stroke:#1565C0;stroke-width:1;" x1="576.8511" x2="943.0747" y1="581.123" y2="581.123"/><text fill="#000000" font-family="sans-serif" font-size="13" lengthAdjust="spacing" textLength="140.2896" x="583.8511" y="576.3809">maintenance mode on</text></g><g class="message" data-entity-1="part3" data-entity-2="part4" id="msg11"><polygon fill="#1565C0" points="937.0747,606.4336,947.0747,610.4336,937.0747,614.4336,941.0747,610.4336" style="stroke:#1565C0;stroke-width:1;"/><line style="stroke:#1565C0;stroke-width:1;" x1="576.8511" x2="943.0747" y1="610.4336" y2="610.4336"/><text fill="#000000" font-family="sans-serif" font-size="13" lengthAdjust="spacing" textLength="211.8086" x="583.8511" y="605.6914">take DB snapshot &#8594; backup_path</text></g><g class="message" data-entity-1="part3" data-entity-2="part3" id="msg12"><line style="stroke:#1565C0;stroke-width:1;" x1="576.8511" x2="618.8511" y1="639.7441" y2="639.7441"/><line style="stroke:#1565C0;stroke-width:1;" x1="618.8511" x2="618.8511" y1="639.7441" y2="652.7441"/><line style="stroke:#1565C0;stroke-width:1;" x1="577.8511" x2="618.8511" y1="652.7441" y2="652.7441"/><polygon fill="#1565C0" points="587.8511,648.7441,577.8511,652.7441,587.8511,656.7441,583.8511,652.7441" style="stroke:#1565C0;stroke-width:1;"/><text fill="#000000" font-family="sans-serif" font-size="13" lengthAdjust="spacing" textLength="171.3169" x="583.8511" y="635.002">git checkout target commit</text></g><g class="message" data-entity-1="part3" data-entity-2="part3" id="msg13"><line style="stroke:#1565C0;stroke-width:1;" x1="576.8511" x2="618.8511" y1="682.0547" y2="682.0547"/><line style="stroke:#1565C0;stroke-width:1;" x1="618.8511" x2="618.8511" y1="682.0547" y2="695.0547"/><line style="stroke:#1565C0;stroke-width:1;" x1="577.8511" x2="618.8511" y1="695.0547" y2="695.0547"/><polygon fill="#1565C0" points="587.8511,691.0547,577.8511,695.0547,587.8511,699.0547,583.8511,695.0547" style="stroke:#1565C0;stroke-width:1;"/><text fill="#000000" font-family="sans-serif" font-size="13" lengthAdjust="spacing" textLength="131.7964" x="583.8511" y="677.3125">docker compose pull</text></g><g class="message" data-entity-1="part3" data-entity-2="part4" id="msg14"><polygon fill="#1565C0" points="937.0747,720.3652,947.0747,724.3652,937.0747,728.3652,941.0747,724.3652" style="stroke:#1565C0;stroke-width:1;"/><line style="stroke:#1565C0;stroke-width:1;" x1="576.8511" x2="943.0747" y1="724.3652" y2="724.3652"/><text fill="#000000" font-family="sans-serif" font-size="13" lengthAdjust="spacing" textLength="137.8457" x="583.8511" y="719.623">start DB + wait health</text></g><g class="message" data-entity-1="part3" data-entity-2="part4" id="msg15"><polygon fill="#1565C0" points="937.0747,749.6758,947.0747,753.6758,937.0747,757.6758,941.0747,753.6758" style="stroke:#1565C0;stroke-width:1;"/><line style="stroke:#1565C0;stroke-width:1;" x1="576.8511" x2="943.0747" y1="753.6758" y2="753.6758"/><text fill="#000000" font-family="sans-serif" font-size="13" lengthAdjust="spacing" textLength="98.8203" x="583.8511" y="748.9336">./sb migrate up</text></g><g class="message" data-entity-1="part3" data-entity-2="part3" id="msg16"><line style="stroke:#1565C0;stroke-width:1;" x1="576.8511" x2="618.8511" y1="782.9863" y2="782.9863"/><line style="stroke:#1565C0;stroke-width:1;" x1="618.8511" x2="618.8511" y1="782.9863" y2="795.9863"/><line style="stroke:#1565C0;stroke-width:1;" x1="577.8511" x2="618.8511" y1="795.9863" y2="795.9863"/><polygon fill="#1565C0" points="587.8511,791.9863,577.8511,795.9863,587.8511,799.9863,583.8511,795.9863" style="stroke:#1565C0;stroke-width:1;"/><text fill="#000000" font-family="sans-serif" font-size="13" lengthAdjust="spacing" textLength="208.9014" x="583.8511" y="778.2441">start app services + health check</text></g><path d="M484,815.9863 L484,855.9863 L1041,855.9863 L1041,825.9863 L1031,815.9863 L484,815.9863" fill="#FEFFDD" style="stroke:#181818;stroke-width:0.5;"/><path d="M1031,815.9863 L1031,825.9863 L1041,825.9863 L1031,815.9863" fill="#FEFFDD" style="stroke:#181818;stroke-width:0.5;"/><text fill="#000000" font-family="sans-serif" font-size="13" lengthAdjust="spacing" textLength="359.7598" x="554.9417" y="833.5547">Fail-fast: any step that errors OR hangs aborts the single</text><text fill="#000000" font-family="sans-serif" font-size="13" lengthAdjust="spacing" textLength="406.9673" x="554.9417" y="848.8652">attempt and routes to rollback (&#167; Complete / rollback). No retry.</text><rect fill="#EEEEEE" height="3" style="stroke:#EEEEEE;stroke-width:1;" width="1078.2368" x="0" y="882.2627"/><line style="stroke:#000000;stroke-width:1;" x1="0" x2="1078.2368" y1="882.2627" y2="882.2627"/><line style="stroke:#000000;stroke-width:1;" x1="0" x2="1078.2368" y1="885.2627" y2="885.2627"/><rect fill="#EEEEEE" height="23.3105" style="stroke:#000000;stroke-width:2;" width="221.2954" x="428.4707" y="871.6074"/><text fill="#000000" font-family="sans-serif" font-size="13" font-weight="bold" lengthAdjust="spacing" textLength="203.0107" x="434.4707" y="888.1758">Binary-swap restart + resume</text><g class="message" data-entity-1="part3" data-entity-2="part2" id="msg17"><polygon fill="#1565C0" points="202.1299,922.2285,192.1299,926.2285,202.1299,930.2285,198.1299,926.2285" style="stroke:#1565C0;stroke-width:1;"/><line style="stroke:#1565C0;stroke-width:1;" x1="196.1299" x2="575.8511" y1="926.2285" y2="926.2285"/><text fill="#000000" font-family="sans-serif" font-size="13" lengthAdjust="spacing" textLength="361.7212" x="208.1299" y="921.4863">exit 42 &#8212; self-update, request the ONE planned respawn</text></g><g class="message" data-entity-1="part2" data-entity-2="part3" id="msg18"><polygon fill="#1565C0" points="564.8511,951.5391,574.8511,955.5391,564.8511,959.5391,568.8511,955.5391" style="stroke:#1565C0;stroke-width:1;"/><line style="stroke:#1565C0;stroke-width:1;" x1="191.1299" x2="570.8511" y1="955.5391" y2="955.5391"/><text fill="#000000" font-family="sans-serif" font-size="13" lengthAdjust="spacing" textLength="187.5859" x="198.1299" y="950.7969">restart unit on the new binary</text></g><g class="message" data-entity-1="part3" data-entity-2="part3" id="msg19"><line style="stroke:#1565C0;stroke-width:1;" x1="576.8511" x2="618.8511" y1="984.8496" y2="984.8496"/><line style="stroke:#1565C0;stroke-width:1;" x1="618.8511" x2="618.8511" y1="984.8496" y2="997.8496"/><line style="stroke:#1565C0;stroke-width:1;" x1="577.8511" x2="618.8511" y1="997.8496" y2="997.8496"/><polygon fill="#1565C0" points="587.8511,993.8496,577.8511,997.8496,587.8511,1001.8496,583.8511,997.8496" style="stroke:#1565C0;stroke-width:1;"/><text fill="#000000" font-family="sans-serif" font-size="13" lengthAdjust="spacing" textLength="358.2236" x="583.8511" y="980.1074">resumePostSwap &#8212; continue from flag (HEAD == target)</text></g><path d="M119,1010.8496 L119,1050.8496 L647,1050.8496 L647,1020.8496 L637,1010.8496 L119,1010.8496" fill="#FEFFDD" style="stroke:#181818;stroke-width:0.5;"/><path d="M637,1010.8496 L637,1020.8496 L647,1020.8496 L637,1010.8496" fill="#FEFFDD" style="stroke:#181818;stroke-width:0.5;"/><text fill="#000000" font-family="sans-serif" font-size="13" lengthAdjust="spacing" textLength="398.3408" x="171.551" y="1028.418">This restart is expected exactly once. Any OTHER mid-upgrade</text><text fill="#000000" font-family="sans-serif" font-size="13" lengthAdjust="spacing" textLength="414.7813" x="171.551" y="1043.7285">restart &#8594; recoverFromFlag treats the attempt as died &#8594; roll back.</text><rect fill="#EEEEEE" height="3" style="stroke:#EEEEEE;stroke-width:1;" width="1078.2368" x="0" y="1077.126"/><line style="stroke:#000000;stroke-width:1;" x1="0" x2="1078.2368" y1="1077.126" y2="1077.126"/><line style="stroke:#000000;stroke-width:1;" x1="0" x2="1078.2368" y1="1080.126" y2="1080.126"/><rect fill="#EEEEEE" height="23.3105" style="stroke:#000000;stroke-width:2;" width="151.7886" x="463.2241" y="1066.4707"/><text fill="#000000" font-family="sans-serif" font-size="13" font-weight="bold" lengthAdjust="spacing" textLength="133.5039" x="469.2241" y="1083.0391">Complete / rollback</text><path d="M10,1106.7813 L72.1387,1106.7813 L72.1387,1114.0918 L62.1387,1124.0918 L10,1124.0918 L10,1106.7813" fill="#ECEFF1" style="stroke:#90A4AE;stroke-width:1.5;"/><rect fill="none" height="368.3262" style="stroke:#90A4AE;stroke-width:1.5;" width="1058.2368" x="10" y="1106.7813"/><text fill="#000000" font-family="sans-serif" font-size="13" font-weight="bold" lengthAdjust="spacing" textLength="17.1387" x="25" y="1120.3496">alt</text><text fill="#000000" font-family="sans-serif" font-size="11" font-weight="bold" lengthAdjust="spacing" textLength="118.7227" x="87.1387" y="1119.416">[all steps succeeded]</text><g class="message" data-entity-1="part3" data-entity-2="part4" id="msg20"><polygon fill="#1565C0" points="937.0747,1141.4023,947.0747,1145.4023,937.0747,1149.4023,941.0747,1145.4023" style="stroke:#1565C0;stroke-width:1;"/><line style="stroke:#1565C0;stroke-width:1;" x1="576.8511" x2="943.0747" y1="1145.4023" y2="1145.4023"/><text fill="#000000" font-family="sans-serif" font-size="13" lengthAdjust="spacing" textLength="241.0649" x="583.8511" y="1140.6602">mark completed_at (state=completed)</text></g><g class="message" data-entity-1="part3" data-entity-2="part3" id="msg21"><line style="stroke:#1565C0;stroke-width:1;" x1="576.8511" x2="618.8511" y1="1174.7129" y2="1174.7129"/><line style="stroke:#1565C0;stroke-width:1;" x1="618.8511" x2="618.8511" y1="1174.7129" y2="1187.7129"/><line style="stroke:#1565C0;stroke-width:1;" x1="577.8511" x2="618.8511" y1="1187.7129" y2="1187.7129"/><polygon fill="#1565C0" points="587.8511,1183.7129,577.8511,1187.7129,587.8511,1191.7129,583.8511,1187.7129" style="stroke:#1565C0;stroke-width:1;"/><text fill="#000000" font-family="sans-serif" font-size="13" lengthAdjust="spacing" textLength="235.644" x="583.8511" y="1169.9707">removeUpgradeFlag (mutex released)</text></g><g class="message" data-entity-1="part3" data-entity-2="part4" id="msg22"><polygon fill="#1565C0" points="937.0747,1213.0234,947.0747,1217.0234,937.0747,1221.0234,941.0747,1217.0234" style="stroke:#1565C0;stroke-width:1;"/><line style="stroke:#1565C0;stroke-width:1;" x1="576.8511" x2="943.0747" y1="1217.0234" y2="1217.0234"/><text fill="#000000" font-family="sans-serif" font-size="13" lengthAdjust="spacing" textLength="207.0669" x="583.8511" y="1212.2813">supersede older rows + notify UI</text></g><g class="message" data-entity-1="part3" data-entity-2="part1" id="msg23"><polygon fill="#1565C0" points="83.2163,1242.334,73.2163,1246.334,83.2163,1250.334,79.2163,1246.334" style="stroke:#1565C0;stroke-width:1;"/><line style="stroke:#1565C0;stroke-width:1;" x1="77.2163" x2="575.8511" y1="1246.334" y2="1246.334"/><text fill="#000000" font-family="sans-serif" font-size="13" lengthAdjust="spacing" textLength="127.0928" x="89.2163" y="1241.5918">Slack callback &#8212; OK</text></g><line style="stroke:#90A4AE;stroke-width:1;stroke-dasharray:2,2;" x1="10" x2="1068.2368" y1="1255.334" y2="1255.334"/><text fill="#000000" font-family="sans-serif" font-size="11" font-weight="bold" lengthAdjust="spacing" textLength="275.1772" x="15" y="1265.9688">[any step failed or hung (one attempt, NO retry)]</text><g class="message" data-entity-1="part3" data-entity-2="part4" id="msg24"><polygon fill="#1565C0" points="937.0747,1286.5996,947.0747,1290.5996,937.0747,1294.5996,941.0747,1290.5996" style="stroke:#1565C0;stroke-width:1;"/><line style="stroke:#1565C0;stroke-width:1;" x1="576.8511" x2="943.0747" y1="1290.5996" y2="1290.5996"/><text fill="#000000" font-family="sans-serif" font-size="13" lengthAdjust="spacing" textLength="311.8096" x="583.8511" y="1285.8574">rollback() &#8212; restore git + DB snapshot + services</text></g><path d="M475.3862,1305.5996 L537.5249,1305.5996 L537.5249,1312.9102 L527.5249,1322.9102 L475.3862,1322.9102 L475.3862,1305.5996" fill="#ECEFF1" style="stroke:#90A4AE;stroke-width:1.5;"/><rect fill="none" height="90.8867" style="stroke:#90A4AE;stroke-width:1.5;" width="582.8506" x="475.3862" y="1305.5996"/><text fill="#000000" font-family="sans-serif" font-size="13" font-weight="bold" lengthAdjust="spacing" textLength="17.1387" x="490.3862" y="1319.168">alt</text><text fill="#000000" font-family="sans-serif" font-size="11" font-weight="bold" lengthAdjust="spacing" textLength="167.1914" x="552.5249" y="1318.2344">[snapshot restore succeeded]</text><g class="message" data-entity-1="part3" data-entity-2="part4" id="msg25"><polygon fill="#1565C0" points="937.0747,1340.2207,947.0747,1344.2207,937.0747,1348.2207,941.0747,1344.2207" style="stroke:#1565C0;stroke-width:1;"/><line style="stroke:#1565C0;stroke-width:1;" x1="576.8511" x2="943.0747" y1="1344.2207" y2="1344.2207"/><text fill="#000000" font-family="sans-serif" font-size="13" lengthAdjust="spacing" textLength="328.9038" x="583.8511" y="1339.4785">state=rolled_back (+ error) &#8212; healthy at old version</text></g><line style="stroke:#90A4AE;stroke-width:1;stroke-dasharray:2,2;" x1="475.3862" x2="1058.2368" y1="1353.2207" y2="1353.2207"/><text fill="#000000" font-family="sans-serif" font-size="11" font-weight="bold" lengthAdjust="spacing" textLength="111.2031" x="480.3862" y="1363.8555">[restore also failed]</text><g class="message" data-entity-1="part3" data-entity-2="part4" id="msg26"><polygon fill="#1565C0" points="937.0747,1384.4863,947.0747,1388.4863,937.0747,1392.4863,941.0747,1388.4863" style="stroke:#1565C0;stroke-width:1;"/><line style="stroke:#1565C0;stroke-width:1;" x1="576.8511" x2="943.0747" y1="1388.4863" y2="1388.4863"/><text fill="#000000" font-family="sans-serif" font-size="13" lengthAdjust="spacing" textLength="258.6099" x="583.8511" y="1383.7441">state=failed (+ error) &#8212; needs hands-on</text></g><g class="message" data-entity-1="part3" data-entity-2="part3" id="msg27"><line style="stroke:#1565C0;stroke-width:1;" x1="576.8511" x2="618.8511" y1="1424.7969" y2="1424.7969"/><line style="stroke:#1565C0;stroke-width:1;" x1="618.8511" x2="618.8511" y1="1424.7969" y2="1437.7969"/><line style="stroke:#1565C0;stroke-width:1;" x1="577.8511" x2="618.8511" y1="1437.7969" y2="1437.7969"/><polygon fill="#1565C0" points="587.8511,1433.7969,577.8511,1437.7969,587.8511,1441.7969,583.8511,1437.7969" style="stroke:#1565C0;stroke-width:1;"/><text fill="#000000" font-family="sans-serif" font-size="13" lengthAdjust="spacing" textLength="235.644" x="583.8511" y="1420.0547">removeUpgradeFlag (mutex released)</text></g><g class="message" data-entity-1="part3" data-entity-2="part1" id="msg28"><polygon fill="#1565C0" points="83.2163,1463.1074,73.2163,1467.1074,83.2163,1471.1074,79.2163,1467.1074" style="stroke:#1565C0;stroke-width:1;"/><line style="stroke:#1565C0;stroke-width:1;" x1="77.2163" x2="575.8511" y1="1467.1074" y2="1467.1074"/><text fill="#000000" font-family="sans-serif" font-size="13" lengthAdjust="spacing" textLength="290.3989" x="89.2163" y="1462.3652">Slack callback &#8212; FAILED (exact step + reason)</text></g><?plantuml-src hLRRRXit47tNLmoS0fPWIMxIf423AgXiIuqHmqfzGHiWW4tjZYH2N79BSYqBHO4-zGEA_aF_ev-IB-aXznBBbjgNsYysTovdpimSSf-6XLyOAxtmyex9ySy5wuGfbM9kHKOpOoaroM6Huz-KUrvchAJcVfRsM_jqjM2w7GnkQIfqwaXO9e-Z1F6cYacBZ5FA5yAneq-__KbBvZnOP2GrkRLEQ2Nz8fmWsEspPxT0a7XfD2qOwQmBTbjoapEKc1IPJ9QnzeuIeKFQ46VFCMzr-lil-ZO0VRFNRxcbrBa89Kv5ifnRK-Zqs2YK-smy2hyFB1fMVcaHVeRMcbLb-_pLrw-Elup7PtB6PyXqP2oGLz-_-NBuSZYAtzyBwsKYSw7zXic340zD7gCQVJL-CJw9Pj_ZF7zgS3mQZvy_CDY2uzTMoqkFpboYuKU5e-kI9hggQAAsatgkmYJOEvbmbsP2gjvCE4z6SyyjZE-IDKe5siWRSbhauRJJQkMVuTFU96ShF78Vql7f7Wcq2DysRTpQUKPZsWNITQ9HTRHfLwEyB45zr0xmfuNhLLt-xelhoz55wL-QRFg_DyxFBL_-SFPHvyLKoQHVUT91Kq1qJwUjrc1G9wAfCPu6WrODjFUcJa2l2I2ifwrG-ZMCsdh3qN9YxjYEhSd6IipZPeGpdKWmB_IQ5CzyCA4Plcy4gO0WUtgZZPUpDLsCXYSV1i-fBMOUBWbM9yVUoD0njUuyT4-dy3mxlRmQdTSR0dkXDIim8T8xwOn5UfCiInuGB2rKe2cLBXS-MGGwGYURSFr3Dss2YJnNwvuIdZ4mdtx_uwE-Vdyol1f5cdYmxwg0wJv2da-kJiSVMeYoGKzvJ2knX6e4EL4IHMksJof9b90Pfd55FxuTNMnB0WYWuYQt1lrtBXOrkkUay8r4X8B28kN4Zpw4lcGuk8SQAKpfMwEmKOEz2iPU9oxRrXQl8AbSZMtiSNiMIAMpoV6xcz5Fw4oiR9O-YH4BoottPahE5pw2ICrAbv3cXR1f5vFgsBjkQCgoIqxEjV25vQsnCY4rw1D1mBAWcKPljVFWcqwEcds8t8KjB_8RT7wnkzWvHWsK9qjJU8InS_PHcANVxODBPHc6rMIvSKnveTHMLEMI0TO11W9vCDpgAPRFWvX941Lxk3jt6HEZMfyvH2y3btMqMASjR1Uu2alOQ27KWMXS2-BhkAeOpN2b2K-CUm4trkI2i55pt8PJOtqvmQMembbuh6-Ev3h5t6AsND3GHa_RkAAEGObYv3vipZjzEeSLUxlk1smKiCLPFf9Qs7NFhR3o6F1Os47ugyZYO6-L3hu7aIzVnD5oh6RGhXISGTV3HOV53P0dvoFALP26DCJBnKflby4wRL4gJdJMlA9fXBPB0GF08CkN0Na00ldpKXVO2SXYr3qi79GDLLGprNdOaX99jz5xmbj4kWOC_kJx76y9eETxaNYr1hQ4-pH4poPNa0kCIbghDjnhpp3rZmNQMnPL9vi6ugwG21xDqQQuAO-QiwMJeIUOCnBm29E32wj84kQKqntBQvTnIKASz0PJrYv5hZdx5n6odA6C3HKgvSooOhp9TeYFAt1ruoke3deNz3KiI7NRN9y-TegtmMkwLA6-H5I5XfvEthLOEVwy9-4n0TBmAbWK6d3mfAWPxKBton7VZgfciDsfxak7nmL7xJdOaAs3PgjZdC1sywtssYHzX-w0vP0Kj9UxUL1kU9c_b8irq0UM2DFYP2MiiUGwar1ugfPb_qUkYflDD1eeNT2JrFNgy3hzFrk-ktlZuUdPw8JQSN_A_WLf4SxeJbJ8Vm00?></g></svg>