<svg xmlns="http://www.w3.org/2000/svg" xmlns:xlink="http://www.w3.org/1999/xlink" contentStyleType="text/css" data-diagram-type="STATE" height="1056px" preserveAspectRatio="none" style="width:1258px;height:1056px;background:#FEFEFE;" version="1.1" viewBox="0 0 1258 1056" width="1258px" zoomAndPan="magnify"><?plantuml 1.2026.5?><defs/><g><rect fill="#FEFEFE" height="1056" style="stroke:none;stroke-width:1;" width="1258" x="0" y="0"/><g class="title" data-source-line="15"><text fill="#000000" font-family="sans-serif" font-size="14" font-weight="700" lengthAdjust="spacing" textLength="513.9053" x="368.7077" y="23.5352">public.upgrade row lifecycle &#8212; discovery, execution, fail-fast terminals</text></g><g class="start_entity" data-qualified-name=".start." data-source-line="17" id="ent0001"><ellipse cx="1005.52" cy="53.4883" fill="#222222" rx="10" ry="10" style="stroke:#222222;stroke-width:1;"/></g><g class="entity" data-qualified-name="available" data-source-line="17" id="ent0002"><rect fill="#E3F2FD" height="50" rx="12.5" ry="12.5" style="stroke:#1565C0;stroke-width:0.5;" width="79.1924" x="965.93" y="140.4883"/><line style="stroke:#1565C0;stroke-width:0.5;" x1="965.93" x2="1045.1224" y1="166.9766" y2="166.9766"/><text fill="#102027" font-family="sans-serif" font-size="14" lengthAdjust="spacing" textLength="59.1924" x="975.93" y="159.0234">available</text></g><g class="entity" data-qualified-name="scheduled" data-source-line="19" id="ent0004"><rect fill="#E3F2FD" height="50" rx="12.5" ry="12.5" style="stroke:#1565C0;stroke-width:0.5;" width="88.9541" x="774.05" y="282.4883"/><line style="stroke:#1565C0;stroke-width:0.5;" x1="774.05" x2="863.0041" y1="308.9766" y2="308.9766"/><text fill="#102027" font-family="sans-serif" font-size="14" lengthAdjust="spacing" textLength="68.9541" x="784.05" y="301.0234">scheduled</text></g><g class="entity" data-qualified-name="skipped" data-source-line="20" id="ent0006"><rect fill="#E3F2FD" height="50" rx="12.5" ry="12.5" style="stroke:#1565C0;stroke-width:0.5;" width="73.6006" x="1169.72" y="362.4883"/><line style="stroke:#1565C0;stroke-width:0.5;" x1="1169.72" x2="1243.3206" y1="388.9766" y2="388.9766"/><text fill="#102027" font-family="sans-serif" font-size="14" lengthAdjust="spacing" textLength="53.6006" x="1179.72" y="381.0234">skipped</text></g><g class="entity" data-qualified-name="superseded" data-source-line="21" id="ent0008"><rect fill="#E3F2FD" height="50" rx="12.5" ry="12.5" style="stroke:#1565C0;stroke-width:0.5;" width="98.5244" x="969.26" y="491.3883"/><line style="stroke:#1565C0;stroke-width:0.5;" x1="969.26" x2="1067.7844" y1="517.8766" y2="517.8766"/><text fill="#102027" font-family="sans-serif" font-size="14" lengthAdjust="spacing" textLength="78.5244" x="979.26" y="509.9234">superseded</text></g><g class="entity" data-qualified-name="in_progress" data-source-line="23" id="ent0010"><rect fill="#E3F2FD" height="50" rx="12.5" ry="12.5" style="stroke:#1565C0;stroke-width:0.5;" width="99.4063" x="202.82" y="491.3883"/><line style="stroke:#1565C0;stroke-width:0.5;" x1="202.82" x2="302.2263" y1="517.8766" y2="517.8766"/><text fill="#102027" font-family="sans-serif" font-size="14" lengthAdjust="spacing" textLength="79.4063" x="212.82" y="509.9234">in_progress</text></g><g class="entity" data-qualified-name="completed" data-source-line="26" id="ent0013"><rect fill="#E3F2FD" height="50" rx="12.5" ry="12.5" style="stroke:#1565C0;stroke-width:0.5;" width="91.3467" x="46.85" y="829.8383"/><line style="stroke:#1565C0;stroke-width:0.5;" x1="46.85" x2="138.1967" y1="856.3266" y2="856.3266"/><text fill="#102027" font-family="sans-serif" font-size="14" lengthAdjust="spacing" textLength="71.3467" x="56.85" y="848.3734">completed</text></g><g class="entity" data-qualified-name="rolled_back" data-source-line="28" id="ent0016"><rect fill="#E3F2FD" height="50" rx="12.5" ry="12.5" style="stroke:#1565C0;stroke-width:0.5;" width="97.9297" x="357.56" y="731.5583"/><line style="stroke:#1565C0;stroke-width:0.5;" x1="357.56" x2="455.4897" y1="758.0466" y2="758.0466"/><text fill="#102027" font-family="sans-serif" font-size="14" lengthAdjust="spacing" textLength="77.9297" x="367.56" y="750.0934">rolled_back</text></g><g class="entity" data-qualified-name="failed" data-source-line="29" id="ent0018"><rect fill="#E3F2FD" height="50" rx="12.5" ry="12.5" style="stroke:#1565C0;stroke-width:0.5;" width="57.584" x="223.73" y="731.5583"/><line style="stroke:#1565C0;stroke-width:0.5;" x1="223.73" x2="281.314" y1="758.0466" y2="758.0466"/><text fill="#102027" font-family="sans-serif" font-size="14" lengthAdjust="spacing" textLength="37.584" x="233.73" y="750.0934">failed</text></g><g class="entity" data-qualified-name="dismissed" data-source-line="43" id="ent0020"><rect fill="#E3F2FD" height="50" rx="12.5" ry="12.5" style="stroke:#1565C0;stroke-width:0.5;" width="87.9971" x="396.52" y="909.8383"/><line style="stroke:#1565C0;stroke-width:0.5;" x1="396.52" x2="484.5171" y1="936.3266" y2="936.3266"/><text fill="#102027" font-family="sans-serif" font-size="14" lengthAdjust="spacing" textLength="67.9971" x="406.52" y="928.3734">dismissed</text></g><g class="end_entity" data-qualified-name=".end." data-source-line="46" id="ent0023"><ellipse cx="907.52" cy="1031.8383" fill="none" rx="11" ry="11" style="stroke:#222222;stroke-width:1;"/><ellipse cx="907.52" cy="1031.8383" fill="#222222" rx="6" ry="6" style="stroke:#222222;stroke-width:1;"/></g><g class="entity" data-qualified-name="GMN28" data-source-line="32" id="ent0029"><path d="M567.21,442.4883 L567.21,590.2832 L933.8397,590.2832 L933.8397,452.4883 L923.8397,442.4883 L567.21,442.4883" fill="#FEFFDD" style="stroke:#181818;stroke-width:0.5;"/><path d="M923.8397,442.4883 L923.8397,452.4883 L933.8397,452.4883 L923.8397,442.4883" fill="#FEFFDD" style="stroke:#181818;stroke-width:1;"/><text fill="#000000" font-family="sans-serif" font-size="13" lengthAdjust="spacing" textLength="299.0254" x="573.21" y="460.0566">Ground truth decides direction (STATBUS-039):</text><text fill="#000000" font-family="sans-serif" font-size="13" lengthAdjust="spacing" textLength="301.0376" x="573.21" y="475.3672">binary at-or-descendant of target + migrations</text><text fill="#000000" font-family="sans-serif" font-size="13" lengthAdjust="spacing" textLength="345.6297" x="573.21" y="490.6777">at-or-past on-disk max &#8658; FORWARD, always &#8212; a died</text><text fill="#000000" font-family="sans-serif" font-size="13" lengthAdjust="spacing" textLength="284.0513" x="573.21" y="505.9883">attempt is not impossibility; never restore an</text><text fill="#000000" font-family="sans-serif" font-size="13" lengthAdjust="spacing" textLength="331.8999" x="573.21" y="521.2988">at-target box (post-commit-point writes may exist).</text><text fill="#000000" font-family="sans-serif" font-size="13" lengthAdjust="spacing" textLength="327.5264" x="573.21" y="536.6094">Only a POSITIVELY-BEHIND verdict restores, and the</text><text fill="#000000" font-family="sans-serif" font-size="13" lengthAdjust="spacing" textLength="321.8833" x="573.21" y="551.9199">restore is identity-keyed: ONLY this upgrade's own</text><text fill="#000000" font-family="sans-serif" font-size="13" lengthAdjust="spacing" textLength="330.624" x="573.21" y="567.2305">recorded snapshot (flag.BackupPath / backup_path),</text><text fill="#000000" font-family="sans-serif" font-size="13" lengthAdjust="spacing" textLength="200.3701" x="573.21" y="582.541">serialized on the upgrade flock.</text></g><g class="entity" data-qualified-name="GMN31" data-source-line="52" id="ent0032"><path d="M490.03,713.2883 L490.03,799.841 L1011.0156,799.841 L1011.0156,723.2883 L1001.0156,713.2883 L490.03,713.2883" fill="#FEFFDD" style="stroke:#181818;stroke-width:0.5;"/><path d="M1001.0156,713.2883 L1001.0156,723.2883 L1011.0156,723.2883 L1001.0156,713.2883" fill="#FEFFDD" style="stroke:#181818;stroke-width:1;"/><text fill="#000000" font-family="sans-serif" font-size="13" lengthAdjust="spacing" textLength="456.4219" x="496.03" y="730.8566">chk_upgrade_state_attributes enforces the timestamp columns per state</text><text fill="#000000" font-family="sans-serif" font-size="13" lengthAdjust="spacing" textLength="444.3292" x="496.03" y="746.1672">(e.g. completed &#8658; completed_at NOT NULL, error NULL; rolled_back &#8658;</text><text fill="#000000" font-family="sans-serif" font-size="13" lengthAdjust="spacing" textLength="499.9856" x="496.03" y="761.4777">rolled_back_at + error NOT NULL; failed &#8658; error NOT NULL, no rolled_back_at).</text><text fill="#000000" font-family="sans-serif" font-size="13" lengthAdjust="spacing" textLength="378.0474" x="496.03" y="776.7883">rolled_back = snapshot restored, healthy at the old version.</text><text fill="#000000" font-family="sans-serif" font-size="13" lengthAdjust="spacing" textLength="339.6504" x="496.03" y="792.0988">failed = restore also failed, needs hands-on recovery.</text></g><!--link *start* to available--><g class="link" data-entity-1="ent0001" data-entity-2="ent0002" data-link-type="dependency" data-source-line="17" id="lnk3"><path d="M1005.52,63.8683 C1005.52,80.5983 1005.52,111.0883 1005.52,135.1183" fill="none" id="*start*-to-available" style="stroke:#1565C0;stroke-width:1;"/><polygon fill="#1565C0" points="1005.52,140.1183,1009.52,131.1183,1005.52,135.1183,1001.52,131.1183,1005.52,140.1183" style="stroke:#1565C0;stroke-width:1;stroke-linejoin:miter;stroke-miterlimit:10;"/><text fill="#000000" font-family="sans-serif" font-size="13" lengthAdjust="spacing" textLength="194.6318" x="1006.52" y="107.0566">service poll discovers a release</text></g><!--link available to scheduled--><g class="link" data-entity-1="ent0002" data-entity-2="ent0004" data-link-type="dependency" data-source-line="19" id="lnk5"><path d="M965.57,168.3583 C927.18,172.3683 870.32,184.4783 837.52,220.4883 C822.39,237.1083 818.5485,258.0015 817.8685,277.0415" fill="none" id="available-to-scheduled" style="stroke:#1565C0;stroke-width:1;"/><polygon fill="#1565C0" points="817.69,282.0383,822.0087,273.1868,817.8685,277.0415,814.0138,272.9012,817.69,282.0383" style="stroke:#1565C0;stroke-width:1;stroke-linejoin:miter;stroke-miterlimit:10;"/><text fill="#000000" font-family="sans-serif" font-size="13" lengthAdjust="spacing" textLength="140.2197" x="838.52" y="234.0566">operator/CI schedules</text><text fill="#000000" font-family="sans-serif" font-size="13" lengthAdjust="spacing" textLength="113.8706" x="851.6946" y="249.3672">(scheduled_at set)</text></g><!--link available to skipped--><g class="link" data-entity-1="ent0002" data-entity-2="ent0006" data-link-type="dependency" data-source-line="20" id="lnk7"><path d="M1045.53,184.4983 C1083.67,203.6183 1140.11,237.3283 1173.52,282.4883 C1191.1,306.2483 1198.66,334.7411 1202.54,357.2311" fill="none" id="available-to-skipped" style="stroke:#1565C0;stroke-width:1;"/><polygon fill="#1565C0" points="1203.39,362.1583,1205.8017,352.6093,1202.54,357.2311,1197.9181,353.9693,1203.39,362.1583" style="stroke:#1565C0;stroke-width:1;stroke-linejoin:miter;stroke-miterlimit:10;"/><text fill="#000000" font-family="sans-serif" font-size="13" lengthAdjust="spacing" textLength="90.981" x="1145.31" y="241.5566">operator skips</text></g><!--link available to superseded--><g class="link" data-entity-1="ent0002" data-entity-2="ent0008" data-link-type="dependency" data-source-line="21" id="lnk9"><path d="M1004.98,190.9683 C1004.39,223.3583 1003.74,282.2283 1005.52,332.4883 C1007.54,389.4383 1012.6403,451.1885 1015.8003,486.1785" fill="none" id="available-to-superseded" style="stroke:#1565C0;stroke-width:1;"/><polygon fill="#1565C0" points="1016.25,491.1583,1019.4243,481.835,1015.8003,486.1785,1011.4567,482.5545,1016.25,491.1583" style="stroke:#1565C0;stroke-width:1;stroke-linejoin:miter;stroke-miterlimit:10;"/><text fill="#000000" font-family="sans-serif" font-size="13" lengthAdjust="spacing" textLength="158.6533" x="1006.52" y="312.5566">newer release discovered</text></g><!--link scheduled to in_progress--><g class="link" data-entity-1="ent0004" data-entity-2="ent0010" data-link-type="dependency" data-source-line="23" id="lnk11"><path d="M773.64,324.8983 C669.44,362.9883 416.4561,455.4617 307.3261,495.3517" fill="none" id="scheduled-to-in_progress" style="stroke:#1565C0;stroke-width:1;"/><polygon fill="#1565C0" points="302.63,497.0683,312.4562,497.7354,307.3261,495.3517,309.7098,490.2216,302.63,497.0683" style="stroke:#1565C0;stroke-width:1;stroke-linejoin:miter;stroke-miterlimit:10;"/><text fill="#000000" font-family="sans-serif" font-size="13" lengthAdjust="spacing" textLength="87.8071" x="670.8848" y="385.0566">service claims</text><text fill="#000000" font-family="sans-serif" font-size="13" lengthAdjust="spacing" textLength="94.1167" x="667.73" y="400.3672">(started_at set)</text></g><!--link scheduled to superseded--><g class="link" data-entity-1="ent0004" data-entity-2="ent0008" data-link-type="dependency" data-source-line="24" id="lnk12"><path d="M809.68,332.7583 C802.98,355.8383 797.65,390.2383 815.52,412.4883 C854.29,460.7383 897.88,411.6083 951.52,442.4883 C972.23,454.4083 987.2087,470.8718 999.3187,487.0918" fill="none" id="scheduled-to-superseded" style="stroke:#1565C0;stroke-width:1;"/><polygon fill="#1565C0" points="1002.31,491.0983,1000.1309,481.4935,999.3187,487.0918,993.7205,486.2796,1002.31,491.0983" style="stroke:#1565C0;stroke-width:1;stroke-linejoin:miter;stroke-miterlimit:10;"/><text fill="#000000" font-family="sans-serif" font-size="13" lengthAdjust="spacing" textLength="162.0874" x="816.52" y="392.5566">newer release supersedes</text></g><!--link in_progress to completed--><g class="link" data-entity-1="ent0010" data-entity-2="ent0013" data-link-type="dependency" data-source-line="26" id="lnk14"><path d="M202.69,526.8383 C153.59,539.0883 81.19,565.7183 47.52,620.2883 C6,687.5883 49.2903,780.5522 74.9903,825.3122" fill="none" id="in_progress-to-completed" style="stroke:#1565C0;stroke-width:1;"/><polygon fill="#1565C0" points="77.48,829.6483,76.4675,819.8516,74.9903,825.3122,69.5297,823.8351,77.48,829.6483" style="stroke:#1565C0;stroke-width:1;stroke-linejoin:miter;stroke-miterlimit:10;"/><text fill="#000000" font-family="sans-serif" font-size="13" lengthAdjust="spacing" textLength="75.0483" x="107.0422" y="649.3566">all steps OK</text><text fill="#000000" font-family="sans-serif" font-size="13" lengthAdjust="spacing" textLength="192.0928" x="48.52" y="664.6672">(completed_at set, error NULL)</text></g><!--link in_progress to in_progress--><g class="link" data-entity-1="ent0010" data-entity-2="ent0010" data-link-type="dependency" data-source-line="27" id="lnk15"><path d="M302.54,492.2883 C321.52,491.3583 337.23,499.3983 337.23,516.3883 C337.23,533.3783 326.514,541.663 307.534,540.733" fill="none" id="in_progress-to-in_progress" style="stroke:#1565C0;stroke-width:1;"/><polygon fill="#1565C0" points="302.54,540.4883,311.3335,544.924,307.534,540.733,311.725,536.9335,302.54,540.4883" style="stroke:#1565C0;stroke-width:1;stroke-linejoin:miter;stroke-miterlimit:10;"/><text fill="#000000" font-family="sans-serif" font-size="13" lengthAdjust="spacing" textLength="151.0742" x="368.0366" y="498.4566">fail/death, ground truth</text><text fill="#000000" font-family="sans-serif" font-size="13" lengthAdjust="spacing" textLength="200.6875" x="343.23" y="513.7672">AT-TARGET or UNVERIFIABLE &#8594;</text><text fill="#000000" font-family="sans-serif" font-size="13" lengthAdjust="spacing" textLength="161.9731" x="362.5872" y="529.0777">FORWARD retry next pass</text><text fill="#000000" font-family="sans-serif" font-size="13" lengthAdjust="spacing" textLength="196.7964" x="345.1756" y="544.3883">(error stamped non-terminally)</text></g><!--link in_progress to rolled_back--><g class="link" data-entity-1="ent0010" data-entity-2="ent0016" data-link-type="dependency" data-source-line="28" id="lnk17"><path d="M302.58,525.9883 C353.33,537.6683 429.24,563.9383 464.52,620.2883 C479.38,644.0183 473.81,656.8683 464.52,683.2883 C458.17,701.3483 448.6061,714.5872 436.5361,727.4872" fill="none" id="in_progress-to-rolled_back" style="stroke:#1565C0;stroke-width:1;"/><polygon fill="#1565C0" points="433.12,731.1383,442.1899,727.2993,436.5361,727.4872,436.3482,721.8335,433.12,731.1383" style="stroke:#1565C0;stroke-width:1;stroke-linejoin:miter;stroke-miterlimit:10;"/><text fill="#000000" font-family="sans-serif" font-size="13" lengthAdjust="spacing" textLength="151.0742" x="474.69" y="633.8566">fail/death, ground truth</text><text fill="#000000" font-family="sans-serif" font-size="13" lengthAdjust="spacing" textLength="138.9629" x="480.7457" y="649.1672">POSITIVELY BEHIND &#8594;</text><text fill="#000000" font-family="sans-serif" font-size="13" lengthAdjust="spacing" textLength="144.6758" x="477.8892" y="664.4777">own snapshot restored</text><text fill="#000000" font-family="sans-serif" font-size="13" lengthAdjust="spacing" textLength="149.1064" x="475.6739" y="679.7883">(rolled_back_at + error)</text></g><!--link in_progress to failed--><g class="link" data-entity-1="ent0010" data-entity-2="ent0018" data-link-type="dependency" data-source-line="29" id="lnk19"><path d="M251.49,541.8483 C250.25,574.2083 248.48,633.0283 249.52,683.2883 C249.85,699.2283 250.351,712.154 251.021,726.154" fill="none" id="in_progress-to-failed" style="stroke:#1565C0;stroke-width:1;"/><polygon fill="#1565C0" points="251.26,731.1483,254.8252,721.9674,251.021,726.154,246.8344,722.3498,251.26,731.1483" style="stroke:#1565C0;stroke-width:1;stroke-linejoin:miter;stroke-miterlimit:10;"/><text fill="#000000" font-family="sans-serif" font-size="13" lengthAdjust="spacing" textLength="163.6489" x="273.5937" y="633.8566">behind AND restore failed</text><text fill="#000000" font-family="sans-serif" font-size="13" lengthAdjust="spacing" textLength="209.7964" x="250.52" y="649.1672">(or recorded snapshot missing &#8212;</text><text fill="#000000" font-family="sans-serif" font-size="13" lengthAdjust="spacing" textLength="208.9204" x="250.958" y="664.4777">never substitute another backup)</text><text fill="#000000" font-family="sans-serif" font-size="13" lengthAdjust="spacing" textLength="158.939" x="275.9487" y="679.7883">(error, no rolled_back_at)</text></g><!--link rolled_back to dismissed--><g class="link" data-entity-1="ent0016" data-entity-2="ent0020" data-link-type="dependency" data-source-line="43" id="lnk21"><path d="M411.18,781.6983 C417.65,815.2683 428.3636,870.7987 434.8636,904.5187" fill="none" id="rolled_back-to-dismissed" style="stroke:#1565C0;stroke-width:1;"/><polygon fill="#1565C0" points="435.81,909.4283,438.0342,899.8339,434.8636,904.5187,430.1788,901.3481,435.81,909.4283" style="stroke:#1565C0;stroke-width:1;stroke-linejoin:miter;stroke-miterlimit:10;"/><text fill="#000000" font-family="sans-serif" font-size="13" lengthAdjust="spacing" textLength="146.853" x="430.52" y="859.9066">operator acknowledges</text></g><!--link failed to dismissed--><g class="link" data-entity-1="ent0018" data-entity-2="ent0020" data-link-type="dependency" data-source-line="44" id="lnk22"><path d="M247.69,781.6283 C243.74,808.6283 241.97,852.2583 264.52,879.8383 C296.29,918.6883 350.3043,929.8102 391.1843,932.9102" fill="none" id="failed-to-dismissed" style="stroke:#1565C0;stroke-width:1;"/><polygon fill="#1565C0" points="396.17,933.2883,387.4982,928.6192,391.1843,932.9102,386.8933,936.5963,396.17,933.2883" style="stroke:#1565C0;stroke-width:1;stroke-linejoin:miter;stroke-miterlimit:10;"/><text fill="#000000" font-family="sans-serif" font-size="13" lengthAdjust="spacing" textLength="146.853" x="265.52" y="859.9066">operator acknowledges</text></g><!--link completed to *end*--><g class="link" data-entity-1="ent0013" data-entity-2="ent0023" data-link-type="dependency" data-source-line="46" id="lnk24"><path d="M138.3,875.8883 C194.17,899.5483 292.02,938.3683 379.52,959.8383 C582.98,1009.7683 834.7485,1026.6375 891.2185,1029.9275" fill="none" id="completed-to-*end*" style="stroke:#1565C0;stroke-width:1;"/><polygon fill="#1565C0" points="896.21,1030.2183,887.4579,1025.7016,891.2185,1029.9275,886.9926,1033.688,896.21,1030.2183" style="stroke:#1565C0;stroke-width:1;stroke-linejoin:miter;stroke-miterlimit:10;"/></g><!--link skipped to *end*--><g class="link" data-entity-1="ent0006" data-entity-2="ent0023" data-link-type="dependency" data-source-line="47" id="lnk25"><path d="M1202.82,412.6483 C1196.09,458.8083 1182.52,562.7583 1182.52,650.7883 C1182.52,650.7883 1182.52,650.7883 1182.52,935.8383 C1182.52,992.6683 975.0504,1022.3606 923.6004,1028.8706" fill="none" id="skipped-to-*end*" style="stroke:#1565C0;stroke-width:1;"/><polygon fill="#1565C0" points="918.64,1029.4983,928.0709,1032.3369,923.6004,1028.8706,927.0667,1024.4002,918.64,1029.4983" style="stroke:#1565C0;stroke-width:1;stroke-linejoin:miter;stroke-miterlimit:10;"/></g><!--link superseded to *end*--><g class="link" data-entity-1="ent0008" data-entity-2="ent0023" data-link-type="dependency" data-source-line="48" id="lnk26"><path d="M1023.77,541.6483 C1033.52,591.0883 1051.44,706.6883 1028.52,799.8383 C1005.16,894.7983 938.0645,989.9567 916.7345,1018.6267" fill="none" id="superseded-to-*end*" style="stroke:#1565C0;stroke-width:1;"/><polygon fill="#1565C0" points="913.75,1022.6383,922.3314,1017.8051,916.7345,1018.6267,915.9129,1013.0299,913.75,1022.6383" style="stroke:#1565C0;stroke-width:1;stroke-linejoin:miter;stroke-miterlimit:10;"/></g><!--link dismissed to *end*--><g class="link" data-entity-1="ent0020" data-entity-2="ent0023" data-link-type="dependency" data-source-line="49" id="lnk27"><path d="M484.88,944.8583 C588.47,965.9383 836.8203,1016.4516 891.9303,1027.6616" fill="none" id="dismissed-to-*end*" style="stroke:#1565C0;stroke-width:1;"/><polygon fill="#1565C0" points="896.83,1028.6583,888.8079,1022.9446,891.9303,1027.6616,887.2133,1030.784,896.83,1028.6583" style="stroke:#1565C0;stroke-width:1;stroke-linejoin:miter;stroke-miterlimit:10;"/></g><!--link in_progress to GMN28--><g class="link" data-entity-1="ent0010" data-entity-2="ent0029" data-link-type="association" data-source-line="32" id="lnk30"><path d="M302.61,516.3883 C390.68,516.3883 478.74,516.3883 566.81,516.3883" fill="none" id="in_progress-GMN28" style="stroke:#1565C0;stroke-width:1;stroke-dasharray:7,7;"/></g><!--link GMN28 to GMN31--><g class="link" data-entity-1="ent0029" data-entity-2="ent0032" data-link-type="association" data-source-line="52" id="lnk33"><path d="M750.52,590.4683 C750.52,630.6683 750.52,679.1383 750.52,713.1283" fill="none" id="GMN28-GMN31" style="stroke:#1565C0;stroke-width:1;stroke-dasharray:7,7;"/></g><?plantuml-src ZLRBRkCs5DthAoxGHUpMajCPJ8iwQ04diMUC2Un1uanHD8L1IRH5M285ahBZ5WMwQlU3_aF_ev-IB-cX9CkoCmYQB0oHzt5uxxc7FADXOHEbXMLMR3WP_7AA1Ljfbj5IQOfLr2zoVCRSjoBZgP0yo6Bwzn-whvUrsb8gbZpQHIaFl3EwSr4CCSt99fpo8an55DHHWYe7bqL6dNfjKQvrBqfpbmNVMOv8GcwO5anQGpdNDJmNbqk0YtXCuOwYPBqu2hHWrceH5Wx4qnz_a-4SiTn9uh1lMPZoVeLfxuO31VIUyxm2m7Kc94lzAfra-5e12fcTZ6WhR89epb3pI6su1W8bhMQH7P1MQShZHSYYDNqF0sEL1ie-9PobDjaHiwJIcE1cX98zH5eo0PU3DR7KgFrgdoJdiQ64oTZuIWQUMGkPCzSUbsIbLI7ZAvMYLL-CH-w_PL4Tu3UFy7UfTCnrRVdrcs_UN9rNwwTHHg_7hyRNvTvGexVFNSOuxdxr_DNvgs-ztptF2fkUzfgEg57s8XQcAbgF-2EF2kkgK9xMNp9Zc-8Rp_lvor_8ztyWji6kwneDq4gz4H7oeCvDB50DnKivCzpp3jRErqG9ZmjNoG4fK8YXmlshIRDk7cIdiG5laC1sJsEiHPuVHIYNpAbPWLt3uz9IyYtuMeDgWFBOymw8d9EGYroh5LflMgUBKYQo4ffbshQ07Jk_aB7PGXtREPnRfB8yvRRqOYYZiJmtD7kFVCrMdH5D0WKqJUzlRhhF0Xs3TptinvpPf4SLeSXggCk37Cxz-V3sxMXE27K__JYwdOmdmykR4Jtz-Ub1ZcUtFmvlhu7TOfOaVxIKC-EENoKlnG1efPB-dXxfxZcSzkoz1EV3x6uodtmStVn4bwDta-br1KDjCU6IvIPHjfbSW6Y5TLNvgYh9y_Jrn0uev8b0jk7qkXdfQW_1b2vLGxkUDSaoOOoJ6Cp7WvHyuvIk20qcgd1o9nN4HfVZNkJTVLbwg0STO-jw7cmnTMALG6QMxGPXSD-sga0nZmJO0Me2Znj2wjpDX_FB-pl__FLttG7iGnHQEyNobVPX6t4PGufTOD1onLqjCe51T-ukGMMPkp56gq3wDMNiaPx--aHrZtiWt9RjAbbcI8w9S7wMPxabON0c_6IvGa52aGgxkw2g88quoYfHZI1KZzI1kVL1tKnOFrS24BUuqN2uZEsWCiBORW2lcKnn6Zgqtw_RZ_YnY9gc6w1qTKeudFPvWGtrakZ9pb_p7Oy7D9k2GJR1JYrtPuP0ejBfjCMTPSfMmMNPmW_W98IzwkSYnrUt1oSCls2f-1Lkw8QxN_OgkanLj0uybD_L1nhNPhgZ7ahjE7IiKTW4fs6tWWZKvFn_njv18Pm3TDZRQs3pVP2U_T8XxdwbOcEeh5KP3lZYFLrVwERu2G2jIejCjcv_nEdmO1MqLCpnwqYufhDvgLXjzReuaWUuk3PzTh8RzulzIBi4nrkV6xxWE28kz6Tgqci_0zn1Mqy1v_xIKw1tyX9eNXyjOlm7?></g></svg>