<svg xmlns="http://www.w3.org/2000/svg" xmlns:xlink="http://www.w3.org/1999/xlink" contentStyleType="text/css" data-diagram-type="STATE" height="1157px" preserveAspectRatio="none" style="width:1258px;height:1157px;background:#FEFEFE;" version="1.1" viewBox="0 0 1258 1157" width="1258px" zoomAndPan="magnify"><?plantuml 1.2026.5?><defs/><g><rect fill="#FEFEFE" height="1157" style="stroke:none;stroke-width:1;" width="1258" x="0" y="0"/><g class="title" data-source-line="15"><text fill="#000000" font-family="sans-serif" font-size="14" font-weight="700" lengthAdjust="spacing" textLength="513.9053" x="368.7077" y="23.5352">public.upgrade row lifecycle &#8212; discovery, execution, fail-fast terminals</text></g><g class="legend" data-source-line="17"><rect fill="none" height="75.9531" rx="7.5" ry="7.5" style="stroke:#000000;stroke-width:1;" width="632.2891" x="309.5158" y="49.4883"/><text fill="#000000" font-family="sans-serif" font-size="14" lengthAdjust="spacing" textLength="615.0635" x="314.5158" y="68.0234">The only way to know these paths actually work is to RUN them &#8212; the problem is too hard</text><text fill="#000000" font-family="sans-serif" font-size="14" lengthAdjust="spacing" textLength="622.2891" x="314.5158" y="84.5117">to reason out. commit -&gt; push -&gt; CI builds the per-commit image -&gt; run on a real VM -&gt;</text><text fill="#000000" font-family="sans-serif" font-size="14" lengthAdjust="spacing" textLength="590.2969" x="314.5158" y="101">observe -&gt; iterate. This diagram is the map (each case + its TEST coverage); the run is</text><text fill="#000000" font-family="sans-serif" font-size="14" lengthAdjust="spacing" textLength="340.9766" x="314.5158" y="117.4883">the territory. See doc/install-upgrade-testing.md.</text></g><g class="start_entity" data-qualified-name=".start." data-source-line="24" id="ent0001"><ellipse cx="1005.52" cy="154.4414" fill="#222222" rx="10" ry="10" style="stroke:#222222;stroke-width:1;"/></g><g class="entity" data-qualified-name="available" data-source-line="24" id="ent0002"><rect fill="#E3F2FD" height="50" rx="12.5" ry="12.5" style="stroke:#1565C0;stroke-width:0.5;" width="79.1924" x="965.93" y="241.4414"/><line style="stroke:#1565C0;stroke-width:0.5;" x1="965.93" x2="1045.1224" y1="267.9297" y2="267.9297"/><text fill="#102027" font-family="sans-serif" font-size="14" lengthAdjust="spacing" textLength="59.1924" x="975.93" y="259.9766">available</text></g><g class="entity" data-qualified-name="scheduled" data-source-line="26" id="ent0004"><rect fill="#E3F2FD" height="50" rx="12.5" ry="12.5" style="stroke:#1565C0;stroke-width:0.5;" width="88.9541" x="774.05" y="383.4414"/><line style="stroke:#1565C0;stroke-width:0.5;" x1="774.05" x2="863.0041" y1="409.9297" y2="409.9297"/><text fill="#102027" font-family="sans-serif" font-size="14" lengthAdjust="spacing" textLength="68.9541" x="784.05" y="401.9766">scheduled</text></g><g class="entity" data-qualified-name="skipped" data-source-line="27" id="ent0006"><rect fill="#E3F2FD" height="50" rx="12.5" ry="12.5" style="stroke:#1565C0;stroke-width:0.5;" width="73.6006" x="1169.72" y="463.4414"/><line style="stroke:#1565C0;stroke-width:0.5;" x1="1169.72" x2="1243.3206" y1="489.9297" y2="489.9297"/><text fill="#102027" font-family="sans-serif" font-size="14" lengthAdjust="spacing" textLength="53.6006" x="1179.72" y="481.9766">skipped</text></g><g class="entity" data-qualified-name="superseded" data-source-line="28" id="ent0008"><rect fill="#E3F2FD" height="50" rx="12.5" ry="12.5" style="stroke:#1565C0;stroke-width:0.5;" width="98.5244" x="969.26" y="592.3414"/><line style="stroke:#1565C0;stroke-width:0.5;" x1="969.26" x2="1067.7844" y1="618.8297" y2="618.8297"/><text fill="#102027" font-family="sans-serif" font-size="14" lengthAdjust="spacing" textLength="78.5244" x="979.26" y="610.8766">superseded</text></g><g class="entity" data-qualified-name="in_progress" data-source-line="30" id="ent0010"><rect fill="#E3F2FD" height="50" rx="12.5" ry="12.5" style="stroke:#1565C0;stroke-width:0.5;" width="99.4063" x="202.82" y="592.3414"/><line style="stroke:#1565C0;stroke-width:0.5;" x1="202.82" x2="302.2263" y1="618.8297" y2="618.8297"/><text fill="#102027" font-family="sans-serif" font-size="14" lengthAdjust="spacing" textLength="79.4063" x="212.82" y="610.8766">in_progress</text></g><g class="entity" data-qualified-name="completed" data-source-line="33" id="ent0013"><rect fill="#E3F2FD" height="50" rx="12.5" ry="12.5" style="stroke:#1565C0;stroke-width:0.5;" width="91.3467" x="46.85" y="930.7914"/><line style="stroke:#1565C0;stroke-width:0.5;" x1="46.85" x2="138.1967" y1="957.2797" y2="957.2797"/><text fill="#102027" font-family="sans-serif" font-size="14" lengthAdjust="spacing" textLength="71.3467" x="56.85" y="949.3266">completed</text></g><g class="entity" data-qualified-name="rolled_back" data-source-line="35" id="ent0016"><rect fill="#E3F2FD" height="50" rx="12.5" ry="12.5" style="stroke:#1565C0;stroke-width:0.5;" width="97.9297" x="357.56" y="832.5114"/><line style="stroke:#1565C0;stroke-width:0.5;" x1="357.56" x2="455.4897" y1="858.9997" y2="858.9997"/><text fill="#102027" font-family="sans-serif" font-size="14" lengthAdjust="spacing" textLength="77.9297" x="367.56" y="851.0466">rolled_back</text></g><g class="entity" data-qualified-name="failed" data-source-line="36" id="ent0018"><rect fill="#E3F2FD" height="50" rx="12.5" ry="12.5" style="stroke:#1565C0;stroke-width:0.5;" width="57.584" x="223.73" y="832.5114"/><line style="stroke:#1565C0;stroke-width:0.5;" x1="223.73" x2="281.314" y1="858.9997" y2="858.9997"/><text fill="#102027" font-family="sans-serif" font-size="14" lengthAdjust="spacing" textLength="37.584" x="233.73" y="851.0466">failed</text></g><g class="entity" data-qualified-name="dismissed" data-source-line="50" id="ent0020"><rect fill="#E3F2FD" height="50" rx="12.5" ry="12.5" style="stroke:#1565C0;stroke-width:0.5;" width="87.9971" x="396.52" y="1010.7914"/><line style="stroke:#1565C0;stroke-width:0.5;" x1="396.52" x2="484.5171" y1="1037.2797" y2="1037.2797"/><text fill="#102027" font-family="sans-serif" font-size="14" lengthAdjust="spacing" textLength="67.9971" x="406.52" y="1029.3266">dismissed</text></g><g class="end_entity" data-qualified-name=".end." data-source-line="53" id="ent0023"><ellipse cx="907.52" cy="1132.7914" fill="none" rx="11" ry="11" style="stroke:#222222;stroke-width:1;"/><ellipse cx="907.52" cy="1132.7914" fill="#222222" rx="6" ry="6" style="stroke:#222222;stroke-width:1;"/></g><g class="entity" data-qualified-name="GMN28" data-source-line="39" id="ent0029"><path d="M567.21,543.4414 L567.21,691.2363 L933.8397,691.2363 L933.8397,553.4414 L923.8397,543.4414 L567.21,543.4414" fill="#FEFFDD" style="stroke:#181818;stroke-width:0.5;"/><path d="M923.8397,543.4414 L923.8397,553.4414 L933.8397,553.4414 L923.8397,543.4414" fill="#FEFFDD" style="stroke:#181818;stroke-width:1;"/><text fill="#000000" font-family="sans-serif" font-size="13" lengthAdjust="spacing" textLength="299.0254" x="573.21" y="561.0098">Ground truth decides direction (STATBUS-039):</text><text fill="#000000" font-family="sans-serif" font-size="13" lengthAdjust="spacing" textLength="301.0376" x="573.21" y="576.3203">binary at-or-descendant of target + migrations</text><text fill="#000000" font-family="sans-serif" font-size="13" lengthAdjust="spacing" textLength="345.6297" x="573.21" y="591.6309">at-or-past on-disk max &#8658; FORWARD, always &#8212; a died</text><text fill="#000000" font-family="sans-serif" font-size="13" lengthAdjust="spacing" textLength="284.0513" x="573.21" y="606.9414">attempt is not impossibility; never restore an</text><text fill="#000000" font-family="sans-serif" font-size="13" lengthAdjust="spacing" textLength="331.8999" x="573.21" y="622.252">at-target box (post-commit-point writes may exist).</text><text fill="#000000" font-family="sans-serif" font-size="13" lengthAdjust="spacing" textLength="327.5264" x="573.21" y="637.5625">Only a POSITIVELY-BEHIND verdict restores, and the</text><text fill="#000000" font-family="sans-serif" font-size="13" lengthAdjust="spacing" textLength="321.8833" x="573.21" y="652.873">restore is identity-keyed: ONLY this upgrade's own</text><text fill="#000000" font-family="sans-serif" font-size="13" lengthAdjust="spacing" textLength="330.624" x="573.21" y="668.1836">recorded snapshot (flag.BackupPath / backup_path),</text><text fill="#000000" font-family="sans-serif" font-size="13" lengthAdjust="spacing" textLength="200.3701" x="573.21" y="683.4941">serialized on the upgrade flock.</text></g><g class="entity" data-qualified-name="GMN31" data-source-line="59" id="ent0032"><path d="M490.03,814.2414 L490.03,900.7941 L1011.0156,900.7941 L1011.0156,824.2414 L1001.0156,814.2414 L490.03,814.2414" fill="#FEFFDD" style="stroke:#181818;stroke-width:0.5;"/><path d="M1001.0156,814.2414 L1001.0156,824.2414 L1011.0156,824.2414 L1001.0156,814.2414" fill="#FEFFDD" style="stroke:#181818;stroke-width:1;"/><text fill="#000000" font-family="sans-serif" font-size="13" lengthAdjust="spacing" textLength="456.4219" x="496.03" y="831.8098">chk_upgrade_state_attributes enforces the timestamp columns per state</text><text fill="#000000" font-family="sans-serif" font-size="13" lengthAdjust="spacing" textLength="444.3292" x="496.03" y="847.1203">(e.g. completed &#8658; completed_at NOT NULL, error NULL; rolled_back &#8658;</text><text fill="#000000" font-family="sans-serif" font-size="13" lengthAdjust="spacing" textLength="499.9856" x="496.03" y="862.4309">rolled_back_at + error NOT NULL; failed &#8658; error NOT NULL, no rolled_back_at).</text><text fill="#000000" font-family="sans-serif" font-size="13" lengthAdjust="spacing" textLength="378.0474" x="496.03" y="877.7414">rolled_back = snapshot restored, healthy at the old version.</text><text fill="#000000" font-family="sans-serif" font-size="13" lengthAdjust="spacing" textLength="339.6504" x="496.03" y="893.052">failed = restore also failed, needs hands-on recovery.</text></g><!--link *start* to available--><g class="link" data-entity-1="ent0001" data-entity-2="ent0002" data-link-type="dependency" data-source-line="24" id="lnk3"><path d="M1005.52,164.8214 C1005.52,181.5514 1005.52,212.0414 1005.52,236.0714" fill="none" id="*start*-to-available" style="stroke:#1565C0;stroke-width:1;"/><polygon fill="#1565C0" points="1005.52,241.0714,1009.52,232.0714,1005.52,236.0714,1001.52,232.0714,1005.52,241.0714" style="stroke:#1565C0;stroke-width:1;stroke-linejoin:miter;stroke-miterlimit:10;"/><text fill="#000000" font-family="sans-serif" font-size="13" lengthAdjust="spacing" textLength="194.6318" x="1006.52" y="208.0098">service poll discovers a release</text></g><!--link available to scheduled--><g class="link" data-entity-1="ent0002" data-entity-2="ent0004" data-link-type="dependency" data-source-line="26" id="lnk5"><path d="M965.57,269.3114 C927.18,273.3214 870.32,285.4314 837.52,321.4414 C822.39,338.0614 818.5485,358.9546 817.8685,377.9946" fill="none" id="available-to-scheduled" style="stroke:#1565C0;stroke-width:1;"/><polygon fill="#1565C0" points="817.69,382.9914,822.0087,374.1399,817.8685,377.9946,814.0138,373.8544,817.69,382.9914" style="stroke:#1565C0;stroke-width:1;stroke-linejoin:miter;stroke-miterlimit:10;"/><text fill="#000000" font-family="sans-serif" font-size="13" lengthAdjust="spacing" textLength="140.2197" x="838.52" y="335.0098">operator/CI schedules</text><text fill="#000000" font-family="sans-serif" font-size="13" lengthAdjust="spacing" textLength="113.8706" x="851.6946" y="350.3203">(scheduled_at set)</text></g><!--link available to skipped--><g class="link" data-entity-1="ent0002" data-entity-2="ent0006" data-link-type="dependency" data-source-line="27" id="lnk7"><path d="M1045.53,285.4514 C1083.67,304.5714 1140.11,338.2814 1173.52,383.4414 C1191.1,407.2014 1198.66,435.6942 1202.54,458.1842" fill="none" id="available-to-skipped" style="stroke:#1565C0;stroke-width:1;"/><polygon fill="#1565C0" points="1203.39,463.1114,1205.8017,453.5624,1202.54,458.1842,1197.9181,454.9225,1203.39,463.1114" style="stroke:#1565C0;stroke-width:1;stroke-linejoin:miter;stroke-miterlimit:10;"/><text fill="#000000" font-family="sans-serif" font-size="13" lengthAdjust="spacing" textLength="90.981" x="1145.31" y="342.5098">operator skips</text></g><!--link available to superseded--><g class="link" data-entity-1="ent0002" data-entity-2="ent0008" data-link-type="dependency" data-source-line="28" id="lnk9"><path d="M1004.98,291.9214 C1004.39,324.3114 1003.74,383.1814 1005.52,433.4414 C1007.54,490.3914 1012.6403,552.1417 1015.8003,587.1317" fill="none" id="available-to-superseded" style="stroke:#1565C0;stroke-width:1;"/><polygon fill="#1565C0" points="1016.25,592.1114,1019.4243,582.7881,1015.8003,587.1317,1011.4567,583.5077,1016.25,592.1114" style="stroke:#1565C0;stroke-width:1;stroke-linejoin:miter;stroke-miterlimit:10;"/><text fill="#000000" font-family="sans-serif" font-size="13" lengthAdjust="spacing" textLength="158.6533" x="1006.52" y="413.5098">newer release discovered</text></g><!--link scheduled to in_progress--><g class="link" data-entity-1="ent0004" data-entity-2="ent0010" data-link-type="dependency" data-source-line="30" id="lnk11"><path d="M773.64,425.8514 C669.44,463.9414 416.4561,556.4149 307.3261,596.3049" fill="none" id="scheduled-to-in_progress" style="stroke:#1565C0;stroke-width:1;"/><polygon fill="#1565C0" points="302.63,598.0214,312.4562,598.6885,307.3261,596.3049,309.7098,591.1747,302.63,598.0214" style="stroke:#1565C0;stroke-width:1;stroke-linejoin:miter;stroke-miterlimit:10;"/><text fill="#000000" font-family="sans-serif" font-size="13" lengthAdjust="spacing" textLength="87.8071" x="670.8848" y="486.0098">service claims</text><text fill="#000000" font-family="sans-serif" font-size="13" lengthAdjust="spacing" textLength="94.1167" x="667.73" y="501.3203">(started_at set)</text></g><!--link scheduled to superseded--><g class="link" data-entity-1="ent0004" data-entity-2="ent0008" data-link-type="dependency" data-source-line="31" id="lnk12"><path d="M809.68,433.7114 C802.98,456.7914 797.65,491.1914 815.52,513.4414 C854.29,561.6914 897.88,512.5614 951.52,543.4414 C972.23,555.3614 987.2087,571.8249 999.3187,588.0449" fill="none" id="scheduled-to-superseded" style="stroke:#1565C0;stroke-width:1;"/><polygon fill="#1565C0" points="1002.31,592.0514,1000.1309,582.4466,999.3187,588.0449,993.7205,587.2327,1002.31,592.0514" style="stroke:#1565C0;stroke-width:1;stroke-linejoin:miter;stroke-miterlimit:10;"/><text fill="#000000" font-family="sans-serif" font-size="13" lengthAdjust="spacing" textLength="162.0874" x="816.52" y="493.5098">newer release supersedes</text></g><!--link in_progress to completed--><g class="link" data-entity-1="ent0010" data-entity-2="ent0013" data-link-type="dependency" data-source-line="33" id="lnk14"><path d="M202.69,627.7914 C153.59,640.0414 81.19,666.6714 47.52,721.2414 C6,788.5414 49.2903,881.5053 74.9903,926.2653" fill="none" id="in_progress-to-completed" style="stroke:#1565C0;stroke-width:1;"/><polygon fill="#1565C0" points="77.48,930.6014,76.4675,920.8047,74.9903,926.2653,69.5297,924.7882,77.48,930.6014" style="stroke:#1565C0;stroke-width:1;stroke-linejoin:miter;stroke-miterlimit:10;"/><text fill="#000000" font-family="sans-serif" font-size="13" lengthAdjust="spacing" textLength="75.0483" x="107.0422" y="750.3098">all steps OK</text><text fill="#000000" font-family="sans-serif" font-size="13" lengthAdjust="spacing" textLength="192.0928" x="48.52" y="765.6203">(completed_at set, error NULL)</text></g><!--link in_progress to in_progress--><g class="link" data-entity-1="ent0010" data-entity-2="ent0010" data-link-type="dependency" data-source-line="34" id="lnk15"><path d="M302.54,593.2414 C321.52,592.3114 337.23,600.3514 337.23,617.3414 C337.23,634.3314 326.514,642.6161 307.534,641.6861" fill="none" id="in_progress-to-in_progress" style="stroke:#1565C0;stroke-width:1;"/><polygon fill="#1565C0" points="302.54,641.4414,311.3335,645.8771,307.534,641.6861,311.725,637.8867,302.54,641.4414" style="stroke:#1565C0;stroke-width:1;stroke-linejoin:miter;stroke-miterlimit:10;"/><text fill="#000000" font-family="sans-serif" font-size="13" lengthAdjust="spacing" textLength="151.0742" x="368.0366" y="599.4098">fail/death, ground truth</text><text fill="#000000" font-family="sans-serif" font-size="13" lengthAdjust="spacing" textLength="200.6875" x="343.23" y="614.7203">AT-TARGET or UNVERIFIABLE &#8594;</text><text fill="#000000" font-family="sans-serif" font-size="13" lengthAdjust="spacing" textLength="161.9731" x="362.5872" y="630.0309">FORWARD retry next pass</text><text fill="#000000" font-family="sans-serif" font-size="13" lengthAdjust="spacing" textLength="196.7964" x="345.1756" y="645.3414">(error stamped non-terminally)</text></g><!--link in_progress to rolled_back--><g class="link" data-entity-1="ent0010" data-entity-2="ent0016" data-link-type="dependency" data-source-line="35" id="lnk17"><path d="M302.58,626.9414 C353.33,638.6214 429.24,664.8914 464.52,721.2414 C479.38,744.9714 473.81,757.8214 464.52,784.2414 C458.17,802.3014 448.6061,815.5404 436.5361,828.4404" fill="none" id="in_progress-to-rolled_back" style="stroke:#1565C0;stroke-width:1;"/><polygon fill="#1565C0" points="433.12,832.0914,442.1899,828.2524,436.5361,828.4404,436.3482,822.7866,433.12,832.0914" style="stroke:#1565C0;stroke-width:1;stroke-linejoin:miter;stroke-miterlimit:10;"/><text fill="#000000" font-family="sans-serif" font-size="13" lengthAdjust="spacing" textLength="151.0742" x="474.69" y="734.8098">fail/death, ground truth</text><text fill="#000000" font-family="sans-serif" font-size="13" lengthAdjust="spacing" textLength="138.9629" x="480.7457" y="750.1203">POSITIVELY BEHIND &#8594;</text><text fill="#000000" font-family="sans-serif" font-size="13" lengthAdjust="spacing" textLength="144.6758" x="477.8892" y="765.4309">own snapshot restored</text><text fill="#000000" font-family="sans-serif" font-size="13" lengthAdjust="spacing" textLength="149.1064" x="475.6739" y="780.7414">(rolled_back_at + error)</text></g><!--link in_progress to failed--><g class="link" data-entity-1="ent0010" data-entity-2="ent0018" data-link-type="dependency" data-source-line="36" id="lnk19"><path d="M251.49,642.8014 C250.25,675.1614 248.48,733.9814 249.52,784.2414 C249.85,800.1814 250.351,813.1071 251.021,827.1071" fill="none" id="in_progress-to-failed" style="stroke:#1565C0;stroke-width:1;"/><polygon fill="#1565C0" points="251.26,832.1014,254.8252,822.9205,251.021,827.1071,246.8344,823.3029,251.26,832.1014" style="stroke:#1565C0;stroke-width:1;stroke-linejoin:miter;stroke-miterlimit:10;"/><text fill="#000000" font-family="sans-serif" font-size="13" lengthAdjust="spacing" textLength="163.6489" x="273.5937" y="734.8098">behind AND restore failed</text><text fill="#000000" font-family="sans-serif" font-size="13" lengthAdjust="spacing" textLength="209.7964" x="250.52" y="750.1203">(or recorded snapshot missing &#8212;</text><text fill="#000000" font-family="sans-serif" font-size="13" lengthAdjust="spacing" textLength="208.9204" x="250.958" y="765.4309">never substitute another backup)</text><text fill="#000000" font-family="sans-serif" font-size="13" lengthAdjust="spacing" textLength="158.939" x="275.9487" y="780.7414">(error, no rolled_back_at)</text></g><!--link rolled_back to dismissed--><g class="link" data-entity-1="ent0016" data-entity-2="ent0020" data-link-type="dependency" data-source-line="50" id="lnk21"><path d="M411.18,882.6514 C417.65,916.2214 428.3636,971.7518 434.8636,1005.4718" fill="none" id="rolled_back-to-dismissed" style="stroke:#1565C0;stroke-width:1;"/><polygon fill="#1565C0" points="435.81,1010.3814,438.0342,1000.787,434.8636,1005.4718,430.1788,1002.3012,435.81,1010.3814" style="stroke:#1565C0;stroke-width:1;stroke-linejoin:miter;stroke-miterlimit:10;"/><text fill="#000000" font-family="sans-serif" font-size="13" lengthAdjust="spacing" textLength="146.853" x="430.52" y="960.8598">operator acknowledges</text></g><!--link failed to dismissed--><g class="link" data-entity-1="ent0018" data-entity-2="ent0020" data-link-type="dependency" data-source-line="51" id="lnk22"><path d="M247.69,882.5814 C243.74,909.5814 241.97,953.2114 264.52,980.7914 C296.29,1019.6414 350.3043,1030.7633 391.1843,1033.8633" fill="none" id="failed-to-dismissed" style="stroke:#1565C0;stroke-width:1;"/><polygon fill="#1565C0" points="396.17,1034.2414,387.4982,1029.5723,391.1843,1033.8633,386.8933,1037.5494,396.17,1034.2414" style="stroke:#1565C0;stroke-width:1;stroke-linejoin:miter;stroke-miterlimit:10;"/><text fill="#000000" font-family="sans-serif" font-size="13" lengthAdjust="spacing" textLength="146.853" x="265.52" y="960.8598">operator acknowledges</text></g><!--link completed to *end*--><g class="link" data-entity-1="ent0013" data-entity-2="ent0023" data-link-type="dependency" data-source-line="53" id="lnk24"><path d="M138.3,976.8414 C194.17,1000.5014 292.02,1039.3214 379.52,1060.7914 C582.98,1110.7214 834.7485,1127.5906 891.2185,1130.8806" fill="none" id="completed-to-*end*" style="stroke:#1565C0;stroke-width:1;"/><polygon fill="#1565C0" points="896.21,1131.1714,887.4579,1126.6547,891.2185,1130.8806,886.9926,1134.6412,896.21,1131.1714" style="stroke:#1565C0;stroke-width:1;stroke-linejoin:miter;stroke-miterlimit:10;"/></g><!--link skipped to *end*--><g class="link" data-entity-1="ent0006" data-entity-2="ent0023" data-link-type="dependency" data-source-line="54" id="lnk25"><path d="M1202.82,513.6014 C1196.09,559.7614 1182.52,663.7114 1182.52,751.7414 C1182.52,751.7414 1182.52,751.7414 1182.52,1036.7914 C1182.52,1093.6214 975.0504,1123.3138 923.6004,1129.8238" fill="none" id="skipped-to-*end*" style="stroke:#1565C0;stroke-width:1;"/><polygon fill="#1565C0" points="918.64,1130.4514,928.0709,1133.29,923.6004,1129.8238,927.0667,1125.3533,918.64,1130.4514" style="stroke:#1565C0;stroke-width:1;stroke-linejoin:miter;stroke-miterlimit:10;"/></g><!--link superseded to *end*--><g class="link" data-entity-1="ent0008" data-entity-2="ent0023" data-link-type="dependency" data-source-line="55" id="lnk26"><path d="M1023.77,642.6014 C1033.52,692.0414 1051.44,807.6414 1028.52,900.7914 C1005.16,995.7514 938.0645,1090.9099 916.7345,1119.5799" fill="none" id="superseded-to-*end*" style="stroke:#1565C0;stroke-width:1;"/><polygon fill="#1565C0" points="913.75,1123.5914,922.3314,1118.7582,916.7345,1119.5799,915.9129,1113.983,913.75,1123.5914" style="stroke:#1565C0;stroke-width:1;stroke-linejoin:miter;stroke-miterlimit:10;"/></g><!--link dismissed to *end*--><g class="link" data-entity-1="ent0020" data-entity-2="ent0023" data-link-type="dependency" data-source-line="56" id="lnk27"><path d="M484.88,1045.8114 C588.47,1066.8914 836.8203,1117.4048 891.9303,1128.6148" fill="none" id="dismissed-to-*end*" style="stroke:#1565C0;stroke-width:1;"/><polygon fill="#1565C0" points="896.83,1129.6114,888.8079,1123.8977,891.9303,1128.6148,887.2133,1131.7372,896.83,1129.6114" style="stroke:#1565C0;stroke-width:1;stroke-linejoin:miter;stroke-miterlimit:10;"/></g><!--link in_progress to GMN28--><g class="link" data-entity-1="ent0010" data-entity-2="ent0029" data-link-type="association" data-source-line="39" id="lnk30"><path d="M302.61,617.3414 C390.68,617.3414 478.74,617.3414 566.81,617.3414" fill="none" id="in_progress-GMN28" style="stroke:#1565C0;stroke-width:1;stroke-dasharray:7,7;"/></g><!--link GMN28 to GMN31--><g class="link" data-entity-1="ent0029" data-entity-2="ent0032" data-link-type="association" data-source-line="59" id="lnk33"><path d="M750.52,691.4214 C750.52,731.6214 750.52,780.0914 750.52,814.0814" fill="none" id="GMN28-GMN31" style="stroke:#1565C0;stroke-width:1;stroke-dasharray:7,7;"/></g><?plantuml-src ZLRTRjis5BxNKnnW5xLNIyvQTCCIR83JE6tGp2aIfyEm304jdLY4AL8WgIJUC61NstsnTzXxx57w9FieoRAS5C6I2qE7v_zyvoEVqQJokR7I2ozlcHn-cJ8fbbOKT6CiPIOTLoK-CuwzB5X9pKcHqR__q6KhjkQEbBpXT9qgJg9dT16yE1AMoUTCPRLGCarQBqaJWtLLqA2LNTUouK6j7gBWkoZXIUfROQNGtb79jaql-6MDv5BEQB6cD5zTxpYw5jvRkQX24f_--9iSCto5IhB5s8k5ud6JqyOC1INqZhbi4c1RI2rKt8JJ0bzBf49khLEwapw7jw1eEJMtR961qTwArE-JDKfnThqGwOg-WuBpnYBBCUKibC_N93mPbH7Cd3Hw14ytGi9agqr2EREHZaapPuvoeJCN6vr4RYLrAS9uGf2bDPNENXk5KNrnF0t_FOscWDyYmj-XiHdRLlEhLr-_UhtNo1zwcRuyVd5yL9zDB6RxsEGOvMwaUo_sNdmJ_Hv5NdhrSDQq0urw5fbqJTD6nFUSLZvqeQuslX7ETyrtKQHuoJeZRyfeZcuRhTPq9zOGq4h3CKRW457u75XBVILKK31sHT85fVFBMT0fwhWr4At1x8lcsA2dDekWPraueybKFi4aYq9wYhz79IuFlwzFQ559XHdKBjZ6hOuin9A3XgrWh4a4Hue-_01PP1QExMrzB54Inf3GF4VWpMx9nbyXIXgmI7DA1Ofv3cr7y-d5dEek8KAx5I68T56BJooiiUk4BfXhN4kDKIiLTviAA06q0TSHUjXqCef-_l8NYf6Ik4M_mnxGFeKyPOhAWDnkEgwkHg4n74LRxM3hqfopAc1pdqmPIZDsZ2PjvEvA3peTR282-E537ojPbZiUQf5xg5RXr75MQsg-0mEqINM9CghQPXICfBx6d9TO9jUhBbL25dLgNbZVIspN-8c8tH6GsOyHp828Kh6lhJ06x1sNZixU8Lvtr4O4xB5KbcQNfwV3HuvsamzRCSuO01zHiwBaBVZwIa_cyNno_cOw9xYwd7sOdfySdqmEJwVqwS-FL_huxFp7oVaHSlTW9ytt7clYGlbDy9fUaQqsEjuid5e_JgVFPa-by_xiucH-yc5w-XCTJj-Up8wQDCmTE5EBqkN6Tro897fkGrUUDorv7Bxbm7rQS2uHRJ8xwaYoEOCpOsiUjc5cNR12EXT86vj_fJNVXhkZMc0dV1Kk46smHxOcqAeSRjeoGZzeDxTX544NsoUNEOZxfZyWKE6RNXSeurG27O0cyWcqHeEB-MH-U7aHxxtyThWF_GKQRSCT41iRGpV5Lk9o2uu1ooM7NXGIAnpCGu16imp4Y541z2imnZrz-kiZjJCU0N0WnUQY4mYEZGXsdelI1vP1_g2gqg0X2wcaNnzGqv3kkj5De3Q3XRcd0THzotDnQIHIl0FbeBW2_CltqlbX0gkpGCc2jkEFs_73VoRJRkWEMOO-vGoZJLpaXdvfp6GThtZDsJwTpO0W7sYo9R9dZW2YskZXY0StIYoJmtg4xu59N9NDFA_3ZJ0SmGZBBuMIly8CqmZKkRcNRfH9LpKrXlw0u_f83z13gmE6TZaAXy0qz9OWWHQS_qyvsZ94C00FHniExBwtrBCHRVrk90qQ5yPxKw309ry-xHF9xJwgm5MgAdJlFGK_0qwMIO_50hvsY6jsDgyPgyzU1plq09CmfizkTcT-i5df463tw7FBb-nwn1Ff4PkC-W-hK6ZlSHNCdtfSZHwyhRhtN0yO_m40?></g></svg>